{
	"asset":{
		"generator":"Khronos glTF Blender I/O v4.5.15",
		"version":"2.0"
	},
	"scene":0,
	"scenes":[
		{
			"extras":{
				"gltfIOGodotAssetProperties":{
					"export_type":2,
					"root_type":1,
					"append_parent_collection":1,
					"asset_name":"SL-world-utility"
				},
				"asset_type":"ASSET",
				"root_type":"STATIC",
				"asset_id":"b24526db0972b38c"
			},
			"name":"SL-world-utility",
			"nodes":[
				0,
				1,
				2
			]
		}
	],
	"nodes":[
		{
			"name":"HLP-camera_marker_intro_01",
			"translation":[
				-3.056929349899292,
				6.371230602264404,
				6.816078186035156
			]
		},
		{
			"name":"HLP-camera_marker_intro_02",
			"translation":[
				-0.036483824253082275,
				6.371229648590088,
				6.832208633422852
			]
		},
		{
			"extras":{
				"collision_info":{
					"type":"MESH",
					"concave":true
				},
				"visibility_info":{
					"shadow":false
				}
			},
			"mesh":0,
			"name":"COL-level_boundary",
			"translation":[
				12.54417896270752,
				-0.25995635986328125,
				29.8170223236084
			]
		}
	],
	"meshes":[
		{
			"name":"COL-level_boundary",
			"primitives":[
				{
					"attributes":{
						"POSITION":0,
						"NORMAL":1
					},
					"indices":2
				}
			]
		}
	],
	"accessors":[
		{
			"bufferView":0,
			"componentType":5126,
			"count":142,
			"max":[
				67.81236267089844,
				11.259956359863281,
				54.33680725097656
			],
			"min":[
				-98.81715393066406,
				0.25995633006095886,
				-81.60273742675781
			],
			"type":"VEC3"
		},
		{
			"bufferView":1,
			"componentType":5126,
			"count":142,
			"type":"VEC3"
		},
		{
			"bufferView":2,
			"componentType":5123,
			"count":426,
			"type":"SCALAR"
		}
	],
	"bufferViews":[
		{
			"buffer":0,
			"byteLength":1704,
			"byteOffset":0,
			"target":34962
		},
		{
			"buffer":0,
			"byteLength":1704,
			"byteOffset":1704,
			"target":34962
		},
		{
			"buffer":0,
			"byteLength":852,
			"byteOffset":3408,
			"target":34963
		}
	],
	"buffers":[
		{
			"byteLength":4260,
			"uri":"SL-world-utility.bin"
		}
	]
}
