{
    "asset": {
        "generator": "Khronos glTF Blender I/O v4.5.15",
        "version": "2.0"
    },
    "scene": 0,
    "scenes": [
        {
            "extras": {
                "gltfIOGodotAssetProperties": {
                    "export_type": 2,
                    "root_type": 1,
                    "append_parent_collection": 1,
                    "asset_name": "LI-pine_knothole_003"
                },
                "asset_type": "ASSET",
                "root_type": "STATIC",
                "asset_id": "f8e59c944b01f3b7"
            },
            "name": "LI-pine_knothole_003",
            "nodes": [
                0,
                1
            ]
        }
    ],
    "nodes": [
        {
            "extras": {
                "ant_landscape": {}
            },
            "mesh": 0,
            "name": "GEO-knothole_003",
            "rotation": [
                0.7071068286895752,
                0,
                0,
                0.7071068286895752
            ]
        },
        {
            "name": "Lattice.018",
            "scale": [
                0.5413225293159485,
                0.5834168195724487,
                0.14942747354507446
            ]
        }
    ],
    "materials": [
        {
            "alphaMode": "BLEND",
            "doubleSided": true,
            "emissiveFactor": [
                1,
                1,
                1
            ],
            "extras": {
                "asset_id": "951b5332f3084fef",
                "material_info": {
                    "albedo_color": [
                        1.0,
                        1.0,
                        1.0,
                        1.0
                    ],
                    "alpha": 1.0,
                    "edge_alpha": 1.0,
                    "alpha_influence": 0.0,
                    "backface_color": 0.0,
                    "roughness": 0.7872928380966187,
                    "metallic": 0.0,
                    "displacement_strength": 0.0,
                    "displacement_scale": 1.0,
                    "paper_color": [
                        1.0,
                        1.0,
                        1.0,
                        1.0
                    ],
                    "wear_strength": 0.2601476013660431,
                    "wear_start": 0.07000000029802322,
                    "wear_end": 1.0,
                    "wear_distortion_strength": 0.5,
                    "wear_distortion_scale": 128.0,
                    "emission_color": [
                        1.0,
                        1.0,
                        1.0,
                        1.0
                    ],
                    "emission_strength": 0.0,
                    "normal_strength": 0.15000000596046448,
                    "normal_use_uv2": 0.0
                }
            },
            "name": "pines_knotholes_albedo",
            "normalTexture": {
                "index": 0
            },
            "pbrMetallicRoughness": {
                "baseColorTexture": {
                    "index": 1
                }
            }
        }
    ],
    "meshes": [
        {
            "name": "pines_knotholes_albedo.003",
            "primitives": [
                {
                    "attributes": {
                        "POSITION": 0,
                        "NORMAL": 1,
                        "TEXCOORD_0": 2,
                        "COLOR_0": 3,
                        "COLOR_1": 4,
                        "COLOR_2": 5
                    },
                    "indices": 6,
                    "material": 0
                }
            ]
        }
    ],
    "textures": [
        {
            "sampler": 0,
            "source": 0
        },
        {
            "sampler": 1,
            "source": 1
        }
    ],
    "images": [
        {
            "extras": {
                "source_path": "assets/textures/paper_rough_medium-normal.png"
            },
            "mimeType": "image/png",
            "name": "paper_rough_medium-normal",
            "uri": "../../../textures/paper_rough_medium-normal.png"
        },
        {
            "extras": {
                "source_path": "assets/lib/textures/pines_knotholes_albedo.png"
            },
            "mimeType": "image/png",
            "name": "pines_knotholes_albedo",
            "uri": "../../textures/pines_knotholes_albedo.png"
        }
    ],
    "accessors": [
        {
            "bufferView": 0,
            "componentType": 5126,
            "count": 242,
            "max": [
                0.18696358799934387,
                0.022031420841813087,
                0.26266998052597046
            ],
            "min": [
                -0.20919068157672882,
                -0.13235341012477875,
                -0.27885761857032776
            ],
            "type": "VEC3"
        },
        {
            "bufferView": 1,
            "componentType": 5126,
            "count": 242,
            "type": "VEC3"
        },
        {
            "bufferView": 2,
            "componentType": 5126,
            "count": 242,
            "type": "VEC2"
        },
        {
            "bufferView": 3,
            "componentType": 5123,
            "count": 242,
            "normalized": true,
            "type": "VEC4"
        },
        {
            "bufferView": 4,
            "componentType": 5123,
            "count": 242,
            "normalized": true,
            "type": "VEC4"
        },
        {
            "bufferView": 5,
            "componentType": 5123,
            "count": 242,
            "normalized": true,
            "type": "VEC4"
        },
        {
            "bufferView": 6,
            "componentType": 5123,
            "count": 1041,
            "type": "SCALAR"
        }
    ],
    "bufferViews": [
        {
            "buffer": 0,
            "byteLength": 2904,
            "byteOffset": 0,
            "target": 34962
        },
        {
            "buffer": 0,
            "byteLength": 2904,
            "byteOffset": 2904,
            "target": 34962
        },
        {
            "buffer": 0,
            "byteLength": 1936,
            "byteOffset": 5808,
            "target": 34962
        },
        {
            "buffer": 0,
            "byteLength": 1936,
            "byteOffset": 7744,
            "target": 34962
        },
        {
            "buffer": 0,
            "byteLength": 1936,
            "byteOffset": 9680,
            "target": 34962
        },
        {
            "buffer": 0,
            "byteLength": 1936,
            "byteOffset": 11616,
            "target": 34962
        },
        {
            "buffer": 0,
            "byteLength": 2082,
            "byteOffset": 13552,
            "target": 34963
        }
    ],
    "samplers": [
        {
            "magFilter": 9729,
            "minFilter": 9987
        },
        {
            "magFilter": 9729,
            "minFilter": 9987,
            "wrapS": 33071,
            "wrapT": 33071
        }
    ],
    "buffers": [
        {
            "byteLength": 15636,
            "uri": "LI-pine_knothole_003.bin"
        }
    ]
}