{
    "asset": {
        "generator": "Khronos glTF Blender I/O v4.5.15",
        "version": "2.0"
    },
    "scene": 0,
    "scenes": [
        {
            "extras": {
                "gltfIOGodotAssetProperties": {
                    "export_type": 2,
                    "root_type": 1,
                    "append_parent_collection": 1,
                    "asset_name": "LI-pine_knothole_002"
                },
                "asset_type": "ASSET",
                "root_type": "STATIC",
                "asset_id": "b68e6acd42c5ee7d"
            },
            "name": "LI-pine_knothole_002",
            "nodes": [
                0,
                1
            ]
        }
    ],
    "nodes": [
        {
            "extras": {
                "ant_landscape": {}
            },
            "mesh": 0,
            "name": "GEO-knothole_002",
            "scale": [
                1.2673254013061523,
                1.2673254013061523,
                1.2673254013061523
            ]
        },
        {
            "name": "Lattice.016",
            "scale": [
                0.5277310609817505,
                0.5714510083198547,
                0.15381622314453125
            ]
        }
    ],
    "materials": [
        {
            "alphaMode": "BLEND",
            "doubleSided": true,
            "emissiveFactor": [
                1,
                1,
                1
            ],
            "extras": {
                "asset_id": "951b5332f3084fef",
                "material_info": {
                    "albedo_color": [
                        1.0,
                        1.0,
                        1.0,
                        1.0
                    ],
                    "alpha": 1.0,
                    "edge_alpha": 1.0,
                    "alpha_influence": 0.0,
                    "backface_color": 0.0,
                    "roughness": 0.7872928380966187,
                    "metallic": 0.0,
                    "displacement_strength": 0.0,
                    "displacement_scale": 1.0,
                    "paper_color": [
                        1.0,
                        1.0,
                        1.0,
                        1.0
                    ],
                    "wear_strength": 0.2601476013660431,
                    "wear_start": 0.07000000029802322,
                    "wear_end": 1.0,
                    "wear_distortion_strength": 0.5,
                    "wear_distortion_scale": 128.0,
                    "emission_color": [
                        1.0,
                        1.0,
                        1.0,
                        1.0
                    ],
                    "emission_strength": 0.0,
                    "normal_strength": 0.15000000596046448,
                    "normal_use_uv2": 0.0
                }
            },
            "name": "pines_knotholes_albedo",
            "normalTexture": {
                "index": 0
            },
            "pbrMetallicRoughness": {
                "baseColorTexture": {
                    "index": 1
                }
            }
        }
    ],
    "meshes": [
        {
            "name": "pines_knotholes_albedo.002",
            "primitives": [
                {
                    "attributes": {
                        "POSITION": 0,
                        "NORMAL": 1,
                        "TEXCOORD_0": 2,
                        "COLOR_0": 3,
                        "COLOR_1": 4,
                        "COLOR_2": 5
                    },
                    "indices": 6,
                    "material": 0
                }
            ]
        }
    ],
    "textures": [
        {
            "sampler": 0,
            "source": 0
        },
        {
            "sampler": 1,
            "source": 1
        }
    ],
    "images": [
        {
            "extras": {
                "source_path": "assets/textures/paper_rough_medium-normal.png"
            },
            "mimeType": "image/png",
            "name": "paper_rough_medium-normal",
            "uri": "../../../textures/paper_rough_medium-normal.png"
        },
        {
            "extras": {
                "source_path": "assets/lib/textures/pines_knotholes_albedo.png"
            },
            "mimeType": "image/png",
            "name": "pines_knotholes_albedo",
            "uri": "../../textures/pines_knotholes_albedo.png"
        }
    ],
    "accessors": [
        {
            "bufferView": 0,
            "componentType": 5126,
            "count": 244,
            "max": [
                0.14923925697803497,
                0.2344416230916977,
                0.04731150344014168
            ],
            "min": [
                -0.18295606970787048,
                -0.2215532660484314,
                -0.09806001931428909
            ],
            "type": "VEC3"
        },
        {
            "bufferView": 1,
            "componentType": 5126,
            "count": 244,
            "type": "VEC3"
        },
        {
            "bufferView": 2,
            "componentType": 5126,
            "count": 244,
            "type": "VEC2"
        },
        {
            "bufferView": 3,
            "componentType": 5123,
            "count": 244,
            "normalized": true,
            "type": "VEC4"
        },
        {
            "bufferView": 4,
            "componentType": 5123,
            "count": 244,
            "normalized": true,
            "type": "VEC4"
        },
        {
            "bufferView": 5,
            "componentType": 5123,
            "count": 244,
            "normalized": true,
            "type": "VEC4"
        },
        {
            "bufferView": 6,
            "componentType": 5123,
            "count": 1047,
            "type": "SCALAR"
        }
    ],
    "bufferViews": [
        {
            "buffer": 0,
            "byteLength": 2928,
            "byteOffset": 0,
            "target": 34962
        },
        {
            "buffer": 0,
            "byteLength": 2928,
            "byteOffset": 2928,
            "target": 34962
        },
        {
            "buffer": 0,
            "byteLength": 1952,
            "byteOffset": 5856,
            "target": 34962
        },
        {
            "buffer": 0,
            "byteLength": 1952,
            "byteOffset": 7808,
            "target": 34962
        },
        {
            "buffer": 0,
            "byteLength": 1952,
            "byteOffset": 9760,
            "target": 34962
        },
        {
            "buffer": 0,
            "byteLength": 1952,
            "byteOffset": 11712,
            "target": 34962
        },
        {
            "buffer": 0,
            "byteLength": 2094,
            "byteOffset": 13664,
            "target": 34963
        }
    ],
    "samplers": [
        {
            "magFilter": 9729,
            "minFilter": 9987
        },
        {
            "magFilter": 9729,
            "minFilter": 9987,
            "wrapS": 33071,
            "wrapT": 33071
        }
    ],
    "buffers": [
        {
            "byteLength": 15760,
            "uri": "LI-pine_knothole_002.bin"
        }
    ]
}