{
    "asset": {
        "generator": "Khronos glTF Blender I/O v4.5.15",
        "version": "2.0"
    },
    "scene": 0,
    "scenes": [
        {
            "extras": {
                "gltfIOGodotAssetProperties": {
                    "export_type": 2,
                    "root_type": 1,
                    "append_parent_collection": 1,
                    "asset_name": "LI-birch_outgrowth_002"
                },
                "asset_type": "ASSET",
                "root_type": "STATIC",
                "asset_id": "194b3426792d5b89"
            },
            "name": "LI-birch_outgrowth_002",
            "nodes": [
                0,
                1,
                2,
                3,
                4,
                5,
                6,
                7
            ]
        }
    ],
    "nodes": [
        {
            "extras": {
                "ant_landscape": {}
            },
            "mesh": 0,
            "name": "GEO-birch_outgrowth_002"
        },
        {
            "extras": {
                "instance_asset_id": "d5bf525176cbfe10"
            },
            "name": "LI-birch_branch_006.004",
            "rotation": [
                -0.17706647515296936,
                0.7792946696281433,
                0.5963069796562195,
                0.07592963427305222
            ],
            "scale": [
                0.9034796357154846,
                0.9034796357154846,
                0.9034796357154846
            ],
            "translation": [
                0.004200187511742115,
                1.1664893627166748,
                0.07672005891799927
            ]
        },
        {
            "extras": {
                "instance_asset_id": "62655acd1659068e"
            },
            "name": "LI-birch_branch_007.002",
            "rotation": [
                -0.5988900065422058,
                -0.03360607475042343,
                0.3644457757472992,
                0.712306559085846
            ],
            "translation": [
                -0.2673422396183014,
                0.915946364402771,
                0.27243030071258545
            ]
        },
        {
            "extras": {
                "booleans": {},
                "ant_landscape": {},
                "collision_info": {
                    "type": "PRIMITIVE",
                    "shape": 3,
                    "radius": 0.25,
                    "height": 2.0,
                    "size": [
                        1.0,
                        1.0,
                        1.0
                    ]
                }
            },
            "name": "COL-birch_outgrowth_002",
            "translation": [
                0.002398714190348983,
                0.9721567034721375,
                0.016790999099612236
            ]
        },
        {
            "extras": {
                "ant_landscape": {}
            },
            "name": "HLP-leash_point.150",
            "translation": [
                0.04926689714193344,
                0.4109526574611664,
                0.21158161759376526
            ]
        },
        {
            "extras": {
                "ant_landscape": {}
            },
            "name": "HLP-leash_point.151",
            "translation": [
                -0.134484201669693,
                0.4109526574611664,
                0.20446676015853882
            ]
        },
        {
            "extras": {
                "ant_landscape": {}
            },
            "name": "HLP-leash_point.156",
            "translation": [
                -0.13979928195476532,
                0.4109526574611664,
                -0.034058935940265656
            ]
        },
        {
            "extras": {
                "ant_landscape": {}
            },
            "name": "HLP-leash_point.157",
            "translation": [
                0.03046087734401226,
                0.4109526574611664,
                0.01962948404252529
            ]
        }
    ],
    "materials": [
        {
            "alphaMode": "BLEND",
            "doubleSided": true,
            "emissiveFactor": [
                1,
                1,
                1
            ],
            "extras": {
                "material_info": {
                    "albedo_color": [
                        1.0,
                        1.0,
                        1.0,
                        1.0
                    ],
                    "alpha": 1.0,
                    "edge_alpha": 1.0,
                    "alpha_influence": 0.0,
                    "backface_color": 0.0,
                    "metallic": 0.0,
                    "displacement_strength": 0.0,
                    "displacement_scale": 1.0,
                    "paper_color": [
                        0.9063391089439392,
                        0.8076674938201904,
                        0.662623941898346,
                        1.0
                    ],
                    "wear_strength": 1.0,
                    "wear_start": 0.3700000047683716,
                    "wear_end": 1.0,
                    "wear_distortion_strength": 0.7000000476837158,
                    "wear_distortion_scale": 200.0,
                    "emission_color": [
                        1.0,
                        1.0,
                        1.0,
                        1.0
                    ],
                    "emission_strength": 0.0,
                    "normal_strength": 0.20000000298023224,
                    "normal_use_uv2": 1.0
                },
                "asset_id": "5314e9e53b2ce6c1"
            },
            "name": "birch_tree_outgrowths",
            "normalTexture": {
                "index": 0,
                "texCoord": 1
            },
            "pbrMetallicRoughness": {
                "baseColorTexture": {
                    "index": 1
                },
                "metallicRoughnessTexture": {
                    "index": 2
                }
            }
        }
    ],
    "meshes": [
        {
            "name": "NurbsPath.002",
            "primitives": [
                {
                    "attributes": {
                        "POSITION": 0,
                        "NORMAL": 1,
                        "TEXCOORD_0": 2,
                        "TEXCOORD_1": 3,
                        "COLOR_0": 4
                    },
                    "indices": 5,
                    "material": 0
                }
            ]
        }
    ],
    "textures": [
        {
            "sampler": 0,
            "source": 0
        },
        {
            "sampler": 0,
            "source": 1
        },
        {
            "sampler": 0,
            "source": 2
        }
    ],
    "images": [
        {
            "extras": {
                "source_path": "assets/textures/paper_rough_256.png"
            },
            "mimeType": "image/png",
            "name": "paper_rough_256",
            "uri": "../../../textures/paper_rough_256.png"
        },
        {
            "extras": {
                "source_path": "assets/lib/textures/birch_tree_albedo_01.png"
            },
            "mimeType": "image/png",
            "name": "birch_tree_albedo_01",
            "uri": "../../textures/birch_tree_albedo_01.png"
        },
        {
            "extras": {
                "source_path": "assets/lib/textures/birch_tree_roughness_01.png"
            },
            "mimeType": "image/png",
            "name": "birch_tree_roughness_01",
            "uri": "../../textures/birch_tree_roughness_01.png"
        }
    ],
    "accessors": [
        {
            "bufferView": 0,
            "componentType": 5126,
            "count": 215,
            "max": [
                0.06169185787439346,
                1.2892192602157593,
                0.31654199957847595
            ],
            "min": [
                -0.3042333722114563,
                -0.014865179546177387,
                -0.06031140685081482
            ],
            "type": "VEC3"
        },
        {
            "bufferView": 1,
            "componentType": 5126,
            "count": 215,
            "type": "VEC3"
        },
        {
            "bufferView": 2,
            "componentType": 5126,
            "count": 215,
            "type": "VEC2"
        },
        {
            "bufferView": 3,
            "componentType": 5126,
            "count": 215,
            "type": "VEC2"
        },
        {
            "bufferView": 4,
            "componentType": 5123,
            "count": 215,
            "normalized": true,
            "type": "VEC4"
        },
        {
            "bufferView": 5,
            "componentType": 5123,
            "count": 1086,
            "type": "SCALAR"
        }
    ],
    "bufferViews": [
        {
            "buffer": 0,
            "byteLength": 2580,
            "byteOffset": 0,
            "target": 34962
        },
        {
            "buffer": 0,
            "byteLength": 2580,
            "byteOffset": 2580,
            "target": 34962
        },
        {
            "buffer": 0,
            "byteLength": 1720,
            "byteOffset": 5160,
            "target": 34962
        },
        {
            "buffer": 0,
            "byteLength": 1720,
            "byteOffset": 6880,
            "target": 34962
        },
        {
            "buffer": 0,
            "byteLength": 1720,
            "byteOffset": 8600,
            "target": 34962
        },
        {
            "buffer": 0,
            "byteLength": 2172,
            "byteOffset": 10320,
            "target": 34963
        }
    ],
    "samplers": [
        {
            "magFilter": 9729,
            "minFilter": 9987
        }
    ],
    "buffers": [
        {
            "byteLength": 12492,
            "uri": "LI-birch_outgrowth_002.bin"
        }
    ]
}