{
    "asset": {
        "generator": "Khronos glTF Blender I/O v4.5.15",
        "version": "2.0"
    },
    "scene": 0,
    "scenes": [
        {
            "extras": {
                "gltfIOGodotAssetProperties": {
                    "export_type": 2,
                    "root_type": 1,
                    "append_parent_collection": 1,
                    "asset_name": "LI-birch_outgrowth_003"
                },
                "asset_type": "ASSET",
                "root_type": "STATIC",
                "asset_id": "cc7e543eee7da945"
            },
            "name": "LI-birch_outgrowth_003",
            "nodes": [
                0,
                1,
                2,
                3
            ]
        }
    ],
    "nodes": [
        {
            "extras": {
                "ant_landscape": {}
            },
            "mesh": 0,
            "name": "GEO-birch_outgrowth_003"
        },
        {
            "extras": {
                "instance_asset_id": "050d1b2c82f03a7e"
            },
            "name": "LI-birch_branch_010.005",
            "rotation": [
                -0.3269755244255066,
                -0.018348252400755882,
                0.012366976588964462,
                0.9447737336158752
            ],
            "scale": [
                0.9564112424850464,
                0.9564113616943359,
                0.9564112424850464
            ],
            "translation": [
                0.3976099491119385,
                0.6404967904090881,
                0.6876529455184937
            ]
        },
        {
            "extras": {
                "instance_asset_id": "18a24b219451c68a"
            },
            "name": "LI-birch_branch_011.005",
            "rotation": [
                -0.5076788067817688,
                0.6374133229255676,
                0.1617795079946518,
                0.556591272354126
            ],
            "translation": [
                0.48471471667289734,
                0.5375217795372009,
                0.36586374044418335
            ]
        },
        {
            "extras": {
                "instance_asset_id": "f00d1db7f3d6fe20"
            },
            "name": "LI-birch_branch_004.006",
            "rotation": [
                -0.574246883392334,
                -0.12658153474330902,
                -0.08319661021232605,
                0.8045471906661987
            ],
            "scale": [
                1.2000001668930054,
                1.2000000476837158,
                1.2000001668930054
            ],
            "translation": [
                -0.14870980381965637,
                0.3747437000274658,
                0.5542182922363281
            ]
        }
    ],
    "materials": [
        {
            "alphaMode": "BLEND",
            "doubleSided": true,
            "emissiveFactor": [
                1,
                1,
                1
            ],
            "extras": {
                "material_info": {
                    "albedo_color": [
                        1.0,
                        1.0,
                        1.0,
                        1.0
                    ],
                    "alpha": 1.0,
                    "edge_alpha": 1.0,
                    "alpha_influence": 0.0,
                    "backface_color": 0.0,
                    "metallic": 0.0,
                    "displacement_strength": 0.0,
                    "displacement_scale": 1.0,
                    "paper_color": [
                        0.9063391089439392,
                        0.8076674938201904,
                        0.662623941898346,
                        1.0
                    ],
                    "wear_strength": 1.0,
                    "wear_start": 0.3700000047683716,
                    "wear_end": 1.0,
                    "wear_distortion_strength": 0.7000000476837158,
                    "wear_distortion_scale": 200.0,
                    "emission_color": [
                        1.0,
                        1.0,
                        1.0,
                        1.0
                    ],
                    "emission_strength": 0.0,
                    "normal_strength": 0.20000000298023224,
                    "normal_use_uv2": 1.0
                },
                "asset_id": "5314e9e53b2ce6c1"
            },
            "name": "birch_tree_outgrowths",
            "normalTexture": {
                "index": 0,
                "texCoord": 1
            },
            "pbrMetallicRoughness": {
                "baseColorTexture": {
                    "index": 1
                },
                "metallicRoughnessTexture": {
                    "index": 2
                }
            }
        }
    ],
    "meshes": [
        {
            "name": "NurbsPath.003",
            "primitives": [
                {
                    "attributes": {
                        "POSITION": 0,
                        "NORMAL": 1,
                        "TEXCOORD_0": 2,
                        "TEXCOORD_1": 3,
                        "COLOR_0": 4
                    },
                    "indices": 5,
                    "material": 0
                }
            ]
        }
    ],
    "textures": [
        {
            "sampler": 0,
            "source": 0
        },
        {
            "sampler": 0,
            "source": 1
        },
        {
            "sampler": 0,
            "source": 2
        }
    ],
    "images": [
        {
            "extras": {
                "source_path": "assets/textures/paper_rough_256.png"
            },
            "mimeType": "image/png",
            "name": "paper_rough_256",
            "uri": "../../../textures/paper_rough_256.png"
        },
        {
            "extras": {
                "source_path": "assets/lib/textures/birch_tree_albedo_01.png"
            },
            "mimeType": "image/png",
            "name": "birch_tree_albedo_01",
            "uri": "../../textures/birch_tree_albedo_01.png"
        },
        {
            "extras": {
                "source_path": "assets/lib/textures/birch_tree_roughness_01.png"
            },
            "mimeType": "image/png",
            "name": "birch_tree_roughness_01",
            "uri": "../../textures/birch_tree_roughness_01.png"
        }
    ],
    "accessors": [
        {
            "bufferView": 0,
            "componentType": 5126,
            "count": 272,
            "max": [
                0.504398763179779,
                0.7840576171875,
                0.7866047024726868
            ],
            "min": [
                -0.16620025038719177,
                -0.05129491910338402,
                -0.020157624036073685
            ],
            "type": "VEC3"
        },
        {
            "bufferView": 1,
            "componentType": 5126,
            "count": 272,
            "type": "VEC3"
        },
        {
            "bufferView": 2,
            "componentType": 5126,
            "count": 272,
            "type": "VEC2"
        },
        {
            "bufferView": 3,
            "componentType": 5126,
            "count": 272,
            "type": "VEC2"
        },
        {
            "bufferView": 4,
            "componentType": 5123,
            "count": 272,
            "normalized": true,
            "type": "VEC4"
        },
        {
            "bufferView": 5,
            "componentType": 5123,
            "count": 1323,
            "type": "SCALAR"
        }
    ],
    "bufferViews": [
        {
            "buffer": 0,
            "byteLength": 3264,
            "byteOffset": 0,
            "target": 34962
        },
        {
            "buffer": 0,
            "byteLength": 3264,
            "byteOffset": 3264,
            "target": 34962
        },
        {
            "buffer": 0,
            "byteLength": 2176,
            "byteOffset": 6528,
            "target": 34962
        },
        {
            "buffer": 0,
            "byteLength": 2176,
            "byteOffset": 8704,
            "target": 34962
        },
        {
            "buffer": 0,
            "byteLength": 2176,
            "byteOffset": 10880,
            "target": 34962
        },
        {
            "buffer": 0,
            "byteLength": 2646,
            "byteOffset": 13056,
            "target": 34963
        }
    ],
    "samplers": [
        {
            "magFilter": 9729,
            "minFilter": 9987
        }
    ],
    "buffers": [
        {
            "byteLength": 15704,
            "uri": "LI-birch_outgrowth_003.bin"
        }
    ]
}