{
    "asset": {
        "generator": "Khronos glTF Blender I/O v4.5.15",
        "version": "2.0"
    },
    "scene": 0,
    "scenes": [
        {
            "extras": {
                "gltfIOGodotAssetProperties": {
                    "export_type": 2,
                    "root_type": 1,
                    "append_parent_collection": 1,
                    "asset_name": "LI-birch_outgrowth_001"
                },
                "asset_type": "ASSET",
                "root_type": "STATIC",
                "asset_id": "8a9566cc4d0a4b40"
            },
            "name": "LI-birch_outgrowth_001",
            "nodes": [
                0,
                1
            ]
        }
    ],
    "nodes": [
        {
            "extras": {
                "ant_landscape": {}
            },
            "mesh": 0,
            "name": "GEO-birch_outgrowth_001"
        },
        {
            "extras": {
                "instance_asset_id": "a44da2fbf036362e"
            },
            "name": "LI-birch_branch_008.004",
            "rotation": [
                -0.6621884107589722,
                0.043098174035549164,
                -0.007903520949184895,
                0.7480552792549133
            ],
            "scale": [
                1.3000001907348633,
                1.2999999523162842,
                1.3000000715255737
            ],
            "translation": [
                -0.2056463360786438,
                1.2127628326416016,
                1.0295099020004272
            ]
        }
    ],
    "materials": [
        {
            "alphaMode": "BLEND",
            "doubleSided": true,
            "emissiveFactor": [
                1,
                1,
                1
            ],
            "extras": {
                "material_info": {
                    "albedo_color": [
                        1.0,
                        1.0,
                        1.0,
                        1.0
                    ],
                    "alpha": 1.0,
                    "edge_alpha": 1.0,
                    "alpha_influence": 0.0,
                    "backface_color": 0.0,
                    "metallic": 0.0,
                    "displacement_strength": 0.0,
                    "displacement_scale": 1.0,
                    "paper_color": [
                        0.9063391089439392,
                        0.8076674938201904,
                        0.662623941898346,
                        1.0
                    ],
                    "wear_strength": 1.0,
                    "wear_start": 0.3700000047683716,
                    "wear_end": 1.0,
                    "wear_distortion_strength": 0.7000000476837158,
                    "wear_distortion_scale": 200.0,
                    "emission_color": [
                        1.0,
                        1.0,
                        1.0,
                        1.0
                    ],
                    "emission_strength": 0.0,
                    "normal_strength": 0.20000000298023224,
                    "normal_use_uv2": 1.0
                },
                "asset_id": "5314e9e53b2ce6c1"
            },
            "name": "birch_tree_outgrowths",
            "normalTexture": {
                "index": 0,
                "texCoord": 1
            },
            "pbrMetallicRoughness": {
                "baseColorTexture": {
                    "index": 1
                },
                "metallicRoughnessTexture": {
                    "index": 2
                }
            }
        }
    ],
    "meshes": [
        {
            "name": "NurbsPath.032",
            "primitives": [
                {
                    "attributes": {
                        "POSITION": 0,
                        "NORMAL": 1,
                        "TEXCOORD_0": 2,
                        "TEXCOORD_1": 3,
                        "COLOR_0": 4
                    },
                    "indices": 5,
                    "material": 0
                }
            ]
        }
    ],
    "textures": [
        {
            "sampler": 0,
            "source": 0
        },
        {
            "sampler": 0,
            "source": 1
        },
        {
            "sampler": 0,
            "source": 2
        }
    ],
    "images": [
        {
            "extras": {
                "source_path": "assets/textures/paper_rough_256.png"
            },
            "mimeType": "image/png",
            "name": "paper_rough_256",
            "uri": "../../../textures/paper_rough_256.png"
        },
        {
            "extras": {
                "source_path": "assets/lib/textures/birch_tree_albedo_01.png"
            },
            "mimeType": "image/png",
            "name": "birch_tree_albedo_01",
            "uri": "../../textures/birch_tree_albedo_01.png"
        },
        {
            "extras": {
                "source_path": "assets/lib/textures/birch_tree_roughness_01.png"
            },
            "mimeType": "image/png",
            "name": "birch_tree_roughness_01",
            "uri": "../../textures/birch_tree_roughness_01.png"
        }
    ],
    "accessors": [
        {
            "bufferView": 0,
            "componentType": 5126,
            "count": 106,
            "max": [
                0.06150241196155548,
                1.2843756675720215,
                1.0521211624145508
            ],
            "min": [
                -0.22951294481754303,
                -0.06354493647813797,
                -0.008478927426040173
            ],
            "type": "VEC3"
        },
        {
            "bufferView": 1,
            "componentType": 5126,
            "count": 106,
            "type": "VEC3"
        },
        {
            "bufferView": 2,
            "componentType": 5126,
            "count": 106,
            "type": "VEC2"
        },
        {
            "bufferView": 3,
            "componentType": 5126,
            "count": 106,
            "type": "VEC2"
        },
        {
            "bufferView": 4,
            "componentType": 5123,
            "count": 106,
            "normalized": true,
            "type": "VEC4"
        },
        {
            "bufferView": 5,
            "componentType": 5123,
            "count": 522,
            "type": "SCALAR"
        }
    ],
    "bufferViews": [
        {
            "buffer": 0,
            "byteLength": 1272,
            "byteOffset": 0,
            "target": 34962
        },
        {
            "buffer": 0,
            "byteLength": 1272,
            "byteOffset": 1272,
            "target": 34962
        },
        {
            "buffer": 0,
            "byteLength": 848,
            "byteOffset": 2544,
            "target": 34962
        },
        {
            "buffer": 0,
            "byteLength": 848,
            "byteOffset": 3392,
            "target": 34962
        },
        {
            "buffer": 0,
            "byteLength": 848,
            "byteOffset": 4240,
            "target": 34962
        },
        {
            "buffer": 0,
            "byteLength": 1044,
            "byteOffset": 5088,
            "target": 34963
        }
    ],
    "samplers": [
        {
            "magFilter": 9729,
            "minFilter": 9987
        }
    ],
    "buffers": [
        {
            "byteLength": 6132,
            "uri": "LI-birch_outgrowth_001.bin"
        }
    ]
}