{
    "asset": {
        "generator": "Khronos glTF Blender I/O v4.5.15",
        "version": "2.0"
    },
    "scene": 0,
    "scenes": [
        {
            "extras": {
                "gltfIOGodotAssetProperties": {
                    "export_type": 3,
                    "asset_name": "fish",
                    "append_parent_collection": 0
                },
                "asset_type": "CHARACTER",
                "asset_id": "eddb0002a034d9e0",
                "root_type": "NONE"
            },
            "name": "CH-fish",
            "nodes": [
                15,
                16,
                17,
                18,
                19,
                20,
                21,
                22
            ]
        }
    ],
    "nodes": [
        {
            "name": "head",
            "rotation": [
                1,
                3.3306860145344147e-16,
                -3.1391647326017846e-07,
                9.313224325069314e-08
            ],
            "translation": [
                0,
                0.001999989151954651,
                0
            ]
        },
        {
            "name": "tail2",
            "rotation": [
                3.552713678800501e-15,
                0,
                0,
                1
            ],
            "translation": [
                0,
                0.12000003457069397,
                0
            ]
        },
        {
            "children": [
                1
            ],
            "name": "tail1",
            "rotation": [
                3.552713678800501e-15,
                0,
                0,
                1
            ],
            "translation": [
                0,
                0.14000001549720764,
                0
            ]
        },
        {
            "children": [
                2
            ],
            "name": "spine3",
            "rotation": [
                3.552713678800501e-15,
                0,
                0,
                1
            ],
            "translation": [
                0,
                0.14000001549720764,
                0
            ]
        },
        {
            "children": [
                3
            ],
            "name": "spine2",
            "rotation": [
                3.552713678800501e-15,
                0,
                0,
                1
            ],
            "translation": [
                0,
                0.25999999046325684,
                0
            ]
        },
        {
            "name": "fin1-R",
            "rotation": [
                -0.10406894236803055,
                -0.08160749822854996,
                0.6042477488517761,
                0.7857446074485779
            ],
            "scale": [
                0.9999999403953552,
                0.9999998807907104,
                1
            ],
            "translation": [
                -0.05999999865889549,
                0.0899999588727951,
                -0.10000000149011612
            ]
        },
        {
            "name": "fin2-R",
            "rotation": [
                -0.03405888006091118,
                -0.054071567952632904,
                0.5454657673835754,
                0.835693359375
            ],
            "translation": [
                -0.04999999701976776,
                0.23999997973442078,
                -0.12000000476837158
            ]
        },
        {
            "name": "fin1-L",
            "rotation": [
                -0.10406894236803055,
                0.08160749822854996,
                -0.6042477488517761,
                0.7857446074485779
            ],
            "scale": [
                0.9999999403953552,
                0.9999998807907104,
                1
            ],
            "translation": [
                0.05999999865889549,
                0.0899999588727951,
                -0.10000000149011612
            ]
        },
        {
            "name": "fin2-L",
            "rotation": [
                -0.03405888006091118,
                0.054071567952632904,
                -0.5454657673835754,
                0.835693359375
            ],
            "translation": [
                0.04999999701976776,
                0.23999997973442078,
                -0.12000000476837158
            ]
        },
        {
            "name": "fin_top",
            "rotation": [
                0.6053724884986877,
                -1.6627950948159542e-23,
                -1.3441970827606398e-16,
                0.7959423065185547
            ],
            "scale": [
                1,
                1.0000001192092896,
                1.0000001192092896
            ],
            "translation": [
                3.203509377634551e-17,
                0.28925028443336487,
                0.14427323639392853
            ]
        },
        {
            "children": [
                4,
                5,
                6,
                7,
                8,
                9
            ],
            "name": "spine1",
            "rotation": [
                3.552713678800501e-15,
                0,
                0,
                1
            ],
            "translation": [
                0,
                0.001999989151954651,
                0
            ]
        },
        {
            "children": [
                0,
                10
            ],
            "name": "body",
            "rotation": [
                -0.7071067094802856,
                0,
                0,
                0.7071068286895752
            ],
            "scale": [
                1,
                0.9999999403953552,
                0.9999999403953552
            ],
            "translation": [
                -2.664535364979494e-17,
                0,
                0.15199999511241913
            ]
        },
        {
            "children": [
                11
            ],
            "name": "subroot"
        },
        {
            "children": [
                12
            ],
            "name": "root"
        },
        {
            "extras": {
                "visibility_info": {
                    "shadow": false
                }
            },
            "mesh": 0,
            "name": "GEO-fish",
            "skin": 0
        },
        {
            "children": [
                14,
                13
            ],
            "name": "RIG-fish"
        },
        {
            "extras": {
                "asset_id_owner": "Rigging",
                "transfer_data_ownership": [
                    {
                        "name": "cycles",
                        "owner": "Rigging",
                        "type": 8,
                        "surrender": 0
                    },
                    {
                        "name": "cycles_visibility",
                        "owner": "Rigging",
                        "type": 8,
                        "surrender": 0
                    },
                    {
                        "name": "Parent Relationship",
                        "owner": "Rigging",
                        "type": 7,
                        "surrender": 0
                    },
                    {
                        "name": "All Materials",
                        "owner": "Rigging",
                        "type": 4,
                        "surrender": 1
                    }
                ]
            },
            "name": "WGT-cube"
        },
        {
            "extras": {
                "asset_id_owner": "Rigging",
                "transfer_data_ownership": [
                    {
                        "name": "cycles",
                        "owner": "Rigging",
                        "type": 8,
                        "surrender": 0
                    },
                    {
                        "name": "cycles_visibility",
                        "owner": "Rigging",
                        "type": 8,
                        "surrender": 0
                    },
                    {
                        "name": "Parent Relationship",
                        "owner": "Rigging",
                        "type": 7,
                        "surrender": 0
                    },
                    {
                        "name": "All Materials",
                        "owner": "Rigging",
                        "type": 4,
                        "surrender": 1
                    }
                ]
            },
            "name": "WGT-cube_fit"
        },
        {
            "extras": {
                "asset_id_owner": "Rigging",
                "transfer_data_ownership": [
                    {
                        "name": "cycles",
                        "owner": "Rigging",
                        "type": 8,
                        "surrender": 0
                    },
                    {
                        "name": "cycles_visibility",
                        "owner": "Rigging",
                        "type": 8,
                        "surrender": 0
                    },
                    {
                        "name": "Parent Relationship",
                        "owner": "Rigging",
                        "type": 7,
                        "surrender": 0
                    },
                    {
                        "name": "All Materials",
                        "owner": "Rigging",
                        "type": 4,
                        "surrender": 1
                    },
                    {
                        "name": "UVMap",
                        "owner": "Rigging",
                        "type": 6,
                        "surrender": 1
                    }
                ]
            },
            "name": "WGT-eyes"
        },
        {
            "extras": {
                "asset_id_owner": "Rigging",
                "transfer_data_ownership": [
                    {
                        "name": "cycles_visibility",
                        "owner": "Rigging",
                        "type": 8,
                        "surrender": 0
                    },
                    {
                        "name": "cycles",
                        "owner": "Rigging",
                        "type": 8,
                        "surrender": 0
                    },
                    {
                        "name": "Parent Relationship",
                        "owner": "Rigging",
                        "type": 7,
                        "surrender": 0
                    },
                    {
                        "name": "All Materials",
                        "owner": "Rigging",
                        "type": 4,
                        "surrender": 1
                    }
                ]
            },
            "name": "WGT-root"
        },
        {
            "extras": {
                "asset_id_owner": "Rigging",
                "transfer_data_ownership": [
                    {
                        "name": "cycles",
                        "owner": "Rigging",
                        "type": 8,
                        "surrender": 0
                    },
                    {
                        "name": "cycles_visibility",
                        "owner": "Rigging",
                        "type": 8,
                        "surrender": 0
                    },
                    {
                        "name": "Parent Relationship",
                        "owner": "Rigging",
                        "type": 7,
                        "surrender": 0
                    },
                    {
                        "name": "All Materials",
                        "owner": "Rigging",
                        "type": 4,
                        "surrender": 1
                    }
                ]
            },
            "name": "WGT-sphere"
        },
        {
            "extras": {
                "asset_id_owner": "Rigging",
                "transfer_data_ownership": [
                    {
                        "name": "cycles",
                        "owner": "Rigging",
                        "type": 8,
                        "surrender": 0
                    },
                    {
                        "name": "cycles_visibility",
                        "owner": "Rigging",
                        "type": 8,
                        "surrender": 0
                    },
                    {
                        "name": "Parent Relationship",
                        "owner": "Rigging",
                        "type": 7,
                        "surrender": 0
                    },
                    {
                        "name": "All Materials",
                        "owner": "Rigging",
                        "type": 4,
                        "surrender": 1
                    }
                ]
            },
            "name": "WGT-spike"
        },
        {
            "extras": {
                "asset_id_owner": "Rigging",
                "transfer_data_ownership": [
                    {
                        "name": "cycles",
                        "owner": "Rigging",
                        "type": 8,
                        "surrender": 0
                    },
                    {
                        "name": "cycles_visibility",
                        "owner": "Rigging",
                        "type": 8,
                        "surrender": 0
                    },
                    {
                        "name": "Parent Relationship",
                        "owner": "Rigging",
                        "type": 7,
                        "surrender": 0
                    },
                    {
                        "name": "All Materials",
                        "owner": "Rigging",
                        "type": 4,
                        "surrender": 1
                    }
                ]
            },
            "name": "WGT-square"
        }
    ],
    "materials": [
        {
            "alphaMode": "BLEND",
            "doubleSided": true,
            "emissiveFactor": [
                1,
                1,
                1
            ],
            "extras": {
                "asset_id": "b162b388f53a0722",
                "material_info": {
                    "albedo_color": [
                        0.6159294843673706,
                        0.8266965746879578,
                        1.0,
                        1.0
                    ],
                    "edge_alpha": 1.0,
                    "alpha_influence": 0.0,
                    "backface_color": 1.0,
                    "roughness": 0.6854838728904724,
                    "metallic": 0.8790322542190552,
                    "displacement_strength": 0.0,
                    "displacement_scale": 1.0,
                    "paper_color": [
                        0.4025704860687256,
                        0.5710760951042175,
                        0.7116147875785828,
                        1.0
                    ],
                    "wear_strength": 0.0,
                    "wear_start": 0.0,
                    "wear_end": 1.0,
                    "wear_distortion_strength": 0.5,
                    "wear_distortion_scale": 100.0,
                    "emission_color": [
                        1.0,
                        1.0,
                        1.0,
                        1.0
                    ],
                    "emission_strength": 0.0,
                    "normal_strength": 0.12000000476837158,
                    "normal_use_uv2": 1.0
                }
            },
            "name": "fish_albedo",
            "normalTexture": {
                "index": 0,
                "texCoord": 1
            },
            "pbrMetallicRoughness": {
                "baseColorTexture": {
                    "index": 1
                }
            }
        }
    ],
    "meshes": [
        {
            "name": "fish_albedo",
            "primitives": [
                {
                    "attributes": {
                        "POSITION": 0,
                        "NORMAL": 1,
                        "TEXCOORD_0": 2,
                        "TEXCOORD_1": 3,
                        "COLOR_0": 4,
                        "COLOR_1": 5,
                        "JOINTS_0": 6,
                        "WEIGHTS_0": 7
                    },
                    "indices": 8,
                    "material": 0
                }
            ]
        }
    ],
    "textures": [
        {
            "sampler": 0,
            "source": 0
        },
        {
            "sampler": 0,
            "source": 1
        }
    ],
    "images": [
        {
            "extras": {
                "source_path": "assets/textures/paper_rough_256.png"
            },
            "mimeType": "image/png",
            "name": "paper_rough_256",
            "uri": "../../textures/paper_rough_256.png"
        },
        {
            "extras": {
                "source_path": "assets/char/fish/textures/fish_albedo.png"
            },
            "mimeType": "image/png",
            "name": "fish_albedo",
            "uri": "textures/fish_albedo.png"
        }
    ],
    "skins": [
        {
            "inverseBindMatrices": 9,
            "joints": [
                13,
                12,
                11,
                0,
                10,
                4,
                3,
                2,
                1,
                5,
                6,
                7,
                8,
                9
            ],
            "name": "RIG-fish"
        }
    ],
    "accessors": [
        {
            "bufferView": 0,
            "componentType": 5126,
            "count": 240,
            "max": [
                0.20407675206661224,
                0.2101159691810608,
                0.32227227091789246
            ],
            "min": [
                -0.20407675206661224,
                -0.1606297791004181,
                -0.6362733244895935
            ],
            "type": "VEC3"
        },
        {
            "bufferView": 1,
            "componentType": 5126,
            "count": 240,
            "type": "VEC3"
        },
        {
            "bufferView": 2,
            "componentType": 5126,
            "count": 240,
            "type": "VEC2"
        },
        {
            "bufferView": 3,
            "componentType": 5126,
            "count": 240,
            "type": "VEC2"
        },
        {
            "bufferView": 4,
            "componentType": 5121,
            "count": 240,
            "normalized": true,
            "type": "VEC4"
        },
        {
            "bufferView": 5,
            "componentType": 5123,
            "count": 240,
            "normalized": true,
            "type": "VEC4"
        },
        {
            "bufferView": 6,
            "componentType": 5121,
            "count": 240,
            "type": "VEC4"
        },
        {
            "bufferView": 7,
            "componentType": 5126,
            "count": 240,
            "type": "VEC4"
        },
        {
            "bufferView": 8,
            "componentType": 5123,
            "count": 579,
            "type": "SCALAR"
        },
        {
            "bufferView": 9,
            "componentType": 5126,
            "count": 14,
            "type": "MAT4"
        }
    ],
    "bufferViews": [
        {
            "buffer": 0,
            "byteLength": 2880,
            "byteOffset": 0,
            "target": 34962
        },
        {
            "buffer": 0,
            "byteLength": 2880,
            "byteOffset": 2880,
            "target": 34962
        },
        {
            "buffer": 0,
            "byteLength": 1920,
            "byteOffset": 5760,
            "target": 34962
        },
        {
            "buffer": 0,
            "byteLength": 1920,
            "byteOffset": 7680,
            "target": 34962
        },
        {
            "buffer": 0,
            "byteLength": 960,
            "byteOffset": 9600,
            "target": 34962
        },
        {
            "buffer": 0,
            "byteLength": 1920,
            "byteOffset": 10560,
            "target": 34962
        },
        {
            "buffer": 0,
            "byteLength": 960,
            "byteOffset": 12480,
            "target": 34962
        },
        {
            "buffer": 0,
            "byteLength": 3840,
            "byteOffset": 13440,
            "target": 34962
        },
        {
            "buffer": 0,
            "byteLength": 1158,
            "byteOffset": 17280,
            "target": 34963
        },
        {
            "buffer": 0,
            "byteLength": 896,
            "byteOffset": 18440
        }
    ],
    "samplers": [
        {
            "magFilter": 9729,
            "minFilter": 9987
        }
    ],
    "buffers": [
        {
            "byteLength": 19336,
            "uri": "fish.bin"
        }
    ]
}