{
    "asset": {
        "generator": "Khronos glTF Blender I/O v4.5.15",
        "version": "2.0"
    },
    "scene": 0,
    "scenes": [
        {
            "extras": {
                "gltfIOGodotAssetProperties": {
                    "export_type": 2,
                    "root_type": 1,
                    "append_parent_collection": 1,
                    "asset_name": "LI-stone_wall_003"
                },
                "asset_type": "ASSET",
                "root_type": "STATIC",
                "asset_id": "0444667a733e9b37"
            },
            "name": "LI-stone_wall_003",
            "nodes": [
                0,
                1,
                2
            ]
        }
    ],
    "nodes": [
        {
            "extras": {
                "ant_landscape": {},
                "booleans": {}
            },
            "mesh": 0,
            "name": "GEO-stone_wall_003",
            "scale": [
                0.9878222942352295,
                0.9878222942352295,
                0.9878222942352295
            ],
            "translation": [
                0.08514022827148438,
                -0.10225248336791992,
                0.03081989288330078
            ]
        },
        {
            "extras": {
                "ant_landscape": {},
                "booleans": {}
            },
            "mesh": 1,
            "name": "GEO-stone_wall_snow_003",
            "scale": [
                0.9878222942352295,
                0.9878222942352295,
                0.9878222942352295
            ],
            "translation": [
                0.08514022827148438,
                -0.10225248336791992,
                0.03081989288330078
            ]
        },
        {
            "extras": {
                "collision_info": {
                    "type": "MESH",
                    "concave": false
                },
                "ant_landscape": {}
            },
            "mesh": 2,
            "name": "COL-stone_wall_003",
            "translation": [
                0.08514022827148438,
                -0.10225248336791992,
                0.03081989288330078
            ]
        }
    ],
    "materials": [
        {
            "alphaMode": "BLEND",
            "doubleSided": true,
            "emissiveFactor": [
                1,
                1,
                1
            ],
            "extras": {
                "asset_id": "55cee31db7bc98ca",
                "material_info": {
                    "albedo_color": [
                        1.0,
                        1.0,
                        1.0,
                        1.0
                    ],
                    "alpha": 1.0,
                    "edge_alpha": 1.0,
                    "alpha_influence": 0.0,
                    "backface_color": 0.0,
                    "metallic": 0.0,
                    "displacement_strength": 0.0,
                    "displacement_scale": 1.0,
                    "paper_color": [
                        1.0,
                        1.0,
                        1.0,
                        1.0
                    ],
                    "wear_strength": 1.0,
                    "wear_start": 0.23000000417232513,
                    "wear_end": 1.0,
                    "wear_distortion_strength": 1.0,
                    "wear_distortion_scale": 0.010002285242080688,
                    "emission_color": [
                        1.0,
                        1.0,
                        1.0,
                        1.0
                    ],
                    "emission_strength": 0.0,
                    "normal_strength": 0.20000000298023224,
                    "normal_use_uv2": 1.0
                }
            },
            "name": "stone_wall",
            "normalTexture": {
                "index": 0,
                "texCoord": 1
            },
            "pbrMetallicRoughness": {
                "baseColorTexture": {
                    "index": 1
                },
                "metallicRoughnessTexture": {
                    "index": 2
                }
            }
        },
        {
            "alphaMode": "BLEND",
            "doubleSided": true,
            "emissiveFactor": [
                1,
                1,
                1
            ],
            "extras": {
                "asset_id": "f8d92897471b516e",
                "material_info": {
                    "albedo_color": [
                        1.0,
                        1.0,
                        1.0,
                        1.0
                    ],
                    "alpha": 1.0,
                    "edge_alpha": 1.0,
                    "alpha_influence": 0.0,
                    "backface_color": 0.0,
                    "roughness": 0.5,
                    "metallic": 0.0,
                    "displacement_strength": 0.0,
                    "displacement_scale": 1.0,
                    "paper_color": [
                        0.9929977655410767,
                        0.9929977655410767,
                        0.9929977655410767,
                        1.0
                    ],
                    "wear_strength": 0.0,
                    "wear_start": 0.3799999952316284,
                    "wear_end": 1.0,
                    "wear_distortion_strength": 0.10000000149011612,
                    "wear_distortion_scale": 32.0,
                    "emission_color": [
                        1.0,
                        1.0,
                        1.0,
                        1.0
                    ],
                    "emission_strength": 0.0,
                    "normal_strength": 0.10000000149011612,
                    "normal_use_uv2": 1.0
                }
            },
            "name": "snow_wall_top",
            "normalTexture": {
                "index": 3,
                "texCoord": 1
            },
            "pbrMetallicRoughness": {
                "baseColorTexture": {
                    "index": 4
                }
            }
        },
        {
            "alphaMode": "BLEND",
            "doubleSided": true,
            "emissiveFactor": [
                1,
                1,
                1
            ],
            "extras": {
                "asset_id": "bb0cb28735b2bfb9",
                "material_info": {
                    "albedo_color": [
                        1.0,
                        1.0,
                        1.0,
                        1.0
                    ],
                    "alpha": 1.0,
                    "edge_alpha": 1.0,
                    "alpha_influence": 0.0,
                    "backface_color": 0.0,
                    "roughness": 0.5,
                    "metallic": 0.0,
                    "displacement_strength": 0.0,
                    "displacement_scale": 1.0,
                    "paper_color": [
                        1.0,
                        1.0,
                        1.0,
                        1.0
                    ],
                    "wear_strength": 0.0,
                    "wear_start": 0.23000000417232513,
                    "wear_end": 1.0,
                    "wear_distortion_strength": 1.0,
                    "wear_distortion_scale": 0.010002285242080688,
                    "emission_color": [
                        1.0,
                        1.0,
                        1.0,
                        1.0
                    ],
                    "emission_strength": 0.0,
                    "normal_strength": 0.10000000149011612,
                    "normal_use_uv2": 1.0
                }
            },
            "name": "snow_edge_stone_wall",
            "normalTexture": {
                "index": 5,
                "texCoord": 1
            },
            "pbrMetallicRoughness": {
                "baseColorTexture": {
                    "index": 6
                }
            }
        },
        {
            "alphaMode": "BLEND",
            "doubleSided": true,
            "emissiveFactor": [
                1,
                1,
                1
            ],
            "extras": {
                "asset_id": "55cee31db7bc98ca",
                "material_info": {
                    "albedo_color": [
                        1.0,
                        1.0,
                        1.0,
                        1.0
                    ],
                    "alpha": 1.0,
                    "edge_alpha": 1.0,
                    "alpha_influence": 0.0,
                    "backface_color": 0.0,
                    "metallic": 0.0,
                    "displacement_strength": 0.0,
                    "displacement_scale": 1.0,
                    "paper_color": [
                        1.0,
                        1.0,
                        1.0,
                        1.0
                    ],
                    "wear_strength": 1.0,
                    "wear_start": 0.23000000417232513,
                    "wear_end": 1.0,
                    "wear_distortion_strength": 1.0,
                    "wear_distortion_scale": 0.010002285242080688,
                    "emission_color": [
                        1.0,
                        1.0,
                        1.0,
                        1.0
                    ],
                    "emission_strength": 0.0,
                    "normal_strength": 0.20000000298023224,
                    "normal_use_uv2": 1.0
                }
            },
            "name": "stone_wall",
            "normalTexture": {
                "index": 0
            },
            "pbrMetallicRoughness": {
                "baseColorTexture": {
                    "index": 1
                },
                "metallicRoughnessTexture": {
                    "index": 2
                }
            }
        }
    ],
    "meshes": [
        {
            "name": "Plane.002",
            "primitives": [
                {
                    "attributes": {
                        "POSITION": 0,
                        "NORMAL": 1,
                        "TEXCOORD_0": 2,
                        "TEXCOORD_1": 3,
                        "COLOR_0": 4
                    },
                    "indices": 5,
                    "material": 0
                }
            ]
        },
        {
            "name": "Plane.017",
            "primitives": [
                {
                    "attributes": {
                        "POSITION": 6,
                        "NORMAL": 7,
                        "TEXCOORD_0": 8,
                        "TEXCOORD_1": 9,
                        "COLOR_0": 10,
                        "COLOR_1": 11
                    },
                    "indices": 12,
                    "material": 1
                },
                {
                    "attributes": {
                        "POSITION": 13,
                        "NORMAL": 14,
                        "TEXCOORD_0": 15,
                        "TEXCOORD_1": 16,
                        "COLOR_0": 17,
                        "COLOR_1": 18
                    },
                    "indices": 19,
                    "material": 2
                }
            ]
        },
        {
            "name": "Cube.002",
            "primitives": [
                {
                    "attributes": {
                        "POSITION": 20,
                        "NORMAL": 21
                    },
                    "indices": 22,
                    "material": 3
                }
            ]
        }
    ],
    "textures": [
        {
            "sampler": 0,
            "source": 0
        },
        {
            "sampler": 0,
            "source": 1
        },
        {
            "sampler": 0,
            "source": 2
        },
        {
            "sampler": 0,
            "source": 0
        },
        {
            "sampler": 0,
            "source": 3
        },
        {
            "sampler": 0,
            "source": 0
        },
        {
            "sampler": 0,
            "source": 4
        }
    ],
    "images": [
        {
            "extras": {
                "source_path": "assets/textures/paper_rough_256.png"
            },
            "mimeType": "image/png",
            "name": "paper_rough_256",
            "uri": "../../../textures/paper_rough_256.png"
        },
        {
            "extras": {
                "source_path": "assets/lib/textures/cliff_albedo_01.png"
            },
            "mimeType": "image/png",
            "name": "cliff_albedo_01",
            "uri": "../../textures/cliff_albedo_01.png"
        },
        {
            "extras": {
                "source_path": "assets/lib/textures/cliff_roughness_01.png"
            },
            "mimeType": "image/png",
            "name": "cliff_roughness_01",
            "uri": "../../textures/cliff_roughness_01.png"
        },
        {
            "extras": {
                "source_path": "assets/textures/snow_gen_albedo-01.png"
            },
            "mimeType": "image/png",
            "name": "snow_gen_albedo-01",
            "uri": "../../../textures/snow_gen_albedo-01.png"
        },
        {
            "extras": {
                "source_path": "assets/textures/snow_edge_plateaus-albedo.png"
            },
            "mimeType": "image/png",
            "name": "snow_edge_plateaus-albedo",
            "uri": "../../../textures/snow_edge_plateaus-albedo.png"
        }
    ],
    "accessors": [
        {
            "bufferView": 0,
            "componentType": 5126,
            "count": 162,
            "max": [
                3.5131049156188965,
                2.930954694747925,
                6.878452301025391
            ],
            "min": [
                -4.837259292602539,
                0.11004950106143951,
                -0.20484977960586548
            ],
            "type": "VEC3"
        },
        {
            "bufferView": 1,
            "componentType": 5126,
            "count": 162,
            "type": "VEC3"
        },
        {
            "bufferView": 2,
            "componentType": 5126,
            "count": 162,
            "type": "VEC2"
        },
        {
            "bufferView": 3,
            "componentType": 5126,
            "count": 162,
            "type": "VEC2"
        },
        {
            "bufferView": 4,
            "componentType": 5123,
            "count": 162,
            "normalized": true,
            "type": "VEC4"
        },
        {
            "bufferView": 5,
            "componentType": 5123,
            "count": 801,
            "type": "SCALAR"
        },
        {
            "bufferView": 6,
            "componentType": 5126,
            "count": 229,
            "max": [
                4.967987060546875,
                5.280764579772949,
                5.859637260437012
            ],
            "min": [
                -4.77172327041626,
                2.9172370433807373,
                -7.2528910636901855
            ],
            "type": "VEC3"
        },
        {
            "bufferView": 7,
            "componentType": 5126,
            "count": 229,
            "type": "VEC3"
        },
        {
            "bufferView": 8,
            "componentType": 5126,
            "count": 229,
            "type": "VEC2"
        },
        {
            "bufferView": 9,
            "componentType": 5126,
            "count": 229,
            "type": "VEC2"
        },
        {
            "bufferView": 10,
            "componentType": 5121,
            "count": 229,
            "normalized": true,
            "type": "VEC4"
        },
        {
            "bufferView": 11,
            "componentType": 5123,
            "count": 229,
            "normalized": true,
            "type": "VEC4"
        },
        {
            "bufferView": 12,
            "componentType": 5123,
            "count": 528,
            "type": "SCALAR"
        },
        {
            "bufferView": 13,
            "componentType": 5126,
            "count": 180,
            "max": [
                5.0527024269104,
                5.152875900268555,
                6.0056657791137695
            ],
            "min": [
                -4.929288864135742,
                2.3001155853271484,
                -7.322468280792236
            ],
            "type": "VEC3"
        },
        {
            "bufferView": 14,
            "componentType": 5126,
            "count": 180,
            "type": "VEC3"
        },
        {
            "bufferView": 15,
            "componentType": 5126,
            "count": 180,
            "type": "VEC2"
        },
        {
            "bufferView": 16,
            "componentType": 5126,
            "count": 180,
            "type": "VEC2"
        },
        {
            "bufferView": 17,
            "componentType": 5121,
            "count": 180,
            "normalized": true,
            "type": "VEC4"
        },
        {
            "bufferView": 18,
            "componentType": 5123,
            "count": 180,
            "normalized": true,
            "type": "VEC4"
        },
        {
            "bufferView": 19,
            "componentType": 5123,
            "count": 318,
            "type": "SCALAR"
        },
        {
            "bufferView": 20,
            "componentType": 5126,
            "count": 43,
            "max": [
                3.470323324203491,
                2.8952624797821045,
                6.794688701629639
            ],
            "min": [
                -4.778352737426758,
                0.10870935022830963,
                -0.20235517621040344
            ],
            "type": "VEC3"
        },
        {
            "bufferView": 21,
            "componentType": 5126,
            "count": 43,
            "type": "VEC3"
        },
        {
            "bufferView": 22,
            "componentType": 5123,
            "count": 246,
            "type": "SCALAR"
        }
    ],
    "bufferViews": [
        {
            "buffer": 0,
            "byteLength": 1944,
            "byteOffset": 0,
            "target": 34962
        },
        {
            "buffer": 0,
            "byteLength": 1944,
            "byteOffset": 1944,
            "target": 34962
        },
        {
            "buffer": 0,
            "byteLength": 1296,
            "byteOffset": 3888,
            "target": 34962
        },
        {
            "buffer": 0,
            "byteLength": 1296,
            "byteOffset": 5184,
            "target": 34962
        },
        {
            "buffer": 0,
            "byteLength": 1296,
            "byteOffset": 6480,
            "target": 34962
        },
        {
            "buffer": 0,
            "byteLength": 1602,
            "byteOffset": 7776,
            "target": 34963
        },
        {
            "buffer": 0,
            "byteLength": 2748,
            "byteOffset": 9380,
            "target": 34962
        },
        {
            "buffer": 0,
            "byteLength": 2748,
            "byteOffset": 12128,
            "target": 34962
        },
        {
            "buffer": 0,
            "byteLength": 1832,
            "byteOffset": 14876,
            "target": 34962
        },
        {
            "buffer": 0,
            "byteLength": 1832,
            "byteOffset": 16708,
            "target": 34962
        },
        {
            "buffer": 0,
            "byteLength": 916,
            "byteOffset": 18540,
            "target": 34962
        },
        {
            "buffer": 0,
            "byteLength": 1832,
            "byteOffset": 19456,
            "target": 34962
        },
        {
            "buffer": 0,
            "byteLength": 1056,
            "byteOffset": 21288,
            "target": 34963
        },
        {
            "buffer": 0,
            "byteLength": 2160,
            "byteOffset": 22344,
            "target": 34962
        },
        {
            "buffer": 0,
            "byteLength": 2160,
            "byteOffset": 24504,
            "target": 34962
        },
        {
            "buffer": 0,
            "byteLength": 1440,
            "byteOffset": 26664,
            "target": 34962
        },
        {
            "buffer": 0,
            "byteLength": 1440,
            "byteOffset": 28104,
            "target": 34962
        },
        {
            "buffer": 0,
            "byteLength": 720,
            "byteOffset": 29544,
            "target": 34962
        },
        {
            "buffer": 0,
            "byteLength": 1440,
            "byteOffset": 30264,
            "target": 34962
        },
        {
            "buffer": 0,
            "byteLength": 636,
            "byteOffset": 31704,
            "target": 34963
        },
        {
            "buffer": 0,
            "byteLength": 516,
            "byteOffset": 32340,
            "target": 34962
        },
        {
            "buffer": 0,
            "byteLength": 516,
            "byteOffset": 32856,
            "target": 34962
        },
        {
            "buffer": 0,
            "byteLength": 492,
            "byteOffset": 33372,
            "target": 34963
        }
    ],
    "samplers": [
        {
            "magFilter": 9729,
            "minFilter": 9987
        }
    ],
    "buffers": [
        {
            "byteLength": 33864,
            "uri": "LI-stone_wall_003.bin"
        }
    ]
}