{
    "asset": {
        "generator": "Khronos glTF Blender I/O v4.5.15",
        "version": "2.0"
    },
    "scene": 0,
    "scenes": [
        {
            "extras": {
                "gltfIOGodotAssetProperties": {
                    "export_type": 2,
                    "root_type": 1,
                    "append_parent_collection": 1,
                    "asset_name": "LI-fence_plank_01"
                },
                "asset_type": "ASSET",
                "root_type": "STATIC",
                "asset_id": "1f37d82cdd8d99fe"
            },
            "name": "LI-fence_plank_01",
            "nodes": [
                0,
                1
            ]
        }
    ],
    "nodes": [
        {
            "mesh": 0,
            "name": "GEO-fence_plank_01"
        },
        {
            "extras": {
                "collision_info": {
                    "type": "PRIMITIVE",
                    "shape": 1,
                    "radius": 0.5,
                    "height": 2.0,
                    "size": [
                        3.3449997901916504,
                        0.1709999442100525,
                        0.3670000433921814
                    ]
                }
            },
            "name": "COL-collision_primitive.004",
            "translation": [
                0.010667930357158184,
                0.03144358843564987,
                0
            ]
        }
    ],
    "materials": [
        {
            "alphaMode": "BLEND",
            "doubleSided": true,
            "emissiveFactor": [
                1,
                1,
                1
            ],
            "extras": {
                "material_info": {
                    "albedo_color": [
                        1.0,
                        1.0,
                        1.0,
                        1.0
                    ],
                    "alpha": 1.0,
                    "edge_alpha": 1.0,
                    "alpha_influence": 0.0,
                    "backface_color": 0.0,
                    "roughness": 0.9369496703147888,
                    "metallic": 0.0,
                    "displacement_strength": 0.0,
                    "displacement_scale": 1.0,
                    "paper_color": [
                        1.0,
                        1.0,
                        1.0,
                        1.0
                    ],
                    "wear_strength": 0.20000000298023224,
                    "wear_start": 0.429999977350235,
                    "wear_end": 1.0,
                    "wear_distortion_strength": 0.009999999776482582,
                    "wear_distortion_scale": 100.0,
                    "emission_color": [
                        1.0,
                        1.0,
                        1.0,
                        1.0
                    ],
                    "emission_strength": 0.0,
                    "normal_strength": 0.07999999821186066,
                    "normal_use_uv2": 0.0
                },
                "asset_id": "11271e8932030dc8",
                "yp": {
                    "active_ypaint_node": ""
                }
            },
            "name": "fence_parts-wood",
            "normalTexture": {
                "index": 0
            },
            "pbrMetallicRoughness": {
                "baseColorTexture": {
                    "index": 1
                }
            }
        },
        {
            "alphaMode": "BLEND",
            "doubleSided": true,
            "emissiveFactor": [
                1,
                1,
                1
            ],
            "extras": {
                "material_info": {
                    "albedo_color": [
                        1.0,
                        1.0,
                        1.0,
                        1.0
                    ],
                    "alpha": 1.0,
                    "edge_alpha": 1.0,
                    "alpha_influence": 0.0,
                    "backface_color": 0.0,
                    "roughness": 0.8870129585266113,
                    "metallic": 0.0,
                    "displacement_strength": 0.0,
                    "displacement_scale": 1.0,
                    "paper_color": [
                        1.0,
                        1.0,
                        1.0,
                        1.0
                    ],
                    "wear_strength": 0.0,
                    "wear_start": 0.0,
                    "wear_end": 1.0,
                    "wear_distortion_strength": 0.5,
                    "wear_distortion_scale": 100.0,
                    "emission_color": [
                        1.0,
                        1.0,
                        1.0,
                        1.0
                    ],
                    "emission_strength": 0.0,
                    "normal_strength": 0.20000000298023224,
                    "normal_use_uv2": 0.0
                },
                "asset_id": "ab857b0a7c159b93",
                "yp": {}
            },
            "name": "fence_parts-snow",
            "normalTexture": {
                "index": 2
            },
            "pbrMetallicRoughness": {
                "baseColorTexture": {
                    "index": 3
                }
            }
        }
    ],
    "meshes": [
        {
            "name": "Cube.008",
            "primitives": [
                {
                    "attributes": {
                        "POSITION": 0,
                        "NORMAL": 1,
                        "TEXCOORD_0": 2,
                        "COLOR_0": 3
                    },
                    "indices": 4,
                    "material": 0
                },
                {
                    "attributes": {
                        "POSITION": 5,
                        "NORMAL": 6,
                        "TEXCOORD_0": 7,
                        "COLOR_0": 8
                    },
                    "indices": 9,
                    "material": 1
                }
            ]
        }
    ],
    "textures": [
        {
            "sampler": 0,
            "source": 0
        },
        {
            "sampler": 0,
            "source": 1
        },
        {
            "sampler": 0,
            "source": 2
        },
        {
            "sampler": 0,
            "source": 3
        }
    ],
    "images": [
        {
            "extras": {
                "source_path": "assets/textures/wood_frosted-normal.png"
            },
            "mimeType": "image/png",
            "name": "wood_frosted-normal",
            "uri": "../../../textures/wood_frosted-normal.png"
        },
        {
            "extras": {
                "source_path": "assets/textures/wood_frosted-albedo.png"
            },
            "mimeType": "image/png",
            "name": "wood_frosted-albedo",
            "uri": "../../../textures/wood_frosted-albedo.png"
        },
        {
            "extras": {
                "source_path": "assets/textures/snow_gen_normal-01.png"
            },
            "mimeType": "image/png",
            "name": "snow_gen_normal-01",
            "uri": "../../../textures/snow_gen_normal-01.png"
        },
        {
            "extras": {
                "source_path": "assets/textures/snow_gen_albedo-01.png"
            },
            "mimeType": "image/png",
            "name": "snow_gen_albedo-01",
            "uri": "../../../textures/snow_gen_albedo-01.png"
        }
    ],
    "accessors": [
        {
            "bufferView": 0,
            "componentType": 5126,
            "count": 115,
            "max": [
                1.6890032291412354,
                0.19532078504562378,
                0.06280647218227386
            ],
            "min": [
                -1.6489264965057373,
                -0.168653666973114,
                -0.0685831755399704
            ],
            "type": "VEC3"
        },
        {
            "bufferView": 1,
            "componentType": 5126,
            "count": 115,
            "type": "VEC3"
        },
        {
            "bufferView": 2,
            "componentType": 5126,
            "count": 115,
            "type": "VEC2"
        },
        {
            "bufferView": 3,
            "componentType": 5123,
            "count": 115,
            "normalized": true,
            "type": "VEC4"
        },
        {
            "bufferView": 4,
            "componentType": 5123,
            "count": 258,
            "type": "SCALAR"
        },
        {
            "bufferView": 5,
            "componentType": 5126,
            "count": 103,
            "max": [
                1.6998631954193115,
                0.21829211711883545,
                0.07735609263181686
            ],
            "min": [
                -1.6750638484954834,
                0.1201040968298912,
                -0.07472766935825348
            ],
            "type": "VEC3"
        },
        {
            "bufferView": 6,
            "componentType": 5126,
            "count": 103,
            "type": "VEC3"
        },
        {
            "bufferView": 7,
            "componentType": 5126,
            "count": 103,
            "type": "VEC2"
        },
        {
            "bufferView": 8,
            "componentType": 5123,
            "count": 103,
            "normalized": true,
            "type": "VEC4"
        },
        {
            "bufferView": 9,
            "componentType": 5123,
            "count": 264,
            "type": "SCALAR"
        }
    ],
    "bufferViews": [
        {
            "buffer": 0,
            "byteLength": 1380,
            "byteOffset": 0,
            "target": 34962
        },
        {
            "buffer": 0,
            "byteLength": 1380,
            "byteOffset": 1380,
            "target": 34962
        },
        {
            "buffer": 0,
            "byteLength": 920,
            "byteOffset": 2760,
            "target": 34962
        },
        {
            "buffer": 0,
            "byteLength": 920,
            "byteOffset": 3680,
            "target": 34962
        },
        {
            "buffer": 0,
            "byteLength": 516,
            "byteOffset": 4600,
            "target": 34963
        },
        {
            "buffer": 0,
            "byteLength": 1236,
            "byteOffset": 5116,
            "target": 34962
        },
        {
            "buffer": 0,
            "byteLength": 1236,
            "byteOffset": 6352,
            "target": 34962
        },
        {
            "buffer": 0,
            "byteLength": 824,
            "byteOffset": 7588,
            "target": 34962
        },
        {
            "buffer": 0,
            "byteLength": 824,
            "byteOffset": 8412,
            "target": 34962
        },
        {
            "buffer": 0,
            "byteLength": 528,
            "byteOffset": 9236,
            "target": 34963
        }
    ],
    "samplers": [
        {
            "magFilter": 9729,
            "minFilter": 9987
        }
    ],
    "buffers": [
        {
            "byteLength": 9764,
            "uri": "LI-fence_plank_01.bin"
        }
    ]
}