{
    "asset": {
        "generator": "Khronos glTF Blender I/O v4.5.15",
        "version": "2.0"
    },
    "scene": 0,
    "scenes": [
        {
            "extras": {
                "gltfIOGodotAssetProperties": {
                    "export_type": 2,
                    "root_type": 1,
                    "append_parent_collection": 1,
                    "asset_name": "LI-fence_plank_04"
                },
                "asset_type": "ASSET",
                "root_type": "STATIC",
                "asset_id": "4a102cc53d0e0d35"
            },
            "name": "LI-fence_plank_04",
            "nodes": [
                0,
                1
            ]
        }
    ],
    "nodes": [
        {
            "mesh": 0,
            "name": "GEO-fence_plank_04"
        },
        {
            "extras": {
                "collision_info": {
                    "type": "PRIMITIVE",
                    "shape": 1,
                    "radius": 0.5,
                    "height": 2.0,
                    "size": [
                        2.010999917984009,
                        0.1709999442100525,
                        0.3100000023841858
                    ]
                }
            },
            "name": "COL-collision_primitive.001"
        }
    ],
    "materials": [
        {
            "alphaMode": "BLEND",
            "doubleSided": true,
            "emissiveFactor": [
                1,
                1,
                1
            ],
            "extras": {
                "material_info": {
                    "albedo_color": [
                        1.0,
                        1.0,
                        1.0,
                        1.0
                    ],
                    "alpha": 1.0,
                    "edge_alpha": 1.0,
                    "alpha_influence": 0.0,
                    "backface_color": 0.0,
                    "roughness": 0.9369496703147888,
                    "metallic": 0.0,
                    "displacement_strength": 0.0,
                    "displacement_scale": 1.0,
                    "paper_color": [
                        1.0,
                        1.0,
                        1.0,
                        1.0
                    ],
                    "wear_strength": 0.20000000298023224,
                    "wear_start": 0.429999977350235,
                    "wear_end": 1.0,
                    "wear_distortion_strength": 0.009999999776482582,
                    "wear_distortion_scale": 100.0,
                    "emission_color": [
                        1.0,
                        1.0,
                        1.0,
                        1.0
                    ],
                    "emission_strength": 0.0,
                    "normal_strength": 0.07999999821186066,
                    "normal_use_uv2": 0.0
                },
                "asset_id": "11271e8932030dc8",
                "yp": {
                    "active_ypaint_node": ""
                }
            },
            "name": "fence_parts-wood",
            "normalTexture": {
                "index": 0
            },
            "pbrMetallicRoughness": {
                "baseColorTexture": {
                    "index": 1
                }
            }
        },
        {
            "alphaMode": "BLEND",
            "doubleSided": true,
            "emissiveFactor": [
                1,
                1,
                1
            ],
            "extras": {
                "material_info": {
                    "albedo_color": [
                        1.0,
                        1.0,
                        1.0,
                        1.0
                    ],
                    "alpha": 1.0,
                    "edge_alpha": 1.0,
                    "alpha_influence": 0.0,
                    "backface_color": 0.0,
                    "roughness": 0.8870129585266113,
                    "metallic": 0.0,
                    "displacement_strength": 0.0,
                    "displacement_scale": 1.0,
                    "paper_color": [
                        1.0,
                        1.0,
                        1.0,
                        1.0
                    ],
                    "wear_strength": 0.0,
                    "wear_start": 0.0,
                    "wear_end": 1.0,
                    "wear_distortion_strength": 0.5,
                    "wear_distortion_scale": 100.0,
                    "emission_color": [
                        1.0,
                        1.0,
                        1.0,
                        1.0
                    ],
                    "emission_strength": 0.0,
                    "normal_strength": 0.20000000298023224,
                    "normal_use_uv2": 0.0
                },
                "asset_id": "ab857b0a7c159b93",
                "yp": {}
            },
            "name": "fence_parts-snow",
            "normalTexture": {
                "index": 2
            },
            "pbrMetallicRoughness": {
                "baseColorTexture": {
                    "index": 3
                }
            }
        }
    ],
    "meshes": [
        {
            "name": "Cube.005",
            "primitives": [
                {
                    "attributes": {
                        "POSITION": 0,
                        "NORMAL": 1,
                        "TEXCOORD_0": 2,
                        "COLOR_0": 3
                    },
                    "indices": 4,
                    "material": 0
                },
                {
                    "attributes": {
                        "POSITION": 5,
                        "NORMAL": 6,
                        "TEXCOORD_0": 7,
                        "COLOR_0": 8
                    },
                    "indices": 9,
                    "material": 1
                }
            ]
        }
    ],
    "textures": [
        {
            "sampler": 0,
            "source": 0
        },
        {
            "sampler": 0,
            "source": 1
        },
        {
            "sampler": 0,
            "source": 2
        },
        {
            "sampler": 0,
            "source": 3
        }
    ],
    "images": [
        {
            "extras": {
                "source_path": "assets/textures/wood_frosted-normal.png"
            },
            "mimeType": "image/png",
            "name": "wood_frosted-normal",
            "uri": "../../../textures/wood_frosted-normal.png"
        },
        {
            "extras": {
                "source_path": "assets/textures/wood_frosted-albedo.png"
            },
            "mimeType": "image/png",
            "name": "wood_frosted-albedo",
            "uri": "../../../textures/wood_frosted-albedo.png"
        },
        {
            "extras": {
                "source_path": "assets/textures/snow_gen_normal-01.png"
            },
            "mimeType": "image/png",
            "name": "snow_gen_normal-01",
            "uri": "../../../textures/snow_gen_normal-01.png"
        },
        {
            "extras": {
                "source_path": "assets/textures/snow_gen_albedo-01.png"
            },
            "mimeType": "image/png",
            "name": "snow_gen_albedo-01",
            "uri": "../../../textures/snow_gen_albedo-01.png"
        }
    ],
    "accessors": [
        {
            "bufferView": 0,
            "componentType": 5126,
            "count": 105,
            "max": [
                0.9721717834472656,
                0.16387708485126495,
                0.07209499925374985
            ],
            "min": [
                -0.9873794317245483,
                -0.15856418013572693,
                -0.07081593573093414
            ],
            "type": "VEC3"
        },
        {
            "bufferView": 1,
            "componentType": 5126,
            "count": 105,
            "type": "VEC3"
        },
        {
            "bufferView": 2,
            "componentType": 5126,
            "count": 105,
            "type": "VEC2"
        },
        {
            "bufferView": 3,
            "componentType": 5123,
            "count": 105,
            "normalized": true,
            "type": "VEC4"
        },
        {
            "bufferView": 4,
            "componentType": 5123,
            "count": 258,
            "type": "SCALAR"
        },
        {
            "bufferView": 5,
            "componentType": 5126,
            "count": 143,
            "max": [
                0.999519407749176,
                0.1682630479335785,
                0.08216891437768936
            ],
            "min": [
                -1.0091279745101929,
                0.0574883408844471,
                -0.08764758706092834
            ],
            "type": "VEC3"
        },
        {
            "bufferView": 6,
            "componentType": 5126,
            "count": 143,
            "type": "VEC3"
        },
        {
            "bufferView": 7,
            "componentType": 5126,
            "count": 143,
            "type": "VEC2"
        },
        {
            "bufferView": 8,
            "componentType": 5123,
            "count": 143,
            "normalized": true,
            "type": "VEC4"
        },
        {
            "bufferView": 9,
            "componentType": 5123,
            "count": 336,
            "type": "SCALAR"
        }
    ],
    "bufferViews": [
        {
            "buffer": 0,
            "byteLength": 1260,
            "byteOffset": 0,
            "target": 34962
        },
        {
            "buffer": 0,
            "byteLength": 1260,
            "byteOffset": 1260,
            "target": 34962
        },
        {
            "buffer": 0,
            "byteLength": 840,
            "byteOffset": 2520,
            "target": 34962
        },
        {
            "buffer": 0,
            "byteLength": 840,
            "byteOffset": 3360,
            "target": 34962
        },
        {
            "buffer": 0,
            "byteLength": 516,
            "byteOffset": 4200,
            "target": 34963
        },
        {
            "buffer": 0,
            "byteLength": 1716,
            "byteOffset": 4716,
            "target": 34962
        },
        {
            "buffer": 0,
            "byteLength": 1716,
            "byteOffset": 6432,
            "target": 34962
        },
        {
            "buffer": 0,
            "byteLength": 1144,
            "byteOffset": 8148,
            "target": 34962
        },
        {
            "buffer": 0,
            "byteLength": 1144,
            "byteOffset": 9292,
            "target": 34962
        },
        {
            "buffer": 0,
            "byteLength": 672,
            "byteOffset": 10436,
            "target": 34963
        }
    ],
    "samplers": [
        {
            "magFilter": 9729,
            "minFilter": 9987
        }
    ],
    "buffers": [
        {
            "byteLength": 11108,
            "uri": "LI-fence_plank_04.bin"
        }
    ]
}