{
	"asset":{
		"generator":"Khronos glTF Blender I/O v4.5.15",
		"version":"2.0"
	},
	"scene":0,
	"scenes":[
		{
			"extras":{
				"gltfIOGodotAssetProperties":{
					"export_type":2,
					"root_type":2,
					"append_parent_collection":1,
					"asset_name":"SL-fence-paths"
				},
				"asset_type":"ASSET",
				"root_type":"PASS_THROUGH",
				"asset_id":"a2ac4e63524af128"
			},
			"name":"SL-fence-paths",
			"nodes":[
				0,
				1,
				2,
				3,
				4
			]
		}
	],
	"nodes":[
		{
			"extras":{
				"visibility_info":{
					"shadow":false
				}
			},
			"mesh":0,
			"name":"GEO-paths-pond_01.003",
			"translation":[
				16.966835021972656,
				1.0410404205322266,
				67.90736389160156
			]
		},
		{
			"extras":{
				"visibility_info":{
					"shadow":false
				}
			},
			"mesh":1,
			"name":"GEO-paths-pond_01.007",
			"translation":[
				31.184921264648438,
				1.101652979850769,
				39.74347686767578
			]
		},
		{
			"extras":{
				"visibility_info":{
					"shadow":false
				}
			},
			"mesh":2,
			"name":"GEO-paths-pond_01.008",
			"rotation":[
				0,
				-0.6665112972259521,
				0,
				0.7454950213432312
			],
			"scale":[
				0.896695077419281,
				0.8966950178146362,
				0.896695077419281
			],
			"translation":[
				48.684974670410156,
				8.344557136297226e-05,
				27.86182403564453
			]
		},
		{
			"extras":{
				"visibility_info":{
					"shadow":false
				}
			},
			"mesh":3,
			"name":"GEO-paths-connection_01.002",
			"translation":[
				9.580906867980957,
				0.9960197806358337,
				25.92324447631836
			]
		},
		{
			"extras":{
				"visibility_info":{
					"shadow":false
				}
			},
			"mesh":4,
			"name":"GEO-paths-faint",
			"translation":[
				16.966835021972656,
				1.0410404205322266,
				67.90736389160156
			]
		}
	],
	"materials":[
		{
			"doubleSided":true,
			"extras":{
				"asset_id":"9a9b2737a030d116"
			},
			"name":"DUMMY-path-pond",
			"pbrMetallicRoughness":{
				"baseColorFactor":[
					0.800000011920929,
					0.800000011920929,
					0.800000011920929,
					1
				],
				"metallicFactor":0,
				"roughnessFactor":0.4000000059604645
			}
		},
		{
			"doubleSided":true,
			"extras":{
				"asset_id":"ab2b9945403eb7f0"
			},
			"name":"DUMMY-path-fence",
			"pbrMetallicRoughness":{
				"baseColorFactor":[
					0.800000011920929,
					0.800000011920929,
					0.800000011920929,
					1
				],
				"metallicFactor":0,
				"roughnessFactor":0.4000000059604645
			}
		},
		{
			"doubleSided":true,
			"extras":{
				"asset_id":"279621069292a79d"
			},
			"name":"DUMMY-path-hub",
			"pbrMetallicRoughness":{
				"baseColorFactor":[
					0.800000011920929,
					0.800000011920929,
					0.800000011920929,
					1
				],
				"metallicFactor":0,
				"roughnessFactor":0.4000000059604645
			}
		},
		{
			"doubleSided":true,
			"extras":{
				"asset_id":"a15b6a6a28e335d0"
			},
			"name":"DUMMY-path-faint",
			"pbrMetallicRoughness":{
				"baseColorFactor":[
					0.800000011920929,
					0.800000011920929,
					0.800000011920929,
					1
				],
				"metallicFactor":0,
				"roughnessFactor":0.4000000059604645
			}
		}
	],
	"meshes":[
		{
			"name":"GEO-path-hub.009",
			"primitives":[
				{
					"attributes":{
						"POSITION":0,
						"NORMAL":1,
						"TEXCOORD_0":2,
						"COLOR_0":3
					},
					"indices":4,
					"material":0
				}
			]
		},
		{
			"name":"GEO-path-hub.018",
			"primitives":[
				{
					"attributes":{
						"POSITION":5,
						"NORMAL":6,
						"TEXCOORD_0":7,
						"COLOR_0":8
					},
					"indices":9,
					"material":1
				}
			]
		},
		{
			"name":"GEO-path-hub.019",
			"primitives":[
				{
					"attributes":{
						"POSITION":10,
						"NORMAL":11,
						"TEXCOORD_0":12,
						"COLOR_0":13
					},
					"indices":14,
					"material":1
				}
			]
		},
		{
			"name":"GEO-path-hub.008",
			"primitives":[
				{
					"attributes":{
						"POSITION":15,
						"NORMAL":16,
						"TEXCOORD_0":17,
						"COLOR_0":18
					},
					"indices":19,
					"material":2
				}
			]
		},
		{
			"name":"GEO-path-hub.001",
			"primitives":[
				{
					"attributes":{
						"POSITION":20,
						"NORMAL":21,
						"TEXCOORD_0":22,
						"COLOR_0":23
					},
					"indices":24,
					"material":3
				}
			]
		}
	],
	"accessors":[
		{
			"bufferView":0,
			"componentType":5126,
			"count":894,
			"max":[
				24.371963500976562,
				-1.0110403299331665,
				6.194960594177246
			],
			"min":[
				-12.554269790649414,
				-1.121038794517517,
				-38.481727600097656
			],
			"type":"VEC3"
		},
		{
			"bufferView":1,
			"componentType":5126,
			"count":894,
			"type":"VEC3"
		},
		{
			"bufferView":2,
			"componentType":5126,
			"count":894,
			"type":"VEC2"
		},
		{
			"bufferView":3,
			"componentType":5123,
			"count":894,
			"normalized":true,
			"type":"VEC4"
		},
		{
			"bufferView":4,
			"componentType":5123,
			"count":2892,
			"type":"SCALAR"
		},
		{
			"bufferView":5,
			"componentType":5126,
			"count":848,
			"max":[
				27.956933975219727,
				-1.0616528987884521,
				-5.870704174041748
			],
			"min":[
				2.557188034057617,
				-1.1716512441635132,
				-23.355789184570312
			],
			"type":"VEC3"
		},
		{
			"bufferView":6,
			"componentType":5126,
			"count":848,
			"type":"VEC3"
		},
		{
			"bufferView":7,
			"componentType":5126,
			"count":848,
			"type":"VEC2"
		},
		{
			"bufferView":8,
			"componentType":5123,
			"count":848,
			"normalized":true,
			"type":"VEC4"
		},
		{
			"bufferView":9,
			"componentType":5123,
			"count":2904,
			"type":"SCALAR"
		},
		{
			"bufferView":10,
			"componentType":5126,
			"count":164,
			"max":[
				3.5517776012420654,
				0.03990694507956505,
				3.2908501625061035
			],
			"min":[
				-4.615444183349609,
				-0.07009171694517136,
				-3.5465641021728516
			],
			"type":"VEC3"
		},
		{
			"bufferView":11,
			"componentType":5126,
			"count":164,
			"type":"VEC3"
		},
		{
			"bufferView":12,
			"componentType":5126,
			"count":164,
			"type":"VEC2"
		},
		{
			"bufferView":13,
			"componentType":5123,
			"count":164,
			"normalized":true,
			"type":"VEC4"
		},
		{
			"bufferView":14,
			"componentType":5123,
			"count":516,
			"type":"SCALAR"
		},
		{
			"bufferView":15,
			"componentType":5126,
			"count":124,
			"max":[
				14.251294136047363,
				-0.9260197281837463,
				8.132344245910645
			],
			"min":[
				4.642890930175781,
				-1.0360184907913208,
				0.8284870386123657
			],
			"type":"VEC3"
		},
		{
			"bufferView":16,
			"componentType":5126,
			"count":124,
			"type":"VEC3"
		},
		{
			"bufferView":17,
			"componentType":5126,
			"count":124,
			"type":"VEC2"
		},
		{
			"bufferView":18,
			"componentType":5123,
			"count":124,
			"normalized":true,
			"type":"VEC4"
		},
		{
			"bufferView":19,
			"componentType":5123,
			"count":372,
			"type":"SCALAR"
		},
		{
			"bufferView":20,
			"componentType":5126,
			"count":936,
			"max":[
				27.201791763305664,
				-1.0110403299331665,
				0.07872790843248367
			],
			"min":[
				-0.48125937581062317,
				-1.1210377216339111,
				-34.65956115722656
			],
			"type":"VEC3"
		},
		{
			"bufferView":21,
			"componentType":5126,
			"count":936,
			"type":"VEC3"
		},
		{
			"bufferView":22,
			"componentType":5126,
			"count":936,
			"type":"VEC2"
		},
		{
			"bufferView":23,
			"componentType":5123,
			"count":936,
			"normalized":true,
			"type":"VEC4"
		},
		{
			"bufferView":24,
			"componentType":5123,
			"count":3072,
			"type":"SCALAR"
		}
	],
	"bufferViews":[
		{
			"buffer":0,
			"byteLength":10728,
			"byteOffset":0,
			"target":34962
		},
		{
			"buffer":0,
			"byteLength":10728,
			"byteOffset":10728,
			"target":34962
		},
		{
			"buffer":0,
			"byteLength":7152,
			"byteOffset":21456,
			"target":34962
		},
		{
			"buffer":0,
			"byteLength":7152,
			"byteOffset":28608,
			"target":34962
		},
		{
			"buffer":0,
			"byteLength":5784,
			"byteOffset":35760,
			"target":34963
		},
		{
			"buffer":0,
			"byteLength":10176,
			"byteOffset":41544,
			"target":34962
		},
		{
			"buffer":0,
			"byteLength":10176,
			"byteOffset":51720,
			"target":34962
		},
		{
			"buffer":0,
			"byteLength":6784,
			"byteOffset":61896,
			"target":34962
		},
		{
			"buffer":0,
			"byteLength":6784,
			"byteOffset":68680,
			"target":34962
		},
		{
			"buffer":0,
			"byteLength":5808,
			"byteOffset":75464,
			"target":34963
		},
		{
			"buffer":0,
			"byteLength":1968,
			"byteOffset":81272,
			"target":34962
		},
		{
			"buffer":0,
			"byteLength":1968,
			"byteOffset":83240,
			"target":34962
		},
		{
			"buffer":0,
			"byteLength":1312,
			"byteOffset":85208,
			"target":34962
		},
		{
			"buffer":0,
			"byteLength":1312,
			"byteOffset":86520,
			"target":34962
		},
		{
			"buffer":0,
			"byteLength":1032,
			"byteOffset":87832,
			"target":34963
		},
		{
			"buffer":0,
			"byteLength":1488,
			"byteOffset":88864,
			"target":34962
		},
		{
			"buffer":0,
			"byteLength":1488,
			"byteOffset":90352,
			"target":34962
		},
		{
			"buffer":0,
			"byteLength":992,
			"byteOffset":91840,
			"target":34962
		},
		{
			"buffer":0,
			"byteLength":992,
			"byteOffset":92832,
			"target":34962
		},
		{
			"buffer":0,
			"byteLength":744,
			"byteOffset":93824,
			"target":34963
		},
		{
			"buffer":0,
			"byteLength":11232,
			"byteOffset":94568,
			"target":34962
		},
		{
			"buffer":0,
			"byteLength":11232,
			"byteOffset":105800,
			"target":34962
		},
		{
			"buffer":0,
			"byteLength":7488,
			"byteOffset":117032,
			"target":34962
		},
		{
			"buffer":0,
			"byteLength":7488,
			"byteOffset":124520,
			"target":34962
		},
		{
			"buffer":0,
			"byteLength":6144,
			"byteOffset":132008,
			"target":34963
		}
	],
	"buffers":[
		{
			"byteLength":138152,
			"uri":"SL-fence-paths.bin"
		}
	]
}
