{
    "asset": {
        "generator": "Khronos glTF Blender I/O v4.5.15",
        "version": "2.0"
    },
    "scene": 0,
    "scenes": [
        {
            "extras": {
                "gltfIOGodotAssetProperties": {
                    "export_type": 2,
                    "root_type": 2,
                    "append_parent_collection": 1,
                    "asset_name": "PR-tennis_ball"
                },
                "asset_type": "ASSET",
                "root_type": "PASS_THROUGH",
                "asset_id": "0b402603d31d4e8b"
            },
            "name": "PR-tennis_ball",
            "nodes": [
                0,
                6
            ]
        }
    ],
    "nodes": [
        {
            "extras": {
                "booleans": {},
                "ant_landscape": {},
                "collision_info": {
                    "type": "PRIMITIVE",
                    "shape": 3,
                    "radius": 0.5,
                    "height": 1.0,
                    "size": [
                        1.0,
                        1.0,
                        1.0
                    ]
                }
            },
            "name": "COL-collision_primitive"
        },
        {
            "extras": {
                "ant_landscape": {}
            },
            "mesh": 0,
            "name": "GEO-tennis_ball",
            "rotation": [
                0,
                -1.1920928955078125e-07,
                0,
                1
            ],
            "scale": [
                1,
                1.0000001192092896,
                1
            ],
            "translation": [
                0,
                7.4505797087454084e-09,
                0
            ]
        },
        {
            "children": [
                1
            ],
            "name": "Pivot",
            "rotation": [
                0,
                7.105427357601002e-15,
                0,
                1
            ],
            "translation": [
                0,
                -1.4901161193847656e-08,
                0
            ]
        },
        {
            "children": [
                2
            ],
            "name": "Ball",
            "rotation": [
                0,
                1.1920927533992653e-07,
                0,
                1
            ],
            "scale": [
                1,
                0.9999999403953552,
                1
            ]
        },
        {
            "children": [
                3
            ],
            "name": "SubRoot"
        },
        {
            "children": [
                4
            ],
            "name": "Root"
        },
        {
            "children": [
                5
            ],
            "extras": {
                "cloudrig": {},
                "ant_landscape": {}
            },
            "name": "RIG-tennis_ball"
        }
    ],
    "materials": [
        {
            "alphaMode": "BLEND",
            "doubleSided": true,
            "emissiveFactor": [
                1,
                1,
                1
            ],
            "extras": {
                "asset_id": "d202839cdaf85aaf",
                "material_info": {
                    "albedo_color": [
                        1.0,
                        1.0,
                        1.0,
                        1.0
                    ],
                    "alpha": 1.0,
                    "edge_alpha": 1.0,
                    "alpha_influence": 0.0,
                    "backface_color": 0.0,
                    "roughness": 0.8155738115310669,
                    "metallic": 0.0,
                    "displacement_strength": 0.0,
                    "displacement_scale": 1.0,
                    "paper_color": [
                        1.0,
                        1.0,
                        1.0,
                        1.0
                    ],
                    "wear_strength": 0.0,
                    "wear_start": 0.0,
                    "wear_end": 1.0,
                    "wear_distortion_strength": 0.5,
                    "wear_distortion_scale": 100.0,
                    "emission_color": [
                        1.0,
                        1.0,
                        1.0,
                        1.0
                    ],
                    "emission_strength": 0.0,
                    "normal_strength": 0.30000001192092896
                }
            },
            "name": "tennis_ball",
            "normalTexture": {
                "index": 0,
                "texCoord": 1
            },
            "pbrMetallicRoughness": {
                "baseColorTexture": {
                    "index": 1
                }
            }
        }
    ],
    "meshes": [
        {
            "name": "Sphere.002",
            "primitives": [
                {
                    "attributes": {
                        "POSITION": 0,
                        "NORMAL": 1,
                        "TEXCOORD_0": 2,
                        "TEXCOORD_1": 3
                    },
                    "indices": 4,
                    "material": 0
                }
            ]
        }
    ],
    "textures": [
        {
            "sampler": 0,
            "source": 0
        },
        {
            "sampler": 0,
            "source": 1
        }
    ],
    "images": [
        {
            "extras": {
                "source_path": "assets/textures/paper_fine_normal.png"
            },
            "mimeType": "image/png",
            "name": "paper_fine_normal",
            "uri": "../../textures/paper_fine_normal.png"
        },
        {
            "extras": {
                "source_path": "assets/props/tennis_ball/textures/tennis_ball_albedo.png"
            },
            "mimeType": "image/png",
            "name": "tennis_ball_albedo",
            "uri": "textures/tennis_ball_albedo.png"
        }
    ],
    "skins": [
        {
            "inverseBindMatrices": 5,
            "joints": [
                5,
                4,
                3,
                2
            ],
            "name": "RIG-tennis_ball"
        }
    ],
    "accessors": [
        {
            "bufferView": 0,
            "componentType": 5126,
            "count": 199,
            "max": [
                0.09118432551622391,
                0.0867384597659111,
                0.08543789386749268
            ],
            "min": [
                -0.08059785515069962,
                -0.09229427576065063,
                -0.09193003922700882
            ],
            "type": "VEC3"
        },
        {
            "bufferView": 1,
            "componentType": 5126,
            "count": 199,
            "type": "VEC3"
        },
        {
            "bufferView": 2,
            "componentType": 5126,
            "count": 199,
            "type": "VEC2"
        },
        {
            "bufferView": 3,
            "componentType": 5126,
            "count": 199,
            "type": "VEC2"
        },
        {
            "bufferView": 4,
            "componentType": 5123,
            "count": 1062,
            "type": "SCALAR"
        },
        {
            "bufferView": 5,
            "componentType": 5126,
            "count": 4,
            "type": "MAT4"
        }
    ],
    "bufferViews": [
        {
            "buffer": 0,
            "byteLength": 2388,
            "byteOffset": 0,
            "target": 34962
        },
        {
            "buffer": 0,
            "byteLength": 2388,
            "byteOffset": 2388,
            "target": 34962
        },
        {
            "buffer": 0,
            "byteLength": 1592,
            "byteOffset": 4776,
            "target": 34962
        },
        {
            "buffer": 0,
            "byteLength": 1592,
            "byteOffset": 6368,
            "target": 34962
        },
        {
            "buffer": 0,
            "byteLength": 2124,
            "byteOffset": 7960,
            "target": 34963
        },
        {
            "buffer": 0,
            "byteLength": 256,
            "byteOffset": 10084
        }
    ],
    "samplers": [
        {
            "magFilter": 9729,
            "minFilter": 9987
        }
    ],
    "buffers": [
        {
            "byteLength": 10340,
            "uri": "PR-tennis_ball.bin"
        }
    ]
}