{
    "asset": {
        "generator": "Khronos glTF Blender I/O v4.5.15",
        "version": "2.0"
    },
    "scene": 0,
    "scenes": [
        {
            "extras": {
                "gltfIOGodotAssetProperties": {
                    "export_type": 2,
                    "root_type": 2,
                    "append_parent_collection": 1,
                    "asset_name": "LI-root_04"
                },
                "asset_type": "ASSET",
                "root_type": "PASS_THROUGH",
                "asset_id": "6e2582a0e051d4e2"
            },
            "name": "LI-root_04",
            "nodes": [
                0,
                1,
                2,
                3,
                4,
                5,
                6,
                7
            ]
        }
    ],
    "nodes": [
        {
            "mesh": 0,
            "name": "GEO-root_04"
        },
        {
            "extras": {
                "collision_info": {
                    "type": "PRIMITIVE",
                    "shape": 3,
                    "radius": 0.13199999928474426,
                    "height": 0.4360000789165497,
                    "size": [
                        1.0,
                        1.0,
                        1.0
                    ]
                }
            },
            "name": "COL-collision_primitive.013",
            "rotation": [
                -0.28696492314338684,
                -0.28596651554107666,
                0.6473726630210876,
                0.6455872654914856
            ],
            "translation": [
                -0.42272722721099854,
                0.04325845092535019,
                -0.20651309192180634
            ]
        },
        {
            "extras": {
                "collision_info": {
                    "type": "PRIMITIVE",
                    "shape": 3,
                    "radius": 0.06999999284744263,
                    "height": 0.44300007820129395,
                    "size": [
                        1.0,
                        1.0,
                        1.0
                    ]
                }
            },
            "name": "COL-collision_primitive.014",
            "rotation": [
                -0.21745441854000092,
                -0.16689501702785492,
                0.6342394948005676,
                0.7229107618331909
            ],
            "translation": [
                0.5176947712898254,
                0.10192527621984482,
                0.025022022426128387
            ]
        },
        {
            "extras": {
                "collision_info": {
                    "type": "PRIMITIVE",
                    "shape": 3,
                    "radius": 0.05299999192357063,
                    "height": 0.27100008726119995,
                    "size": [
                        1.0,
                        1.0,
                        1.0
                    ]
                }
            },
            "name": "COL-collision_primitive.015",
            "rotation": [
                -0.37329182028770447,
                -0.3184824287891388,
                0.6227976679801941,
                0.6093810200691223
            ],
            "translation": [
                -0.25993451476097107,
                0.023805471137166023,
                0.07002800703048706
            ]
        },
        {
            "extras": {
                "collision_info": {
                    "type": "PRIMITIVE",
                    "shape": 3,
                    "radius": 0.08799999952316284,
                    "height": 0.33500006794929504,
                    "size": [
                        1.0,
                        1.0,
                        1.0
                    ]
                }
            },
            "name": "COL-collision_primitive.016",
            "rotation": [
                -0.00303153065033257,
                -0.024890176951885223,
                0.7814086079597473,
                0.623515784740448
            ],
            "translation": [
                -0.1220909133553505,
                0.06793253123760223,
                -0.0031091365963220596
            ]
        },
        {
            "extras": {
                "collision_info": {
                    "type": "PRIMITIVE",
                    "shape": 3,
                    "radius": 0.07099999487400055,
                    "height": 0.4360000789165497,
                    "size": [
                        1.0,
                        1.0,
                        1.0
                    ]
                }
            },
            "name": "COL-collision_primitive.017",
            "rotation": [
                0.11025089025497437,
                0.11058047413825989,
                0.627592146396637,
                0.7627220153808594
            ],
            "translation": [
                0.2352471500635147,
                0.13300691545009613,
                -0.08799939602613449
            ]
        },
        {
            "extras": {
                "collision_info": {
                    "type": "PRIMITIVE",
                    "shape": 3,
                    "radius": 0.06999999284744263,
                    "height": 0.3720000684261322,
                    "size": [
                        1.0,
                        1.0,
                        1.0
                    ]
                }
            },
            "name": "COL-collision_primitive.018",
            "rotation": [
                0.1435442566871643,
                0.07606048136949539,
                0.7323281764984131,
                0.6612906455993652
            ],
            "translation": [
                0.5375597476959229,
                0.15190374851226807,
                -0.14922784268856049
            ]
        },
        {
            "extras": {
                "collision_info": {
                    "type": "PRIMITIVE",
                    "shape": 3,
                    "radius": 0.08399999141693115,
                    "height": 0.31400007009506226,
                    "size": [
                        1.0,
                        1.0,
                        1.0
                    ]
                }
            },
            "name": "COL-collision_primitive.019",
            "rotation": [
                0.30540117621421814,
                0.36276617646217346,
                0.5319041013717651,
                0.7015759944915771
            ],
            "translation": [
                0.6727972030639648,
                0.1499069482088089,
                -0.24312584102153778
            ]
        }
    ],
    "materials": [
        {
            "alphaMode": "BLEND",
            "doubleSided": true,
            "emissiveFactor": [
                1,
                1,
                1
            ],
            "extras": {
                "asset_id": "72b9b7131c134000",
                "material_info": {
                    "albedo_color": [
                        1.0,
                        1.0,
                        1.0,
                        1.0
                    ],
                    "alpha": 1.0,
                    "edge_alpha": 1.0,
                    "alpha_influence": 0.0,
                    "backface_color": 0.0,
                    "roughness": 0.5,
                    "metallic": 0.0,
                    "displacement_strength": 0.0,
                    "displacement_scale": 1.0,
                    "paper_color": [
                        0.5250983238220215,
                        0.5005860924720764,
                        0.4895072281360626,
                        1.0
                    ],
                    "wear_strength": 0.0,
                    "wear_start": 0.0,
                    "wear_end": 1.0,
                    "wear_distortion_strength": 0.5,
                    "wear_distortion_scale": 100.0,
                    "emission_color": [
                        1.0,
                        1.0,
                        1.0,
                        1.0
                    ],
                    "emission_strength": 0.0,
                    "normal_strength": 1.0,
                    "normal_use_uv2": 0.0
                }
            },
            "name": "roots",
            "normalTexture": {
                "index": 0
            },
            "pbrMetallicRoughness": {
                "baseColorTexture": {
                    "index": 1
                }
            }
        }
    ],
    "meshes": [
        {
            "name": "Cube.003",
            "primitives": [
                {
                    "attributes": {
                        "POSITION": 0,
                        "NORMAL": 1,
                        "TEXCOORD_0": 2
                    },
                    "indices": 3,
                    "material": 0
                }
            ]
        }
    ],
    "textures": [
        {
            "sampler": 0,
            "source": 0
        },
        {
            "sampler": 0,
            "source": 1
        }
    ],
    "images": [
        {
            "extras": {
                "source_path": "assets/lib/textures/roots_simple-normal.png"
            },
            "mimeType": "image/png",
            "name": "roots_simple-normal",
            "uri": "../../textures/roots_simple-normal.png"
        },
        {
            "extras": {
                "source_path": "assets/lib/textures/roots_simple-albedo.png"
            },
            "mimeType": "image/png",
            "name": "roots_simple-albedo",
            "uri": "../../textures/roots_simple-albedo.png"
        }
    ],
    "accessors": [
        {
            "bufferView": 0,
            "componentType": 5126,
            "count": 177,
            "max": [
                0.7564733028411865,
                0.19735895097255707,
                0.14053690433502197
            ],
            "min": [
                -0.5915188789367676,
                -0.008785382844507694,
                -0.4068499505519867
            ],
            "type": "VEC3"
        },
        {
            "bufferView": 1,
            "componentType": 5126,
            "count": 177,
            "type": "VEC3"
        },
        {
            "bufferView": 2,
            "componentType": 5126,
            "count": 177,
            "type": "VEC2"
        },
        {
            "bufferView": 3,
            "componentType": 5123,
            "count": 618,
            "type": "SCALAR"
        }
    ],
    "bufferViews": [
        {
            "buffer": 0,
            "byteLength": 2124,
            "byteOffset": 0,
            "target": 34962
        },
        {
            "buffer": 0,
            "byteLength": 2124,
            "byteOffset": 2124,
            "target": 34962
        },
        {
            "buffer": 0,
            "byteLength": 1416,
            "byteOffset": 4248,
            "target": 34962
        },
        {
            "buffer": 0,
            "byteLength": 1236,
            "byteOffset": 5664,
            "target": 34963
        }
    ],
    "samplers": [
        {
            "magFilter": 9729,
            "minFilter": 9987
        }
    ],
    "buffers": [
        {
            "byteLength": 6900,
            "uri": "LI-root_04.bin"
        }
    ]
}