{
    "asset": {
        "generator": "Khronos glTF Blender I/O v4.5.15",
        "version": "2.0"
    },
    "scene": 0,
    "scenes": [
        {
            "extras": {
                "gltfIOGodotAssetProperties": {
                    "export_type": 2,
                    "root_type": 1,
                    "asset_name": "LI-tree_stump_sitting_005"
                },
                "asset_type": "ASSET",
                "root_type": "STATIC",
                "asset_id": "a31bc6fa579dc00e"
            },
            "name": "LI-tree_stump_sitting_005",
            "nodes": [
                0,
                1
            ]
        }
    ],
    "nodes": [
        {
            "extras": {
                "ant_landscape": {}
            },
            "mesh": 0,
            "name": "GEO-tree_stump_hull_001.001"
        },
        {
            "extras": {
                "booleans": {},
                "collision_info": {
                    "type": "PRIMITIVE",
                    "shape": 3,
                    "radius": 0.335999995470047,
                    "height": 1.5,
                    "size": [
                        1.0,
                        1.0,
                        1.0
                    ]
                },
                "ant_landscape": {}
            },
            "name": "COL-tree_trump_collision_primitive_005",
            "translation": [
                0.011034194380044937,
                0.4764103293418884,
                0.007706421427428722
            ]
        }
    ],
    "materials": [
        {
            "alphaMode": "BLEND",
            "doubleSided": true,
            "emissiveFactor": [
                1,
                1,
                1
            ],
            "extras": {
                "asset_id": "4e2fb75edc208126",
                "material_info": {
                    "albedo_color": [
                        1.0,
                        1.0,
                        1.0,
                        1.0
                    ],
                    "alpha": 1.0,
                    "edge_alpha": 1.0,
                    "alpha_influence": 0.0,
                    "backface_color": 0.0,
                    "metallic": 0.0,
                    "displacement_strength": 0.0,
                    "displacement_scale": 1.0,
                    "paper_color": [
                        1.0,
                        1.0,
                        1.0,
                        1.0
                    ],
                    "wear_strength": 0.5,
                    "wear_start": 0.6799999475479126,
                    "wear_end": 1.0,
                    "wear_distortion_strength": 0.12000000476837158,
                    "wear_distortion_scale": 100.0,
                    "emission_color": [
                        1.0,
                        1.0,
                        1.0,
                        1.0
                    ],
                    "emission_strength": 0.0,
                    "normal_strength": 0.5,
                    "normal_use_uv2": 1.0
                }
            },
            "name": "tree_stump",
            "normalTexture": {
                "index": 0,
                "texCoord": 1
            },
            "pbrMetallicRoughness": {
                "baseColorTexture": {
                    "index": 1
                },
                "metallicRoughnessTexture": {
                    "index": 2
                }
            }
        },
        {
            "alphaMode": "BLEND",
            "doubleSided": true,
            "emissiveFactor": [
                1,
                1,
                1
            ],
            "extras": {
                "material_info": {
                    "albedo_color": [
                        1.0,
                        1.0,
                        1.0,
                        1.0
                    ],
                    "alpha": 1.0,
                    "edge_alpha": 1.0,
                    "alpha_influence": 0.0,
                    "backface_color": 0.0,
                    "metallic": 0.0,
                    "displacement_strength": 0.0,
                    "displacement_scale": 1.0,
                    "paper_color": [
                        1.0,
                        1.0,
                        1.0,
                        1.0
                    ],
                    "wear_strength": 1.0,
                    "wear_start": 0.0,
                    "wear_end": 1.0,
                    "wear_distortion_strength": 0.20000000298023224,
                    "wear_distortion_scale": 64.0,
                    "emission_color": [
                        1.0,
                        1.0,
                        1.0,
                        1.0
                    ],
                    "emission_strength": 0.0,
                    "normal_strength": 0.20000000298023224,
                    "normal_use_uv2": 0.0
                },
                "asset_id": "324c227a470c9078"
            },
            "name": "pine_bark_alt-stump",
            "normalTexture": {
                "index": 3,
                "texCoord": 1
            },
            "pbrMetallicRoughness": {
                "baseColorTexture": {
                    "index": 4
                },
                "metallicRoughnessTexture": {
                    "index": 5
                }
            }
        }
    ],
    "meshes": [
        {
            "name": "Circle.034",
            "primitives": [
                {
                    "attributes": {
                        "POSITION": 0,
                        "NORMAL": 1,
                        "TEXCOORD_0": 2,
                        "TEXCOORD_1": 3,
                        "COLOR_0": 4
                    },
                    "indices": 5,
                    "material": 0
                },
                {
                    "attributes": {
                        "POSITION": 6,
                        "NORMAL": 7,
                        "TEXCOORD_0": 8,
                        "TEXCOORD_1": 9,
                        "COLOR_0": 10
                    },
                    "indices": 11,
                    "material": 1
                }
            ]
        }
    ],
    "textures": [
        {
            "sampler": 0,
            "source": 0
        },
        {
            "sampler": 0,
            "source": 1
        },
        {
            "sampler": 0,
            "source": 2
        },
        {
            "sampler": 0,
            "source": 3
        },
        {
            "sampler": 0,
            "source": 4
        },
        {
            "sampler": 0,
            "source": 5
        }
    ],
    "images": [
        {
            "extras": {
                "source_path": "assets/textures/paper_rough_medium-normal.png"
            },
            "mimeType": "image/png",
            "name": "paper_rough_medium-normal",
            "uri": "../../../textures/paper_rough_medium-normal.png"
        },
        {
            "extras": {
                "source_path": "assets/lib/textures/tree_stumps_albedo_01.png"
            },
            "mimeType": "image/png",
            "name": "tree_stumps_albedo_01",
            "uri": "../../textures/tree_stumps_albedo_01.png"
        },
        {
            "extras": {
                "source_path": "assets/lib/textures/tree_stumps_roughness_01.png"
            },
            "mimeType": "image/png",
            "name": "tree_stumps_roughness_01",
            "uri": "../../textures/tree_stumps_roughness_01.png"
        },
        {
            "extras": {
                "source_path": "assets/textures/paper_rough_large-normal.png"
            },
            "mimeType": "image/png",
            "name": "paper_rough_large-normal",
            "uri": "../../../textures/paper_rough_large-normal.png"
        },
        {
            "extras": {
                "source_path": "assets/lib/textures/pine_bark_alt_albedo_01.png"
            },
            "mimeType": "image/png",
            "name": "pine_bark_alt_albedo_01",
            "uri": "../../textures/pine_bark_alt_albedo_01.png"
        },
        {
            "extras": {
                "source_path": "assets/lib/textures/pine_bark_alt_roughness_01.png"
            },
            "mimeType": "image/png",
            "name": "pine_bark_alt_roughness_01",
            "uri": "../../textures/pine_bark_alt_roughness_01.png"
        }
    ],
    "accessors": [
        {
            "bufferView": 0,
            "componentType": 5126,
            "count": 184,
            "max": [
                0.320780873298645,
                0.5418701171875,
                0.2987675070762634
            ],
            "min": [
                -0.2801811397075653,
                0.48951488733291626,
                -0.2967810034751892
            ],
            "type": "VEC3"
        },
        {
            "bufferView": 1,
            "componentType": 5126,
            "count": 184,
            "type": "VEC3"
        },
        {
            "bufferView": 2,
            "componentType": 5126,
            "count": 184,
            "type": "VEC2"
        },
        {
            "bufferView": 3,
            "componentType": 5126,
            "count": 184,
            "type": "VEC2"
        },
        {
            "bufferView": 4,
            "componentType": 5123,
            "count": 184,
            "normalized": true,
            "type": "VEC4"
        },
        {
            "bufferView": 5,
            "componentType": 5123,
            "count": 708,
            "type": "SCALAR"
        },
        {
            "bufferView": 6,
            "componentType": 5126,
            "count": 127,
            "max": [
                0.35338473320007324,
                0.5416305661201477,
                0.33379337191581726
            ],
            "min": [
                -0.3187033534049988,
                -0.0016459630569443107,
                -0.3257392942905426
            ],
            "type": "VEC3"
        },
        {
            "bufferView": 7,
            "componentType": 5126,
            "count": 127,
            "type": "VEC3"
        },
        {
            "bufferView": 8,
            "componentType": 5126,
            "count": 127,
            "type": "VEC2"
        },
        {
            "bufferView": 9,
            "componentType": 5126,
            "count": 127,
            "type": "VEC2"
        },
        {
            "bufferView": 10,
            "componentType": 5123,
            "count": 127,
            "normalized": true,
            "type": "VEC4"
        },
        {
            "bufferView": 11,
            "componentType": 5123,
            "count": 576,
            "type": "SCALAR"
        }
    ],
    "bufferViews": [
        {
            "buffer": 0,
            "byteLength": 2208,
            "byteOffset": 0,
            "target": 34962
        },
        {
            "buffer": 0,
            "byteLength": 2208,
            "byteOffset": 2208,
            "target": 34962
        },
        {
            "buffer": 0,
            "byteLength": 1472,
            "byteOffset": 4416,
            "target": 34962
        },
        {
            "buffer": 0,
            "byteLength": 1472,
            "byteOffset": 5888,
            "target": 34962
        },
        {
            "buffer": 0,
            "byteLength": 1472,
            "byteOffset": 7360,
            "target": 34962
        },
        {
            "buffer": 0,
            "byteLength": 1416,
            "byteOffset": 8832,
            "target": 34963
        },
        {
            "buffer": 0,
            "byteLength": 1524,
            "byteOffset": 10248,
            "target": 34962
        },
        {
            "buffer": 0,
            "byteLength": 1524,
            "byteOffset": 11772,
            "target": 34962
        },
        {
            "buffer": 0,
            "byteLength": 1016,
            "byteOffset": 13296,
            "target": 34962
        },
        {
            "buffer": 0,
            "byteLength": 1016,
            "byteOffset": 14312,
            "target": 34962
        },
        {
            "buffer": 0,
            "byteLength": 1016,
            "byteOffset": 15328,
            "target": 34962
        },
        {
            "buffer": 0,
            "byteLength": 1152,
            "byteOffset": 16344,
            "target": 34963
        }
    ],
    "samplers": [
        {
            "magFilter": 9729,
            "minFilter": 9987
        }
    ],
    "buffers": [
        {
            "byteLength": 17496,
            "uri": "LI-tree_stump_sitting_005.bin"
        }
    ]
}