{
    "asset": {
        "generator": "Khronos glTF Blender I/O v4.5.15",
        "version": "2.0"
    },
    "scene": 0,
    "scenes": [
        {
            "extras": {
                "gltfIOGodotAssetProperties": {
                    "export_type": 2,
                    "root_type": 1,
                    "append_parent_collection": 0,
                    "asset_name": "PR-camping_table"
                },
                "asset_type": "ASSET",
                "root_type": "STATIC",
                "asset_id": "83fe4bb0f5fa3f2f"
            },
            "name": "PR-camping_table",
            "nodes": [
                0,
                1,
                2,
                3,
                4,
                5,
                6,
                7,
                8,
                9,
                10,
                11,
                12
            ]
        }
    ],
    "nodes": [
        {
            "extras": {
                "ant_landscape": {}
            },
            "mesh": 0,
            "name": "GEO-camping_table-wood",
            "translation": [
                -0.0021182140335440636,
                0.06913290172815323,
                -0.0015075223054736853
            ]
        },
        {
            "extras": {
                "ant_landscape": {}
            },
            "mesh": 1,
            "name": "GEO-camping_table-poles",
            "translation": [
                0,
                0.06870895624160767,
                0
            ]
        },
        {
            "extras": {
                "ant_landscape": {}
            },
            "mesh": 2,
            "name": "GEO-camping_table-nails",
            "translation": [
                0,
                0.06870895624160767,
                0
            ]
        },
        {
            "extras": {
                "ant_landscape": {}
            },
            "mesh": 3,
            "name": "GEO-camping_table-snow",
            "translation": [
                0,
                0.06870895624160767,
                0
            ]
        },
        {
            "extras": {
                "collision_info": {
                    "type": "MESH",
                    "concave": true
                },
                "visibility_info": {
                    "shadow": false
                }
            },
            "mesh": 4,
            "name": "COL-camping_table",
            "translation": [
                0,
                0.06870895624160767,
                0
            ]
        },
        {
            "name": "HLP-leash_point",
            "translation": [
                -1.131535291671753,
                0.6714354753494263,
                1.321180820465088
            ]
        },
        {
            "name": "HLP-leash_point.001",
            "translation": [
                1.1140823364257812,
                0.6714354753494263,
                1.3356519937515259
            ]
        },
        {
            "name": "HLP-leash_point.002",
            "translation": [
                1.1525009870529175,
                0.6714354753494263,
                -1.3614180088043213
            ]
        },
        {
            "name": "HLP-leash_point.003",
            "translation": [
                -1.1353670358657837,
                0.6714354753494263,
                -1.3859087228775024
            ]
        },
        {
            "name": "HLP-leash_point.004",
            "translation": [
                1.0780607461929321,
                0.6714354753494263,
                -1.4488853216171265
            ]
        },
        {
            "name": "HLP-leash_point.005",
            "translation": [
                -1.083109974861145,
                0.6714354753494263,
                -1.4502251148223877
            ]
        },
        {
            "name": "HLP-leash_point.006",
            "translation": [
                -1.0832979679107666,
                0.6714354753494263,
                1.3694181442260742
            ]
        },
        {
            "name": "HLP-leash_point.007",
            "translation": [
                1.1671433448791504,
                0.6714354753494263,
                1.2793751955032349
            ]
        }
    ],
    "materials": [
        {
            "alphaMode": "BLEND",
            "doubleSided": true,
            "emissiveFactor": [
                1,
                1,
                1
            ],
            "extras": {
                "asset_id": "c3e81fcc37649a8b",
                "material_info": {
                    "albedo_color": [
                        1.0,
                        1.0,
                        1.0,
                        1.0
                    ],
                    "alpha": 1.0,
                    "edge_alpha": 1.0,
                    "alpha_influence": 0.0,
                    "backface_color": 0.0,
                    "metallic": 0.0,
                    "displacement_strength": 0.0,
                    "displacement_scale": 1.0,
                    "paper_color": [
                        1.0,
                        1.0,
                        1.0,
                        1.0
                    ],
                    "wear_strength": 0.0,
                    "wear_start": 0.0,
                    "wear_end": 1.0,
                    "wear_distortion_strength": 0.5,
                    "wear_distortion_scale": 100.0,
                    "emission_color": [
                        1.0,
                        1.0,
                        1.0,
                        1.0
                    ],
                    "emission_strength": 0.0,
                    "normal_strength": 0.20000000298023224,
                    "normal_use_uv2": 0.0
                }
            },
            "name": "camping_table_wood",
            "normalTexture": {
                "index": 0,
                "texCoord": 1
            },
            "pbrMetallicRoughness": {
                "baseColorTexture": {
                    "index": 1
                },
                "metallicRoughnessTexture": {
                    "index": 2
                }
            }
        },
        {
            "alphaMode": "BLEND",
            "doubleSided": true,
            "emissiveFactor": [
                1,
                1,
                1
            ],
            "extras": {
                "asset_id": "7e66061d44175ad9",
                "material_info": {
                    "base_color": [
                        1.0,
                        1.0,
                        1.0,
                        1.0
                    ],
                    "albedo_color": [
                        0.06026380881667137,
                        0.20076748728752136,
                        0.23971623182296753,
                        1.0
                    ],
                    "alpha": 1.0,
                    "edge_alpha": 1.0,
                    "alpha_influence": 0.0,
                    "backface_color": 0.0,
                    "roughness": 0.5,
                    "metallic": 0.0,
                    "displacement_strength": 0.0,
                    "displacement_scale": 1.0,
                    "paper_color": [
                        1.0,
                        1.0,
                        1.0,
                        1.0
                    ],
                    "wear_strength": 0.0,
                    "wear_start": 0.0,
                    "wear_end": 1.0,
                    "wear_distortion_strength": 0.5,
                    "wear_distortion_scale": 100.0,
                    "emission_color": [
                        1.0,
                        1.0,
                        1.0,
                        1.0
                    ],
                    "emission_strength": 0.0,
                    "normal_strength": 0.5,
                    "normal_use_uv2": 0.0
                }
            },
            "name": "camping_table-nails",
            "normalTexture": {
                "index": 3,
                "texCoord": 1
            }
        },
        {
            "doubleSided": true,
            "extras": {
                "asset_id": "e4d233f78446f978"
            },
            "name": "camping_table_snow",
            "normalTexture": {
                "index": 4
            },
            "pbrMetallicRoughness": {
                "baseColorTexture": {
                    "index": 5
                },
                "metallicFactor": 0,
                "roughnessFactor": 0.5
            }
        }
    ],
    "meshes": [
        {
            "name": "Plane",
            "primitives": [
                {
                    "attributes": {
                        "POSITION": 0,
                        "NORMAL": 1,
                        "TEXCOORD_0": 2,
                        "TEXCOORD_1": 3,
                        "COLOR_0": 4,
                        "COLOR_1": 5
                    },
                    "indices": 6,
                    "material": 0
                }
            ]
        },
        {
            "name": "Plane.001",
            "primitives": [
                {
                    "attributes": {
                        "POSITION": 7,
                        "NORMAL": 8,
                        "TEXCOORD_0": 9,
                        "TEXCOORD_1": 10,
                        "COLOR_0": 11,
                        "COLOR_1": 12
                    },
                    "indices": 13,
                    "material": 0
                }
            ]
        },
        {
            "name": "Plane.004",
            "primitives": [
                {
                    "attributes": {
                        "POSITION": 14,
                        "NORMAL": 15,
                        "TEXCOORD_0": 16,
                        "TEXCOORD_1": 17,
                        "COLOR_0": 18,
                        "COLOR_1": 19
                    },
                    "indices": 20,
                    "material": 1
                }
            ]
        },
        {
            "name": "Plane.006",
            "primitives": [
                {
                    "attributes": {
                        "POSITION": 21,
                        "NORMAL": 22,
                        "TEXCOORD_0": 23,
                        "TEXCOORD_1": 24,
                        "COLOR_0": 25,
                        "COLOR_1": 26
                    },
                    "indices": 27,
                    "material": 2
                }
            ]
        },
        {
            "name": "Cube",
            "primitives": [
                {
                    "attributes": {
                        "POSITION": 28,
                        "NORMAL": 29,
                        "TEXCOORD_0": 30
                    },
                    "indices": 31
                }
            ]
        }
    ],
    "textures": [
        {
            "sampler": 0,
            "source": 0
        },
        {
            "sampler": 0,
            "source": 1
        },
        {
            "sampler": 0,
            "source": 2
        },
        {
            "sampler": 0,
            "source": 0
        },
        {
            "sampler": 0,
            "source": 3
        },
        {
            "sampler": 0,
            "source": 4
        }
    ],
    "images": [
        {
            "extras": {
                "source_path": "assets/textures/paper_rough_medium-normal.png"
            },
            "mimeType": "image/png",
            "name": "paper_rough_medium-normal",
            "uri": "../../textures/paper_rough_medium-normal.png"
        },
        {
            "extras": {
                "source_path": "assets/props/camping_table/textures/camping_table-albedo.png"
            },
            "mimeType": "image/png",
            "name": "camping_table-albedo",
            "uri": "textures/camping_table-albedo.png"
        },
        {
            "mimeType": "image/png",
            "name": "camping_table-roughness",
            "uri": "textures/camping_table-roughness.png"
        },
        {
            "extras": {
                "source_path": "assets/textures/snow_gen_normal-01.png"
            },
            "mimeType": "image/png",
            "name": "snow_gen_normal-01",
            "uri": "../../textures/snow_gen_normal-01.png"
        },
        {
            "extras": {
                "source_path": "assets/textures/snow_gen_albedo-01.png"
            },
            "mimeType": "image/png",
            "name": "snow_gen_albedo-01",
            "uri": "../../textures/snow_gen_albedo-01.png"
        }
    ],
    "accessors": [
        {
            "bufferView": 0,
            "componentType": 5126,
            "count": 418,
            "max": [
                1.1377142667770386,
                0.9957123398780823,
                1.400023102760315
            ],
            "min": [
                -1.1229004859924316,
                0.5542734265327454,
                -1.441623330116272
            ],
            "type": "VEC3"
        },
        {
            "bufferView": 1,
            "componentType": 5126,
            "count": 418,
            "type": "VEC3"
        },
        {
            "bufferView": 2,
            "componentType": 5126,
            "count": 418,
            "type": "VEC2"
        },
        {
            "bufferView": 3,
            "componentType": 5126,
            "count": 418,
            "type": "VEC2"
        },
        {
            "bufferView": 4,
            "componentType": 5121,
            "count": 418,
            "normalized": true,
            "type": "VEC4"
        },
        {
            "bufferView": 5,
            "componentType": 5123,
            "count": 418,
            "normalized": true,
            "type": "VEC4"
        },
        {
            "bufferView": 6,
            "componentType": 5123,
            "count": 1896,
            "type": "SCALAR"
        },
        {
            "bufferView": 7,
            "componentType": 5126,
            "count": 190,
            "max": [
                1.1222323179244995,
                0.8764650821685791,
                1.114927053451538
            ],
            "min": [
                -1.1222323179244995,
                -0.070975661277771,
                -1.114927053451538
            ],
            "type": "VEC3"
        },
        {
            "bufferView": 8,
            "componentType": 5126,
            "count": 190,
            "type": "VEC3"
        },
        {
            "bufferView": 9,
            "componentType": 5126,
            "count": 190,
            "type": "VEC2"
        },
        {
            "bufferView": 10,
            "componentType": 5126,
            "count": 190,
            "type": "VEC2"
        },
        {
            "bufferView": 11,
            "componentType": 5121,
            "count": 190,
            "normalized": true,
            "type": "VEC4"
        },
        {
            "bufferView": 12,
            "componentType": 5123,
            "count": 190,
            "normalized": true,
            "type": "VEC4"
        },
        {
            "bufferView": 13,
            "componentType": 5123,
            "count": 528,
            "type": "SCALAR"
        },
        {
            "bufferView": 14,
            "componentType": 5126,
            "count": 120,
            "max": [
                0.5228798985481262,
                0.5231190919876099,
                1.149784803390503
            ],
            "min": [
                -0.5228798985481262,
                0.41792410612106323,
                -1.149784803390503
            ],
            "type": "VEC3"
        },
        {
            "bufferView": 15,
            "componentType": 5126,
            "count": 120,
            "type": "VEC3"
        },
        {
            "bufferView": 16,
            "componentType": 5126,
            "count": 120,
            "type": "VEC2"
        },
        {
            "bufferView": 17,
            "componentType": 5126,
            "count": 120,
            "type": "VEC2"
        },
        {
            "bufferView": 18,
            "componentType": 5121,
            "count": 120,
            "normalized": true,
            "type": "VEC4"
        },
        {
            "bufferView": 19,
            "componentType": 5123,
            "count": 120,
            "normalized": true,
            "type": "VEC4"
        },
        {
            "bufferView": 20,
            "componentType": 5123,
            "count": 192,
            "type": "SCALAR"
        },
        {
            "bufferView": 21,
            "componentType": 5126,
            "count": 180,
            "max": [
                1.1649240255355835,
                1.0074886083602905,
                1.3988521099090576
            ],
            "min": [
                -1.127905011177063,
                0.663029134273529,
                -1.4511958360671997
            ],
            "type": "VEC3"
        },
        {
            "bufferView": 22,
            "componentType": 5126,
            "count": 180,
            "type": "VEC3"
        },
        {
            "bufferView": 23,
            "componentType": 5126,
            "count": 180,
            "type": "VEC2"
        },
        {
            "bufferView": 24,
            "componentType": 5126,
            "count": 180,
            "type": "VEC2"
        },
        {
            "bufferView": 25,
            "componentType": 5121,
            "count": 180,
            "normalized": true,
            "type": "VEC4"
        },
        {
            "bufferView": 26,
            "componentType": 5123,
            "count": 180,
            "normalized": true,
            "type": "VEC4"
        },
        {
            "bufferView": 27,
            "componentType": 5123,
            "count": 801,
            "type": "SCALAR"
        },
        {
            "bufferView": 28,
            "componentType": 5126,
            "count": 133,
            "max": [
                1.2089422941207886,
                1,
                1.39227294921875
            ],
            "min": [
                -1.1875563859939575,
                -0.13534510135650635,
                -1.4558314085006714
            ],
            "type": "VEC3"
        },
        {
            "bufferView": 29,
            "componentType": 5126,
            "count": 133,
            "type": "VEC3"
        },
        {
            "bufferView": 30,
            "componentType": 5126,
            "count": 133,
            "type": "VEC2"
        },
        {
            "bufferView": 31,
            "componentType": 5123,
            "count": 240,
            "type": "SCALAR"
        }
    ],
    "bufferViews": [
        {
            "buffer": 0,
            "byteLength": 5016,
            "byteOffset": 0,
            "target": 34962
        },
        {
            "buffer": 0,
            "byteLength": 5016,
            "byteOffset": 5016,
            "target": 34962
        },
        {
            "buffer": 0,
            "byteLength": 3344,
            "byteOffset": 10032,
            "target": 34962
        },
        {
            "buffer": 0,
            "byteLength": 3344,
            "byteOffset": 13376,
            "target": 34962
        },
        {
            "buffer": 0,
            "byteLength": 1672,
            "byteOffset": 16720,
            "target": 34962
        },
        {
            "buffer": 0,
            "byteLength": 3344,
            "byteOffset": 18392,
            "target": 34962
        },
        {
            "buffer": 0,
            "byteLength": 3792,
            "byteOffset": 21736,
            "target": 34963
        },
        {
            "buffer": 0,
            "byteLength": 2280,
            "byteOffset": 25528,
            "target": 34962
        },
        {
            "buffer": 0,
            "byteLength": 2280,
            "byteOffset": 27808,
            "target": 34962
        },
        {
            "buffer": 0,
            "byteLength": 1520,
            "byteOffset": 30088,
            "target": 34962
        },
        {
            "buffer": 0,
            "byteLength": 1520,
            "byteOffset": 31608,
            "target": 34962
        },
        {
            "buffer": 0,
            "byteLength": 760,
            "byteOffset": 33128,
            "target": 34962
        },
        {
            "buffer": 0,
            "byteLength": 1520,
            "byteOffset": 33888,
            "target": 34962
        },
        {
            "buffer": 0,
            "byteLength": 1056,
            "byteOffset": 35408,
            "target": 34963
        },
        {
            "buffer": 0,
            "byteLength": 1440,
            "byteOffset": 36464,
            "target": 34962
        },
        {
            "buffer": 0,
            "byteLength": 1440,
            "byteOffset": 37904,
            "target": 34962
        },
        {
            "buffer": 0,
            "byteLength": 960,
            "byteOffset": 39344,
            "target": 34962
        },
        {
            "buffer": 0,
            "byteLength": 960,
            "byteOffset": 40304,
            "target": 34962
        },
        {
            "buffer": 0,
            "byteLength": 480,
            "byteOffset": 41264,
            "target": 34962
        },
        {
            "buffer": 0,
            "byteLength": 960,
            "byteOffset": 41744,
            "target": 34962
        },
        {
            "buffer": 0,
            "byteLength": 384,
            "byteOffset": 42704,
            "target": 34963
        },
        {
            "buffer": 0,
            "byteLength": 2160,
            "byteOffset": 43088,
            "target": 34962
        },
        {
            "buffer": 0,
            "byteLength": 2160,
            "byteOffset": 45248,
            "target": 34962
        },
        {
            "buffer": 0,
            "byteLength": 1440,
            "byteOffset": 47408,
            "target": 34962
        },
        {
            "buffer": 0,
            "byteLength": 1440,
            "byteOffset": 48848,
            "target": 34962
        },
        {
            "buffer": 0,
            "byteLength": 720,
            "byteOffset": 50288,
            "target": 34962
        },
        {
            "buffer": 0,
            "byteLength": 1440,
            "byteOffset": 51008,
            "target": 34962
        },
        {
            "buffer": 0,
            "byteLength": 1602,
            "byteOffset": 52448,
            "target": 34963
        },
        {
            "buffer": 0,
            "byteLength": 1596,
            "byteOffset": 54052,
            "target": 34962
        },
        {
            "buffer": 0,
            "byteLength": 1596,
            "byteOffset": 55648,
            "target": 34962
        },
        {
            "buffer": 0,
            "byteLength": 1064,
            "byteOffset": 57244,
            "target": 34962
        },
        {
            "buffer": 0,
            "byteLength": 480,
            "byteOffset": 58308,
            "target": 34963
        }
    ],
    "samplers": [
        {
            "magFilter": 9729,
            "minFilter": 9987
        }
    ],
    "buffers": [
        {
            "byteLength": 58788,
            "uri": "PR-camping_table.bin"
        }
    ]
}