{
	"asset":{
		"generator":"Khronos glTF Blender I/O v4.5.15",
		"version":"2.0"
	},
	"scene":0,
	"scenes":[
		{
			"extras":{
				"gltfIOGodotAssetProperties":{
					"export_type":1,
					"anim_type":1,
					"asset_name":"no",
					"append_parent_collection":0
				},
				"asset_type":"ANIMATION",
				"anim_type":"ACTN",
				"ref_asset_id":"945b5f78864455c8",
				"asset_id":"bc91781f506c9a64",
				"root_type":"NONE"
			},
			"name":"EXPORT-fence_gate",
			"nodes":[
				11
			]
		}
	],
	"nodes":[
		{
			"name":"lock",
			"rotation":[
				-7.049681016724207e-08,
				-1.7111734251784583e-08,
				0.7071067690849304,
				0.7071067690849304
			],
			"translation":[
				1.384212613105774,
				0.41930490732192993,
				-0.13451609015464783
			]
		},
		{
			"children":[
				0
			],
			"name":"gate",
			"translation":[
				-0.8960584402084351,
				0.6015253663063049,
				-0.007503792643547058
			]
		},
		{
			"name":"plank",
			"rotation":[
				-7.105427357601002e-15,
				0,
				0,
				1
			],
			"translation":[
				0.6459311246871948,
				0.014276151545345783,
				-0.08043216913938522
			]
		},
		{
			"children":[
				2
			],
			"name":"P-plank",
			"rotation":[
				-2.2966666790580348e-07,
				-0.021619781851768494,
				4.966504096870494e-09,
				0.9997662901878357
			],
			"translation":[
				-4.4750895500183105,
				0.35652416944503784,
				0.23632337152957916
			]
		},
		{
			"children":[
				1,
				3
			],
			"name":"subroot"
		},
		{
			"name":"pivot_gate_south",
			"rotation":[
				-1.6875095206836735e-14,
				-1,
				2.2351741790771484e-07,
				7.549790126404332e-08
			],
			"translation":[
				0,
				0,
				0.6874390244483948
			]
		},
		{
			"name":"pivot_fence",
			"rotation":[
				-1.6875095206836735e-14,
				-1,
				2.2351741790771484e-07,
				7.549790126404332e-08
			],
			"translation":[
				-1.7719180583953857,
				0,
				0.6508200168609619
			]
		},
		{
			"name":"pivot_plank_south",
			"rotation":[
				-1.6875095206836735e-14,
				-1,
				2.2351741790771484e-07,
				7.549790126404332e-08
			],
			"translation":[
				-3.6418609619140625,
				0,
				0.6179264783859253
			]
		},
		{
			"name":"pivot_plank_north",
			"rotation":[
				-2.2351741790771484e-07,
				0,
				0,
				1
			],
			"translation":[
				-3.686541795730591,
				0,
				-0.5019215941429138
			]
		},
		{
			"name":"pivot_gate_north",
			"rotation":[
				-2.2351741790771484e-07,
				-1.8626446163239052e-08,
				-1.862644793959589e-08,
				1
			],
			"translation":[
				-0.19226300716400146,
				0,
				-0.8053190112113953
			]
		},
		{
			"children":[
				4,
				5,
				6,
				7,
				8,
				9
			],
			"name":"root"
		},
		{
			"children":[
				10
			],
			"extras":{
				"cloudrig":{
					"generator":{
						"target_rig":{},
						"custom_script":{},
						"widget_collection":{},
						"test_action":{}
					}
				},
				"cloudrig_prefs":{},
				"booleans":{
					"slice_of":{}
				},
				"yp":{}
			},
			"name":"RIG-fence_gate"
		}
	],
	"animations":[
		{
			"channels":[
				{
					"sampler":0,
					"target":{
						"node":10,
						"path":"translation"
					}
				},
				{
					"sampler":1,
					"target":{
						"node":10,
						"path":"rotation"
					}
				},
				{
					"sampler":2,
					"target":{
						"node":10,
						"path":"scale"
					}
				},
				{
					"sampler":3,
					"target":{
						"node":4,
						"path":"translation"
					}
				},
				{
					"sampler":4,
					"target":{
						"node":4,
						"path":"rotation"
					}
				},
				{
					"sampler":5,
					"target":{
						"node":4,
						"path":"scale"
					}
				},
				{
					"sampler":6,
					"target":{
						"node":1,
						"path":"translation"
					}
				},
				{
					"sampler":7,
					"target":{
						"node":1,
						"path":"rotation"
					}
				},
				{
					"sampler":8,
					"target":{
						"node":1,
						"path":"scale"
					}
				},
				{
					"sampler":9,
					"target":{
						"node":0,
						"path":"translation"
					}
				},
				{
					"sampler":10,
					"target":{
						"node":0,
						"path":"rotation"
					}
				},
				{
					"sampler":11,
					"target":{
						"node":0,
						"path":"scale"
					}
				},
				{
					"sampler":12,
					"target":{
						"node":3,
						"path":"translation"
					}
				},
				{
					"sampler":13,
					"target":{
						"node":3,
						"path":"rotation"
					}
				},
				{
					"sampler":14,
					"target":{
						"node":3,
						"path":"scale"
					}
				},
				{
					"sampler":15,
					"target":{
						"node":2,
						"path":"translation"
					}
				},
				{
					"sampler":16,
					"target":{
						"node":2,
						"path":"rotation"
					}
				},
				{
					"sampler":17,
					"target":{
						"node":2,
						"path":"scale"
					}
				},
				{
					"sampler":18,
					"target":{
						"node":5,
						"path":"translation"
					}
				},
				{
					"sampler":19,
					"target":{
						"node":5,
						"path":"rotation"
					}
				},
				{
					"sampler":20,
					"target":{
						"node":5,
						"path":"scale"
					}
				},
				{
					"sampler":21,
					"target":{
						"node":6,
						"path":"translation"
					}
				},
				{
					"sampler":22,
					"target":{
						"node":6,
						"path":"rotation"
					}
				},
				{
					"sampler":23,
					"target":{
						"node":6,
						"path":"scale"
					}
				},
				{
					"sampler":24,
					"target":{
						"node":7,
						"path":"translation"
					}
				},
				{
					"sampler":25,
					"target":{
						"node":7,
						"path":"rotation"
					}
				},
				{
					"sampler":26,
					"target":{
						"node":7,
						"path":"scale"
					}
				},
				{
					"sampler":27,
					"target":{
						"node":8,
						"path":"translation"
					}
				},
				{
					"sampler":28,
					"target":{
						"node":8,
						"path":"rotation"
					}
				},
				{
					"sampler":29,
					"target":{
						"node":8,
						"path":"scale"
					}
				},
				{
					"sampler":30,
					"target":{
						"node":9,
						"path":"translation"
					}
				},
				{
					"sampler":31,
					"target":{
						"node":9,
						"path":"rotation"
					}
				},
				{
					"sampler":32,
					"target":{
						"node":9,
						"path":"scale"
					}
				}
			],
			"name":"no",
			"samplers":[
				{
					"input":0,
					"interpolation":"STEP",
					"output":1
				},
				{
					"input":0,
					"interpolation":"STEP",
					"output":2
				},
				{
					"input":0,
					"interpolation":"STEP",
					"output":3
				},
				{
					"input":0,
					"interpolation":"STEP",
					"output":4
				},
				{
					"input":0,
					"interpolation":"STEP",
					"output":5
				},
				{
					"input":0,
					"interpolation":"STEP",
					"output":6
				},
				{
					"input":0,
					"interpolation":"STEP",
					"output":7
				},
				{
					"input":0,
					"interpolation":"STEP",
					"output":8
				},
				{
					"input":0,
					"interpolation":"STEP",
					"output":9
				},
				{
					"input":0,
					"interpolation":"STEP",
					"output":10
				},
				{
					"input":0,
					"interpolation":"STEP",
					"output":11
				},
				{
					"input":0,
					"interpolation":"STEP",
					"output":12
				},
				{
					"input":0,
					"interpolation":"STEP",
					"output":13
				},
				{
					"input":0,
					"interpolation":"STEP",
					"output":14
				},
				{
					"input":0,
					"interpolation":"STEP",
					"output":15
				},
				{
					"input":0,
					"interpolation":"STEP",
					"output":16
				},
				{
					"input":0,
					"interpolation":"STEP",
					"output":17
				},
				{
					"input":0,
					"interpolation":"STEP",
					"output":18
				},
				{
					"input":0,
					"interpolation":"STEP",
					"output":19
				},
				{
					"input":0,
					"interpolation":"STEP",
					"output":20
				},
				{
					"input":0,
					"interpolation":"STEP",
					"output":21
				},
				{
					"input":0,
					"interpolation":"STEP",
					"output":22
				},
				{
					"input":0,
					"interpolation":"STEP",
					"output":23
				},
				{
					"input":0,
					"interpolation":"STEP",
					"output":24
				},
				{
					"input":0,
					"interpolation":"STEP",
					"output":25
				},
				{
					"input":0,
					"interpolation":"STEP",
					"output":26
				},
				{
					"input":0,
					"interpolation":"STEP",
					"output":27
				},
				{
					"input":0,
					"interpolation":"STEP",
					"output":28
				},
				{
					"input":0,
					"interpolation":"STEP",
					"output":29
				},
				{
					"input":0,
					"interpolation":"STEP",
					"output":30
				},
				{
					"input":0,
					"interpolation":"STEP",
					"output":31
				},
				{
					"input":0,
					"interpolation":"STEP",
					"output":32
				},
				{
					"input":0,
					"interpolation":"STEP",
					"output":33
				}
			]
		}
	],
	"skins":[
		{
			"inverseBindMatrices":34,
			"joints":[
				10,
				4,
				1,
				0,
				3,
				2,
				5,
				6,
				7,
				8,
				9
			],
			"name":"RIG-fence_gate"
		}
	],
	"accessors":[
		{
			"bufferView":0,
			"componentType":5126,
			"count":1,
			"max":[
				0
			],
			"min":[
				0
			],
			"type":"SCALAR"
		},
		{
			"bufferView":1,
			"componentType":5126,
			"count":1,
			"type":"VEC3"
		},
		{
			"bufferView":2,
			"componentType":5126,
			"count":1,
			"type":"VEC4"
		},
		{
			"bufferView":3,
			"componentType":5126,
			"count":1,
			"type":"VEC3"
		},
		{
			"bufferView":4,
			"componentType":5126,
			"count":1,
			"type":"VEC3"
		},
		{
			"bufferView":5,
			"componentType":5126,
			"count":1,
			"type":"VEC4"
		},
		{
			"bufferView":6,
			"componentType":5126,
			"count":1,
			"type":"VEC3"
		},
		{
			"bufferView":7,
			"componentType":5126,
			"count":1,
			"type":"VEC3"
		},
		{
			"bufferView":8,
			"componentType":5126,
			"count":1,
			"type":"VEC4"
		},
		{
			"bufferView":9,
			"componentType":5126,
			"count":1,
			"type":"VEC3"
		},
		{
			"bufferView":10,
			"componentType":5126,
			"count":1,
			"type":"VEC3"
		},
		{
			"bufferView":11,
			"componentType":5126,
			"count":1,
			"type":"VEC4"
		},
		{
			"bufferView":12,
			"componentType":5126,
			"count":1,
			"type":"VEC3"
		},
		{
			"bufferView":13,
			"componentType":5126,
			"count":1,
			"type":"VEC3"
		},
		{
			"bufferView":14,
			"componentType":5126,
			"count":1,
			"type":"VEC4"
		},
		{
			"bufferView":15,
			"componentType":5126,
			"count":1,
			"type":"VEC3"
		},
		{
			"bufferView":16,
			"componentType":5126,
			"count":1,
			"type":"VEC3"
		},
		{
			"bufferView":17,
			"componentType":5126,
			"count":1,
			"type":"VEC4"
		},
		{
			"bufferView":18,
			"componentType":5126,
			"count":1,
			"type":"VEC3"
		},
		{
			"bufferView":19,
			"componentType":5126,
			"count":1,
			"type":"VEC3"
		},
		{
			"bufferView":20,
			"componentType":5126,
			"count":1,
			"type":"VEC4"
		},
		{
			"bufferView":21,
			"componentType":5126,
			"count":1,
			"type":"VEC3"
		},
		{
			"bufferView":22,
			"componentType":5126,
			"count":1,
			"type":"VEC3"
		},
		{
			"bufferView":23,
			"componentType":5126,
			"count":1,
			"type":"VEC4"
		},
		{
			"bufferView":24,
			"componentType":5126,
			"count":1,
			"type":"VEC3"
		},
		{
			"bufferView":25,
			"componentType":5126,
			"count":1,
			"type":"VEC3"
		},
		{
			"bufferView":26,
			"componentType":5126,
			"count":1,
			"type":"VEC4"
		},
		{
			"bufferView":27,
			"componentType":5126,
			"count":1,
			"type":"VEC3"
		},
		{
			"bufferView":28,
			"componentType":5126,
			"count":1,
			"type":"VEC3"
		},
		{
			"bufferView":29,
			"componentType":5126,
			"count":1,
			"type":"VEC4"
		},
		{
			"bufferView":30,
			"componentType":5126,
			"count":1,
			"type":"VEC3"
		},
		{
			"bufferView":31,
			"componentType":5126,
			"count":1,
			"type":"VEC3"
		},
		{
			"bufferView":32,
			"componentType":5126,
			"count":1,
			"type":"VEC4"
		},
		{
			"bufferView":33,
			"componentType":5126,
			"count":1,
			"type":"VEC3"
		},
		{
			"bufferView":34,
			"componentType":5126,
			"count":11,
			"type":"MAT4"
		}
	],
	"bufferViews":[
		{
			"buffer":0,
			"byteLength":4,
			"byteOffset":0
		},
		{
			"buffer":0,
			"byteLength":12,
			"byteOffset":4
		},
		{
			"buffer":0,
			"byteLength":16,
			"byteOffset":16
		},
		{
			"buffer":0,
			"byteLength":12,
			"byteOffset":32
		},
		{
			"buffer":0,
			"byteLength":12,
			"byteOffset":44
		},
		{
			"buffer":0,
			"byteLength":16,
			"byteOffset":56
		},
		{
			"buffer":0,
			"byteLength":12,
			"byteOffset":72
		},
		{
			"buffer":0,
			"byteLength":12,
			"byteOffset":84
		},
		{
			"buffer":0,
			"byteLength":16,
			"byteOffset":96
		},
		{
			"buffer":0,
			"byteLength":12,
			"byteOffset":112
		},
		{
			"buffer":0,
			"byteLength":12,
			"byteOffset":124
		},
		{
			"buffer":0,
			"byteLength":16,
			"byteOffset":136
		},
		{
			"buffer":0,
			"byteLength":12,
			"byteOffset":152
		},
		{
			"buffer":0,
			"byteLength":12,
			"byteOffset":164
		},
		{
			"buffer":0,
			"byteLength":16,
			"byteOffset":176
		},
		{
			"buffer":0,
			"byteLength":12,
			"byteOffset":192
		},
		{
			"buffer":0,
			"byteLength":12,
			"byteOffset":204
		},
		{
			"buffer":0,
			"byteLength":16,
			"byteOffset":216
		},
		{
			"buffer":0,
			"byteLength":12,
			"byteOffset":232
		},
		{
			"buffer":0,
			"byteLength":12,
			"byteOffset":244
		},
		{
			"buffer":0,
			"byteLength":16,
			"byteOffset":256
		},
		{
			"buffer":0,
			"byteLength":12,
			"byteOffset":272
		},
		{
			"buffer":0,
			"byteLength":12,
			"byteOffset":284
		},
		{
			"buffer":0,
			"byteLength":16,
			"byteOffset":296
		},
		{
			"buffer":0,
			"byteLength":12,
			"byteOffset":312
		},
		{
			"buffer":0,
			"byteLength":12,
			"byteOffset":324
		},
		{
			"buffer":0,
			"byteLength":16,
			"byteOffset":336
		},
		{
			"buffer":0,
			"byteLength":12,
			"byteOffset":352
		},
		{
			"buffer":0,
			"byteLength":12,
			"byteOffset":364
		},
		{
			"buffer":0,
			"byteLength":16,
			"byteOffset":376
		},
		{
			"buffer":0,
			"byteLength":12,
			"byteOffset":392
		},
		{
			"buffer":0,
			"byteLength":12,
			"byteOffset":404
		},
		{
			"buffer":0,
			"byteLength":16,
			"byteOffset":416
		},
		{
			"buffer":0,
			"byteLength":12,
			"byteOffset":432
		},
		{
			"buffer":0,
			"byteLength":704,
			"byteOffset":444
		}
	],
	"buffers":[
		{
			"byteLength":1148,
			"uri":"no.bin"
		}
	]
}
