{
	"asset":{
		"generator":"Khronos glTF Blender I/O v4.5.15",
		"version":"2.0"
	},
	"scene":0,
	"scenes":[
		{
			"extras":{
				"gltfIOGodotAssetProperties":{
					"export_type":1,
					"anim_type":5,
					"asset_name":"CINE-pinda_camera-outro",
					"append_parent_collection":0
				},
				"asset_type":"ANIMATION",
				"anim_type":"CINE",
				"ref_asset_id":"2d69b37ce1521f39",
				"asset_id":"9061e71eb5d21b1f",
				"root_type":"NONE"
			},
			"name":"EXPORT-pinda_camera",
			"nodes":[
				8
			]
		}
	],
	"nodes":[
		{
			"name":"button",
			"rotation":[
				0,
				1.1920927533992653e-07,
				0,
				1
			],
			"scale":[
				1,
				0.9999999403953552,
				1
			],
			"translation":[
				0.07318299263715744,
				0.1085360199213028,
				0
			]
		},
		{
			"name":"lanyard-3",
			"rotation":[
				1.6778018974150655e-08,
				2.078586192055809e-08,
				-0.09027980268001556,
				0.995916485786438
			],
			"scale":[
				0.9999999403953552,
				1,
				1
			],
			"translation":[
				-3.775976864517361e-09,
				0.059009432792663574,
				1.3501733064913424e-10
			]
		},
		{
			"children":[
				1
			],
			"name":"lanyard-2",
			"rotation":[
				-0.0042358338832855225,
				-0.000709032523445785,
				-0.1651008427143097,
				0.9862673282623291
			],
			"translation":[
				-1.5265644304207626e-10,
				0.0625111386179924,
				4.0745362639427185e-10
			]
		},
		{
			"children":[
				2
			],
			"name":"lanyard-1",
			"rotation":[
				-0.9709333181381226,
				0.2393118292093277,
				-0.0010277467081323266,
				0.004169887863099575
			],
			"scale":[
				1.0000009536743164,
				1.000000238418579,
				0.9999999403953552
			],
			"translation":[
				-0.1496955007314682,
				-0.12576961517333984,
				0.004463004879653454
			]
		},
		{
			"children":[
				0,
				3
			],
			"name":"pivot"
		},
		{
			"children":[
				4
			],
			"name":"camera"
		},
		{
			"children":[
				5
			],
			"name":"subroot"
		},
		{
			"children":[
				6
			],
			"name":"root"
		},
		{
			"children":[
				7
			],
			"name":"RIG-pinda_camera"
		}
	],
	"animations":[
		{
			"channels":[
				{
					"sampler":0,
					"target":{
						"node":7,
						"path":"translation"
					}
				},
				{
					"sampler":1,
					"target":{
						"node":7,
						"path":"rotation"
					}
				},
				{
					"sampler":2,
					"target":{
						"node":7,
						"path":"scale"
					}
				},
				{
					"sampler":3,
					"target":{
						"node":6,
						"path":"translation"
					}
				},
				{
					"sampler":4,
					"target":{
						"node":6,
						"path":"rotation"
					}
				},
				{
					"sampler":5,
					"target":{
						"node":6,
						"path":"scale"
					}
				},
				{
					"sampler":6,
					"target":{
						"node":5,
						"path":"translation"
					}
				},
				{
					"sampler":7,
					"target":{
						"node":5,
						"path":"rotation"
					}
				},
				{
					"sampler":8,
					"target":{
						"node":5,
						"path":"scale"
					}
				},
				{
					"sampler":9,
					"target":{
						"node":4,
						"path":"translation"
					}
				},
				{
					"sampler":10,
					"target":{
						"node":4,
						"path":"rotation"
					}
				},
				{
					"sampler":11,
					"target":{
						"node":4,
						"path":"scale"
					}
				},
				{
					"sampler":12,
					"target":{
						"node":0,
						"path":"translation"
					}
				},
				{
					"sampler":13,
					"target":{
						"node":0,
						"path":"rotation"
					}
				},
				{
					"sampler":14,
					"target":{
						"node":0,
						"path":"scale"
					}
				},
				{
					"sampler":15,
					"target":{
						"node":3,
						"path":"translation"
					}
				},
				{
					"sampler":16,
					"target":{
						"node":3,
						"path":"rotation"
					}
				},
				{
					"sampler":17,
					"target":{
						"node":3,
						"path":"scale"
					}
				},
				{
					"sampler":18,
					"target":{
						"node":2,
						"path":"translation"
					}
				},
				{
					"sampler":19,
					"target":{
						"node":2,
						"path":"rotation"
					}
				},
				{
					"sampler":20,
					"target":{
						"node":2,
						"path":"scale"
					}
				},
				{
					"sampler":21,
					"target":{
						"node":1,
						"path":"translation"
					}
				},
				{
					"sampler":22,
					"target":{
						"node":1,
						"path":"rotation"
					}
				},
				{
					"sampler":23,
					"target":{
						"node":1,
						"path":"scale"
					}
				}
			],
			"name":"CINE-pinda_camera-outro",
			"samplers":[
				{
					"input":0,
					"interpolation":"STEP",
					"output":1
				},
				{
					"input":0,
					"interpolation":"STEP",
					"output":2
				},
				{
					"input":0,
					"interpolation":"STEP",
					"output":3
				},
				{
					"input":4,
					"interpolation":"STEP",
					"output":5
				},
				{
					"input":4,
					"interpolation":"STEP",
					"output":6
				},
				{
					"input":4,
					"interpolation":"STEP",
					"output":7
				},
				{
					"input":4,
					"interpolation":"STEP",
					"output":8
				},
				{
					"input":4,
					"interpolation":"STEP",
					"output":9
				},
				{
					"input":4,
					"interpolation":"STEP",
					"output":10
				},
				{
					"input":4,
					"interpolation":"STEP",
					"output":11
				},
				{
					"input":4,
					"interpolation":"STEP",
					"output":12
				},
				{
					"input":4,
					"interpolation":"STEP",
					"output":13
				},
				{
					"input":4,
					"interpolation":"STEP",
					"output":14
				},
				{
					"input":4,
					"interpolation":"STEP",
					"output":15
				},
				{
					"input":4,
					"interpolation":"STEP",
					"output":16
				},
				{
					"input":4,
					"interpolation":"STEP",
					"output":17
				},
				{
					"input":0,
					"interpolation":"STEP",
					"output":18
				},
				{
					"input":4,
					"interpolation":"STEP",
					"output":19
				},
				{
					"input":4,
					"interpolation":"STEP",
					"output":20
				},
				{
					"input":0,
					"interpolation":"STEP",
					"output":21
				},
				{
					"input":4,
					"interpolation":"STEP",
					"output":22
				},
				{
					"input":4,
					"interpolation":"STEP",
					"output":23
				},
				{
					"input":0,
					"interpolation":"STEP",
					"output":24
				},
				{
					"input":4,
					"interpolation":"STEP",
					"output":25
				}
			]
		}
	],
	"skins":[
		{
			"inverseBindMatrices":26,
			"joints":[
				7,
				6,
				5,
				4,
				0,
				3,
				2,
				1
			],
			"name":"RIG-pinda_camera"
		}
	],
	"accessors":[
		{
			"bufferView":0,
			"componentType":5126,
			"count":435,
			"max":[
				18.083333333333332
			],
			"min":[
				0
			],
			"type":"SCALAR"
		},
		{
			"bufferView":1,
			"componentType":5126,
			"count":435,
			"type":"VEC3"
		},
		{
			"bufferView":2,
			"componentType":5126,
			"count":435,
			"type":"VEC4"
		},
		{
			"bufferView":3,
			"componentType":5126,
			"count":435,
			"type":"VEC3"
		},
		{
			"bufferView":4,
			"componentType":5126,
			"count":2,
			"max":[
				18.083333333333332
			],
			"min":[
				0
			],
			"type":"SCALAR"
		},
		{
			"bufferView":5,
			"componentType":5126,
			"count":2,
			"type":"VEC3"
		},
		{
			"bufferView":6,
			"componentType":5126,
			"count":2,
			"type":"VEC4"
		},
		{
			"bufferView":7,
			"componentType":5126,
			"count":2,
			"type":"VEC3"
		},
		{
			"bufferView":8,
			"componentType":5126,
			"count":2,
			"type":"VEC3"
		},
		{
			"bufferView":9,
			"componentType":5126,
			"count":2,
			"type":"VEC4"
		},
		{
			"bufferView":10,
			"componentType":5126,
			"count":2,
			"type":"VEC3"
		},
		{
			"bufferView":11,
			"componentType":5126,
			"count":2,
			"type":"VEC3"
		},
		{
			"bufferView":12,
			"componentType":5126,
			"count":2,
			"type":"VEC4"
		},
		{
			"bufferView":13,
			"componentType":5126,
			"count":2,
			"type":"VEC3"
		},
		{
			"bufferView":14,
			"componentType":5126,
			"count":2,
			"type":"VEC3"
		},
		{
			"bufferView":15,
			"componentType":5126,
			"count":2,
			"type":"VEC4"
		},
		{
			"bufferView":16,
			"componentType":5126,
			"count":2,
			"type":"VEC3"
		},
		{
			"bufferView":17,
			"componentType":5126,
			"count":2,
			"type":"VEC3"
		},
		{
			"bufferView":18,
			"componentType":5126,
			"count":435,
			"type":"VEC4"
		},
		{
			"bufferView":19,
			"componentType":5126,
			"count":2,
			"type":"VEC3"
		},
		{
			"bufferView":20,
			"componentType":5126,
			"count":2,
			"type":"VEC3"
		},
		{
			"bufferView":21,
			"componentType":5126,
			"count":435,
			"type":"VEC4"
		},
		{
			"bufferView":22,
			"componentType":5126,
			"count":2,
			"type":"VEC3"
		},
		{
			"bufferView":23,
			"componentType":5126,
			"count":2,
			"type":"VEC3"
		},
		{
			"bufferView":24,
			"componentType":5126,
			"count":435,
			"type":"VEC4"
		},
		{
			"bufferView":25,
			"componentType":5126,
			"count":2,
			"type":"VEC3"
		},
		{
			"bufferView":26,
			"componentType":5126,
			"count":8,
			"type":"MAT4"
		}
	],
	"bufferViews":[
		{
			"buffer":0,
			"byteLength":1740,
			"byteOffset":0
		},
		{
			"buffer":0,
			"byteLength":5220,
			"byteOffset":1740
		},
		{
			"buffer":0,
			"byteLength":6960,
			"byteOffset":6960
		},
		{
			"buffer":0,
			"byteLength":5220,
			"byteOffset":13920
		},
		{
			"buffer":0,
			"byteLength":8,
			"byteOffset":19140
		},
		{
			"buffer":0,
			"byteLength":24,
			"byteOffset":19148
		},
		{
			"buffer":0,
			"byteLength":32,
			"byteOffset":19172
		},
		{
			"buffer":0,
			"byteLength":24,
			"byteOffset":19204
		},
		{
			"buffer":0,
			"byteLength":24,
			"byteOffset":19228
		},
		{
			"buffer":0,
			"byteLength":32,
			"byteOffset":19252
		},
		{
			"buffer":0,
			"byteLength":24,
			"byteOffset":19284
		},
		{
			"buffer":0,
			"byteLength":24,
			"byteOffset":19308
		},
		{
			"buffer":0,
			"byteLength":32,
			"byteOffset":19332
		},
		{
			"buffer":0,
			"byteLength":24,
			"byteOffset":19364
		},
		{
			"buffer":0,
			"byteLength":24,
			"byteOffset":19388
		},
		{
			"buffer":0,
			"byteLength":32,
			"byteOffset":19412
		},
		{
			"buffer":0,
			"byteLength":24,
			"byteOffset":19444
		},
		{
			"buffer":0,
			"byteLength":24,
			"byteOffset":19468
		},
		{
			"buffer":0,
			"byteLength":6960,
			"byteOffset":19492
		},
		{
			"buffer":0,
			"byteLength":24,
			"byteOffset":26452
		},
		{
			"buffer":0,
			"byteLength":24,
			"byteOffset":26476
		},
		{
			"buffer":0,
			"byteLength":6960,
			"byteOffset":26500
		},
		{
			"buffer":0,
			"byteLength":24,
			"byteOffset":33460
		},
		{
			"buffer":0,
			"byteLength":24,
			"byteOffset":33484
		},
		{
			"buffer":0,
			"byteLength":6960,
			"byteOffset":33508
		},
		{
			"buffer":0,
			"byteLength":24,
			"byteOffset":40468
		},
		{
			"buffer":0,
			"byteLength":512,
			"byteOffset":40492
		}
	],
	"buffers":[
		{
			"byteLength":41004,
			"uri":"CINE-pinda_camera-outro.bin"
		}
	]
}
