{
	"asset":{
		"generator":"Khronos glTF Blender I/O v4.5.15",
		"version":"2.0"
	},
	"scene":0,
	"scenes":[
		{
			"extras":{
				"gltfIOGodotAssetProperties":{
					"export_type":1,
					"anim_type":5,
					"asset_name":"CINE-treat-outro",
					"append_parent_collection":0
				},
				"asset_type":"ANIMATION",
				"anim_type":"CINE",
				"ref_asset_id":"fd8b778a39efaeec",
				"asset_id":"ab95fefaf17ad503",
				"root_type":"NONE"
			},
			"name":"EXPORT-treat",
			"nodes":[
				21
			]
		}
	],
	"nodes":[
		{
			"name":"snack-01"
		},
		{
			"children":[
				0
			],
			"name":"P-snack-01",
			"rotation":[
				0,
				1.1920928955078125e-07,
				0,
				1
			],
			"translation":[
				0,
				-0.04999999701976776,
				0
			]
		},
		{
			"name":"snack-02"
		},
		{
			"children":[
				2
			],
			"name":"P-snack-02",
			"rotation":[
				0,
				1.1920928955078125e-07,
				0,
				1
			],
			"translation":[
				0,
				-0.07999998331069946,
				0
			]
		},
		{
			"name":"snack-03"
		},
		{
			"children":[
				4
			],
			"name":"P-snack-03",
			"rotation":[
				0,
				1.1920928955078125e-07,
				0,
				1
			],
			"translation":[
				0,
				-0.11000001430511475,
				0
			]
		},
		{
			"name":"treat-12",
			"translation":[
				0,
				0.030000001192092896,
				0
			]
		},
		{
			"children":[
				6
			],
			"name":"treat-11",
			"translation":[
				0,
				0.030000001192092896,
				0
			]
		},
		{
			"children":[
				7
			],
			"name":"treat-10",
			"rotation":[
				0,
				-7.105427357601002e-15,
				0,
				1
			],
			"scale":[
				1,
				0.9999999403953552,
				1
			],
			"translation":[
				0,
				0.0299999862909317,
				0
			]
		},
		{
			"children":[
				8
			],
			"name":"treat-09",
			"translation":[
				0,
				0.030000001192092896,
				0
			]
		},
		{
			"children":[
				9
			],
			"name":"treat-08",
			"translation":[
				0,
				0.030000001192092896,
				0
			]
		},
		{
			"children":[
				10
			],
			"name":"treat-07",
			"translation":[
				0,
				0.030000001192092896,
				0
			]
		},
		{
			"children":[
				11
			],
			"name":"treat-06",
			"translation":[
				0,
				0.0299999937415123,
				0
			]
		},
		{
			"children":[
				12
			],
			"name":"treat-05",
			"translation":[
				0,
				0.030000001192092896,
				0
			]
		},
		{
			"children":[
				13
			],
			"name":"treat-04",
			"translation":[
				0,
				0.029999997466802597,
				0
			]
		},
		{
			"children":[
				14
			],
			"name":"treat-03",
			"translation":[
				0,
				0.029999999329447746,
				0
			]
		},
		{
			"children":[
				15
			],
			"name":"treat-02",
			"translation":[
				0,
				0.029999999329447746,
				0
			]
		},
		{
			"children":[
				16
			],
			"name":"treat-01"
		},
		{
			"children":[
				17
			],
			"name":"treats",
			"rotation":[
				0,
				1.1920928955078125e-07,
				0,
				1
			]
		},
		{
			"children":[
				1,
				3,
				5,
				18
			],
			"name":"subroot"
		},
		{
			"children":[
				19
			],
			"name":"root"
		},
		{
			"children":[
				20
			],
			"extras":{
				"cloudrig":{},
				"ant_landscape":{}
			},
			"name":"RIG-treat"
		}
	],
	"animations":[
		{
			"channels":[
				{
					"sampler":0,
					"target":{
						"node":20,
						"path":"translation"
					}
				},
				{
					"sampler":1,
					"target":{
						"node":20,
						"path":"rotation"
					}
				},
				{
					"sampler":2,
					"target":{
						"node":20,
						"path":"scale"
					}
				},
				{
					"sampler":3,
					"target":{
						"node":19,
						"path":"translation"
					}
				},
				{
					"sampler":4,
					"target":{
						"node":19,
						"path":"rotation"
					}
				},
				{
					"sampler":5,
					"target":{
						"node":19,
						"path":"scale"
					}
				},
				{
					"sampler":6,
					"target":{
						"node":1,
						"path":"translation"
					}
				},
				{
					"sampler":7,
					"target":{
						"node":1,
						"path":"rotation"
					}
				},
				{
					"sampler":8,
					"target":{
						"node":1,
						"path":"scale"
					}
				},
				{
					"sampler":9,
					"target":{
						"node":0,
						"path":"translation"
					}
				},
				{
					"sampler":10,
					"target":{
						"node":0,
						"path":"rotation"
					}
				},
				{
					"sampler":11,
					"target":{
						"node":0,
						"path":"scale"
					}
				},
				{
					"sampler":12,
					"target":{
						"node":3,
						"path":"translation"
					}
				},
				{
					"sampler":13,
					"target":{
						"node":3,
						"path":"rotation"
					}
				},
				{
					"sampler":14,
					"target":{
						"node":3,
						"path":"scale"
					}
				},
				{
					"sampler":15,
					"target":{
						"node":2,
						"path":"translation"
					}
				},
				{
					"sampler":16,
					"target":{
						"node":2,
						"path":"rotation"
					}
				},
				{
					"sampler":17,
					"target":{
						"node":2,
						"path":"scale"
					}
				},
				{
					"sampler":18,
					"target":{
						"node":5,
						"path":"translation"
					}
				},
				{
					"sampler":19,
					"target":{
						"node":5,
						"path":"rotation"
					}
				},
				{
					"sampler":20,
					"target":{
						"node":5,
						"path":"scale"
					}
				},
				{
					"sampler":21,
					"target":{
						"node":4,
						"path":"translation"
					}
				},
				{
					"sampler":22,
					"target":{
						"node":4,
						"path":"rotation"
					}
				},
				{
					"sampler":23,
					"target":{
						"node":4,
						"path":"scale"
					}
				},
				{
					"sampler":24,
					"target":{
						"node":18,
						"path":"translation"
					}
				},
				{
					"sampler":25,
					"target":{
						"node":18,
						"path":"rotation"
					}
				},
				{
					"sampler":26,
					"target":{
						"node":18,
						"path":"scale"
					}
				},
				{
					"sampler":27,
					"target":{
						"node":17,
						"path":"translation"
					}
				},
				{
					"sampler":28,
					"target":{
						"node":17,
						"path":"rotation"
					}
				},
				{
					"sampler":29,
					"target":{
						"node":17,
						"path":"scale"
					}
				},
				{
					"sampler":30,
					"target":{
						"node":16,
						"path":"translation"
					}
				},
				{
					"sampler":31,
					"target":{
						"node":16,
						"path":"rotation"
					}
				},
				{
					"sampler":32,
					"target":{
						"node":16,
						"path":"scale"
					}
				},
				{
					"sampler":33,
					"target":{
						"node":15,
						"path":"translation"
					}
				},
				{
					"sampler":34,
					"target":{
						"node":15,
						"path":"rotation"
					}
				},
				{
					"sampler":35,
					"target":{
						"node":15,
						"path":"scale"
					}
				},
				{
					"sampler":36,
					"target":{
						"node":14,
						"path":"translation"
					}
				},
				{
					"sampler":37,
					"target":{
						"node":14,
						"path":"rotation"
					}
				},
				{
					"sampler":38,
					"target":{
						"node":14,
						"path":"scale"
					}
				},
				{
					"sampler":39,
					"target":{
						"node":13,
						"path":"translation"
					}
				},
				{
					"sampler":40,
					"target":{
						"node":13,
						"path":"rotation"
					}
				},
				{
					"sampler":41,
					"target":{
						"node":13,
						"path":"scale"
					}
				},
				{
					"sampler":42,
					"target":{
						"node":12,
						"path":"translation"
					}
				},
				{
					"sampler":43,
					"target":{
						"node":12,
						"path":"rotation"
					}
				},
				{
					"sampler":44,
					"target":{
						"node":12,
						"path":"scale"
					}
				},
				{
					"sampler":45,
					"target":{
						"node":11,
						"path":"translation"
					}
				},
				{
					"sampler":46,
					"target":{
						"node":11,
						"path":"rotation"
					}
				},
				{
					"sampler":47,
					"target":{
						"node":11,
						"path":"scale"
					}
				},
				{
					"sampler":48,
					"target":{
						"node":10,
						"path":"translation"
					}
				},
				{
					"sampler":49,
					"target":{
						"node":10,
						"path":"rotation"
					}
				},
				{
					"sampler":50,
					"target":{
						"node":10,
						"path":"scale"
					}
				},
				{
					"sampler":51,
					"target":{
						"node":9,
						"path":"translation"
					}
				},
				{
					"sampler":52,
					"target":{
						"node":9,
						"path":"rotation"
					}
				},
				{
					"sampler":53,
					"target":{
						"node":9,
						"path":"scale"
					}
				},
				{
					"sampler":54,
					"target":{
						"node":8,
						"path":"translation"
					}
				},
				{
					"sampler":55,
					"target":{
						"node":8,
						"path":"rotation"
					}
				},
				{
					"sampler":56,
					"target":{
						"node":8,
						"path":"scale"
					}
				},
				{
					"sampler":57,
					"target":{
						"node":7,
						"path":"translation"
					}
				},
				{
					"sampler":58,
					"target":{
						"node":7,
						"path":"rotation"
					}
				},
				{
					"sampler":59,
					"target":{
						"node":7,
						"path":"scale"
					}
				},
				{
					"sampler":60,
					"target":{
						"node":6,
						"path":"translation"
					}
				},
				{
					"sampler":61,
					"target":{
						"node":6,
						"path":"rotation"
					}
				},
				{
					"sampler":62,
					"target":{
						"node":6,
						"path":"scale"
					}
				}
			],
			"name":"CINE-treat-outro",
			"samplers":[
				{
					"input":0,
					"interpolation":"STEP",
					"output":1
				},
				{
					"input":0,
					"interpolation":"STEP",
					"output":2
				},
				{
					"input":0,
					"interpolation":"STEP",
					"output":3
				},
				{
					"input":0,
					"interpolation":"STEP",
					"output":4
				},
				{
					"input":0,
					"interpolation":"STEP",
					"output":5
				},
				{
					"input":0,
					"interpolation":"STEP",
					"output":6
				},
				{
					"input":7,
					"interpolation":"STEP",
					"output":8
				},
				{
					"input":7,
					"interpolation":"STEP",
					"output":9
				},
				{
					"input":0,
					"interpolation":"STEP",
					"output":10
				},
				{
					"input":0,
					"interpolation":"STEP",
					"output":11
				},
				{
					"input":0,
					"interpolation":"STEP",
					"output":12
				},
				{
					"input":0,
					"interpolation":"STEP",
					"output":13
				},
				{
					"input":7,
					"interpolation":"STEP",
					"output":14
				},
				{
					"input":7,
					"interpolation":"STEP",
					"output":15
				},
				{
					"input":7,
					"interpolation":"STEP",
					"output":16
				},
				{
					"input":0,
					"interpolation":"STEP",
					"output":17
				},
				{
					"input":0,
					"interpolation":"STEP",
					"output":18
				},
				{
					"input":0,
					"interpolation":"STEP",
					"output":19
				},
				{
					"input":7,
					"interpolation":"STEP",
					"output":20
				},
				{
					"input":7,
					"interpolation":"STEP",
					"output":21
				},
				{
					"input":7,
					"interpolation":"STEP",
					"output":22
				},
				{
					"input":0,
					"interpolation":"STEP",
					"output":23
				},
				{
					"input":0,
					"interpolation":"STEP",
					"output":24
				},
				{
					"input":0,
					"interpolation":"STEP",
					"output":25
				},
				{
					"input":7,
					"interpolation":"STEP",
					"output":26
				},
				{
					"input":7,
					"interpolation":"STEP",
					"output":27
				},
				{
					"input":7,
					"interpolation":"STEP",
					"output":28
				},
				{
					"input":7,
					"interpolation":"STEP",
					"output":29
				},
				{
					"input":0,
					"interpolation":"STEP",
					"output":30
				},
				{
					"input":7,
					"interpolation":"STEP",
					"output":31
				},
				{
					"input":7,
					"interpolation":"STEP",
					"output":32
				},
				{
					"input":7,
					"interpolation":"STEP",
					"output":33
				},
				{
					"input":0,
					"interpolation":"STEP",
					"output":34
				},
				{
					"input":7,
					"interpolation":"STEP",
					"output":35
				},
				{
					"input":7,
					"interpolation":"STEP",
					"output":36
				},
				{
					"input":0,
					"interpolation":"STEP",
					"output":37
				},
				{
					"input":7,
					"interpolation":"STEP",
					"output":38
				},
				{
					"input":7,
					"interpolation":"STEP",
					"output":39
				},
				{
					"input":0,
					"interpolation":"STEP",
					"output":40
				},
				{
					"input":7,
					"interpolation":"STEP",
					"output":41
				},
				{
					"input":7,
					"interpolation":"STEP",
					"output":42
				},
				{
					"input":0,
					"interpolation":"STEP",
					"output":43
				},
				{
					"input":7,
					"interpolation":"STEP",
					"output":44
				},
				{
					"input":7,
					"interpolation":"STEP",
					"output":45
				},
				{
					"input":0,
					"interpolation":"STEP",
					"output":46
				},
				{
					"input":7,
					"interpolation":"STEP",
					"output":47
				},
				{
					"input":7,
					"interpolation":"STEP",
					"output":48
				},
				{
					"input":0,
					"interpolation":"STEP",
					"output":49
				},
				{
					"input":7,
					"interpolation":"STEP",
					"output":50
				},
				{
					"input":7,
					"interpolation":"STEP",
					"output":51
				},
				{
					"input":0,
					"interpolation":"STEP",
					"output":52
				},
				{
					"input":7,
					"interpolation":"STEP",
					"output":53
				},
				{
					"input":7,
					"interpolation":"STEP",
					"output":54
				},
				{
					"input":0,
					"interpolation":"STEP",
					"output":55
				},
				{
					"input":7,
					"interpolation":"STEP",
					"output":56
				},
				{
					"input":7,
					"interpolation":"STEP",
					"output":57
				},
				{
					"input":0,
					"interpolation":"STEP",
					"output":58
				},
				{
					"input":7,
					"interpolation":"STEP",
					"output":59
				},
				{
					"input":7,
					"interpolation":"STEP",
					"output":60
				},
				{
					"input":0,
					"interpolation":"STEP",
					"output":61
				},
				{
					"input":7,
					"interpolation":"STEP",
					"output":62
				},
				{
					"input":7,
					"interpolation":"STEP",
					"output":63
				},
				{
					"input":0,
					"interpolation":"STEP",
					"output":64
				}
			]
		}
	],
	"skins":[
		{
			"inverseBindMatrices":65,
			"joints":[
				20,
				19,
				1,
				0,
				3,
				2,
				5,
				4,
				18,
				17,
				16,
				15,
				14,
				13,
				12,
				11,
				10,
				9,
				8,
				7,
				6
			],
			"name":"RIG-treat"
		}
	],
	"accessors":[
		{
			"bufferView":0,
			"componentType":5126,
			"count":2,
			"max":[
				14.083333333333334
			],
			"min":[
				0
			],
			"type":"SCALAR"
		},
		{
			"bufferView":1,
			"componentType":5126,
			"count":2,
			"type":"VEC3"
		},
		{
			"bufferView":2,
			"componentType":5126,
			"count":2,
			"type":"VEC4"
		},
		{
			"bufferView":3,
			"componentType":5126,
			"count":2,
			"type":"VEC3"
		},
		{
			"bufferView":4,
			"componentType":5126,
			"count":2,
			"type":"VEC3"
		},
		{
			"bufferView":5,
			"componentType":5126,
			"count":2,
			"type":"VEC4"
		},
		{
			"bufferView":6,
			"componentType":5126,
			"count":2,
			"type":"VEC3"
		},
		{
			"bufferView":7,
			"componentType":5126,
			"count":339,
			"max":[
				14.083333333333334
			],
			"min":[
				0
			],
			"type":"SCALAR"
		},
		{
			"bufferView":8,
			"componentType":5126,
			"count":339,
			"type":"VEC3"
		},
		{
			"bufferView":9,
			"componentType":5126,
			"count":339,
			"type":"VEC4"
		},
		{
			"bufferView":10,
			"componentType":5126,
			"count":2,
			"type":"VEC3"
		},
		{
			"bufferView":11,
			"componentType":5126,
			"count":2,
			"type":"VEC3"
		},
		{
			"bufferView":12,
			"componentType":5126,
			"count":2,
			"type":"VEC4"
		},
		{
			"bufferView":13,
			"componentType":5126,
			"count":2,
			"type":"VEC3"
		},
		{
			"bufferView":14,
			"componentType":5126,
			"count":339,
			"type":"VEC3"
		},
		{
			"bufferView":15,
			"componentType":5126,
			"count":339,
			"type":"VEC4"
		},
		{
			"bufferView":16,
			"componentType":5126,
			"count":339,
			"type":"VEC3"
		},
		{
			"bufferView":17,
			"componentType":5126,
			"count":2,
			"type":"VEC3"
		},
		{
			"bufferView":18,
			"componentType":5126,
			"count":2,
			"type":"VEC4"
		},
		{
			"bufferView":19,
			"componentType":5126,
			"count":2,
			"type":"VEC3"
		},
		{
			"bufferView":20,
			"componentType":5126,
			"count":339,
			"type":"VEC3"
		},
		{
			"bufferView":21,
			"componentType":5126,
			"count":339,
			"type":"VEC4"
		},
		{
			"bufferView":22,
			"componentType":5126,
			"count":339,
			"type":"VEC3"
		},
		{
			"bufferView":23,
			"componentType":5126,
			"count":2,
			"type":"VEC3"
		},
		{
			"bufferView":24,
			"componentType":5126,
			"count":2,
			"type":"VEC4"
		},
		{
			"bufferView":25,
			"componentType":5126,
			"count":2,
			"type":"VEC3"
		},
		{
			"bufferView":26,
			"componentType":5126,
			"count":339,
			"type":"VEC3"
		},
		{
			"bufferView":27,
			"componentType":5126,
			"count":339,
			"type":"VEC4"
		},
		{
			"bufferView":28,
			"componentType":5126,
			"count":339,
			"type":"VEC3"
		},
		{
			"bufferView":29,
			"componentType":5126,
			"count":339,
			"type":"VEC3"
		},
		{
			"bufferView":30,
			"componentType":5126,
			"count":2,
			"type":"VEC4"
		},
		{
			"bufferView":31,
			"componentType":5126,
			"count":339,
			"type":"VEC3"
		},
		{
			"bufferView":32,
			"componentType":5126,
			"count":339,
			"type":"VEC3"
		},
		{
			"bufferView":33,
			"componentType":5126,
			"count":339,
			"type":"VEC4"
		},
		{
			"bufferView":34,
			"componentType":5126,
			"count":2,
			"type":"VEC3"
		},
		{
			"bufferView":35,
			"componentType":5126,
			"count":339,
			"type":"VEC3"
		},
		{
			"bufferView":36,
			"componentType":5126,
			"count":339,
			"type":"VEC4"
		},
		{
			"bufferView":37,
			"componentType":5126,
			"count":2,
			"type":"VEC3"
		},
		{
			"bufferView":38,
			"componentType":5126,
			"count":339,
			"type":"VEC3"
		},
		{
			"bufferView":39,
			"componentType":5126,
			"count":339,
			"type":"VEC4"
		},
		{
			"bufferView":40,
			"componentType":5126,
			"count":2,
			"type":"VEC3"
		},
		{
			"bufferView":41,
			"componentType":5126,
			"count":339,
			"type":"VEC3"
		},
		{
			"bufferView":42,
			"componentType":5126,
			"count":339,
			"type":"VEC4"
		},
		{
			"bufferView":43,
			"componentType":5126,
			"count":2,
			"type":"VEC3"
		},
		{
			"bufferView":44,
			"componentType":5126,
			"count":339,
			"type":"VEC3"
		},
		{
			"bufferView":45,
			"componentType":5126,
			"count":339,
			"type":"VEC4"
		},
		{
			"bufferView":46,
			"componentType":5126,
			"count":2,
			"type":"VEC3"
		},
		{
			"bufferView":47,
			"componentType":5126,
			"count":339,
			"type":"VEC3"
		},
		{
			"bufferView":48,
			"componentType":5126,
			"count":339,
			"type":"VEC4"
		},
		{
			"bufferView":49,
			"componentType":5126,
			"count":2,
			"type":"VEC3"
		},
		{
			"bufferView":50,
			"componentType":5126,
			"count":339,
			"type":"VEC3"
		},
		{
			"bufferView":51,
			"componentType":5126,
			"count":339,
			"type":"VEC4"
		},
		{
			"bufferView":52,
			"componentType":5126,
			"count":2,
			"type":"VEC3"
		},
		{
			"bufferView":53,
			"componentType":5126,
			"count":339,
			"type":"VEC3"
		},
		{
			"bufferView":54,
			"componentType":5126,
			"count":339,
			"type":"VEC4"
		},
		{
			"bufferView":55,
			"componentType":5126,
			"count":2,
			"type":"VEC3"
		},
		{
			"bufferView":56,
			"componentType":5126,
			"count":339,
			"type":"VEC3"
		},
		{
			"bufferView":57,
			"componentType":5126,
			"count":339,
			"type":"VEC4"
		},
		{
			"bufferView":58,
			"componentType":5126,
			"count":2,
			"type":"VEC3"
		},
		{
			"bufferView":59,
			"componentType":5126,
			"count":339,
			"type":"VEC3"
		},
		{
			"bufferView":60,
			"componentType":5126,
			"count":339,
			"type":"VEC4"
		},
		{
			"bufferView":61,
			"componentType":5126,
			"count":2,
			"type":"VEC3"
		},
		{
			"bufferView":62,
			"componentType":5126,
			"count":339,
			"type":"VEC3"
		},
		{
			"bufferView":63,
			"componentType":5126,
			"count":339,
			"type":"VEC4"
		},
		{
			"bufferView":64,
			"componentType":5126,
			"count":2,
			"type":"VEC3"
		},
		{
			"bufferView":65,
			"componentType":5126,
			"count":21,
			"type":"MAT4"
		}
	],
	"bufferViews":[
		{
			"buffer":0,
			"byteLength":8,
			"byteOffset":0
		},
		{
			"buffer":0,
			"byteLength":24,
			"byteOffset":8
		},
		{
			"buffer":0,
			"byteLength":32,
			"byteOffset":32
		},
		{
			"buffer":0,
			"byteLength":24,
			"byteOffset":64
		},
		{
			"buffer":0,
			"byteLength":24,
			"byteOffset":88
		},
		{
			"buffer":0,
			"byteLength":32,
			"byteOffset":112
		},
		{
			"buffer":0,
			"byteLength":24,
			"byteOffset":144
		},
		{
			"buffer":0,
			"byteLength":1356,
			"byteOffset":168
		},
		{
			"buffer":0,
			"byteLength":4068,
			"byteOffset":1524
		},
		{
			"buffer":0,
			"byteLength":5424,
			"byteOffset":5592
		},
		{
			"buffer":0,
			"byteLength":24,
			"byteOffset":11016
		},
		{
			"buffer":0,
			"byteLength":24,
			"byteOffset":11040
		},
		{
			"buffer":0,
			"byteLength":32,
			"byteOffset":11064
		},
		{
			"buffer":0,
			"byteLength":24,
			"byteOffset":11096
		},
		{
			"buffer":0,
			"byteLength":4068,
			"byteOffset":11120
		},
		{
			"buffer":0,
			"byteLength":5424,
			"byteOffset":15188
		},
		{
			"buffer":0,
			"byteLength":4068,
			"byteOffset":20612
		},
		{
			"buffer":0,
			"byteLength":24,
			"byteOffset":24680
		},
		{
			"buffer":0,
			"byteLength":32,
			"byteOffset":24704
		},
		{
			"buffer":0,
			"byteLength":24,
			"byteOffset":24736
		},
		{
			"buffer":0,
			"byteLength":4068,
			"byteOffset":24760
		},
		{
			"buffer":0,
			"byteLength":5424,
			"byteOffset":28828
		},
		{
			"buffer":0,
			"byteLength":4068,
			"byteOffset":34252
		},
		{
			"buffer":0,
			"byteLength":24,
			"byteOffset":38320
		},
		{
			"buffer":0,
			"byteLength":32,
			"byteOffset":38344
		},
		{
			"buffer":0,
			"byteLength":24,
			"byteOffset":38376
		},
		{
			"buffer":0,
			"byteLength":4068,
			"byteOffset":38400
		},
		{
			"buffer":0,
			"byteLength":5424,
			"byteOffset":42468
		},
		{
			"buffer":0,
			"byteLength":4068,
			"byteOffset":47892
		},
		{
			"buffer":0,
			"byteLength":4068,
			"byteOffset":51960
		},
		{
			"buffer":0,
			"byteLength":32,
			"byteOffset":56028
		},
		{
			"buffer":0,
			"byteLength":4068,
			"byteOffset":56060
		},
		{
			"buffer":0,
			"byteLength":4068,
			"byteOffset":60128
		},
		{
			"buffer":0,
			"byteLength":5424,
			"byteOffset":64196
		},
		{
			"buffer":0,
			"byteLength":24,
			"byteOffset":69620
		},
		{
			"buffer":0,
			"byteLength":4068,
			"byteOffset":69644
		},
		{
			"buffer":0,
			"byteLength":5424,
			"byteOffset":73712
		},
		{
			"buffer":0,
			"byteLength":24,
			"byteOffset":79136
		},
		{
			"buffer":0,
			"byteLength":4068,
			"byteOffset":79160
		},
		{
			"buffer":0,
			"byteLength":5424,
			"byteOffset":83228
		},
		{
			"buffer":0,
			"byteLength":24,
			"byteOffset":88652
		},
		{
			"buffer":0,
			"byteLength":4068,
			"byteOffset":88676
		},
		{
			"buffer":0,
			"byteLength":5424,
			"byteOffset":92744
		},
		{
			"buffer":0,
			"byteLength":24,
			"byteOffset":98168
		},
		{
			"buffer":0,
			"byteLength":4068,
			"byteOffset":98192
		},
		{
			"buffer":0,
			"byteLength":5424,
			"byteOffset":102260
		},
		{
			"buffer":0,
			"byteLength":24,
			"byteOffset":107684
		},
		{
			"buffer":0,
			"byteLength":4068,
			"byteOffset":107708
		},
		{
			"buffer":0,
			"byteLength":5424,
			"byteOffset":111776
		},
		{
			"buffer":0,
			"byteLength":24,
			"byteOffset":117200
		},
		{
			"buffer":0,
			"byteLength":4068,
			"byteOffset":117224
		},
		{
			"buffer":0,
			"byteLength":5424,
			"byteOffset":121292
		},
		{
			"buffer":0,
			"byteLength":24,
			"byteOffset":126716
		},
		{
			"buffer":0,
			"byteLength":4068,
			"byteOffset":126740
		},
		{
			"buffer":0,
			"byteLength":5424,
			"byteOffset":130808
		},
		{
			"buffer":0,
			"byteLength":24,
			"byteOffset":136232
		},
		{
			"buffer":0,
			"byteLength":4068,
			"byteOffset":136256
		},
		{
			"buffer":0,
			"byteLength":5424,
			"byteOffset":140324
		},
		{
			"buffer":0,
			"byteLength":24,
			"byteOffset":145748
		},
		{
			"buffer":0,
			"byteLength":4068,
			"byteOffset":145772
		},
		{
			"buffer":0,
			"byteLength":5424,
			"byteOffset":149840
		},
		{
			"buffer":0,
			"byteLength":24,
			"byteOffset":155264
		},
		{
			"buffer":0,
			"byteLength":4068,
			"byteOffset":155288
		},
		{
			"buffer":0,
			"byteLength":5424,
			"byteOffset":159356
		},
		{
			"buffer":0,
			"byteLength":24,
			"byteOffset":164780
		},
		{
			"buffer":0,
			"byteLength":1344,
			"byteOffset":164804
		}
	],
	"buffers":[
		{
			"byteLength":166148,
			"uri":"CINE-treat-outro.bin"
		}
	]
}
