{
	"asset":{
		"generator":"Khronos glTF Blender I/O v4.5.15",
		"version":"2.0"
	},
	"scene":0,
	"scenes":[
		{
			"extras":{
				"gltfIOGodotAssetProperties":{
					"export_type":1,
					"anim_type":5,
					"asset_name":"CINE-leash_handle-outro",
					"append_parent_collection":0
				},
				"asset_type":"ANIMATION",
				"anim_type":"CINE",
				"ref_asset_id":"e66e8d0ff0c62f16",
				"asset_id":"af52b3e20a02be22",
				"root_type":"NONE"
			},
			"name":"EXPORT-leash_handle",
			"nodes":[
				14
			]
		}
	],
	"nodes":[
		{
			"name":"Button",
			"rotation":[
				0,
				-1.1920928244535389e-07,
				0,
				1
			],
			"translation":[
				6.152964360239821e-09,
				0.06683018803596497,
				-0.025800028815865517
			]
		},
		{
			"name":"GDT-leash_point",
			"rotation":[
				0,
				-1.1920928244535389e-07,
				0,
				1
			],
			"translation":[
				-1.9268686202167373e-08,
				0.038456011563539505,
				0.08081872761249542
			]
		},
		{
			"name":"leash-01",
			"rotation":[
				0.7071067690849304,
				-1.1520231879558196e-07,
				-1.1520232590100932e-07,
				0.7071067690849304
			],
			"translation":[
				0,
				-9.313234627938982e-10,
				0
			]
		},
		{
			"name":"leash-02",
			"rotation":[
				0.7071067690849304,
				-1.9949601437474485e-07,
				-1.9949601437474485e-07,
				0.7071067690849304
			],
			"translation":[
				-2.8421711442107257e-16,
				-9.313234627938982e-10,
				0.020000001415610313
			]
		},
		{
			"name":"leash-03",
			"rotation":[
				0.7071067690849304,
				-2.837897170593351e-07,
				-2.837897170593351e-07,
				0.7071067690849304
			],
			"translation":[
				-5.684342288421451e-16,
				-9.313234627938982e-10,
				0.04000000283122063
			]
		},
		{
			"name":"leash-04",
			"rotation":[
				0.7071067690849304,
				-3.6808341974392533e-07,
				-3.6808341974392533e-07,
				0.7071067690849304
			],
			"translation":[
				-8.526513167934381e-16,
				-9.313234627938982e-10,
				0.06000000238418579
			]
		},
		{
			"name":"leash-05-scale",
			"rotation":[
				-2.38510367012168e-08,
				1.1920940323761897e-07,
				3.332033813360086e-14,
				1
			],
			"translation":[
				3.534214532172026e-16,
				0,
				2.328310877430795e-10
			]
		},
		{
			"children":[
				6
			],
			"name":"leash-05",
			"rotation":[
				0.7071067690849304,
				-5.366708251131058e-07,
				-5.366708251131058e-07,
				0.7071067690849304
			],
			"translation":[
				-1.1368684576842903e-15,
				-9.313234627938982e-10,
				0.08000000566244125
			]
		},
		{
			"children":[
				2,
				3,
				4,
				5,
				7
			],
			"name":"leash",
			"rotation":[
				0,
				-1.1920928244535389e-07,
				0,
				1
			],
			"scale":[
				1,
				0.9999999403953552,
				1
			],
			"translation":[
				0,
				9.313226634333205e-09,
				0
			]
		},
		{
			"children":[
				8
			],
			"name":"P-leash",
			"rotation":[
				0,
				7.105427357601002e-15,
				0,
				1
			]
		},
		{
			"children":[
				0,
				1,
				9
			],
			"name":"Pivot",
			"rotation":[
				0,
				1.1920928244535389e-07,
				0,
				1
			],
			"translation":[
				0,
				-1.4901161193847656e-08,
				0
			]
		},
		{
			"children":[
				10
			],
			"name":"Handle",
			"scale":[
				1,
				0.9999999403953552,
				1
			]
		},
		{
			"children":[
				11
			],
			"name":"SubRoot"
		},
		{
			"children":[
				12
			],
			"name":"Root"
		},
		{
			"children":[
				13
			],
			"extras":{
				"cloudrig":{},
				"ant_landscape":{}
			},
			"name":"RIG-leash_handle"
		}
	],
	"animations":[
		{
			"channels":[
				{
					"sampler":0,
					"target":{
						"node":13,
						"path":"translation"
					}
				},
				{
					"sampler":1,
					"target":{
						"node":13,
						"path":"rotation"
					}
				},
				{
					"sampler":2,
					"target":{
						"node":13,
						"path":"scale"
					}
				},
				{
					"sampler":3,
					"target":{
						"node":12,
						"path":"translation"
					}
				},
				{
					"sampler":4,
					"target":{
						"node":12,
						"path":"rotation"
					}
				},
				{
					"sampler":5,
					"target":{
						"node":12,
						"path":"scale"
					}
				},
				{
					"sampler":6,
					"target":{
						"node":11,
						"path":"translation"
					}
				},
				{
					"sampler":7,
					"target":{
						"node":11,
						"path":"rotation"
					}
				},
				{
					"sampler":8,
					"target":{
						"node":11,
						"path":"scale"
					}
				},
				{
					"sampler":9,
					"target":{
						"node":10,
						"path":"translation"
					}
				},
				{
					"sampler":10,
					"target":{
						"node":10,
						"path":"rotation"
					}
				},
				{
					"sampler":11,
					"target":{
						"node":10,
						"path":"scale"
					}
				},
				{
					"sampler":12,
					"target":{
						"node":0,
						"path":"translation"
					}
				},
				{
					"sampler":13,
					"target":{
						"node":0,
						"path":"rotation"
					}
				},
				{
					"sampler":14,
					"target":{
						"node":0,
						"path":"scale"
					}
				},
				{
					"sampler":15,
					"target":{
						"node":1,
						"path":"translation"
					}
				},
				{
					"sampler":16,
					"target":{
						"node":1,
						"path":"rotation"
					}
				},
				{
					"sampler":17,
					"target":{
						"node":1,
						"path":"scale"
					}
				},
				{
					"sampler":18,
					"target":{
						"node":9,
						"path":"translation"
					}
				},
				{
					"sampler":19,
					"target":{
						"node":9,
						"path":"rotation"
					}
				},
				{
					"sampler":20,
					"target":{
						"node":9,
						"path":"scale"
					}
				},
				{
					"sampler":21,
					"target":{
						"node":8,
						"path":"translation"
					}
				},
				{
					"sampler":22,
					"target":{
						"node":8,
						"path":"rotation"
					}
				},
				{
					"sampler":23,
					"target":{
						"node":8,
						"path":"scale"
					}
				},
				{
					"sampler":24,
					"target":{
						"node":2,
						"path":"translation"
					}
				},
				{
					"sampler":25,
					"target":{
						"node":2,
						"path":"rotation"
					}
				},
				{
					"sampler":26,
					"target":{
						"node":2,
						"path":"scale"
					}
				},
				{
					"sampler":27,
					"target":{
						"node":3,
						"path":"translation"
					}
				},
				{
					"sampler":28,
					"target":{
						"node":3,
						"path":"rotation"
					}
				},
				{
					"sampler":29,
					"target":{
						"node":3,
						"path":"scale"
					}
				},
				{
					"sampler":30,
					"target":{
						"node":4,
						"path":"translation"
					}
				},
				{
					"sampler":31,
					"target":{
						"node":4,
						"path":"rotation"
					}
				},
				{
					"sampler":32,
					"target":{
						"node":4,
						"path":"scale"
					}
				},
				{
					"sampler":33,
					"target":{
						"node":5,
						"path":"translation"
					}
				},
				{
					"sampler":34,
					"target":{
						"node":5,
						"path":"rotation"
					}
				},
				{
					"sampler":35,
					"target":{
						"node":5,
						"path":"scale"
					}
				},
				{
					"sampler":36,
					"target":{
						"node":7,
						"path":"translation"
					}
				},
				{
					"sampler":37,
					"target":{
						"node":7,
						"path":"rotation"
					}
				},
				{
					"sampler":38,
					"target":{
						"node":7,
						"path":"scale"
					}
				},
				{
					"sampler":39,
					"target":{
						"node":6,
						"path":"translation"
					}
				},
				{
					"sampler":40,
					"target":{
						"node":6,
						"path":"rotation"
					}
				},
				{
					"sampler":41,
					"target":{
						"node":6,
						"path":"scale"
					}
				}
			],
			"name":"CINE-leash_handle-outro",
			"samplers":[
				{
					"input":0,
					"interpolation":"STEP",
					"output":1
				},
				{
					"input":0,
					"interpolation":"STEP",
					"output":2
				},
				{
					"input":0,
					"interpolation":"STEP",
					"output":3
				},
				{
					"input":0,
					"interpolation":"STEP",
					"output":4
				},
				{
					"input":0,
					"interpolation":"STEP",
					"output":5
				},
				{
					"input":0,
					"interpolation":"STEP",
					"output":6
				},
				{
					"input":0,
					"interpolation":"STEP",
					"output":7
				},
				{
					"input":0,
					"interpolation":"STEP",
					"output":8
				},
				{
					"input":0,
					"interpolation":"STEP",
					"output":9
				},
				{
					"input":10,
					"interpolation":"STEP",
					"output":11
				},
				{
					"input":10,
					"interpolation":"STEP",
					"output":12
				},
				{
					"input":0,
					"interpolation":"STEP",
					"output":13
				},
				{
					"input":0,
					"interpolation":"STEP",
					"output":14
				},
				{
					"input":0,
					"interpolation":"STEP",
					"output":15
				},
				{
					"input":0,
					"interpolation":"STEP",
					"output":16
				},
				{
					"input":0,
					"interpolation":"STEP",
					"output":17
				},
				{
					"input":0,
					"interpolation":"STEP",
					"output":18
				},
				{
					"input":0,
					"interpolation":"STEP",
					"output":19
				},
				{
					"input":10,
					"interpolation":"STEP",
					"output":20
				},
				{
					"input":10,
					"interpolation":"STEP",
					"output":21
				},
				{
					"input":0,
					"interpolation":"STEP",
					"output":22
				},
				{
					"input":0,
					"interpolation":"STEP",
					"output":23
				},
				{
					"input":0,
					"interpolation":"STEP",
					"output":24
				},
				{
					"input":0,
					"interpolation":"STEP",
					"output":25
				},
				{
					"input":0,
					"interpolation":"STEP",
					"output":26
				},
				{
					"input":10,
					"interpolation":"STEP",
					"output":27
				},
				{
					"input":10,
					"interpolation":"STEP",
					"output":28
				},
				{
					"input":10,
					"interpolation":"STEP",
					"output":29
				},
				{
					"input":10,
					"interpolation":"STEP",
					"output":30
				},
				{
					"input":10,
					"interpolation":"STEP",
					"output":31
				},
				{
					"input":10,
					"interpolation":"STEP",
					"output":32
				},
				{
					"input":10,
					"interpolation":"STEP",
					"output":33
				},
				{
					"input":10,
					"interpolation":"STEP",
					"output":34
				},
				{
					"input":10,
					"interpolation":"STEP",
					"output":35
				},
				{
					"input":10,
					"interpolation":"STEP",
					"output":36
				},
				{
					"input":10,
					"interpolation":"STEP",
					"output":37
				},
				{
					"input":10,
					"interpolation":"STEP",
					"output":38
				},
				{
					"input":10,
					"interpolation":"STEP",
					"output":39
				},
				{
					"input":0,
					"interpolation":"STEP",
					"output":40
				},
				{
					"input":0,
					"interpolation":"STEP",
					"output":41
				},
				{
					"input":10,
					"interpolation":"STEP",
					"output":42
				},
				{
					"input":10,
					"interpolation":"STEP",
					"output":43
				}
			]
		}
	],
	"skins":[
		{
			"inverseBindMatrices":44,
			"joints":[
				13,
				12,
				11,
				10,
				0,
				1,
				9,
				8,
				2,
				3,
				4,
				5,
				7,
				6
			],
			"name":"RIG-leash_handle"
		}
	],
	"accessors":[
		{
			"bufferView":0,
			"componentType":5126,
			"count":2,
			"max":[
				4.083333333333333
			],
			"min":[
				0
			],
			"type":"SCALAR"
		},
		{
			"bufferView":1,
			"componentType":5126,
			"count":2,
			"type":"VEC3"
		},
		{
			"bufferView":2,
			"componentType":5126,
			"count":2,
			"type":"VEC4"
		},
		{
			"bufferView":3,
			"componentType":5126,
			"count":2,
			"type":"VEC3"
		},
		{
			"bufferView":4,
			"componentType":5126,
			"count":2,
			"type":"VEC3"
		},
		{
			"bufferView":5,
			"componentType":5126,
			"count":2,
			"type":"VEC4"
		},
		{
			"bufferView":6,
			"componentType":5126,
			"count":2,
			"type":"VEC3"
		},
		{
			"bufferView":7,
			"componentType":5126,
			"count":2,
			"type":"VEC3"
		},
		{
			"bufferView":8,
			"componentType":5126,
			"count":2,
			"type":"VEC4"
		},
		{
			"bufferView":9,
			"componentType":5126,
			"count":2,
			"type":"VEC3"
		},
		{
			"bufferView":10,
			"componentType":5126,
			"count":99,
			"max":[
				4.083333333333333
			],
			"min":[
				0
			],
			"type":"SCALAR"
		},
		{
			"bufferView":11,
			"componentType":5126,
			"count":99,
			"type":"VEC3"
		},
		{
			"bufferView":12,
			"componentType":5126,
			"count":99,
			"type":"VEC4"
		},
		{
			"bufferView":13,
			"componentType":5126,
			"count":2,
			"type":"VEC3"
		},
		{
			"bufferView":14,
			"componentType":5126,
			"count":2,
			"type":"VEC3"
		},
		{
			"bufferView":15,
			"componentType":5126,
			"count":2,
			"type":"VEC4"
		},
		{
			"bufferView":16,
			"componentType":5126,
			"count":2,
			"type":"VEC3"
		},
		{
			"bufferView":17,
			"componentType":5126,
			"count":2,
			"type":"VEC3"
		},
		{
			"bufferView":18,
			"componentType":5126,
			"count":2,
			"type":"VEC4"
		},
		{
			"bufferView":19,
			"componentType":5126,
			"count":2,
			"type":"VEC3"
		},
		{
			"bufferView":20,
			"componentType":5126,
			"count":99,
			"type":"VEC3"
		},
		{
			"bufferView":21,
			"componentType":5126,
			"count":99,
			"type":"VEC4"
		},
		{
			"bufferView":22,
			"componentType":5126,
			"count":2,
			"type":"VEC3"
		},
		{
			"bufferView":23,
			"componentType":5126,
			"count":2,
			"type":"VEC3"
		},
		{
			"bufferView":24,
			"componentType":5126,
			"count":2,
			"type":"VEC4"
		},
		{
			"bufferView":25,
			"componentType":5126,
			"count":2,
			"type":"VEC3"
		},
		{
			"bufferView":26,
			"componentType":5126,
			"count":2,
			"type":"VEC3"
		},
		{
			"bufferView":27,
			"componentType":5126,
			"count":99,
			"type":"VEC4"
		},
		{
			"bufferView":28,
			"componentType":5126,
			"count":99,
			"type":"VEC3"
		},
		{
			"bufferView":29,
			"componentType":5126,
			"count":99,
			"type":"VEC3"
		},
		{
			"bufferView":30,
			"componentType":5126,
			"count":99,
			"type":"VEC4"
		},
		{
			"bufferView":31,
			"componentType":5126,
			"count":99,
			"type":"VEC3"
		},
		{
			"bufferView":32,
			"componentType":5126,
			"count":99,
			"type":"VEC3"
		},
		{
			"bufferView":33,
			"componentType":5126,
			"count":99,
			"type":"VEC4"
		},
		{
			"bufferView":34,
			"componentType":5126,
			"count":99,
			"type":"VEC3"
		},
		{
			"bufferView":35,
			"componentType":5126,
			"count":99,
			"type":"VEC3"
		},
		{
			"bufferView":36,
			"componentType":5126,
			"count":99,
			"type":"VEC4"
		},
		{
			"bufferView":37,
			"componentType":5126,
			"count":99,
			"type":"VEC3"
		},
		{
			"bufferView":38,
			"componentType":5126,
			"count":99,
			"type":"VEC3"
		},
		{
			"bufferView":39,
			"componentType":5126,
			"count":99,
			"type":"VEC4"
		},
		{
			"bufferView":40,
			"componentType":5126,
			"count":2,
			"type":"VEC3"
		},
		{
			"bufferView":41,
			"componentType":5126,
			"count":2,
			"type":"VEC3"
		},
		{
			"bufferView":42,
			"componentType":5126,
			"count":99,
			"type":"VEC4"
		},
		{
			"bufferView":43,
			"componentType":5126,
			"count":99,
			"type":"VEC3"
		},
		{
			"bufferView":44,
			"componentType":5126,
			"count":14,
			"type":"MAT4"
		}
	],
	"bufferViews":[
		{
			"buffer":0,
			"byteLength":8,
			"byteOffset":0
		},
		{
			"buffer":0,
			"byteLength":24,
			"byteOffset":8
		},
		{
			"buffer":0,
			"byteLength":32,
			"byteOffset":32
		},
		{
			"buffer":0,
			"byteLength":24,
			"byteOffset":64
		},
		{
			"buffer":0,
			"byteLength":24,
			"byteOffset":88
		},
		{
			"buffer":0,
			"byteLength":32,
			"byteOffset":112
		},
		{
			"buffer":0,
			"byteLength":24,
			"byteOffset":144
		},
		{
			"buffer":0,
			"byteLength":24,
			"byteOffset":168
		},
		{
			"buffer":0,
			"byteLength":32,
			"byteOffset":192
		},
		{
			"buffer":0,
			"byteLength":24,
			"byteOffset":224
		},
		{
			"buffer":0,
			"byteLength":396,
			"byteOffset":248
		},
		{
			"buffer":0,
			"byteLength":1188,
			"byteOffset":644
		},
		{
			"buffer":0,
			"byteLength":1584,
			"byteOffset":1832
		},
		{
			"buffer":0,
			"byteLength":24,
			"byteOffset":3416
		},
		{
			"buffer":0,
			"byteLength":24,
			"byteOffset":3440
		},
		{
			"buffer":0,
			"byteLength":32,
			"byteOffset":3464
		},
		{
			"buffer":0,
			"byteLength":24,
			"byteOffset":3496
		},
		{
			"buffer":0,
			"byteLength":24,
			"byteOffset":3520
		},
		{
			"buffer":0,
			"byteLength":32,
			"byteOffset":3544
		},
		{
			"buffer":0,
			"byteLength":24,
			"byteOffset":3576
		},
		{
			"buffer":0,
			"byteLength":1188,
			"byteOffset":3600
		},
		{
			"buffer":0,
			"byteLength":1584,
			"byteOffset":4788
		},
		{
			"buffer":0,
			"byteLength":24,
			"byteOffset":6372
		},
		{
			"buffer":0,
			"byteLength":24,
			"byteOffset":6396
		},
		{
			"buffer":0,
			"byteLength":32,
			"byteOffset":6420
		},
		{
			"buffer":0,
			"byteLength":24,
			"byteOffset":6452
		},
		{
			"buffer":0,
			"byteLength":24,
			"byteOffset":6476
		},
		{
			"buffer":0,
			"byteLength":1584,
			"byteOffset":6500
		},
		{
			"buffer":0,
			"byteLength":1188,
			"byteOffset":8084
		},
		{
			"buffer":0,
			"byteLength":1188,
			"byteOffset":9272
		},
		{
			"buffer":0,
			"byteLength":1584,
			"byteOffset":10460
		},
		{
			"buffer":0,
			"byteLength":1188,
			"byteOffset":12044
		},
		{
			"buffer":0,
			"byteLength":1188,
			"byteOffset":13232
		},
		{
			"buffer":0,
			"byteLength":1584,
			"byteOffset":14420
		},
		{
			"buffer":0,
			"byteLength":1188,
			"byteOffset":16004
		},
		{
			"buffer":0,
			"byteLength":1188,
			"byteOffset":17192
		},
		{
			"buffer":0,
			"byteLength":1584,
			"byteOffset":18380
		},
		{
			"buffer":0,
			"byteLength":1188,
			"byteOffset":19964
		},
		{
			"buffer":0,
			"byteLength":1188,
			"byteOffset":21152
		},
		{
			"buffer":0,
			"byteLength":1584,
			"byteOffset":22340
		},
		{
			"buffer":0,
			"byteLength":24,
			"byteOffset":23924
		},
		{
			"buffer":0,
			"byteLength":24,
			"byteOffset":23948
		},
		{
			"buffer":0,
			"byteLength":1584,
			"byteOffset":23972
		},
		{
			"buffer":0,
			"byteLength":1188,
			"byteOffset":25556
		},
		{
			"buffer":0,
			"byteLength":896,
			"byteOffset":26744
		}
	],
	"buffers":[
		{
			"byteLength":27640,
			"uri":"CINE-leash_handle-outro.bin"
		}
	]
}
