{
    "asset": {
        "generator": "Khronos glTF Blender I/O v4.5.15",
        "version": "2.0"
    },
    "scene": 0,
    "scenes": [
        {
            "extras": {
                "gltfIOGodotAssetProperties": {
                    "export_type": 2,
                    "root_type": 0,
                    "append_parent_collection": 1,
                    "asset_name": "LI-snow_patch_02"
                },
                "asset_type": "ASSET",
                "root_type": "NONE",
                "asset_id": "524f1e0b87364583"
            },
            "name": "LI-snow_patch_02",
            "nodes": [
                0,
                1
            ]
        }
    ],
    "nodes": [
        {
            "mesh": 0,
            "name": "GEO-snow_patch_02",
            "translation": [
                10,
                0,
                0
            ]
        },
        {
            "extras": {
                "collision_info": {
                    "type": "MESH",
                    "concave": true
                },
                "visibility_info": {
                    "shadow": false
                }
            },
            "mesh": 1,
            "name": "COL-snow_patch_02",
            "translation": [
                10,
                0,
                0
            ]
        }
    ],
    "materials": [
        {
            "alphaMode": "BLEND",
            "doubleSided": true,
            "emissiveFactor": [
                1,
                1,
                1
            ],
            "extras": {
                "asset_id": "c5ac7721f98dd416",
                "material_info": {
                    "albedo_color": [
                        0.9200000166893005,
                        0.970999002456665,
                        1.0,
                        1.0
                    ],
                    "alpha": 1.0,
                    "alpha_influence": 0.0,
                    "backface_color": 0.0,
                    "roughness": 0.800000011920929,
                    "metallic": 0.0,
                    "displacement_strength": 0.0,
                    "displacement_scale": 1.0,
                    "paper_color": [
                        0.26889801025390625,
                        0.4121119976043701,
                        0.672245979309082,
                        1.0
                    ],
                    "wear_strength": 0.5,
                    "wear_start": 0.0,
                    "wear_end": 0.800000011920929,
                    "wear_distortion_strength": 0.30000001192092896,
                    "wear_distortion_scale": 17.0,
                    "emission_color": [
                        1.0,
                        1.0,
                        1.0,
                        1.0
                    ],
                    "emission_strength": 0.0,
                    "normal_strength": 0.10000000149011612,
                    "normal_use_uv2": 0.0
                }
            },
            "name": "snow_patch_02",
            "normalTexture": {
                "index": 0
            },
            "pbrMetallicRoughness": {
                "baseColorTexture": {
                    "index": 1
                }
            }
        }
    ],
    "meshes": [
        {
            "name": "B\u00e9zierCircle.001",
            "primitives": [
                {
                    "attributes": {
                        "POSITION": 0,
                        "NORMAL": 1,
                        "TEXCOORD_0": 2,
                        "TEXCOORD_1": 3,
                        "COLOR_0": 4
                    },
                    "indices": 5,
                    "material": 0
                }
            ]
        },
        {
            "name": "B\u00e9zierCircle.002",
            "primitives": [
                {
                    "attributes": {
                        "POSITION": 6,
                        "NORMAL": 7
                    },
                    "indices": 8
                }
            ]
        }
    ],
    "textures": [
        {
            "sampler": 0,
            "source": 0
        },
        {
            "sampler": 0,
            "source": 1
        }
    ],
    "images": [
        {
            "extras": {
                "source_path": "assets/textures/paper_fine_normal.png"
            },
            "mimeType": "image/png",
            "name": "paper_fine_normal",
            "uri": "../../textures/paper_fine_normal.png"
        },
        {
            "extras": {
                "source_path": "assets/textures/snow_gen_albedo-01.png"
            },
            "mimeType": "image/png",
            "name": "snow_gen_albedo-01",
            "uri": "../../textures/snow_gen_albedo-01.png"
        }
    ],
    "accessors": [
        {
            "bufferView": 0,
            "componentType": 5126,
            "count": 236,
            "max": [
                4.651275634765625,
                -3.384053707122803e-05,
                3.9768083095550537
            ],
            "min": [
                -4.620492458343506,
                -0.0864177942276001,
                -7.178579807281494
            ],
            "type": "VEC3"
        },
        {
            "bufferView": 1,
            "componentType": 5126,
            "count": 236,
            "type": "VEC3"
        },
        {
            "bufferView": 2,
            "componentType": 5126,
            "count": 236,
            "type": "VEC2"
        },
        {
            "bufferView": 3,
            "componentType": 5126,
            "count": 236,
            "type": "VEC2"
        },
        {
            "bufferView": 4,
            "componentType": 5123,
            "count": 236,
            "normalized": true,
            "type": "VEC4"
        },
        {
            "bufferView": 5,
            "componentType": 5123,
            "count": 1053,
            "type": "SCALAR"
        },
        {
            "bufferView": 6,
            "componentType": 5126,
            "count": 102,
            "max": [
                4.59084939956665,
                0.5,
                3.8242721557617188
            ],
            "min": [
                -4.5748419761657715,
                0,
                -7.097874641418457
            ],
            "type": "VEC3"
        },
        {
            "bufferView": 7,
            "componentType": 5126,
            "count": 102,
            "type": "VEC3"
        },
        {
            "bufferView": 8,
            "componentType": 5123,
            "count": 192,
            "type": "SCALAR"
        }
    ],
    "bufferViews": [
        {
            "buffer": 0,
            "byteLength": 2832,
            "byteOffset": 0,
            "target": 34962
        },
        {
            "buffer": 0,
            "byteLength": 2832,
            "byteOffset": 2832,
            "target": 34962
        },
        {
            "buffer": 0,
            "byteLength": 1888,
            "byteOffset": 5664,
            "target": 34962
        },
        {
            "buffer": 0,
            "byteLength": 1888,
            "byteOffset": 7552,
            "target": 34962
        },
        {
            "buffer": 0,
            "byteLength": 1888,
            "byteOffset": 9440,
            "target": 34962
        },
        {
            "buffer": 0,
            "byteLength": 2106,
            "byteOffset": 11328,
            "target": 34963
        },
        {
            "buffer": 0,
            "byteLength": 1224,
            "byteOffset": 13436,
            "target": 34962
        },
        {
            "buffer": 0,
            "byteLength": 1224,
            "byteOffset": 14660,
            "target": 34962
        },
        {
            "buffer": 0,
            "byteLength": 384,
            "byteOffset": 15884,
            "target": 34963
        }
    ],
    "samplers": [
        {
            "magFilter": 9729,
            "minFilter": 9987
        }
    ],
    "buffers": [
        {
            "byteLength": 16268,
            "uri": "LI-snow_patch_02.bin"
        }
    ]
}