{
    "asset": {
        "generator": "Khronos glTF Blender I/O v4.5.15",
        "version": "2.0"
    },
    "scene": 0,
    "scenes": [
        {
            "extras": {
                "gltfIOGodotAssetProperties": {
                    "export_type": 2,
                    "root_type": 1,
                    "append_parent_collection": 1,
                    "asset_name": "LI-pine_cut_patch_002"
                },
                "asset_type": "ASSET",
                "root_type": "STATIC",
                "asset_id": "6a08df34a6b9af4e"
            },
            "name": "LI-pine_cut_patch_002",
            "nodes": [
                0,
                1,
                2,
                3,
                4
            ]
        }
    ],
    "nodes": [
        {
            "extras": {
                "ant_landscape": {}
            },
            "mesh": 0,
            "name": "pine_cuts_albedo_01.002",
            "rotation": [
                0.6486397981643677,
                0.10450005531311035,
                -0.09056705981492996,
                0.7484275698661804
            ],
            "scale": [
                1.0399998426437378,
                1.040000081062317,
                1.0400002002716064
            ],
            "translation": [
                0.07030272483825684,
                -0.966073751449585,
                0.23946180939674377
            ]
        },
        {
            "extras": {
                "ant_landscape": {}
            },
            "mesh": 1,
            "name": "pine_cuts_albedo_01.006",
            "rotation": [
                0.6486397981643677,
                0.10450005531311035,
                -0.09056705981492996,
                0.7484275698661804
            ],
            "scale": [
                1.0399998426437378,
                1.040000081062317,
                1.0400002002716064
            ],
            "translation": [
                0.07030272483825684,
                -0.966073751449585,
                0.23946180939674377
            ]
        },
        {
            "extras": {
                "ant_landscape": {}
            },
            "mesh": 2,
            "name": "pine_cuts_albedo_01.007",
            "rotation": [
                0.6486397981643677,
                0.10450005531311035,
                -0.09056705981492996,
                0.7484275698661804
            ],
            "scale": [
                1.0399998426437378,
                1.040000081062317,
                1.0400002002716064
            ],
            "translation": [
                0.07030272483825684,
                -0.966073751449585,
                0.23946180939674377
            ]
        },
        {
            "extras": {
                "ant_landscape": {}
            },
            "mesh": 3,
            "name": "pine_cuts_albedo_01.008",
            "rotation": [
                0.6486397981643677,
                0.10450005531311035,
                -0.09056705981492996,
                0.7484275698661804
            ],
            "scale": [
                1.0399998426437378,
                1.040000081062317,
                1.0400002002716064
            ],
            "translation": [
                0.07030272483825684,
                -0.966073751449585,
                0.23946180939674377
            ]
        },
        {
            "extras": {
                "ant_landscape": {}
            },
            "name": "Lattice.003",
            "rotation": [
                0.6549320816993713,
                0,
                0,
                0.7556877136230469
            ],
            "scale": [
                1.8530114889144897,
                0.20331048965454102,
                2.0520427227020264
            ],
            "translation": [
                0.013307398185133934,
                -0.9326213002204895,
                0.30948829650878906
            ]
        }
    ],
    "materials": [
        {
            "alphaMode": "BLEND",
            "doubleSided": true,
            "emissiveFactor": [
                1,
                1,
                1
            ],
            "extras": {
                "asset_id": "25330e66f650d1ec",
                "material_info": {
                    "albedo_color": [
                        1.0,
                        1.0,
                        1.0,
                        1.0
                    ],
                    "edge_alpha": 1.0,
                    "alpha_influence": 0.0,
                    "backface_color": 0.0,
                    "metallic": 0.0,
                    "displacement_strength": 1.0,
                    "displacement_scale": 1.0,
                    "paper_color": [
                        0.5481292009353638,
                        0.608286440372467,
                        0.5053419470787048,
                        1.0
                    ],
                    "wear_strength": 0.0,
                    "wear_start": 0.0,
                    "wear_end": 1.0,
                    "wear_distortion_strength": 0.5,
                    "wear_distortion_scale": 100.0,
                    "emission_color": [
                        1.0,
                        1.0,
                        1.0,
                        1.0
                    ],
                    "emission_strength": 0.0,
                    "normal_strength": 0.20000000298023224,
                    "normal_use_uv2": 1.0
                }
            },
            "name": "pine_cuts_atlas_albedo_01",
            "normalTexture": {
                "index": 0,
                "texCoord": 1
            },
            "pbrMetallicRoughness": {
                "baseColorTexture": {
                    "index": 1
                },
                "metallicRoughnessTexture": {
                    "index": 2
                }
            }
        }
    ],
    "meshes": [
        {
            "name": "pine_cuts_albedo_01.002",
            "primitives": [
                {
                    "attributes": {
                        "POSITION": 0,
                        "NORMAL": 1,
                        "TEXCOORD_0": 2,
                        "TEXCOORD_1": 3,
                        "COLOR_0": 4,
                        "COLOR_1": 5,
                        "COLOR_2": 6
                    },
                    "indices": 7,
                    "material": 0
                }
            ]
        },
        {
            "name": "pine_cuts_albedo_01.006",
            "primitives": [
                {
                    "attributes": {
                        "POSITION": 8,
                        "NORMAL": 9,
                        "TEXCOORD_0": 10,
                        "TEXCOORD_1": 11,
                        "COLOR_0": 12,
                        "COLOR_1": 13
                    },
                    "indices": 14,
                    "material": 0
                }
            ]
        },
        {
            "name": "pine_cuts_albedo_01.007",
            "primitives": [
                {
                    "attributes": {
                        "POSITION": 15,
                        "NORMAL": 16,
                        "TEXCOORD_0": 17,
                        "TEXCOORD_1": 18,
                        "COLOR_0": 19,
                        "COLOR_1": 20
                    },
                    "indices": 21,
                    "material": 0
                }
            ]
        },
        {
            "name": "pine_cuts_albedo_01.008",
            "primitives": [
                {
                    "attributes": {
                        "POSITION": 22,
                        "NORMAL": 23,
                        "TEXCOORD_0": 24,
                        "TEXCOORD_1": 25,
                        "COLOR_0": 26,
                        "COLOR_1": 27
                    },
                    "indices": 28,
                    "material": 0
                }
            ]
        }
    ],
    "textures": [
        {
            "sampler": 0,
            "source": 0
        },
        {
            "sampler": 1,
            "source": 1
        },
        {
            "sampler": 0,
            "source": 2
        }
    ],
    "images": [
        {
            "extras": {
                "source_path": "assets/textures/paper_fine_normal.png"
            },
            "mimeType": "image/png",
            "name": "paper_fine_normal",
            "uri": "../../../textures/paper_fine_normal.png"
        },
        {
            "extras": {
                "source_path": "assets/lib/textures/pine_cuts_atlas_albedo_01.png"
            },
            "mimeType": "image/png",
            "name": "pine_cuts_atlas_albedo_01",
            "uri": "../../textures/pine_cuts_atlas_albedo_01.png"
        },
        {
            "extras": {
                "source_path": "assets/lib/textures/pine_cuts_atlas_roughness_01.png"
            },
            "mimeType": "image/png",
            "name": "pine_cuts_atlas_roughness_01",
            "uri": "../../textures/pine_cuts_atlas_roughness_01.png"
        }
    ],
    "accessors": [
        {
            "bufferView": 0,
            "componentType": 5126,
            "count": 137,
            "max": [
                0.4222339391708374,
                0.3196607232093811,
                0.11191163957118988
            ],
            "min": [
                -0.019192080944776535,
                -0.37189924716949463,
                -0.5566361546516418
            ],
            "type": "VEC3"
        },
        {
            "bufferView": 1,
            "componentType": 5126,
            "count": 137,
            "type": "VEC3"
        },
        {
            "bufferView": 2,
            "componentType": 5126,
            "count": 137,
            "type": "VEC2"
        },
        {
            "bufferView": 3,
            "componentType": 5126,
            "count": 137,
            "type": "VEC2"
        },
        {
            "bufferView": 4,
            "componentType": 5123,
            "count": 137,
            "normalized": true,
            "type": "VEC4"
        },
        {
            "bufferView": 5,
            "componentType": 5123,
            "count": 137,
            "normalized": true,
            "type": "VEC4"
        },
        {
            "bufferView": 6,
            "componentType": 5123,
            "count": 137,
            "normalized": true,
            "type": "VEC4"
        },
        {
            "bufferView": 7,
            "componentType": 5123,
            "count": 426,
            "type": "SCALAR"
        },
        {
            "bufferView": 8,
            "componentType": 5126,
            "count": 212,
            "max": [
                0.11448138952255249,
                0.39655768871307373,
                0.06034601107239723
            ],
            "min": [
                -0.5476467609405518,
                -0.24197068810462952,
                -0.709281325340271
            ],
            "type": "VEC3"
        },
        {
            "bufferView": 9,
            "componentType": 5126,
            "count": 212,
            "type": "VEC3"
        },
        {
            "bufferView": 10,
            "componentType": 5126,
            "count": 212,
            "type": "VEC2"
        },
        {
            "bufferView": 11,
            "componentType": 5126,
            "count": 212,
            "type": "VEC2"
        },
        {
            "bufferView": 12,
            "componentType": 5123,
            "count": 212,
            "normalized": true,
            "type": "VEC4"
        },
        {
            "bufferView": 13,
            "componentType": 5123,
            "count": 212,
            "normalized": true,
            "type": "VEC4"
        },
        {
            "bufferView": 14,
            "componentType": 5123,
            "count": 693,
            "type": "SCALAR"
        },
        {
            "bufferView": 15,
            "componentType": 5126,
            "count": 76,
            "max": [
                0.3939691483974457,
                -0.033634718507528305,
                -0.2939464747905731
            ],
            "min": [
                0.038596875965595245,
                -0.4978892505168915,
                -1.0187501907348633
            ],
            "type": "VEC3"
        },
        {
            "bufferView": 16,
            "componentType": 5126,
            "count": 76,
            "type": "VEC3"
        },
        {
            "bufferView": 17,
            "componentType": 5126,
            "count": 76,
            "type": "VEC2"
        },
        {
            "bufferView": 18,
            "componentType": 5126,
            "count": 76,
            "type": "VEC2"
        },
        {
            "bufferView": 19,
            "componentType": 5123,
            "count": 76,
            "normalized": true,
            "type": "VEC4"
        },
        {
            "bufferView": 20,
            "componentType": 5123,
            "count": 76,
            "normalized": true,
            "type": "VEC4"
        },
        {
            "bufferView": 21,
            "componentType": 5123,
            "count": 246,
            "type": "SCALAR"
        },
        {
            "bufferView": 22,
            "componentType": 5126,
            "count": 104,
            "max": [
                0.16040094196796417,
                0.11291351914405823,
                -0.3960133492946625
            ],
            "min": [
                -0.21759574115276337,
                -0.28491467237472534,
                -0.9915799498558044
            ],
            "type": "VEC3"
        },
        {
            "bufferView": 23,
            "componentType": 5126,
            "count": 104,
            "type": "VEC3"
        },
        {
            "bufferView": 24,
            "componentType": 5126,
            "count": 104,
            "type": "VEC2"
        },
        {
            "bufferView": 25,
            "componentType": 5126,
            "count": 104,
            "type": "VEC2"
        },
        {
            "bufferView": 26,
            "componentType": 5123,
            "count": 104,
            "normalized": true,
            "type": "VEC4"
        },
        {
            "bufferView": 27,
            "componentType": 5123,
            "count": 104,
            "normalized": true,
            "type": "VEC4"
        },
        {
            "bufferView": 28,
            "componentType": 5123,
            "count": 303,
            "type": "SCALAR"
        }
    ],
    "bufferViews": [
        {
            "buffer": 0,
            "byteLength": 1644,
            "byteOffset": 0,
            "target": 34962
        },
        {
            "buffer": 0,
            "byteLength": 1644,
            "byteOffset": 1644,
            "target": 34962
        },
        {
            "buffer": 0,
            "byteLength": 1096,
            "byteOffset": 3288,
            "target": 34962
        },
        {
            "buffer": 0,
            "byteLength": 1096,
            "byteOffset": 4384,
            "target": 34962
        },
        {
            "buffer": 0,
            "byteLength": 1096,
            "byteOffset": 5480,
            "target": 34962
        },
        {
            "buffer": 0,
            "byteLength": 1096,
            "byteOffset": 6576,
            "target": 34962
        },
        {
            "buffer": 0,
            "byteLength": 1096,
            "byteOffset": 7672,
            "target": 34962
        },
        {
            "buffer": 0,
            "byteLength": 852,
            "byteOffset": 8768,
            "target": 34963
        },
        {
            "buffer": 0,
            "byteLength": 2544,
            "byteOffset": 9620,
            "target": 34962
        },
        {
            "buffer": 0,
            "byteLength": 2544,
            "byteOffset": 12164,
            "target": 34962
        },
        {
            "buffer": 0,
            "byteLength": 1696,
            "byteOffset": 14708,
            "target": 34962
        },
        {
            "buffer": 0,
            "byteLength": 1696,
            "byteOffset": 16404,
            "target": 34962
        },
        {
            "buffer": 0,
            "byteLength": 1696,
            "byteOffset": 18100,
            "target": 34962
        },
        {
            "buffer": 0,
            "byteLength": 1696,
            "byteOffset": 19796,
            "target": 34962
        },
        {
            "buffer": 0,
            "byteLength": 1386,
            "byteOffset": 21492,
            "target": 34963
        },
        {
            "buffer": 0,
            "byteLength": 912,
            "byteOffset": 22880,
            "target": 34962
        },
        {
            "buffer": 0,
            "byteLength": 912,
            "byteOffset": 23792,
            "target": 34962
        },
        {
            "buffer": 0,
            "byteLength": 608,
            "byteOffset": 24704,
            "target": 34962
        },
        {
            "buffer": 0,
            "byteLength": 608,
            "byteOffset": 25312,
            "target": 34962
        },
        {
            "buffer": 0,
            "byteLength": 608,
            "byteOffset": 25920,
            "target": 34962
        },
        {
            "buffer": 0,
            "byteLength": 608,
            "byteOffset": 26528,
            "target": 34962
        },
        {
            "buffer": 0,
            "byteLength": 492,
            "byteOffset": 27136,
            "target": 34963
        },
        {
            "buffer": 0,
            "byteLength": 1248,
            "byteOffset": 27628,
            "target": 34962
        },
        {
            "buffer": 0,
            "byteLength": 1248,
            "byteOffset": 28876,
            "target": 34962
        },
        {
            "buffer": 0,
            "byteLength": 832,
            "byteOffset": 30124,
            "target": 34962
        },
        {
            "buffer": 0,
            "byteLength": 832,
            "byteOffset": 30956,
            "target": 34962
        },
        {
            "buffer": 0,
            "byteLength": 832,
            "byteOffset": 31788,
            "target": 34962
        },
        {
            "buffer": 0,
            "byteLength": 832,
            "byteOffset": 32620,
            "target": 34962
        },
        {
            "buffer": 0,
            "byteLength": 606,
            "byteOffset": 33452,
            "target": 34963
        }
    ],
    "samplers": [
        {
            "magFilter": 9729,
            "minFilter": 9987
        },
        {
            "magFilter": 9729,
            "minFilter": 9987,
            "wrapS": 33071,
            "wrapT": 33071
        }
    ],
    "buffers": [
        {
            "byteLength": 34060,
            "uri": "LI-pine_cut_patch_002.bin"
        }
    ]
}