{
    "asset": {
        "generator": "Khronos glTF Blender I/O v4.5.15",
        "version": "2.0"
    },
    "scene": 0,
    "scenes": [
        {
            "extras": {
                "gltfIOGodotAssetProperties": {
                    "export_type": 2,
                    "root_type": 1,
                    "append_parent_collection": 1,
                    "asset_name": "LI-pine_cut_patch_007"
                },
                "asset_type": "ASSET",
                "root_type": "STATIC",
                "asset_id": "331451c8b5c62d45"
            },
            "name": "LI-pine_cut_patch_007",
            "nodes": [
                0,
                1,
                2,
                3
            ]
        }
    ],
    "nodes": [
        {
            "extras": {
                "ant_landscape": {}
            },
            "mesh": 0,
            "name": "GEO-pine_cut_patch-007.001",
            "rotation": [
                0.7071068286895752,
                0,
                0,
                0.7071068286895752
            ],
            "scale": [
                1.1187649965286255,
                1.1187649965286255,
                1.1187649965286255
            ],
            "translation": [
                0.005012488458305597,
                0.0006716163479723036,
                0
            ]
        },
        {
            "extras": {
                "ant_landscape": {},
                "booleans": {}
            },
            "mesh": 1,
            "name": "GEO-pine_cut_patch-010.001",
            "rotation": [
                0.6735627055168152,
                0.0712936520576477,
                0.16690698266029358,
                0.7165002822875977
            ],
            "scale": [
                1.1187649965286255,
                1.1187647581100464,
                1.118765115737915
            ],
            "translation": [
                0.13752399384975433,
                0.01295775268226862,
                0.0019509081030264497
            ]
        },
        {
            "name": "Lattice.001",
            "scale": [
                1.1545389890670776,
                1,
                0.1998637616634369
            ],
            "translation": [
                0,
                -0.49211767315864563,
                0.026575012132525444
            ]
        },
        {
            "extras": {
                "ant_landscape": {}
            },
            "mesh": 2,
            "name": "GEO-pine_cut_patch-011.001",
            "rotation": [
                0.6644682288169861,
                -0.0786580815911293,
                -0.12050464749336243,
                0.7333304286003113
            ],
            "scale": [
                1.1187647581100464,
                1.118765115737915,
                1.118765115737915
            ],
            "translation": [
                -0.15392346680164337,
                0.0006661086808890104,
                6.0381993534974754e-05
            ]
        }
    ],
    "materials": [
        {
            "alphaMode": "BLEND",
            "doubleSided": true,
            "emissiveFactor": [
                1,
                1,
                1
            ],
            "extras": {
                "asset_id": "25330e66f650d1ec",
                "material_info": {
                    "albedo_color": [
                        1.0,
                        1.0,
                        1.0,
                        1.0
                    ],
                    "edge_alpha": 1.0,
                    "alpha_influence": 0.0,
                    "backface_color": 0.0,
                    "metallic": 0.0,
                    "displacement_strength": 1.0,
                    "displacement_scale": 1.0,
                    "paper_color": [
                        0.5481292009353638,
                        0.608286440372467,
                        0.5053419470787048,
                        1.0
                    ],
                    "wear_strength": 0.0,
                    "wear_start": 0.0,
                    "wear_end": 1.0,
                    "wear_distortion_strength": 0.5,
                    "wear_distortion_scale": 100.0,
                    "emission_color": [
                        1.0,
                        1.0,
                        1.0,
                        1.0
                    ],
                    "emission_strength": 0.0,
                    "normal_strength": 0.20000000298023224,
                    "normal_use_uv2": 1.0
                }
            },
            "name": "pine_cuts_atlas_albedo_01",
            "normalTexture": {
                "index": 0,
                "texCoord": 1
            },
            "pbrMetallicRoughness": {
                "baseColorTexture": {
                    "index": 1
                },
                "metallicRoughnessTexture": {
                    "index": 2
                }
            }
        }
    ],
    "meshes": [
        {
            "name": "pine_cuts_atlas_albedo_01.003",
            "primitives": [
                {
                    "attributes": {
                        "POSITION": 0,
                        "NORMAL": 1,
                        "TEXCOORD_0": 2,
                        "TEXCOORD_1": 3,
                        "COLOR_0": 4
                    },
                    "indices": 5,
                    "material": 0
                }
            ]
        },
        {
            "name": "pine_cuts_atlas_albedo_01.006",
            "primitives": [
                {
                    "attributes": {
                        "POSITION": 6,
                        "NORMAL": 7,
                        "TEXCOORD_0": 8,
                        "TEXCOORD_1": 9,
                        "COLOR_0": 10
                    },
                    "indices": 11,
                    "material": 0
                }
            ]
        },
        {
            "name": "pine_cuts_atlas_albedo_01.007",
            "primitives": [
                {
                    "attributes": {
                        "POSITION": 12,
                        "NORMAL": 13,
                        "TEXCOORD_0": 14,
                        "TEXCOORD_1": 15,
                        "COLOR_0": 16
                    },
                    "indices": 17,
                    "material": 0
                }
            ]
        }
    ],
    "textures": [
        {
            "sampler": 0,
            "source": 0
        },
        {
            "sampler": 1,
            "source": 1
        },
        {
            "sampler": 0,
            "source": 2
        }
    ],
    "images": [
        {
            "extras": {
                "source_path": "assets/textures/paper_fine_normal.png"
            },
            "mimeType": "image/png",
            "name": "paper_fine_normal",
            "uri": "../../../textures/paper_fine_normal.png"
        },
        {
            "extras": {
                "source_path": "assets/lib/textures/pine_cuts_atlas_albedo_01.png"
            },
            "mimeType": "image/png",
            "name": "pine_cuts_atlas_albedo_01",
            "uri": "../../textures/pine_cuts_atlas_albedo_01.png"
        },
        {
            "extras": {
                "source_path": "assets/lib/textures/pine_cuts_atlas_roughness_01.png"
            },
            "mimeType": "image/png",
            "name": "pine_cuts_atlas_roughness_01",
            "uri": "../../textures/pine_cuts_atlas_roughness_01.png"
        }
    ],
    "accessors": [
        {
            "bufferView": 0,
            "componentType": 5126,
            "count": 256,
            "max": [
                0.24167035520076752,
                0.40187010169029236,
                0.7850372791290283
            ],
            "min": [
                -0.2377256453037262,
                -0.02677898481488228,
                -0.0191049762070179
            ],
            "type": "VEC3"
        },
        {
            "bufferView": 1,
            "componentType": 5126,
            "count": 256,
            "type": "VEC3"
        },
        {
            "bufferView": 2,
            "componentType": 5126,
            "count": 256,
            "type": "VEC2"
        },
        {
            "bufferView": 3,
            "componentType": 5126,
            "count": 256,
            "type": "VEC2"
        },
        {
            "bufferView": 4,
            "componentType": 5123,
            "count": 256,
            "normalized": true,
            "type": "VEC4"
        },
        {
            "bufferView": 5,
            "componentType": 5123,
            "count": 792,
            "type": "SCALAR"
        },
        {
            "bufferView": 6,
            "componentType": 5126,
            "count": 123,
            "max": [
                0.01917465589940548,
                0.2488836795091629,
                0.8971713781356812
            ],
            "min": [
                -0.26133614778518677,
                -0.05584760382771492,
                -0.01320028118789196
            ],
            "type": "VEC3"
        },
        {
            "bufferView": 7,
            "componentType": 5126,
            "count": 123,
            "type": "VEC3"
        },
        {
            "bufferView": 8,
            "componentType": 5126,
            "count": 123,
            "type": "VEC2"
        },
        {
            "bufferView": 9,
            "componentType": 5126,
            "count": 123,
            "type": "VEC2"
        },
        {
            "bufferView": 10,
            "componentType": 5123,
            "count": 123,
            "normalized": true,
            "type": "VEC4"
        },
        {
            "bufferView": 11,
            "componentType": 5123,
            "count": 360,
            "type": "SCALAR"
        },
        {
            "bufferView": 12,
            "componentType": 5126,
            "count": 177,
            "max": [
                0.2232515662908554,
                0.1476457417011261,
                0.5566760897636414
            ],
            "min": [
                -0.12744547426700592,
                -0.15200947225093842,
                -0.013392926193773746
            ],
            "type": "VEC3"
        },
        {
            "bufferView": 13,
            "componentType": 5126,
            "count": 177,
            "type": "VEC3"
        },
        {
            "bufferView": 14,
            "componentType": 5126,
            "count": 177,
            "type": "VEC2"
        },
        {
            "bufferView": 15,
            "componentType": 5126,
            "count": 177,
            "type": "VEC2"
        },
        {
            "bufferView": 16,
            "componentType": 5123,
            "count": 177,
            "normalized": true,
            "type": "VEC4"
        },
        {
            "bufferView": 17,
            "componentType": 5123,
            "count": 549,
            "type": "SCALAR"
        }
    ],
    "bufferViews": [
        {
            "buffer": 0,
            "byteLength": 3072,
            "byteOffset": 0,
            "target": 34962
        },
        {
            "buffer": 0,
            "byteLength": 3072,
            "byteOffset": 3072,
            "target": 34962
        },
        {
            "buffer": 0,
            "byteLength": 2048,
            "byteOffset": 6144,
            "target": 34962
        },
        {
            "buffer": 0,
            "byteLength": 2048,
            "byteOffset": 8192,
            "target": 34962
        },
        {
            "buffer": 0,
            "byteLength": 2048,
            "byteOffset": 10240,
            "target": 34962
        },
        {
            "buffer": 0,
            "byteLength": 1584,
            "byteOffset": 12288,
            "target": 34963
        },
        {
            "buffer": 0,
            "byteLength": 1476,
            "byteOffset": 13872,
            "target": 34962
        },
        {
            "buffer": 0,
            "byteLength": 1476,
            "byteOffset": 15348,
            "target": 34962
        },
        {
            "buffer": 0,
            "byteLength": 984,
            "byteOffset": 16824,
            "target": 34962
        },
        {
            "buffer": 0,
            "byteLength": 984,
            "byteOffset": 17808,
            "target": 34962
        },
        {
            "buffer": 0,
            "byteLength": 984,
            "byteOffset": 18792,
            "target": 34962
        },
        {
            "buffer": 0,
            "byteLength": 720,
            "byteOffset": 19776,
            "target": 34963
        },
        {
            "buffer": 0,
            "byteLength": 2124,
            "byteOffset": 20496,
            "target": 34962
        },
        {
            "buffer": 0,
            "byteLength": 2124,
            "byteOffset": 22620,
            "target": 34962
        },
        {
            "buffer": 0,
            "byteLength": 1416,
            "byteOffset": 24744,
            "target": 34962
        },
        {
            "buffer": 0,
            "byteLength": 1416,
            "byteOffset": 26160,
            "target": 34962
        },
        {
            "buffer": 0,
            "byteLength": 1416,
            "byteOffset": 27576,
            "target": 34962
        },
        {
            "buffer": 0,
            "byteLength": 1098,
            "byteOffset": 28992,
            "target": 34963
        }
    ],
    "samplers": [
        {
            "magFilter": 9729,
            "minFilter": 9987
        },
        {
            "magFilter": 9729,
            "minFilter": 9987,
            "wrapS": 33071,
            "wrapT": 33071
        }
    ],
    "buffers": [
        {
            "byteLength": 30092,
            "uri": "LI-pine_cut_patch_007.bin"
        }
    ]
}