{
    "asset": {
        "generator": "Khronos glTF Blender I/O v4.5.15",
        "version": "2.0"
    },
    "scene": 0,
    "scenes": [
        {
            "extras": {
                "gltfIOGodotAssetProperties": {
                    "export_type": 2,
                    "root_type": 1,
                    "append_parent_collection": 1,
                    "asset_name": "LI-pine_cut_patch_005"
                },
                "asset_type": "ASSET",
                "root_type": "STATIC",
                "asset_id": "f766ffba2a643bd4"
            },
            "name": "LI-pine_cut_patch_005",
            "nodes": [
                0,
                1,
                2,
                3,
                4
            ]
        }
    ],
    "nodes": [
        {
            "extras": {
                "ant_landscape": {}
            },
            "mesh": 0,
            "name": "pine_cuts_albedo_01.026",
            "rotation": [
                0.6863320469856262,
                -0.039071835577487946,
                -0.003918435424566269,
                0.7262274622917175
            ],
            "scale": [
                0.8629765510559082,
                0.8629764318466187,
                0.8629765510559082
            ],
            "translation": [
                0.15664339065551758,
                -0.8159909248352051,
                0.12976068258285522
            ]
        },
        {
            "extras": {
                "ant_landscape": {}
            },
            "mesh": 1,
            "name": "pine_cuts_albedo_01.025",
            "rotation": [
                0.6659862995147705,
                -0.1151147112250328,
                -0.10509263724088669,
                0.7294973731040955
            ],
            "scale": [
                0.6638281345367432,
                0.6638281345367432,
                0.6638281345367432
            ],
            "translation": [
                0.10525131225585938,
                -0.4064192771911621,
                0.1173214316368103
            ]
        },
        {
            "extras": {
                "ant_landscape": {}
            },
            "mesh": 2,
            "name": "pine_cuts_albedo_01.027",
            "rotation": [
                0.6742271184921265,
                0,
                0,
                0.7385240793228149
            ],
            "scale": [
                0.6638281941413879,
                0.6638281345367432,
                0.6638280749320984
            ],
            "translation": [
                0.5488934516906738,
                -0.9055063724517822,
                0.16408467292785645
            ]
        },
        {
            "extras": {
                "ant_landscape": {}
            },
            "mesh": 3,
            "name": "pine_cuts_albedo_01.028",
            "rotation": [
                0.6740190386772156,
                0.018345076590776443,
                0.01674792170524597,
                0.7382962107658386
            ],
            "scale": [
                0.8629764914512634,
                0.8629764914512634,
                0.8629763722419739
            ],
            "translation": [
                -0.23323965072631836,
                -0.11461591720581055,
                0.12352287769317627
            ]
        },
        {
            "extras": {
                "ant_landscape": {}
            },
            "name": "Lattice.007",
            "rotation": [
                0.6742271184921265,
                0,
                0,
                0.7385240793228149
            ],
            "scale": [
                1.5209687948226929,
                0.22511745989322662,
                1.3934190273284912
            ],
            "translation": [
                -0.026259005069732666,
                -0.4441927969455719,
                0.11702845990657806
            ]
        }
    ],
    "materials": [
        {
            "alphaMode": "BLEND",
            "doubleSided": true,
            "emissiveFactor": [
                1,
                1,
                1
            ],
            "extras": {
                "asset_id": "25330e66f650d1ec",
                "material_info": {
                    "albedo_color": [
                        1.0,
                        1.0,
                        1.0,
                        1.0
                    ],
                    "edge_alpha": 1.0,
                    "alpha_influence": 0.0,
                    "backface_color": 0.0,
                    "metallic": 0.0,
                    "displacement_strength": 1.0,
                    "displacement_scale": 1.0,
                    "paper_color": [
                        0.5481292009353638,
                        0.608286440372467,
                        0.5053419470787048,
                        1.0
                    ],
                    "wear_strength": 0.0,
                    "wear_start": 0.0,
                    "wear_end": 1.0,
                    "wear_distortion_strength": 0.5,
                    "wear_distortion_scale": 100.0,
                    "emission_color": [
                        1.0,
                        1.0,
                        1.0,
                        1.0
                    ],
                    "emission_strength": 0.0,
                    "normal_strength": 0.20000000298023224,
                    "normal_use_uv2": 1.0
                }
            },
            "name": "pine_cuts_atlas_albedo_01",
            "normalTexture": {
                "index": 0,
                "texCoord": 1
            },
            "pbrMetallicRoughness": {
                "baseColorTexture": {
                    "index": 1
                },
                "metallicRoughnessTexture": {
                    "index": 2
                }
            }
        }
    ],
    "meshes": [
        {
            "name": "pine_cuts_albedo_01.012",
            "primitives": [
                {
                    "attributes": {
                        "POSITION": 0,
                        "NORMAL": 1,
                        "TEXCOORD_0": 2,
                        "TEXCOORD_1": 3,
                        "COLOR_0": 4,
                        "COLOR_1": 5
                    },
                    "indices": 6,
                    "material": 0
                }
            ]
        },
        {
            "name": "pine_cuts_albedo_01.015",
            "primitives": [
                {
                    "attributes": {
                        "POSITION": 7,
                        "NORMAL": 8,
                        "TEXCOORD_0": 9,
                        "TEXCOORD_1": 10,
                        "COLOR_0": 11,
                        "COLOR_1": 12
                    },
                    "indices": 13,
                    "material": 0
                }
            ]
        },
        {
            "name": "pine_cuts_albedo_01.016",
            "primitives": [
                {
                    "attributes": {
                        "POSITION": 14,
                        "NORMAL": 15,
                        "TEXCOORD_0": 16,
                        "TEXCOORD_1": 17,
                        "COLOR_0": 18,
                        "COLOR_1": 19
                    },
                    "indices": 20,
                    "material": 0
                }
            ]
        },
        {
            "name": "pine_cuts_albedo_01.002",
            "primitives": [
                {
                    "attributes": {
                        "POSITION": 21,
                        "NORMAL": 22,
                        "TEXCOORD_0": 23,
                        "TEXCOORD_1": 24,
                        "COLOR_0": 25,
                        "COLOR_1": 26,
                        "COLOR_2": 27
                    },
                    "indices": 28,
                    "material": 0
                }
            ]
        }
    ],
    "textures": [
        {
            "sampler": 0,
            "source": 0
        },
        {
            "sampler": 1,
            "source": 1
        },
        {
            "sampler": 0,
            "source": 2
        }
    ],
    "images": [
        {
            "extras": {
                "source_path": "assets/textures/paper_fine_normal.png"
            },
            "mimeType": "image/png",
            "name": "paper_fine_normal",
            "uri": "../../../textures/paper_fine_normal.png"
        },
        {
            "extras": {
                "source_path": "assets/lib/textures/pine_cuts_atlas_albedo_01.png"
            },
            "mimeType": "image/png",
            "name": "pine_cuts_atlas_albedo_01",
            "uri": "../../textures/pine_cuts_atlas_albedo_01.png"
        },
        {
            "extras": {
                "source_path": "assets/lib/textures/pine_cuts_atlas_roughness_01.png"
            },
            "mimeType": "image/png",
            "name": "pine_cuts_atlas_roughness_01",
            "uri": "../../textures/pine_cuts_atlas_roughness_01.png"
        }
    ],
    "accessors": [
        {
            "bufferView": 0,
            "componentType": 5126,
            "count": 87,
            "max": [
                0.2842251658439636,
                0.47470712661743164,
                0.02005884051322937
            ],
            "min": [
                -0.2139892727136612,
                -0.005835002288222313,
                -0.42734846472740173
            ],
            "type": "VEC3"
        },
        {
            "bufferView": 1,
            "componentType": 5126,
            "count": 87,
            "type": "VEC3"
        },
        {
            "bufferView": 2,
            "componentType": 5126,
            "count": 87,
            "type": "VEC2"
        },
        {
            "bufferView": 3,
            "componentType": 5126,
            "count": 87,
            "type": "VEC2"
        },
        {
            "bufferView": 4,
            "componentType": 5123,
            "count": 87,
            "normalized": true,
            "type": "VEC4"
        },
        {
            "bufferView": 5,
            "componentType": 5123,
            "count": 87,
            "normalized": true,
            "type": "VEC4"
        },
        {
            "bufferView": 6,
            "componentType": 5123,
            "count": 255,
            "type": "SCALAR"
        },
        {
            "bufferView": 7,
            "componentType": 5126,
            "count": 215,
            "max": [
                0.15999449789524078,
                0.663590669631958,
                0.9421041011810303
            ],
            "min": [
                -0.6498168110847473,
                -0.4962289035320282,
                -0.7944435477256775
            ],
            "type": "VEC3"
        },
        {
            "bufferView": 8,
            "componentType": 5126,
            "count": 215,
            "type": "VEC3"
        },
        {
            "bufferView": 9,
            "componentType": 5126,
            "count": 215,
            "type": "VEC2"
        },
        {
            "bufferView": 10,
            "componentType": 5126,
            "count": 215,
            "type": "VEC2"
        },
        {
            "bufferView": 11,
            "componentType": 5123,
            "count": 215,
            "normalized": true,
            "type": "VEC4"
        },
        {
            "bufferView": 12,
            "componentType": 5123,
            "count": 215,
            "normalized": true,
            "type": "VEC4"
        },
        {
            "bufferView": 13,
            "componentType": 5123,
            "count": 654,
            "type": "SCALAR"
        },
        {
            "bufferView": 14,
            "componentType": 5126,
            "count": 105,
            "max": [
                -0.0909007340669632,
                0.3846292495727539,
                -0.002953383605927229
            ],
            "min": [
                -0.6947707533836365,
                -0.5363725423812866,
                -1.2560237646102905
            ],
            "type": "VEC3"
        },
        {
            "bufferView": 15,
            "componentType": 5126,
            "count": 105,
            "type": "VEC3"
        },
        {
            "bufferView": 16,
            "componentType": 5126,
            "count": 105,
            "type": "VEC2"
        },
        {
            "bufferView": 17,
            "componentType": 5126,
            "count": 105,
            "type": "VEC2"
        },
        {
            "bufferView": 18,
            "componentType": 5123,
            "count": 105,
            "normalized": true,
            "type": "VEC4"
        },
        {
            "bufferView": 19,
            "componentType": 5123,
            "count": 105,
            "normalized": true,
            "type": "VEC4"
        },
        {
            "bufferView": 20,
            "componentType": 5123,
            "count": 306,
            "type": "SCALAR"
        },
        {
            "bufferView": 21,
            "componentType": 5126,
            "count": 137,
            "max": [
                0.6341635584831238,
                0.27108633518218994,
                0.6289432644844055
            ],
            "min": [
                0.02185123600065708,
                -0.2142494022846222,
                -0.3321805000305176
            ],
            "type": "VEC3"
        },
        {
            "bufferView": 22,
            "componentType": 5126,
            "count": 137,
            "type": "VEC3"
        },
        {
            "bufferView": 23,
            "componentType": 5126,
            "count": 137,
            "type": "VEC2"
        },
        {
            "bufferView": 24,
            "componentType": 5126,
            "count": 137,
            "type": "VEC2"
        },
        {
            "bufferView": 25,
            "componentType": 5123,
            "count": 137,
            "normalized": true,
            "type": "VEC4"
        },
        {
            "bufferView": 26,
            "componentType": 5123,
            "count": 137,
            "normalized": true,
            "type": "VEC4"
        },
        {
            "bufferView": 27,
            "componentType": 5123,
            "count": 137,
            "normalized": true,
            "type": "VEC4"
        },
        {
            "bufferView": 28,
            "componentType": 5123,
            "count": 426,
            "type": "SCALAR"
        }
    ],
    "bufferViews": [
        {
            "buffer": 0,
            "byteLength": 1044,
            "byteOffset": 0,
            "target": 34962
        },
        {
            "buffer": 0,
            "byteLength": 1044,
            "byteOffset": 1044,
            "target": 34962
        },
        {
            "buffer": 0,
            "byteLength": 696,
            "byteOffset": 2088,
            "target": 34962
        },
        {
            "buffer": 0,
            "byteLength": 696,
            "byteOffset": 2784,
            "target": 34962
        },
        {
            "buffer": 0,
            "byteLength": 696,
            "byteOffset": 3480,
            "target": 34962
        },
        {
            "buffer": 0,
            "byteLength": 696,
            "byteOffset": 4176,
            "target": 34962
        },
        {
            "buffer": 0,
            "byteLength": 510,
            "byteOffset": 4872,
            "target": 34963
        },
        {
            "buffer": 0,
            "byteLength": 2580,
            "byteOffset": 5384,
            "target": 34962
        },
        {
            "buffer": 0,
            "byteLength": 2580,
            "byteOffset": 7964,
            "target": 34962
        },
        {
            "buffer": 0,
            "byteLength": 1720,
            "byteOffset": 10544,
            "target": 34962
        },
        {
            "buffer": 0,
            "byteLength": 1720,
            "byteOffset": 12264,
            "target": 34962
        },
        {
            "buffer": 0,
            "byteLength": 1720,
            "byteOffset": 13984,
            "target": 34962
        },
        {
            "buffer": 0,
            "byteLength": 1720,
            "byteOffset": 15704,
            "target": 34962
        },
        {
            "buffer": 0,
            "byteLength": 1308,
            "byteOffset": 17424,
            "target": 34963
        },
        {
            "buffer": 0,
            "byteLength": 1260,
            "byteOffset": 18732,
            "target": 34962
        },
        {
            "buffer": 0,
            "byteLength": 1260,
            "byteOffset": 19992,
            "target": 34962
        },
        {
            "buffer": 0,
            "byteLength": 840,
            "byteOffset": 21252,
            "target": 34962
        },
        {
            "buffer": 0,
            "byteLength": 840,
            "byteOffset": 22092,
            "target": 34962
        },
        {
            "buffer": 0,
            "byteLength": 840,
            "byteOffset": 22932,
            "target": 34962
        },
        {
            "buffer": 0,
            "byteLength": 840,
            "byteOffset": 23772,
            "target": 34962
        },
        {
            "buffer": 0,
            "byteLength": 612,
            "byteOffset": 24612,
            "target": 34963
        },
        {
            "buffer": 0,
            "byteLength": 1644,
            "byteOffset": 25224,
            "target": 34962
        },
        {
            "buffer": 0,
            "byteLength": 1644,
            "byteOffset": 26868,
            "target": 34962
        },
        {
            "buffer": 0,
            "byteLength": 1096,
            "byteOffset": 28512,
            "target": 34962
        },
        {
            "buffer": 0,
            "byteLength": 1096,
            "byteOffset": 29608,
            "target": 34962
        },
        {
            "buffer": 0,
            "byteLength": 1096,
            "byteOffset": 30704,
            "target": 34962
        },
        {
            "buffer": 0,
            "byteLength": 1096,
            "byteOffset": 31800,
            "target": 34962
        },
        {
            "buffer": 0,
            "byteLength": 1096,
            "byteOffset": 32896,
            "target": 34962
        },
        {
            "buffer": 0,
            "byteLength": 852,
            "byteOffset": 33992,
            "target": 34963
        }
    ],
    "samplers": [
        {
            "magFilter": 9729,
            "minFilter": 9987
        },
        {
            "magFilter": 9729,
            "minFilter": 9987,
            "wrapS": 33071,
            "wrapT": 33071
        }
    ],
    "buffers": [
        {
            "byteLength": 34844,
            "uri": "LI-pine_cut_patch_005.bin"
        }
    ]
}