{
    "asset": {
        "generator": "Khronos glTF Blender I/O v4.5.15",
        "version": "2.0"
    },
    "scene": 0,
    "scenes": [
        {
            "extras": {
                "gltfIOGodotAssetProperties": {
                    "export_type": 2,
                    "root_type": 1,
                    "append_parent_collection": 1,
                    "asset_name": "LI-pine_cut_patch_008"
                },
                "asset_type": "ASSET",
                "root_type": "STATIC",
                "asset_id": "7f97804ec1f235bd"
            },
            "name": "LI-pine_cut_patch_008",
            "nodes": [
                0,
                1,
                2,
                3
            ]
        }
    ],
    "nodes": [
        {
            "extras": {
                "ant_landscape": {}
            },
            "mesh": 0,
            "name": "GEO-pine_cut_patch-004.001",
            "rotation": [
                0.6927692890167236,
                0.008721179328858852,
                0.009077194146811962,
                0.721049427986145
            ],
            "scale": [
                1.2999999523162842,
                1.2999999523162842,
                1.3000000715255737
            ],
            "translation": [
                -0.1606650948524475,
                -0.016886672005057335,
                0.005355609115213156
            ]
        },
        {
            "extras": {
                "ant_landscape": {}
            },
            "mesh": 1,
            "name": "GEO-pine_cut_patch-009.001",
            "rotation": [
                0.6309054493904114,
                -0.16231077909469604,
                -0.1349496841430664,
                0.746593713760376
            ],
            "scale": [
                1.2999999523162842,
                1.2999999523162842,
                1.299999713897705
            ],
            "translation": [
                0.04889930784702301,
                -0.5353765487670898,
                -0.06925541907548904
            ]
        },
        {
            "extras": {
                "ant_landscape": {}
            },
            "mesh": 2,
            "name": "GEO-pine_cut_patch.001",
            "rotation": [
                0.7244648933410645,
                0.06775960326194763,
                0.048277344554662704,
                0.684272289276123
            ],
            "scale": [
                1.2999999523162842,
                1.3000000715255737,
                1.3000000715255737
            ],
            "translation": [
                0.18700523674488068,
                -0.23225343227386475,
                0.009797010570764542
            ]
        },
        {
            "name": "Lattice.006",
            "scale": [
                1.187940001487732,
                1.1046855449676514,
                0.2755182981491089
            ],
            "translation": [
                0.023338664323091507,
                -0.526626467704773,
                0.02358066290616989
            ]
        }
    ],
    "materials": [
        {
            "alphaMode": "BLEND",
            "doubleSided": true,
            "emissiveFactor": [
                1,
                1,
                1
            ],
            "extras": {
                "asset_id": "25330e66f650d1ec",
                "material_info": {
                    "albedo_color": [
                        1.0,
                        1.0,
                        1.0,
                        1.0
                    ],
                    "edge_alpha": 1.0,
                    "alpha_influence": 0.0,
                    "backface_color": 0.0,
                    "metallic": 0.0,
                    "displacement_strength": 1.0,
                    "displacement_scale": 1.0,
                    "paper_color": [
                        0.5481292009353638,
                        0.608286440372467,
                        0.5053419470787048,
                        1.0
                    ],
                    "wear_strength": 0.0,
                    "wear_start": 0.0,
                    "wear_end": 1.0,
                    "wear_distortion_strength": 0.5,
                    "wear_distortion_scale": 100.0,
                    "emission_color": [
                        1.0,
                        1.0,
                        1.0,
                        1.0
                    ],
                    "emission_strength": 0.0,
                    "normal_strength": 0.20000000298023224,
                    "normal_use_uv2": 1.0
                }
            },
            "name": "pine_cuts_atlas_albedo_01",
            "normalTexture": {
                "index": 0,
                "texCoord": 1
            },
            "pbrMetallicRoughness": {
                "baseColorTexture": {
                    "index": 1
                },
                "metallicRoughnessTexture": {
                    "index": 2
                }
            }
        }
    ],
    "meshes": [
        {
            "name": "pine_cuts_atlas_albedo_01.010",
            "primitives": [
                {
                    "attributes": {
                        "POSITION": 0,
                        "NORMAL": 1,
                        "TEXCOORD_0": 2,
                        "TEXCOORD_1": 3,
                        "COLOR_0": 4
                    },
                    "indices": 5,
                    "material": 0
                }
            ]
        },
        {
            "name": "pine_cuts_atlas_albedo_01.005",
            "primitives": [
                {
                    "attributes": {
                        "POSITION": 6,
                        "NORMAL": 7,
                        "TEXCOORD_0": 8,
                        "TEXCOORD_1": 9,
                        "COLOR_0": 10
                    },
                    "indices": 11,
                    "material": 0
                }
            ]
        },
        {
            "name": "pine_cuts_atlas_albedo_01.001",
            "primitives": [
                {
                    "attributes": {
                        "POSITION": 12,
                        "NORMAL": 13,
                        "TEXCOORD_0": 14,
                        "TEXCOORD_1": 15,
                        "COLOR_0": 16
                    },
                    "indices": 17,
                    "material": 0
                }
            ]
        }
    ],
    "textures": [
        {
            "sampler": 0,
            "source": 0
        },
        {
            "sampler": 1,
            "source": 1
        },
        {
            "sampler": 0,
            "source": 2
        }
    ],
    "images": [
        {
            "extras": {
                "source_path": "assets/textures/paper_fine_normal.png"
            },
            "mimeType": "image/png",
            "name": "paper_fine_normal",
            "uri": "../../../textures/paper_fine_normal.png"
        },
        {
            "extras": {
                "source_path": "assets/lib/textures/pine_cuts_atlas_albedo_01.png"
            },
            "mimeType": "image/png",
            "name": "pine_cuts_atlas_albedo_01",
            "uri": "../../textures/pine_cuts_atlas_albedo_01.png"
        },
        {
            "extras": {
                "source_path": "assets/lib/textures/pine_cuts_atlas_roughness_01.png"
            },
            "mimeType": "image/png",
            "name": "pine_cuts_atlas_roughness_01",
            "uri": "../../textures/pine_cuts_atlas_roughness_01.png"
        }
    ],
    "accessors": [
        {
            "bufferView": 0,
            "componentType": 5126,
            "count": 318,
            "max": [
                0.5748571157455444,
                0.3472409248352051,
                0.8464953899383545
            ],
            "min": [
                -0.29695528745651245,
                -0.17042210698127747,
                -0.030881404876708984
            ],
            "type": "VEC3"
        },
        {
            "bufferView": 1,
            "componentType": 5126,
            "count": 318,
            "type": "VEC3"
        },
        {
            "bufferView": 2,
            "componentType": 5126,
            "count": 318,
            "type": "VEC2"
        },
        {
            "bufferView": 3,
            "componentType": 5126,
            "count": 318,
            "type": "VEC2"
        },
        {
            "bufferView": 4,
            "componentType": 5123,
            "count": 318,
            "normalized": true,
            "type": "VEC4"
        },
        {
            "bufferView": 5,
            "componentType": 5123,
            "count": 1002,
            "type": "SCALAR"
        },
        {
            "bufferView": 6,
            "componentType": 5126,
            "count": 67,
            "max": [
                0.18022237718105316,
                0.35440048575401306,
                0.6696149706840515
            ],
            "min": [
                -0.027442744001746178,
                0.0754539743065834,
                0.002865053014829755
            ],
            "type": "VEC3"
        },
        {
            "bufferView": 7,
            "componentType": 5126,
            "count": 67,
            "type": "VEC3"
        },
        {
            "bufferView": 8,
            "componentType": 5126,
            "count": 67,
            "type": "VEC2"
        },
        {
            "bufferView": 9,
            "componentType": 5126,
            "count": 67,
            "type": "VEC2"
        },
        {
            "bufferView": 10,
            "componentType": 5123,
            "count": 67,
            "normalized": true,
            "type": "VEC4"
        },
        {
            "bufferView": 11,
            "componentType": 5123,
            "count": 192,
            "type": "SCALAR"
        },
        {
            "bufferView": 12,
            "componentType": 5126,
            "count": 100,
            "max": [
                -0.012910103425383568,
                0.34170663356781006,
                0.7936132550239563
            ],
            "min": [
                -0.2001419961452484,
                -0.029666708782315254,
                -0.005973896477371454
            ],
            "type": "VEC3"
        },
        {
            "bufferView": 13,
            "componentType": 5126,
            "count": 100,
            "type": "VEC3"
        },
        {
            "bufferView": 14,
            "componentType": 5126,
            "count": 100,
            "type": "VEC2"
        },
        {
            "bufferView": 15,
            "componentType": 5126,
            "count": 100,
            "type": "VEC2"
        },
        {
            "bufferView": 16,
            "componentType": 5123,
            "count": 100,
            "normalized": true,
            "type": "VEC4"
        },
        {
            "bufferView": 17,
            "componentType": 5123,
            "count": 297,
            "type": "SCALAR"
        }
    ],
    "bufferViews": [
        {
            "buffer": 0,
            "byteLength": 3816,
            "byteOffset": 0,
            "target": 34962
        },
        {
            "buffer": 0,
            "byteLength": 3816,
            "byteOffset": 3816,
            "target": 34962
        },
        {
            "buffer": 0,
            "byteLength": 2544,
            "byteOffset": 7632,
            "target": 34962
        },
        {
            "buffer": 0,
            "byteLength": 2544,
            "byteOffset": 10176,
            "target": 34962
        },
        {
            "buffer": 0,
            "byteLength": 2544,
            "byteOffset": 12720,
            "target": 34962
        },
        {
            "buffer": 0,
            "byteLength": 2004,
            "byteOffset": 15264,
            "target": 34963
        },
        {
            "buffer": 0,
            "byteLength": 804,
            "byteOffset": 17268,
            "target": 34962
        },
        {
            "buffer": 0,
            "byteLength": 804,
            "byteOffset": 18072,
            "target": 34962
        },
        {
            "buffer": 0,
            "byteLength": 536,
            "byteOffset": 18876,
            "target": 34962
        },
        {
            "buffer": 0,
            "byteLength": 536,
            "byteOffset": 19412,
            "target": 34962
        },
        {
            "buffer": 0,
            "byteLength": 536,
            "byteOffset": 19948,
            "target": 34962
        },
        {
            "buffer": 0,
            "byteLength": 384,
            "byteOffset": 20484,
            "target": 34963
        },
        {
            "buffer": 0,
            "byteLength": 1200,
            "byteOffset": 20868,
            "target": 34962
        },
        {
            "buffer": 0,
            "byteLength": 1200,
            "byteOffset": 22068,
            "target": 34962
        },
        {
            "buffer": 0,
            "byteLength": 800,
            "byteOffset": 23268,
            "target": 34962
        },
        {
            "buffer": 0,
            "byteLength": 800,
            "byteOffset": 24068,
            "target": 34962
        },
        {
            "buffer": 0,
            "byteLength": 800,
            "byteOffset": 24868,
            "target": 34962
        },
        {
            "buffer": 0,
            "byteLength": 594,
            "byteOffset": 25668,
            "target": 34963
        }
    ],
    "samplers": [
        {
            "magFilter": 9729,
            "minFilter": 9987
        },
        {
            "magFilter": 9729,
            "minFilter": 9987,
            "wrapS": 33071,
            "wrapT": 33071
        }
    ],
    "buffers": [
        {
            "byteLength": 26264,
            "uri": "LI-pine_cut_patch_008.bin"
        }
    ]
}