{
    "asset": {
        "generator": "Khronos glTF Blender I/O v4.5.15",
        "version": "2.0"
    },
    "scene": 0,
    "scenes": [
        {
            "extras": {
                "gltfIOGodotAssetProperties": {
                    "export_type": 2,
                    "root_type": 1,
                    "append_parent_collection": 1,
                    "asset_name": "LI-pine_cut_patch_003"
                },
                "asset_type": "ASSET",
                "root_type": "STATIC",
                "asset_id": "403ac40e27997520"
            },
            "name": "LI-pine_cut_patch_003",
            "nodes": [
                0,
                1,
                2,
                3,
                4
            ]
        }
    ],
    "nodes": [
        {
            "extras": {
                "ant_landscape": {}
            },
            "mesh": 0,
            "name": "pine_cuts_albedo_01.009",
            "rotation": [
                0.5845270752906799,
                -0.047355275601148605,
                -0.042923711240291595,
                0.8088529706001282
            ],
            "scale": [
                0.6252791285514832,
                0.6252790689468384,
                0.625278890132904
            ],
            "translation": [
                0.22487545013427734,
                -0.46668553352355957,
                0.21946978569030762
            ]
        },
        {
            "extras": {
                "ant_landscape": {}
            },
            "mesh": 1,
            "name": "pine_cuts_albedo_01.010",
            "rotation": [
                0.5845270752906799,
                -0.047355279326438904,
                -0.04292371869087219,
                0.8088530898094177
            ],
            "scale": [
                1.6257257461547852,
                1.625725269317627,
                1.6257250308990479
            ],
            "translation": [
                -0.39280009269714355,
                -0.6111855506896973,
                0.2762473225593567
            ]
        },
        {
            "extras": {
                "ant_landscape": {}
            },
            "mesh": 2,
            "name": "pine_cuts_albedo_01.011",
            "rotation": [
                0.5845270752906799,
                -0.047355275601148605,
                -0.042923711240291595,
                0.8088529706001282
            ],
            "scale": [
                0.6252791285514832,
                0.6252790689468384,
                0.625278890132904
            ],
            "translation": [
                -0.07749295234680176,
                -1.0339171886444092,
                0.41088980436325073
            ]
        },
        {
            "extras": {
                "ant_landscape": {}
            },
            "mesh": 3,
            "name": "pine_cuts_albedo_01.012",
            "rotation": [
                0.5845270752906799,
                -0.047355279326438904,
                -0.04292371869087219,
                0.8088530898094177
            ],
            "scale": [
                1.6257257461547852,
                1.625725269317627,
                1.6257250308990479
            ],
            "translation": [
                -0.13873529434204102,
                -0.4447824954986572,
                0.21764087677001953
            ]
        },
        {
            "extras": {
                "ant_landscape": {}
            },
            "name": "Lattice.004",
            "rotation": [
                0.5677573084831238,
                0.006998531986027956,
                -0.004827137105166912,
                0.8231520652770996
            ],
            "scale": [
                1.2131141424179077,
                0.1563926637172699,
                1.6929795742034912
            ],
            "translation": [
                -0.01160413771867752,
                -0.5813384056091309,
                0.2816649377346039
            ]
        }
    ],
    "materials": [
        {
            "alphaMode": "BLEND",
            "doubleSided": true,
            "emissiveFactor": [
                1,
                1,
                1
            ],
            "extras": {
                "asset_id": "25330e66f650d1ec",
                "material_info": {
                    "albedo_color": [
                        1.0,
                        1.0,
                        1.0,
                        1.0
                    ],
                    "edge_alpha": 1.0,
                    "alpha_influence": 0.0,
                    "backface_color": 0.0,
                    "metallic": 0.0,
                    "displacement_strength": 1.0,
                    "displacement_scale": 1.0,
                    "paper_color": [
                        0.5481292009353638,
                        0.608286440372467,
                        0.5053419470787048,
                        1.0
                    ],
                    "wear_strength": 0.0,
                    "wear_start": 0.0,
                    "wear_end": 1.0,
                    "wear_distortion_strength": 0.5,
                    "wear_distortion_scale": 100.0,
                    "emission_color": [
                        1.0,
                        1.0,
                        1.0,
                        1.0
                    ],
                    "emission_strength": 0.0,
                    "normal_strength": 0.20000000298023224,
                    "normal_use_uv2": 1.0
                }
            },
            "name": "pine_cuts_atlas_albedo_01",
            "normalTexture": {
                "index": 0,
                "texCoord": 1
            },
            "pbrMetallicRoughness": {
                "baseColorTexture": {
                    "index": 1
                },
                "metallicRoughnessTexture": {
                    "index": 2
                }
            }
        }
    ],
    "meshes": [
        {
            "name": "pine_cuts_albedo_01",
            "primitives": [
                {
                    "attributes": {
                        "POSITION": 0,
                        "NORMAL": 1,
                        "TEXCOORD_0": 2,
                        "TEXCOORD_1": 3,
                        "COLOR_0": 4,
                        "COLOR_1": 5,
                        "COLOR_2": 6
                    },
                    "indices": 7,
                    "material": 0
                }
            ]
        },
        {
            "name": "pine_cuts_albedo_01.003",
            "primitives": [
                {
                    "attributes": {
                        "POSITION": 8,
                        "NORMAL": 9,
                        "TEXCOORD_0": 10,
                        "TEXCOORD_1": 11,
                        "COLOR_0": 12,
                        "COLOR_1": 13
                    },
                    "indices": 14,
                    "material": 0
                }
            ]
        },
        {
            "name": "pine_cuts_albedo_01.004",
            "primitives": [
                {
                    "attributes": {
                        "POSITION": 15,
                        "NORMAL": 16,
                        "TEXCOORD_0": 17,
                        "TEXCOORD_1": 18,
                        "COLOR_0": 19,
                        "COLOR_1": 20
                    },
                    "indices": 21,
                    "material": 0
                }
            ]
        },
        {
            "name": "pine_cuts_albedo_01.005",
            "primitives": [
                {
                    "attributes": {
                        "POSITION": 22,
                        "NORMAL": 23,
                        "TEXCOORD_0": 24,
                        "TEXCOORD_1": 25,
                        "COLOR_0": 26,
                        "COLOR_1": 27
                    },
                    "indices": 28,
                    "material": 0
                }
            ]
        }
    ],
    "textures": [
        {
            "sampler": 0,
            "source": 0
        },
        {
            "sampler": 1,
            "source": 1
        },
        {
            "sampler": 0,
            "source": 2
        }
    ],
    "images": [
        {
            "extras": {
                "source_path": "assets/textures/paper_fine_normal.png"
            },
            "mimeType": "image/png",
            "name": "paper_fine_normal",
            "uri": "../../../textures/paper_fine_normal.png"
        },
        {
            "extras": {
                "source_path": "assets/lib/textures/pine_cuts_atlas_albedo_01.png"
            },
            "mimeType": "image/png",
            "name": "pine_cuts_atlas_albedo_01",
            "uri": "../../textures/pine_cuts_atlas_albedo_01.png"
        },
        {
            "extras": {
                "source_path": "assets/lib/textures/pine_cuts_atlas_roughness_01.png"
            },
            "mimeType": "image/png",
            "name": "pine_cuts_atlas_roughness_01",
            "uri": "../../textures/pine_cuts_atlas_roughness_01.png"
        }
    ],
    "accessors": [
        {
            "bufferView": 0,
            "componentType": 5126,
            "count": 186,
            "max": [
                0.4039120376110077,
                0.1145063042640686,
                0.806599497795105
            ],
            "min": [
                -0.40683576464653015,
                -0.5405983328819275,
                -0.9151440858840942
            ],
            "type": "VEC3"
        },
        {
            "bufferView": 1,
            "componentType": 5126,
            "count": 186,
            "type": "VEC3"
        },
        {
            "bufferView": 2,
            "componentType": 5126,
            "count": 186,
            "type": "VEC2"
        },
        {
            "bufferView": 3,
            "componentType": 5126,
            "count": 186,
            "type": "VEC2"
        },
        {
            "bufferView": 4,
            "componentType": 5123,
            "count": 186,
            "normalized": true,
            "type": "VEC4"
        },
        {
            "bufferView": 5,
            "componentType": 5123,
            "count": 186,
            "normalized": true,
            "type": "VEC4"
        },
        {
            "bufferView": 6,
            "componentType": 5123,
            "count": 186,
            "normalized": true,
            "type": "VEC4"
        },
        {
            "bufferView": 7,
            "componentType": 5123,
            "count": 615,
            "type": "SCALAR"
        },
        {
            "bufferView": 8,
            "componentType": 5126,
            "count": 137,
            "max": [
                0.1979956030845642,
                0.06794614344835281,
                0.27226677536964417
            ],
            "min": [
                -0.030472327023744583,
                -0.27398353815078735,
                -0.5242242217063904
            ],
            "type": "VEC3"
        },
        {
            "bufferView": 9,
            "componentType": 5126,
            "count": 137,
            "type": "VEC3"
        },
        {
            "bufferView": 10,
            "componentType": 5126,
            "count": 137,
            "type": "VEC2"
        },
        {
            "bufferView": 11,
            "componentType": 5126,
            "count": 137,
            "type": "VEC2"
        },
        {
            "bufferView": 12,
            "componentType": 5123,
            "count": 137,
            "normalized": true,
            "type": "VEC4"
        },
        {
            "bufferView": 13,
            "componentType": 5123,
            "count": 137,
            "normalized": true,
            "type": "VEC4"
        },
        {
            "bufferView": 14,
            "componentType": 5123,
            "count": 432,
            "type": "SCALAR"
        },
        {
            "bufferView": 15,
            "componentType": 5126,
            "count": 67,
            "max": [
                0.33644795417785645,
                0.47714391350746155,
                0.09491836279630661
            ],
            "min": [
                -0.20195412635803223,
                -0.19847220182418823,
                -0.8227180242538452
            ],
            "type": "VEC3"
        },
        {
            "bufferView": 16,
            "componentType": 5126,
            "count": 67,
            "type": "VEC3"
        },
        {
            "bufferView": 17,
            "componentType": 5126,
            "count": 67,
            "type": "VEC2"
        },
        {
            "bufferView": 18,
            "componentType": 5126,
            "count": 67,
            "type": "VEC2"
        },
        {
            "bufferView": 19,
            "componentType": 5123,
            "count": 67,
            "normalized": true,
            "type": "VEC4"
        },
        {
            "bufferView": 20,
            "componentType": 5123,
            "count": 67,
            "normalized": true,
            "type": "VEC4"
        },
        {
            "bufferView": 21,
            "componentType": 5123,
            "count": 204,
            "type": "SCALAR"
        },
        {
            "bufferView": 22,
            "componentType": 5126,
            "count": 52,
            "max": [
                0.1212933212518692,
                -0.029106473550200462,
                0.2156812846660614
            ],
            "min": [
                -0.053391940891742706,
                -0.15926815569400787,
                -0.22466978430747986
            ],
            "type": "VEC3"
        },
        {
            "bufferView": 23,
            "componentType": 5126,
            "count": 52,
            "type": "VEC3"
        },
        {
            "bufferView": 24,
            "componentType": 5126,
            "count": 52,
            "type": "VEC2"
        },
        {
            "bufferView": 25,
            "componentType": 5126,
            "count": 52,
            "type": "VEC2"
        },
        {
            "bufferView": 26,
            "componentType": 5123,
            "count": 52,
            "normalized": true,
            "type": "VEC4"
        },
        {
            "bufferView": 27,
            "componentType": 5123,
            "count": 52,
            "normalized": true,
            "type": "VEC4"
        },
        {
            "bufferView": 28,
            "componentType": 5123,
            "count": 159,
            "type": "SCALAR"
        }
    ],
    "bufferViews": [
        {
            "buffer": 0,
            "byteLength": 2232,
            "byteOffset": 0,
            "target": 34962
        },
        {
            "buffer": 0,
            "byteLength": 2232,
            "byteOffset": 2232,
            "target": 34962
        },
        {
            "buffer": 0,
            "byteLength": 1488,
            "byteOffset": 4464,
            "target": 34962
        },
        {
            "buffer": 0,
            "byteLength": 1488,
            "byteOffset": 5952,
            "target": 34962
        },
        {
            "buffer": 0,
            "byteLength": 1488,
            "byteOffset": 7440,
            "target": 34962
        },
        {
            "buffer": 0,
            "byteLength": 1488,
            "byteOffset": 8928,
            "target": 34962
        },
        {
            "buffer": 0,
            "byteLength": 1488,
            "byteOffset": 10416,
            "target": 34962
        },
        {
            "buffer": 0,
            "byteLength": 1230,
            "byteOffset": 11904,
            "target": 34963
        },
        {
            "buffer": 0,
            "byteLength": 1644,
            "byteOffset": 13136,
            "target": 34962
        },
        {
            "buffer": 0,
            "byteLength": 1644,
            "byteOffset": 14780,
            "target": 34962
        },
        {
            "buffer": 0,
            "byteLength": 1096,
            "byteOffset": 16424,
            "target": 34962
        },
        {
            "buffer": 0,
            "byteLength": 1096,
            "byteOffset": 17520,
            "target": 34962
        },
        {
            "buffer": 0,
            "byteLength": 1096,
            "byteOffset": 18616,
            "target": 34962
        },
        {
            "buffer": 0,
            "byteLength": 1096,
            "byteOffset": 19712,
            "target": 34962
        },
        {
            "buffer": 0,
            "byteLength": 864,
            "byteOffset": 20808,
            "target": 34963
        },
        {
            "buffer": 0,
            "byteLength": 804,
            "byteOffset": 21672,
            "target": 34962
        },
        {
            "buffer": 0,
            "byteLength": 804,
            "byteOffset": 22476,
            "target": 34962
        },
        {
            "buffer": 0,
            "byteLength": 536,
            "byteOffset": 23280,
            "target": 34962
        },
        {
            "buffer": 0,
            "byteLength": 536,
            "byteOffset": 23816,
            "target": 34962
        },
        {
            "buffer": 0,
            "byteLength": 536,
            "byteOffset": 24352,
            "target": 34962
        },
        {
            "buffer": 0,
            "byteLength": 536,
            "byteOffset": 24888,
            "target": 34962
        },
        {
            "buffer": 0,
            "byteLength": 408,
            "byteOffset": 25424,
            "target": 34963
        },
        {
            "buffer": 0,
            "byteLength": 624,
            "byteOffset": 25832,
            "target": 34962
        },
        {
            "buffer": 0,
            "byteLength": 624,
            "byteOffset": 26456,
            "target": 34962
        },
        {
            "buffer": 0,
            "byteLength": 416,
            "byteOffset": 27080,
            "target": 34962
        },
        {
            "buffer": 0,
            "byteLength": 416,
            "byteOffset": 27496,
            "target": 34962
        },
        {
            "buffer": 0,
            "byteLength": 416,
            "byteOffset": 27912,
            "target": 34962
        },
        {
            "buffer": 0,
            "byteLength": 416,
            "byteOffset": 28328,
            "target": 34962
        },
        {
            "buffer": 0,
            "byteLength": 318,
            "byteOffset": 28744,
            "target": 34963
        }
    ],
    "samplers": [
        {
            "magFilter": 9729,
            "minFilter": 9987
        },
        {
            "magFilter": 9729,
            "minFilter": 9987,
            "wrapS": 33071,
            "wrapT": 33071
        }
    ],
    "buffers": [
        {
            "byteLength": 29064,
            "uri": "LI-pine_cut_patch_003.bin"
        }
    ]
}