{
	"asset":{
		"generator":"Khronos glTF Blender I/O v4.5.0",
		"version":"2.0"
	},
	"scene":0,
	"scenes":[
		{
			"extras":{
				"gltfIOGodotAssetProperties":{
					"export_type":2,
					"root_type":2,
					"append_parent_collection":1,
					"asset_name":"LI-bush_small_flat_004"
				},
				"asset_type":"ASSET",
				"root_type":"PASS_THROUGH",
				"asset_id":"71de574750794fe4"
			},
			"name":"Scene",
			"nodes":[
				0,
				1
			]
		},
		{
			"extras":{
				"gltfIOGodotAssetProperties":{
					"export_type":2,
					"root_type":2,
					"append_parent_collection":1,
					"asset_name":"LI-bush_small_flat_004"
				},
				"asset_type":"ASSET",
				"root_type":"PASS_THROUGH",
				"asset_id":"71de574750794fe4"
			},
			"name":"thumbnails"
		}
	],
	"nodes":[
		{
			"mesh":0,
			"name":"GEO-bush_small_004",
			"rotation":[
				0,
				-0.7071068286895752,
				0.7071068286895752,
				5.338509012631221e-08
			],
			"scale":[
				7.200000286102295,
				7.200000286102295,
				7.200000286102295
			]
		},
		{
			"extras":{
				"collision_info":{
					"type":"PRIMITIVE",
					"shape":1,
					"radius":0.4000000059604645,
					"height":1.0,
					"size":[
						2.140000104904175,
						1.2599999904632568,
						1.7400000095367432
					]
				}
			},
			"name":"COL-collision_primitive.024",
			"translation":[
				0,
				0.860719621181488,
				0.18855799734592438
			]
		}
	],
	"materials":[
		{
			"alphaMode":"BLEND",
			"doubleSided":true,
			"extras":{
				"asset_id":"6794315e4a0ea0ba"
			},
			"name":"bushlets",
			"normalTexture":{
				"index":0,
				"scale":0.30000007152557373
			},
			"pbrMetallicRoughness":{
				"baseColorTexture":{
					"index":1
				},
				"metallicFactor":0,
				"metallicRoughnessTexture":{
					"index":2
				}
			}
		}
	],
	"meshes":[
		{
			"name":"grass_and_bushlets_albedo_01.028",
			"primitives":[
				{
					"attributes":{
						"POSITION":0,
						"NORMAL":1,
						"TEXCOORD_0":2
					},
					"indices":3,
					"material":0
				}
			]
		}
	],
	"textures":[
		{
			"sampler":0,
			"source":0
		},
		{
			"sampler":0,
			"source":1
		},
		{
			"sampler":0,
			"source":2
		}
	],
	"images":[
		{
			"mimeType":"image/png",
			"name":"grass_and_bushlets_normal_01",
			"uri":"textures/grass_and_bushlets_normal_01.png"
		},
		{
			"mimeType":"image/png",
			"name":"grass_and_bushlets_albedo_01",
			"uri":"textures/grass_and_bushlets_albedo_01.png"
		},
		{
			"mimeType":"image/png",
			"name":"grass_and_bushlets_roughness_01",
			"uri":"textures/grass_and_bushlets_roughness_01.png"
		}
	],
	"accessors":[
		{
			"bufferView":0,
			"componentType":5126,
			"count":38,
			"max":[
				0.13552573323249817,
				0.004919126629829407,
				0.01355838030576706
			],
			"min":[
				-0.14063318073749542,
				-0.096033975481987,
				-0.20249316096305847
			],
			"type":"VEC3"
		},
		{
			"bufferView":1,
			"componentType":5126,
			"count":38,
			"type":"VEC3"
		},
		{
			"bufferView":2,
			"componentType":5126,
			"count":38,
			"type":"VEC2"
		},
		{
			"bufferView":3,
			"componentType":5123,
			"count":114,
			"type":"SCALAR"
		}
	],
	"bufferViews":[
		{
			"buffer":0,
			"byteLength":456,
			"byteOffset":0,
			"target":34962
		},
		{
			"buffer":0,
			"byteLength":456,
			"byteOffset":456,
			"target":34962
		},
		{
			"buffer":0,
			"byteLength":304,
			"byteOffset":912,
			"target":34962
		},
		{
			"buffer":0,
			"byteLength":228,
			"byteOffset":1216,
			"target":34963
		}
	],
	"samplers":[
		{
			"magFilter":9729,
			"minFilter":9987,
			"wrapS":33071,
			"wrapT":33071
		}
	],
	"buffers":[
		{
			"byteLength":1444,
			"uri":"LI-bush_small_flat_004.bin"
		}
	]
}
