{
	"asset":{
		"generator":"Khronos glTF Blender I/O v4.5.0",
		"version":"2.0"
	},
	"scene":0,
	"scenes":[
		{
			"extras":{
				"gltfIOGodotAssetProperties":{
					"export_type":2,
					"root_type":2,
					"append_parent_collection":1,
					"asset_name":"LI-bush_small_flat_005"
				},
				"asset_type":"ASSET",
				"root_type":"PASS_THROUGH",
				"asset_id":"8ffe1c91fb8f6b5f"
			},
			"name":"Scene",
			"nodes":[
				0,
				1
			]
		},
		{
			"extras":{
				"gltfIOGodotAssetProperties":{
					"export_type":2,
					"root_type":2,
					"append_parent_collection":1,
					"asset_name":"LI-bush_small_flat_005"
				},
				"asset_type":"ASSET",
				"root_type":"PASS_THROUGH",
				"asset_id":"8ffe1c91fb8f6b5f"
			},
			"name":"thumbnails"
		}
	],
	"nodes":[
		{
			"mesh":0,
			"name":"GEO-bush_small_005",
			"rotation":[
				0,
				-0.7071068286895752,
				0.7071067690849304,
				5.338509012631221e-08
			],
			"scale":[
				5.893611907958984,
				5.893611907958984,
				5.893611907958984
			]
		},
		{
			"extras":{
				"collision_info":{
					"type":"PRIMITIVE",
					"shape":1,
					"radius":0.4000000059604645,
					"height":1.0,
					"size":[
						2.75,
						1.0,
						1.7400000095367432
					]
				}
			},
			"name":"COL-collision_primitive.020",
			"translation":[
				0.4345032572746277,
				0.860719621181488,
				0
			]
		}
	],
	"materials":[
		{
			"alphaMode":"BLEND",
			"doubleSided":true,
			"extras":{
				"asset_id":"6794315e4a0ea0ba"
			},
			"name":"bushlets",
			"normalTexture":{
				"index":0,
				"scale":0.30000007152557373
			},
			"pbrMetallicRoughness":{
				"baseColorTexture":{
					"index":1
				},
				"metallicFactor":0,
				"metallicRoughnessTexture":{
					"index":2
				}
			}
		}
	],
	"meshes":[
		{
			"name":"grass_and_bushlets_albedo_01",
			"primitives":[
				{
					"attributes":{
						"POSITION":0,
						"NORMAL":1,
						"TEXCOORD_0":2
					},
					"indices":3,
					"material":0
				}
			]
		}
	],
	"textures":[
		{
			"sampler":0,
			"source":0
		},
		{
			"sampler":0,
			"source":1
		},
		{
			"sampler":0,
			"source":2
		}
	],
	"images":[
		{
			"mimeType":"image/png",
			"name":"grass_and_bushlets_normal_01",
			"uri":"textures/grass_and_bushlets_normal_01.png"
		},
		{
			"mimeType":"image/png",
			"name":"grass_and_bushlets_albedo_01",
			"uri":"textures/grass_and_bushlets_albedo_01.png"
		},
		{
			"mimeType":"image/png",
			"name":"grass_and_bushlets_roughness_01",
			"uri":"textures/grass_and_bushlets_roughness_01.png"
		}
	],
	"accessors":[
		{
			"bufferView":0,
			"componentType":5126,
			"count":19,
			"max":[
				0.14095383882522583,
				0.018789231777191162,
				0.00590662844479084
			],
			"min":[
				-0.2788090705871582,
				-0.03280704468488693,
				-0.21578407287597656
			],
			"type":"VEC3"
		},
		{
			"bufferView":1,
			"componentType":5126,
			"count":19,
			"type":"VEC3"
		},
		{
			"bufferView":2,
			"componentType":5126,
			"count":19,
			"type":"VEC2"
		},
		{
			"bufferView":3,
			"componentType":5123,
			"count":60,
			"type":"SCALAR"
		}
	],
	"bufferViews":[
		{
			"buffer":0,
			"byteLength":228,
			"byteOffset":0,
			"target":34962
		},
		{
			"buffer":0,
			"byteLength":228,
			"byteOffset":228,
			"target":34962
		},
		{
			"buffer":0,
			"byteLength":152,
			"byteOffset":456,
			"target":34962
		},
		{
			"buffer":0,
			"byteLength":120,
			"byteOffset":608,
			"target":34963
		}
	],
	"samplers":[
		{
			"magFilter":9729,
			"minFilter":9987,
			"wrapS":33071,
			"wrapT":33071
		}
	],
	"buffers":[
		{
			"byteLength":728,
			"uri":"LI-bush_small_flat_005.bin"
		}
	]
}
