{
	"asset":{
		"generator":"Khronos glTF Blender I/O v4.5.0",
		"version":"2.0"
	},
	"scene":0,
	"scenes":[
		{
			"extras":{
				"gltfIOGodotAssetProperties":{
					"export_type":2,
					"root_type":2,
					"append_parent_collection":1,
					"asset_name":"LI-bush_small_flat_001"
				},
				"asset_type":"ASSET",
				"root_type":"PASS_THROUGH",
				"asset_id":"6819ba51eef36041"
			},
			"name":"Scene",
			"nodes":[
				0,
				1,
				2
			]
		},
		{
			"extras":{
				"gltfIOGodotAssetProperties":{
					"export_type":2,
					"root_type":2,
					"append_parent_collection":1,
					"asset_name":"LI-bush_small_flat_001"
				},
				"asset_type":"ASSET",
				"root_type":"PASS_THROUGH",
				"asset_id":"6819ba51eef36041"
			},
			"name":"thumbnails"
		}
	],
	"nodes":[
		{
			"mesh":0,
			"name":"GEO-bush_small_001",
			"rotation":[
				0,
				-0.7071068286895752,
				0.7071068286895752,
				5.338509012631221e-08
			]
		},
		{
			"mesh":1,
			"name":"GEO-bush_small_001.001",
			"rotation":[
				0.44648686051368713,
				-0.548315167427063,
				0.5483151078224182,
				0.4464868903160095
			],
			"scale":[
				0.8535780310630798,
				0.8535780310630798,
				0.8535779714584351
			]
		},
		{
			"extras":{
				"collision_info":{
					"type":"PRIMITIVE",
					"shape":1,
					"radius":0.4000000059604645,
					"height":1.0,
					"size":[
						1.440000057220459,
						1.0,
						1.7400000095367432
					]
				}
			},
			"name":"COL-collision_primitive.021",
			"translation":[
				0,
				0.860719621181488,
				0
			]
		}
	],
	"materials":[
		{
			"alphaMode":"BLEND",
			"doubleSided":true,
			"extras":{
				"asset_id":"6794315e4a0ea0ba"
			},
			"name":"bushlets",
			"normalTexture":{
				"index":0,
				"scale":0.30000007152557373
			},
			"pbrMetallicRoughness":{
				"baseColorTexture":{
					"index":1
				},
				"metallicFactor":0,
				"metallicRoughnessTexture":{
					"index":2
				}
			}
		}
	],
	"meshes":[
		{
			"name":"grass_and_bushlets_albedo_01.025",
			"primitives":[
				{
					"attributes":{
						"POSITION":0,
						"NORMAL":1,
						"TEXCOORD_0":2
					},
					"indices":3,
					"material":0
				}
			]
		},
		{
			"name":"grass_and_bushlets_albedo_01.016",
			"primitives":[
				{
					"attributes":{
						"POSITION":4,
						"NORMAL":5,
						"TEXCOORD_0":6
					},
					"indices":3,
					"material":0
				}
			]
		}
	],
	"textures":[
		{
			"sampler":0,
			"source":0
		},
		{
			"sampler":0,
			"source":1
		},
		{
			"sampler":0,
			"source":2
		}
	],
	"images":[
		{
			"mimeType":"image/png",
			"name":"grass_and_bushlets_normal_01",
			"uri":"textures/grass_and_bushlets_normal_01.png"
		},
		{
			"mimeType":"image/png",
			"name":"grass_and_bushlets_albedo_01",
			"uri":"textures/grass_and_bushlets_albedo_01.png"
		},
		{
			"mimeType":"image/png",
			"name":"grass_and_bushlets_roughness_01",
			"uri":"textures/grass_and_bushlets_roughness_01.png"
		}
	],
	"accessors":[
		{
			"bufferView":0,
			"componentType":5126,
			"count":164,
			"max":[
				0.5707340836524963,
				0.14382506906986237,
				0.03711730241775513
			],
			"min":[
				-0.6111615896224976,
				-0.10423772782087326,
				-1.1968426704406738
			],
			"type":"VEC3"
		},
		{
			"bufferView":1,
			"componentType":5126,
			"count":164,
			"type":"VEC3"
		},
		{
			"bufferView":2,
			"componentType":5126,
			"count":164,
			"type":"VEC2"
		},
		{
			"bufferView":3,
			"componentType":5123,
			"count":453,
			"type":"SCALAR"
		},
		{
			"bufferView":4,
			"componentType":5126,
			"count":164,
			"max":[
				0.5783718228340149,
				0.14856025576591492,
				0.037399932742118835
			],
			"min":[
				-0.6403551697731018,
				-0.11670662462711334,
				-1.249173641204834
			],
			"type":"VEC3"
		},
		{
			"bufferView":5,
			"componentType":5126,
			"count":164,
			"type":"VEC3"
		},
		{
			"bufferView":6,
			"componentType":5126,
			"count":164,
			"type":"VEC2"
		}
	],
	"bufferViews":[
		{
			"buffer":0,
			"byteLength":1968,
			"byteOffset":0,
			"target":34962
		},
		{
			"buffer":0,
			"byteLength":1968,
			"byteOffset":1968,
			"target":34962
		},
		{
			"buffer":0,
			"byteLength":1312,
			"byteOffset":3936,
			"target":34962
		},
		{
			"buffer":0,
			"byteLength":906,
			"byteOffset":5248,
			"target":34963
		},
		{
			"buffer":0,
			"byteLength":1968,
			"byteOffset":6156,
			"target":34962
		},
		{
			"buffer":0,
			"byteLength":1968,
			"byteOffset":8124,
			"target":34962
		},
		{
			"buffer":0,
			"byteLength":1312,
			"byteOffset":10092,
			"target":34962
		}
	],
	"samplers":[
		{
			"magFilter":9729,
			"minFilter":9987,
			"wrapS":33071,
			"wrapT":33071
		}
	],
	"buffers":[
		{
			"byteLength":11404,
			"uri":"LI-bush_small_flat_001.bin"
		}
	]
}
