{
    "asset": {
        "generator": "Khronos glTF Blender I/O v4.5.15",
        "version": "2.0"
    },
    "scene": 0,
    "scenes": [
        {
            "extras": {
                "gltfIOGodotAssetProperties": {
                    "export_type": 2,
                    "root_type": 1,
                    "append_parent_collection": 1,
                    "asset_name": "LI-pond_sign-left"
                },
                "asset_type": "ASSET",
                "root_type": "STATIC",
                "asset_id": "5417f145bb0c7b1a"
            },
            "name": "LI-pond_sign-left",
            "nodes": [
                0
            ]
        }
    ],
    "nodes": [
        {
            "mesh": 0,
            "name": "GEO-pond_sign-left"
        }
    ],
    "materials": [
        {
            "alphaMode": "BLEND",
            "doubleSided": true,
            "emissiveFactor": [
                1,
                1,
                1
            ],
            "extras": {
                "material_info": {
                    "albedo_color": [
                        1.0,
                        1.0,
                        1.0,
                        1.0
                    ],
                    "edge_alpha": 1.0,
                    "alpha_influence": 0.0,
                    "backface_color": 0.0,
                    "roughness": 0.9000000357627869,
                    "metallic": 0.0,
                    "displacement_strength": 0.0,
                    "displacement_scale": 1.0,
                    "paper_color": [
                        0.775663435459137,
                        0.6860132217407227,
                        0.5396971106529236,
                        1.0
                    ],
                    "wear_strength": 0.0,
                    "wear_start": 0.5899999141693115,
                    "wear_end": 0.8500000238418579,
                    "wear_distortion_strength": 7.450580596923828e-09,
                    "wear_distortion_scale": 20.0,
                    "emission_color": [
                        1.0,
                        1.0,
                        1.0,
                        1.0
                    ],
                    "emission_strength": 0.0,
                    "normal_strength": 0.10000000149011612,
                    "normal_use_uv2": 0.0
                },
                "asset_id": "92de2fe575928211"
            },
            "name": "pond_sign",
            "normalTexture": {
                "index": 0
            },
            "pbrMetallicRoughness": {
                "baseColorTexture": {
                    "index": 1
                }
            }
        }
    ],
    "meshes": [
        {
            "name": "DATA-fireplace_sign.002",
            "primitives": [
                {
                    "attributes": {
                        "POSITION": 0,
                        "NORMAL": 1,
                        "TEXCOORD_0": 2,
                        "COLOR_0": 3
                    },
                    "indices": 4,
                    "material": 0
                }
            ]
        }
    ],
    "textures": [
        {
            "sampler": 0,
            "source": 0
        },
        {
            "sampler": 0,
            "source": 1
        }
    ],
    "images": [
        {
            "extras": {
                "source_path": "assets/textures/paper_fine_normal.png"
            },
            "mimeType": "image/png",
            "name": "paper_fine_normal",
            "uri": "../../textures/paper_fine_normal.png"
        },
        {
            "extras": {
                "source_path": "assets/lib/textures/sign_pond-albedo.png"
            },
            "mimeType": "image/png",
            "name": "sign_pond-albedo",
            "uri": "../textures/sign_pond-albedo.png"
        }
    ],
    "accessors": [
        {
            "bufferView": 0,
            "componentType": 5126,
            "count": 46,
            "max": [
                0.3841792345046997,
                0.4300350546836853,
                0.08652924746274948
            ],
            "min": [
                -0.5521429181098938,
                -0.40824076533317566,
                -0.0008318116306327283
            ],
            "type": "VEC3"
        },
        {
            "bufferView": 1,
            "componentType": 5126,
            "count": 46,
            "type": "VEC3"
        },
        {
            "bufferView": 2,
            "componentType": 5126,
            "count": 46,
            "type": "VEC2"
        },
        {
            "bufferView": 3,
            "componentType": 5123,
            "count": 46,
            "normalized": true,
            "type": "VEC4"
        },
        {
            "bufferView": 4,
            "componentType": 5123,
            "count": 126,
            "type": "SCALAR"
        }
    ],
    "bufferViews": [
        {
            "buffer": 0,
            "byteLength": 552,
            "byteOffset": 0,
            "target": 34962
        },
        {
            "buffer": 0,
            "byteLength": 552,
            "byteOffset": 552,
            "target": 34962
        },
        {
            "buffer": 0,
            "byteLength": 368,
            "byteOffset": 1104,
            "target": 34962
        },
        {
            "buffer": 0,
            "byteLength": 368,
            "byteOffset": 1472,
            "target": 34962
        },
        {
            "buffer": 0,
            "byteLength": 252,
            "byteOffset": 1840,
            "target": 34963
        }
    ],
    "samplers": [
        {
            "magFilter": 9729,
            "minFilter": 9987
        }
    ],
    "buffers": [
        {
            "byteLength": 2092,
            "uri": "LI-pond_sign-left.bin"
        }
    ]
}