{
	"asset":{
		"generator":"Khronos glTF Blender I/O v4.5.15",
		"version":"2.0"
	},
	"scene":0,
	"scenes":[
		{
			"extras":{
				"gltfIOGodotAssetProperties":{
					"export_type":1,
					"anim_type":5,
					"asset_name":"ACTN-gate-gate_celebrate_gate",
					"append_parent_collection":0
				},
				"asset_type":"ANIMATION",
				"anim_type":"CINE",
				"ref_asset_id":"945b5f78864455c8",
				"asset_id":"a4a033cd3692788b",
				"root_type":"NONE"
			},
			"name":"EXPORT-fence_gate",
			"nodes":[
				11
			]
		}
	],
	"nodes":[
		{
			"name":"lock",
			"rotation":[
				-7.087843556519147e-08,
				-1.713759445465257e-08,
				0.7071067690849304,
				0.7071067690849304
			],
			"scale":[
				0.9999999403953552,
				0.9999999403953552,
				0.9999999403953552
			],
			"translation":[
				1.384212613105774,
				0.41930481791496277,
				-0.13451609015464783
			]
		},
		{
			"children":[
				0
			],
			"name":"gate",
			"rotation":[
				-1.8189894035458565e-12,
				-2.3192117670767232e-10,
				2.3283064365386963e-10,
				1
			],
			"scale":[
				0.9999999403953552,
				0.9999999403953552,
				0.9999999403953552
			],
			"translation":[
				-0.8960584402084351,
				0.6015253663063049,
				-0.007503792643547058
			]
		},
		{
			"name":"plank",
			"rotation":[
				-6.548361852765083e-11,
				9.313225746154785e-10,
				2.3646862246096134e-10,
				1
			],
			"translation":[
				0.6459304094314575,
				0.01427613664418459,
				-0.08043214678764343
			]
		},
		{
			"children":[
				2
			],
			"name":"P-plank",
			"rotation":[
				-2.297538941320454e-07,
				-0.021619781851768494,
				5.068889752379846e-09,
				0.9997662901878357
			],
			"scale":[
				0.9999999403953552,
				0.9999999403953552,
				0.9999999403953552
			],
			"translation":[
				-4.475088596343994,
				0.35652416944503784,
				0.23632335662841797
			]
		},
		{
			"children":[
				1,
				3
			],
			"name":"subroot",
			"rotation":[
				-1.8189894035458565e-12,
				-2.3192117670767232e-10,
				2.3283064365386963e-10,
				1
			],
			"scale":[
				0.9999999403953552,
				0.9999999403953552,
				0.9999999403953552
			]
		},
		{
			"name":"pivot_gate_south",
			"rotation":[
				2.928573217264585e-10,
				-1,
				2.2358838691616256e-07,
				7.520066702682016e-08
			],
			"scale":[
				0.9999999403953552,
				0.9999999403953552,
				0.9999999403953552
			],
			"translation":[
				2.1464074961841106e-10,
				3.710738383233547e-10,
				0.68743896484375
			]
		},
		{
			"name":"pivot_fence",
			"rotation":[
				2.928573217264585e-10,
				-1,
				2.2358838691616256e-07,
				7.520066702682016e-08
			],
			"scale":[
				0.9999999403953552,
				0.9999999403953552,
				0.9999999403953552
			],
			"translation":[
				-1.7719179391860962,
				-6.984919309616089e-10,
				0.6508200764656067
			]
		},
		{
			"name":"pivot_plank_south",
			"rotation":[
				2.928573217264585e-10,
				-1,
				2.2358838691616256e-07,
				7.520066702682016e-08
			],
			"scale":[
				0.9999999403953552,
				0.9999999403953552,
				0.9999999403953552
			],
			"translation":[
				-3.6418609619140625,
				-2.0954757928848267e-09,
				0.6179264187812805
			]
		},
		{
			"name":"pivot_plank_north",
			"rotation":[
				-2.2353927420226682e-07,
				-2.410161237254016e-10,
				2.1736924760151766e-10,
				1
			],
			"scale":[
				0.9999999403953552,
				0.9999999403953552,
				0.9999999403953552
			],
			"translation":[
				-3.6865415573120117,
				6.984919309616089e-10,
				-0.5019215941429138
			]
		},
		{
			"name":"pivot_gate_north",
			"rotation":[
				-2.2359566287377675e-07,
				-1.890930612091779e-08,
				-1.8370885257468217e-08,
				1
			],
			"scale":[
				0.9999999403953552,
				0.9999999403953552,
				0.9999999403953552
			],
			"translation":[
				-0.19226300716400146,
				0,
				-0.8053190112113953
			]
		},
		{
			"children":[
				4,
				5,
				6,
				7,
				8,
				9
			],
			"name":"root",
			"rotation":[
				-1.8189894035458565e-12,
				-2.3192117670767232e-10,
				2.3283064365386963e-10,
				1
			],
			"scale":[
				0.9999999403953552,
				0.9999999403953552,
				0.9999999403953552
			]
		},
		{
			"children":[
				10
			],
			"extras":{
				"cloudrig":{},
				"rigify_owner_rig":{}
			},
			"name":"RIG-fence_gate",
			"rotation":[
				0.002114971401169896,
				0.004225542303174734,
				-0.005260307341814041,
				0.9999750256538391
			]
		}
	],
	"animations":[
		{
			"channels":[
				{
					"sampler":0,
					"target":{
						"node":10,
						"path":"translation"
					}
				},
				{
					"sampler":1,
					"target":{
						"node":10,
						"path":"rotation"
					}
				},
				{
					"sampler":2,
					"target":{
						"node":10,
						"path":"scale"
					}
				},
				{
					"sampler":3,
					"target":{
						"node":4,
						"path":"translation"
					}
				},
				{
					"sampler":4,
					"target":{
						"node":4,
						"path":"rotation"
					}
				},
				{
					"sampler":5,
					"target":{
						"node":4,
						"path":"scale"
					}
				},
				{
					"sampler":6,
					"target":{
						"node":1,
						"path":"translation"
					}
				},
				{
					"sampler":7,
					"target":{
						"node":1,
						"path":"rotation"
					}
				},
				{
					"sampler":8,
					"target":{
						"node":1,
						"path":"scale"
					}
				},
				{
					"sampler":9,
					"target":{
						"node":0,
						"path":"translation"
					}
				},
				{
					"sampler":10,
					"target":{
						"node":0,
						"path":"rotation"
					}
				},
				{
					"sampler":11,
					"target":{
						"node":0,
						"path":"scale"
					}
				},
				{
					"sampler":12,
					"target":{
						"node":3,
						"path":"translation"
					}
				},
				{
					"sampler":13,
					"target":{
						"node":3,
						"path":"rotation"
					}
				},
				{
					"sampler":14,
					"target":{
						"node":3,
						"path":"scale"
					}
				},
				{
					"sampler":15,
					"target":{
						"node":2,
						"path":"translation"
					}
				},
				{
					"sampler":16,
					"target":{
						"node":2,
						"path":"rotation"
					}
				},
				{
					"sampler":17,
					"target":{
						"node":2,
						"path":"scale"
					}
				},
				{
					"sampler":18,
					"target":{
						"node":5,
						"path":"translation"
					}
				},
				{
					"sampler":19,
					"target":{
						"node":5,
						"path":"rotation"
					}
				},
				{
					"sampler":20,
					"target":{
						"node":5,
						"path":"scale"
					}
				},
				{
					"sampler":21,
					"target":{
						"node":6,
						"path":"translation"
					}
				},
				{
					"sampler":22,
					"target":{
						"node":6,
						"path":"rotation"
					}
				},
				{
					"sampler":23,
					"target":{
						"node":6,
						"path":"scale"
					}
				},
				{
					"sampler":24,
					"target":{
						"node":7,
						"path":"translation"
					}
				},
				{
					"sampler":25,
					"target":{
						"node":7,
						"path":"rotation"
					}
				},
				{
					"sampler":26,
					"target":{
						"node":7,
						"path":"scale"
					}
				},
				{
					"sampler":27,
					"target":{
						"node":8,
						"path":"translation"
					}
				},
				{
					"sampler":28,
					"target":{
						"node":8,
						"path":"rotation"
					}
				},
				{
					"sampler":29,
					"target":{
						"node":8,
						"path":"scale"
					}
				},
				{
					"sampler":30,
					"target":{
						"node":9,
						"path":"translation"
					}
				},
				{
					"sampler":31,
					"target":{
						"node":9,
						"path":"rotation"
					}
				},
				{
					"sampler":32,
					"target":{
						"node":9,
						"path":"scale"
					}
				}
			],
			"name":"ACTN-gate-gate_celebrate_gate",
			"samplers":[
				{
					"input":0,
					"interpolation":"STEP",
					"output":1
				},
				{
					"input":0,
					"interpolation":"STEP",
					"output":2
				},
				{
					"input":0,
					"interpolation":"STEP",
					"output":3
				},
				{
					"input":0,
					"interpolation":"STEP",
					"output":4
				},
				{
					"input":0,
					"interpolation":"STEP",
					"output":5
				},
				{
					"input":0,
					"interpolation":"STEP",
					"output":6
				},
				{
					"input":0,
					"interpolation":"STEP",
					"output":7
				},
				{
					"input":8,
					"interpolation":"STEP",
					"output":9
				},
				{
					"input":0,
					"interpolation":"STEP",
					"output":10
				},
				{
					"input":8,
					"interpolation":"STEP",
					"output":11
				},
				{
					"input":8,
					"interpolation":"STEP",
					"output":12
				},
				{
					"input":0,
					"interpolation":"STEP",
					"output":13
				},
				{
					"input":0,
					"interpolation":"STEP",
					"output":14
				},
				{
					"input":0,
					"interpolation":"STEP",
					"output":15
				},
				{
					"input":0,
					"interpolation":"STEP",
					"output":16
				},
				{
					"input":0,
					"interpolation":"STEP",
					"output":17
				},
				{
					"input":0,
					"interpolation":"STEP",
					"output":18
				},
				{
					"input":0,
					"interpolation":"STEP",
					"output":19
				},
				{
					"input":0,
					"interpolation":"STEP",
					"output":20
				},
				{
					"input":0,
					"interpolation":"STEP",
					"output":21
				},
				{
					"input":0,
					"interpolation":"STEP",
					"output":22
				},
				{
					"input":0,
					"interpolation":"STEP",
					"output":23
				},
				{
					"input":0,
					"interpolation":"STEP",
					"output":24
				},
				{
					"input":0,
					"interpolation":"STEP",
					"output":25
				},
				{
					"input":0,
					"interpolation":"STEP",
					"output":26
				},
				{
					"input":0,
					"interpolation":"STEP",
					"output":27
				},
				{
					"input":0,
					"interpolation":"STEP",
					"output":28
				},
				{
					"input":0,
					"interpolation":"STEP",
					"output":29
				},
				{
					"input":0,
					"interpolation":"STEP",
					"output":30
				},
				{
					"input":0,
					"interpolation":"STEP",
					"output":31
				},
				{
					"input":0,
					"interpolation":"STEP",
					"output":32
				},
				{
					"input":0,
					"interpolation":"STEP",
					"output":33
				},
				{
					"input":0,
					"interpolation":"STEP",
					"output":34
				}
			]
		}
	],
	"skins":[
		{
			"inverseBindMatrices":35,
			"joints":[
				10,
				4,
				1,
				0,
				3,
				2,
				5,
				6,
				7,
				8,
				9
			],
			"name":"RIG-fence_gate"
		}
	],
	"accessors":[
		{
			"bufferView":0,
			"componentType":5126,
			"count":2,
			"max":[
				0.7916666666666666
			],
			"min":[
				0
			],
			"type":"SCALAR"
		},
		{
			"bufferView":1,
			"componentType":5126,
			"count":2,
			"type":"VEC3"
		},
		{
			"bufferView":2,
			"componentType":5126,
			"count":2,
			"type":"VEC4"
		},
		{
			"bufferView":3,
			"componentType":5126,
			"count":2,
			"type":"VEC3"
		},
		{
			"bufferView":4,
			"componentType":5126,
			"count":2,
			"type":"VEC3"
		},
		{
			"bufferView":5,
			"componentType":5126,
			"count":2,
			"type":"VEC4"
		},
		{
			"bufferView":6,
			"componentType":5126,
			"count":2,
			"type":"VEC3"
		},
		{
			"bufferView":7,
			"componentType":5126,
			"count":2,
			"type":"VEC3"
		},
		{
			"bufferView":8,
			"componentType":5126,
			"count":20,
			"max":[
				0.7916666666666666
			],
			"min":[
				0
			],
			"type":"SCALAR"
		},
		{
			"bufferView":9,
			"componentType":5126,
			"count":20,
			"type":"VEC4"
		},
		{
			"bufferView":10,
			"componentType":5126,
			"count":2,
			"type":"VEC3"
		},
		{
			"bufferView":11,
			"componentType":5126,
			"count":20,
			"type":"VEC3"
		},
		{
			"bufferView":12,
			"componentType":5126,
			"count":20,
			"type":"VEC4"
		},
		{
			"bufferView":13,
			"componentType":5126,
			"count":2,
			"type":"VEC3"
		},
		{
			"bufferView":14,
			"componentType":5126,
			"count":2,
			"type":"VEC3"
		},
		{
			"bufferView":15,
			"componentType":5126,
			"count":2,
			"type":"VEC4"
		},
		{
			"bufferView":16,
			"componentType":5126,
			"count":2,
			"type":"VEC3"
		},
		{
			"bufferView":17,
			"componentType":5126,
			"count":2,
			"type":"VEC3"
		},
		{
			"bufferView":18,
			"componentType":5126,
			"count":2,
			"type":"VEC4"
		},
		{
			"bufferView":19,
			"componentType":5126,
			"count":2,
			"type":"VEC3"
		},
		{
			"bufferView":20,
			"componentType":5126,
			"count":2,
			"type":"VEC3"
		},
		{
			"bufferView":21,
			"componentType":5126,
			"count":2,
			"type":"VEC4"
		},
		{
			"bufferView":22,
			"componentType":5126,
			"count":2,
			"type":"VEC3"
		},
		{
			"bufferView":23,
			"componentType":5126,
			"count":2,
			"type":"VEC3"
		},
		{
			"bufferView":24,
			"componentType":5126,
			"count":2,
			"type":"VEC4"
		},
		{
			"bufferView":25,
			"componentType":5126,
			"count":2,
			"type":"VEC3"
		},
		{
			"bufferView":26,
			"componentType":5126,
			"count":2,
			"type":"VEC3"
		},
		{
			"bufferView":27,
			"componentType":5126,
			"count":2,
			"type":"VEC4"
		},
		{
			"bufferView":28,
			"componentType":5126,
			"count":2,
			"type":"VEC3"
		},
		{
			"bufferView":29,
			"componentType":5126,
			"count":2,
			"type":"VEC3"
		},
		{
			"bufferView":30,
			"componentType":5126,
			"count":2,
			"type":"VEC4"
		},
		{
			"bufferView":31,
			"componentType":5126,
			"count":2,
			"type":"VEC3"
		},
		{
			"bufferView":32,
			"componentType":5126,
			"count":2,
			"type":"VEC3"
		},
		{
			"bufferView":33,
			"componentType":5126,
			"count":2,
			"type":"VEC4"
		},
		{
			"bufferView":34,
			"componentType":5126,
			"count":2,
			"type":"VEC3"
		},
		{
			"bufferView":35,
			"componentType":5126,
			"count":11,
			"type":"MAT4"
		}
	],
	"bufferViews":[
		{
			"buffer":0,
			"byteLength":8,
			"byteOffset":0
		},
		{
			"buffer":0,
			"byteLength":24,
			"byteOffset":8
		},
		{
			"buffer":0,
			"byteLength":32,
			"byteOffset":32
		},
		{
			"buffer":0,
			"byteLength":24,
			"byteOffset":64
		},
		{
			"buffer":0,
			"byteLength":24,
			"byteOffset":88
		},
		{
			"buffer":0,
			"byteLength":32,
			"byteOffset":112
		},
		{
			"buffer":0,
			"byteLength":24,
			"byteOffset":144
		},
		{
			"buffer":0,
			"byteLength":24,
			"byteOffset":168
		},
		{
			"buffer":0,
			"byteLength":80,
			"byteOffset":192
		},
		{
			"buffer":0,
			"byteLength":320,
			"byteOffset":272
		},
		{
			"buffer":0,
			"byteLength":24,
			"byteOffset":592
		},
		{
			"buffer":0,
			"byteLength":240,
			"byteOffset":616
		},
		{
			"buffer":0,
			"byteLength":320,
			"byteOffset":856
		},
		{
			"buffer":0,
			"byteLength":24,
			"byteOffset":1176
		},
		{
			"buffer":0,
			"byteLength":24,
			"byteOffset":1200
		},
		{
			"buffer":0,
			"byteLength":32,
			"byteOffset":1224
		},
		{
			"buffer":0,
			"byteLength":24,
			"byteOffset":1256
		},
		{
			"buffer":0,
			"byteLength":24,
			"byteOffset":1280
		},
		{
			"buffer":0,
			"byteLength":32,
			"byteOffset":1304
		},
		{
			"buffer":0,
			"byteLength":24,
			"byteOffset":1336
		},
		{
			"buffer":0,
			"byteLength":24,
			"byteOffset":1360
		},
		{
			"buffer":0,
			"byteLength":32,
			"byteOffset":1384
		},
		{
			"buffer":0,
			"byteLength":24,
			"byteOffset":1416
		},
		{
			"buffer":0,
			"byteLength":24,
			"byteOffset":1440
		},
		{
			"buffer":0,
			"byteLength":32,
			"byteOffset":1464
		},
		{
			"buffer":0,
			"byteLength":24,
			"byteOffset":1496
		},
		{
			"buffer":0,
			"byteLength":24,
			"byteOffset":1520
		},
		{
			"buffer":0,
			"byteLength":32,
			"byteOffset":1544
		},
		{
			"buffer":0,
			"byteLength":24,
			"byteOffset":1576
		},
		{
			"buffer":0,
			"byteLength":24,
			"byteOffset":1600
		},
		{
			"buffer":0,
			"byteLength":32,
			"byteOffset":1624
		},
		{
			"buffer":0,
			"byteLength":24,
			"byteOffset":1656
		},
		{
			"buffer":0,
			"byteLength":24,
			"byteOffset":1680
		},
		{
			"buffer":0,
			"byteLength":32,
			"byteOffset":1704
		},
		{
			"buffer":0,
			"byteLength":24,
			"byteOffset":1736
		},
		{
			"buffer":0,
			"byteLength":704,
			"byteOffset":1760
		}
	],
	"buffers":[
		{
			"byteLength":2464,
			"uri":"ACTN-gate-gate_celebrate_gate.bin"
		}
	]
}
