{
	"asset":{
		"generator":"Khronos glTF Blender I/O v4.5.15",
		"version":"2.0"
	},
	"scene":0,
	"scenes":[
		{
			"extras":{
				"gltfIOGodotAssetProperties":{
					"export_type":2,
					"root_type":2,
					"append_parent_collection":1,
					"asset_name":"SL-hub-paths"
				},
				"asset_type":"ASSET",
				"root_type":"PASS_THROUGH",
				"asset_id":"77dab91a82a117ca"
			},
			"name":"SL-hub-paths",
			"nodes":[
				0,
				1,
				2,
				3,
				4,
				5,
				6,
				7,
				8,
				9,
				10,
				11,
				12
			]
		}
	],
	"nodes":[
		{
			"extras":{
				"visibility_info":{
					"shadow":false
				}
			},
			"mesh":0,
			"name":"GEO-paths-connection_01",
			"translation":[
				9.580906867980957,
				0.9960197806358337,
				25.92324447631836
			]
		},
		{
			"extras":{
				"visibility_info":{
					"shadow":false
				}
			},
			"mesh":1,
			"name":"GEO-paths-connection_01.001",
			"translation":[
				-42.6189079284668,
				0.8601619005203247,
				0.20431208610534668
			]
		},
		{
			"extras":{
				"visibility_info":{
					"shadow":false
				}
			},
			"mesh":2,
			"name":"GEO-paths-hub_02.001",
			"translation":[
				-1.6913156509399414,
				1.0372581481933594,
				29.80658721923828
			]
		},
		{
			"extras":{
				"visibility_info":{
					"shadow":false
				}
			},
			"mesh":3,
			"name":"GEO-paths-hub_01.005",
			"translation":[
				-24.22622299194336,
				1.0395234823226929,
				-12.927536964416504
			]
		},
		{
			"extras":{
				"visibility_info":{
					"shadow":false
				}
			},
			"mesh":4,
			"name":"GEO-paths-hub_01.001",
			"translation":[
				-24.22622299194336,
				1.0395234823226929,
				-12.927536964416504
			]
		},
		{
			"extras":{
				"visibility_info":{
					"shadow":false
				}
			},
			"mesh":5,
			"name":"GEO-paths-faint",
			"translation":[
				-1.6913156509399414,
				1.0372581481933594,
				29.80658721923828
			]
		},
		{
			"extras":{
				"visibility_info":{
					"shadow":false
				}
			},
			"mesh":6,
			"name":"GEO-paths-hub_02.002",
			"translation":[
				-1.6913156509399414,
				1.0372581481933594,
				29.80658721923828
			]
		},
		{
			"extras":{
				"visibility_info":{
					"shadow":false
				}
			},
			"mesh":7,
			"name":"GEO-paths-snowman",
			"translation":[
				-1.6913156509399414,
				1.0372581481933594,
				29.80658721923828
			]
		},
		{
			"extras":{
				"visibility_info":{
					"shadow":false
				}
			},
			"mesh":8,
			"name":"GEO-path-hub_connection",
			"rotation":[
				0,
				-0.46313712000846863,
				0,
				0.8862866163253784
			],
			"scale":[
				0.5529628992080688,
				0.49481990933418274,
				0.5529628992080688
			],
			"translation":[
				6.807621002197266,
				0.03854452073574066,
				24.37016487121582
			]
		},
		{
			"extras":{
				"visibility_info":{
					"shadow":false
				}
			},
			"mesh":9,
			"name":"GEO-path-hub_connection.001",
			"rotation":[
				0,
				0.9976902604103088,
				0,
				0.06792750954627991
			],
			"scale":[
				0.6193763017654419,
				0.5542501211166382,
				0.6193763017654419
			],
			"translation":[
				-39.11008834838867,
				0.03854452073574066,
				-0.797697901725769
			]
		},
		{
			"extras":{
				"visibility_info":{
					"shadow":false
				}
			},
			"mesh":10,
			"name":"GEO-path-hub_connection.002",
			"rotation":[
				0,
				-0.9120163321495056,
				0,
				0.41015392541885376
			],
			"scale":[
				0.90201336145401,
				0.90201336145401,
				0.90201336145401
			],
			"translation":[
				1.2683188915252686,
				0.06890617311000824,
				-19.19367027282715
			]
		},
		{
			"extras":{
				"visibility_info":{
					"shadow":false
				}
			},
			"mesh":11,
			"name":"GEO-path-hub_connection.003",
			"rotation":[
				0,
				0.7440494894981384,
				0,
				0.6681245565414429
			],
			"scale":[
				0.5525403618812561,
				0.5525403618812561,
				0.5525403618812561
			],
			"translation":[
				13.883809089660645,
				0.05645295977592468,
				14.249052047729492
			]
		},
		{
			"extras":{
				"visibility_info":{
					"shadow":false
				}
			},
			"mesh":12,
			"name":"GEO-paths-hub_01.002",
			"translation":[
				-24.22622299194336,
				1.0395234823226929,
				-12.927536964416504
			]
		}
	],
	"materials":[
		{
			"doubleSided":true,
			"extras":{
				"asset_id":"279621069292a79d"
			},
			"name":"DUMMY-path-hub",
			"pbrMetallicRoughness":{
				"baseColorFactor":[
					0.800000011920929,
					0.800000011920929,
					0.800000011920929,
					1
				],
				"metallicFactor":0,
				"roughnessFactor":0.4000000059604645
			}
		},
		{
			"doubleSided":true,
			"extras":{
				"asset_id":"a15b6a6a28e335d0"
			},
			"name":"DUMMY-path-faint",
			"pbrMetallicRoughness":{
				"baseColorFactor":[
					0.800000011920929,
					0.800000011920929,
					0.800000011920929,
					1
				],
				"metallicFactor":0,
				"roughnessFactor":0.4000000059604645
			}
		},
		{
			"doubleSided":true,
			"extras":{
				"asset_id":"1fa485e957133612"
			},
			"name":"DUMMY-path-snowman",
			"pbrMetallicRoughness":{
				"baseColorFactor":[
					0.800000011920929,
					0.800000011920929,
					0.800000011920929,
					1
				],
				"metallicFactor":0,
				"roughnessFactor":0.4000000059604645
			}
		},
		{
			"doubleSided":true,
			"extras":{
				"asset_id":"1bab71b12c43c43f"
			},
			"name":"DUMMY-path-hub_connection",
			"pbrMetallicRoughness":{
				"baseColorFactor":[
					0.800000011920929,
					0.800000011920929,
					0.800000011920929,
					1
				],
				"metallicFactor":0,
				"roughnessFactor":0.4000000059604645
			}
		}
	],
	"meshes":[
		{
			"name":"GEO-path-hub.001",
			"primitives":[
				{
					"attributes":{
						"POSITION":0,
						"NORMAL":1,
						"TEXCOORD_0":2,
						"COLOR_0":3
					},
					"indices":4,
					"material":0
				}
			]
		},
		{
			"name":"GEO-path-hub.005",
			"primitives":[
				{
					"attributes":{
						"POSITION":5,
						"NORMAL":6,
						"TEXCOORD_0":7,
						"COLOR_0":8
					},
					"indices":9,
					"material":0
				}
			]
		},
		{
			"name":"GEO-path-hub.010",
			"primitives":[
				{
					"attributes":{
						"POSITION":10,
						"NORMAL":11,
						"TEXCOORD_0":12,
						"COLOR_0":13
					},
					"indices":14,
					"material":0
				}
			]
		},
		{
			"name":"GEO-path-hub.014",
			"primitives":[
				{
					"attributes":{
						"POSITION":15,
						"NORMAL":16,
						"TEXCOORD_0":17,
						"COLOR_0":18
					},
					"indices":19,
					"material":0
				}
			]
		},
		{
			"name":"GEO-path-hub.003",
			"primitives":[
				{
					"attributes":{
						"POSITION":20,
						"NORMAL":21,
						"TEXCOORD_0":22,
						"COLOR_0":23
					},
					"indices":24,
					"material":0
				}
			]
		},
		{
			"name":"GEO-path-hub.002",
			"primitives":[
				{
					"attributes":{
						"POSITION":25,
						"NORMAL":26,
						"TEXCOORD_0":27,
						"COLOR_0":28
					},
					"indices":29,
					"material":1
				}
			]
		},
		{
			"name":"GEO-path-hub.007",
			"primitives":[
				{
					"attributes":{
						"POSITION":30,
						"NORMAL":31,
						"TEXCOORD_0":32,
						"COLOR_0":33
					},
					"indices":34,
					"material":0
				}
			]
		},
		{
			"name":"GEO-path-hub.004",
			"primitives":[
				{
					"attributes":{
						"POSITION":35,
						"NORMAL":36,
						"TEXCOORD_0":37,
						"COLOR_0":38
					},
					"indices":39,
					"material":2
				}
			]
		},
		{
			"name":"Plane.001",
			"primitives":[
				{
					"attributes":{
						"POSITION":40,
						"NORMAL":41,
						"TEXCOORD_0":42
					},
					"indices":43,
					"material":3
				}
			]
		},
		{
			"name":"Plane.001",
			"primitives":[
				{
					"attributes":{
						"POSITION":44,
						"NORMAL":45,
						"TEXCOORD_0":46
					},
					"indices":43,
					"material":3
				}
			]
		},
		{
			"name":"Plane.002",
			"primitives":[
				{
					"attributes":{
						"POSITION":47,
						"NORMAL":48,
						"TEXCOORD_0":49
					},
					"indices":43,
					"material":3
				}
			]
		},
		{
			"name":"Plane.002",
			"primitives":[
				{
					"attributes":{
						"POSITION":50,
						"NORMAL":51,
						"TEXCOORD_0":52
					},
					"indices":43,
					"material":3
				}
			]
		},
		{
			"name":"GEO-path-hub.006",
			"primitives":[
				{
					"attributes":{
						"POSITION":53,
						"NORMAL":54,
						"TEXCOORD_0":55,
						"COLOR_0":56
					},
					"indices":57,
					"material":0
				}
			]
		}
	],
	"accessors":[
		{
			"bufferView":0,
			"componentType":5126,
			"count":124,
			"max":[
				3.3240761756896973,
				-0.9360197186470032,
				1.9942035675048828
			],
			"min":[
				-5.218434810638428,
				-1.0460184812545776,
				-3.7775018215179443
			],
			"type":"VEC3"
		},
		{
			"bufferView":1,
			"componentType":5126,
			"count":124,
			"type":"VEC3"
		},
		{
			"bufferView":2,
			"componentType":5126,
			"count":124,
			"type":"VEC2"
		},
		{
			"bufferView":3,
			"componentType":5123,
			"count":124,
			"normalized":true,
			"type":"VEC4"
		},
		{
			"bufferView":4,
			"componentType":5123,
			"count":372,
			"type":"SCALAR"
		},
		{
			"bufferView":5,
			"componentType":5126,
			"count":124,
			"max":[
				5.8898515701293945,
				-0.8401618003845215,
				3.0413222312927246
			],
			"min":[
				-4.127833843231201,
				-0.9501604437828064,
				-1.9628978967666626
			],
			"type":"VEC3"
		},
		{
			"bufferView":6,
			"componentType":5126,
			"count":124,
			"type":"VEC3"
		},
		{
			"bufferView":7,
			"componentType":5126,
			"count":124,
			"type":"VEC2"
		},
		{
			"bufferView":8,
			"componentType":5123,
			"count":124,
			"normalized":true,
			"type":"VEC4"
		},
		{
			"bufferView":9,
			"componentType":5123,
			"count":372,
			"type":"SCALAR"
		},
		{
			"bufferView":10,
			"componentType":5126,
			"count":336,
			"max":[
				-3.6097848415374756,
				-1.0072580575942993,
				-13.778679847717285
			],
			"min":[
				-39.50615310668945,
				-1.117256999015808,
				-32.16107940673828
			],
			"type":"VEC3"
		},
		{
			"bufferView":11,
			"componentType":5126,
			"count":336,
			"type":"VEC3"
		},
		{
			"bufferView":12,
			"componentType":5126,
			"count":336,
			"type":"VEC2"
		},
		{
			"bufferView":13,
			"componentType":5123,
			"count":336,
			"normalized":true,
			"type":"VEC4"
		},
		{
			"bufferView":14,
			"componentType":5123,
			"count":1092,
			"type":"SCALAR"
		},
		{
			"bufferView":15,
			"componentType":5126,
			"count":564,
			"max":[
				45.39189529418945,
				-1.0095233917236328,
				-1.9412716627120972
			],
			"min":[
				7.390247344970703,
				-1.119521141052246,
				-12.6893949508667
			],
			"type":"VEC3"
		},
		{
			"bufferView":16,
			"componentType":5126,
			"count":564,
			"type":"VEC3"
		},
		{
			"bufferView":17,
			"componentType":5126,
			"count":564,
			"type":"VEC2"
		},
		{
			"bufferView":18,
			"componentType":5123,
			"count":564,
			"normalized":true,
			"type":"VEC4"
		},
		{
			"bufferView":19,
			"componentType":5123,
			"count":1812,
			"type":"SCALAR"
		},
		{
			"bufferView":20,
			"componentType":5126,
			"count":766,
			"max":[
				57.50019454956055,
				-1.0095233917236328,
				37.7299690246582
			],
			"min":[
				28.969390869140625,
				-1.119521975517273,
				0.8378717303276062
			],
			"type":"VEC3"
		},
		{
			"bufferView":21,
			"componentType":5126,
			"count":766,
			"type":"VEC3"
		},
		{
			"bufferView":22,
			"componentType":5126,
			"count":766,
			"type":"VEC2"
		},
		{
			"bufferView":23,
			"componentType":5123,
			"count":766,
			"normalized":true,
			"type":"VEC4"
		},
		{
			"bufferView":24,
			"componentType":5123,
			"count":2532,
			"type":"SCALAR"
		},
		{
			"bufferView":25,
			"componentType":5126,
			"count":2580,
			"max":[
				50.05375289916992,
				-1.0172580480575562,
				11.714385986328125
			],
			"min":[
				-26.733863830566406,
				-1.1272563934326172,
				-57.335506439208984
			],
			"type":"VEC3"
		},
		{
			"bufferView":26,
			"componentType":5126,
			"count":2580,
			"type":"VEC3"
		},
		{
			"bufferView":27,
			"componentType":5126,
			"count":2580,
			"type":"VEC2"
		},
		{
			"bufferView":28,
			"componentType":5123,
			"count":2580,
			"normalized":true,
			"type":"VEC4"
		},
		{
			"bufferView":29,
			"componentType":5123,
			"count":7728,
			"type":"SCALAR"
		},
		{
			"bufferView":30,
			"componentType":5126,
			"count":556,
			"max":[
				9.025163650512695,
				-1.0072579383850098,
				7.344207763671875
			],
			"min":[
				-12.84672737121582,
				-1.1172571182250977,
				-12.297100067138672
			],
			"type":"VEC3"
		},
		{
			"bufferView":31,
			"componentType":5126,
			"count":556,
			"type":"VEC3"
		},
		{
			"bufferView":32,
			"componentType":5126,
			"count":556,
			"type":"VEC2"
		},
		{
			"bufferView":33,
			"componentType":5123,
			"count":556,
			"normalized":true,
			"type":"VEC4"
		},
		{
			"bufferView":34,
			"componentType":5123,
			"count":1812,
			"type":"SCALAR"
		},
		{
			"bufferView":35,
			"componentType":5126,
			"count":1666,
			"max":[
				8.95761775970459,
				-1.0172580480575562,
				-26.764297485351562
			],
			"min":[
				-3.068087100982666,
				-1.1272549629211426,
				-35.588809967041016
			],
			"type":"VEC3"
		},
		{
			"bufferView":36,
			"componentType":5126,
			"count":1666,
			"type":"VEC3"
		},
		{
			"bufferView":37,
			"componentType":5126,
			"count":1666,
			"type":"VEC2"
		},
		{
			"bufferView":38,
			"componentType":5123,
			"count":1666,
			"normalized":true,
			"type":"VEC4"
		},
		{
			"bufferView":39,
			"componentType":5123,
			"count":5916,
			"type":"SCALAR"
		},
		{
			"bufferView":40,
			"componentType":5126,
			"count":84,
			"max":[
				5.917744159698486,
				-0.023940272629261017,
				6.419513702392578
			],
			"min":[
				-6.539909362792969,
				-0.24428384006023407,
				-6.014442443847656
			],
			"type":"VEC3"
		},
		{
			"bufferView":41,
			"componentType":5126,
			"count":84,
			"type":"VEC3"
		},
		{
			"bufferView":42,
			"componentType":5126,
			"count":84,
			"type":"VEC2"
		},
		{
			"bufferView":43,
			"componentType":5123,
			"count":126,
			"type":"SCALAR"
		},
		{
			"bufferView":44,
			"componentType":5126,
			"count":84,
			"max":[
				5.917744159698486,
				-0.023940272629261017,
				6.419513702392578
			],
			"min":[
				-6.539909362792969,
				-0.24428384006023407,
				-6.014442443847656
			],
			"type":"VEC3"
		},
		{
			"bufferView":45,
			"componentType":5126,
			"count":84,
			"type":"VEC3"
		},
		{
			"bufferView":46,
			"componentType":5126,
			"count":84,
			"type":"VEC2"
		},
		{
			"bufferView":47,
			"componentType":5126,
			"count":84,
			"max":[
				5.917744159698486,
				-0.023940272629261017,
				6.419513702392578
			],
			"min":[
				-6.539909362792969,
				-0.24428384006023407,
				-6.014442443847656
			],
			"type":"VEC3"
		},
		{
			"bufferView":48,
			"componentType":5126,
			"count":84,
			"type":"VEC3"
		},
		{
			"bufferView":49,
			"componentType":5126,
			"count":84,
			"type":"VEC2"
		},
		{
			"bufferView":50,
			"componentType":5126,
			"count":84,
			"max":[
				5.917744159698486,
				-0.023940272629261017,
				6.419513702392578
			],
			"min":[
				-6.539909362792969,
				-0.24428384006023407,
				-6.014442443847656
			],
			"type":"VEC3"
		},
		{
			"bufferView":51,
			"componentType":5126,
			"count":84,
			"type":"VEC3"
		},
		{
			"bufferView":52,
			"componentType":5126,
			"count":84,
			"type":"VEC2"
		},
		{
			"bufferView":53,
			"componentType":5126,
			"count":338,
			"max":[
				6.00745964050293,
				-1.0095233917236328,
				12.103658676147461
			],
			"min":[
				-15.788110733032227,
				-1.119521975517273,
				-0.4412410259246826
			],
			"type":"VEC3"
		},
		{
			"bufferView":54,
			"componentType":5126,
			"count":338,
			"type":"VEC3"
		},
		{
			"bufferView":55,
			"componentType":5126,
			"count":338,
			"type":"VEC2"
		},
		{
			"bufferView":56,
			"componentType":5123,
			"count":338,
			"normalized":true,
			"type":"VEC4"
		},
		{
			"bufferView":57,
			"componentType":5123,
			"count":1092,
			"type":"SCALAR"
		}
	],
	"bufferViews":[
		{
			"buffer":0,
			"byteLength":1488,
			"byteOffset":0,
			"target":34962
		},
		{
			"buffer":0,
			"byteLength":1488,
			"byteOffset":1488,
			"target":34962
		},
		{
			"buffer":0,
			"byteLength":992,
			"byteOffset":2976,
			"target":34962
		},
		{
			"buffer":0,
			"byteLength":992,
			"byteOffset":3968,
			"target":34962
		},
		{
			"buffer":0,
			"byteLength":744,
			"byteOffset":4960,
			"target":34963
		},
		{
			"buffer":0,
			"byteLength":1488,
			"byteOffset":5704,
			"target":34962
		},
		{
			"buffer":0,
			"byteLength":1488,
			"byteOffset":7192,
			"target":34962
		},
		{
			"buffer":0,
			"byteLength":992,
			"byteOffset":8680,
			"target":34962
		},
		{
			"buffer":0,
			"byteLength":992,
			"byteOffset":9672,
			"target":34962
		},
		{
			"buffer":0,
			"byteLength":744,
			"byteOffset":10664,
			"target":34963
		},
		{
			"buffer":0,
			"byteLength":4032,
			"byteOffset":11408,
			"target":34962
		},
		{
			"buffer":0,
			"byteLength":4032,
			"byteOffset":15440,
			"target":34962
		},
		{
			"buffer":0,
			"byteLength":2688,
			"byteOffset":19472,
			"target":34962
		},
		{
			"buffer":0,
			"byteLength":2688,
			"byteOffset":22160,
			"target":34962
		},
		{
			"buffer":0,
			"byteLength":2184,
			"byteOffset":24848,
			"target":34963
		},
		{
			"buffer":0,
			"byteLength":6768,
			"byteOffset":27032,
			"target":34962
		},
		{
			"buffer":0,
			"byteLength":6768,
			"byteOffset":33800,
			"target":34962
		},
		{
			"buffer":0,
			"byteLength":4512,
			"byteOffset":40568,
			"target":34962
		},
		{
			"buffer":0,
			"byteLength":4512,
			"byteOffset":45080,
			"target":34962
		},
		{
			"buffer":0,
			"byteLength":3624,
			"byteOffset":49592,
			"target":34963
		},
		{
			"buffer":0,
			"byteLength":9192,
			"byteOffset":53216,
			"target":34962
		},
		{
			"buffer":0,
			"byteLength":9192,
			"byteOffset":62408,
			"target":34962
		},
		{
			"buffer":0,
			"byteLength":6128,
			"byteOffset":71600,
			"target":34962
		},
		{
			"buffer":0,
			"byteLength":6128,
			"byteOffset":77728,
			"target":34962
		},
		{
			"buffer":0,
			"byteLength":5064,
			"byteOffset":83856,
			"target":34963
		},
		{
			"buffer":0,
			"byteLength":30960,
			"byteOffset":88920,
			"target":34962
		},
		{
			"buffer":0,
			"byteLength":30960,
			"byteOffset":119880,
			"target":34962
		},
		{
			"buffer":0,
			"byteLength":20640,
			"byteOffset":150840,
			"target":34962
		},
		{
			"buffer":0,
			"byteLength":20640,
			"byteOffset":171480,
			"target":34962
		},
		{
			"buffer":0,
			"byteLength":15456,
			"byteOffset":192120,
			"target":34963
		},
		{
			"buffer":0,
			"byteLength":6672,
			"byteOffset":207576,
			"target":34962
		},
		{
			"buffer":0,
			"byteLength":6672,
			"byteOffset":214248,
			"target":34962
		},
		{
			"buffer":0,
			"byteLength":4448,
			"byteOffset":220920,
			"target":34962
		},
		{
			"buffer":0,
			"byteLength":4448,
			"byteOffset":225368,
			"target":34962
		},
		{
			"buffer":0,
			"byteLength":3624,
			"byteOffset":229816,
			"target":34963
		},
		{
			"buffer":0,
			"byteLength":19992,
			"byteOffset":233440,
			"target":34962
		},
		{
			"buffer":0,
			"byteLength":19992,
			"byteOffset":253432,
			"target":34962
		},
		{
			"buffer":0,
			"byteLength":13328,
			"byteOffset":273424,
			"target":34962
		},
		{
			"buffer":0,
			"byteLength":13328,
			"byteOffset":286752,
			"target":34962
		},
		{
			"buffer":0,
			"byteLength":11832,
			"byteOffset":300080,
			"target":34963
		},
		{
			"buffer":0,
			"byteLength":1008,
			"byteOffset":311912,
			"target":34962
		},
		{
			"buffer":0,
			"byteLength":1008,
			"byteOffset":312920,
			"target":34962
		},
		{
			"buffer":0,
			"byteLength":672,
			"byteOffset":313928,
			"target":34962
		},
		{
			"buffer":0,
			"byteLength":252,
			"byteOffset":314600,
			"target":34963
		},
		{
			"buffer":0,
			"byteLength":1008,
			"byteOffset":314852,
			"target":34962
		},
		{
			"buffer":0,
			"byteLength":1008,
			"byteOffset":315860,
			"target":34962
		},
		{
			"buffer":0,
			"byteLength":672,
			"byteOffset":316868,
			"target":34962
		},
		{
			"buffer":0,
			"byteLength":1008,
			"byteOffset":317540,
			"target":34962
		},
		{
			"buffer":0,
			"byteLength":1008,
			"byteOffset":318548,
			"target":34962
		},
		{
			"buffer":0,
			"byteLength":672,
			"byteOffset":319556,
			"target":34962
		},
		{
			"buffer":0,
			"byteLength":1008,
			"byteOffset":320228,
			"target":34962
		},
		{
			"buffer":0,
			"byteLength":1008,
			"byteOffset":321236,
			"target":34962
		},
		{
			"buffer":0,
			"byteLength":672,
			"byteOffset":322244,
			"target":34962
		},
		{
			"buffer":0,
			"byteLength":4056,
			"byteOffset":322916,
			"target":34962
		},
		{
			"buffer":0,
			"byteLength":4056,
			"byteOffset":326972,
			"target":34962
		},
		{
			"buffer":0,
			"byteLength":2704,
			"byteOffset":331028,
			"target":34962
		},
		{
			"buffer":0,
			"byteLength":2704,
			"byteOffset":333732,
			"target":34962
		},
		{
			"buffer":0,
			"byteLength":2184,
			"byteOffset":336436,
			"target":34963
		}
	],
	"buffers":[
		{
			"byteLength":338620,
			"uri":"SL-hub-paths.bin"
		}
	]
}
