{
    "asset": {
        "generator": "Khronos glTF Blender I/O v4.5.15",
        "version": "2.0"
    },
    "scene": 0,
    "scenes": [
        {
            "extras": {
                "gltfIOGodotAssetProperties": {
                    "export_type": 2,
                    "root_type": 1,
                    "append_parent_collection": 1,
                    "asset_name": "LI-boulder_005"
                },
                "asset_type": "ASSET",
                "root_type": "STATIC",
                "asset_id": "ff5ad63598bc35b6"
            },
            "name": "LI-boulder_005",
            "nodes": [
                0,
                1,
                2,
                3,
                4,
                5,
                6,
                7,
                8,
                9,
                10,
                11,
                12,
                13,
                14
            ]
        }
    ],
    "nodes": [
        {
            "extras": {
                "ant_landscape": {}
            },
            "mesh": 0,
            "name": "GEO-boulder_005"
        },
        {
            "extras": {
                "booleans": {},
                "ant_landscape": {},
                "collision_info": {
                    "type": "PRIMITIVE",
                    "shape": 3,
                    "radius": 0.390999972820282,
                    "height": 1.6719999313354492,
                    "size": [
                        1.0,
                        1.0,
                        1.0
                    ]
                }
            },
            "name": "COL-collision_primitive.020",
            "translation": [
                0.5004225969314575,
                0.6959453821182251,
                -0.037953972816467285
            ]
        },
        {
            "extras": {
                "booleans": {},
                "ant_landscape": {},
                "collision_info": {
                    "type": "PRIMITIVE",
                    "shape": 3,
                    "radius": 0.5640000104904175,
                    "height": 1.6719999313354492,
                    "size": [
                        1.0,
                        1.0,
                        1.0
                    ]
                }
            },
            "name": "COL-collision_primitive.021",
            "translation": [
                -0.2233353555202484,
                0.6959453821182251,
                0.015356350690126419
            ]
        },
        {
            "extras": {
                "booleans": {},
                "ant_landscape": {},
                "collision_info": {
                    "type": "PRIMITIVE",
                    "shape": 3,
                    "radius": 0.5789999961853027,
                    "height": 1.6719999313354492,
                    "size": [
                        1.0,
                        1.0,
                        1.0
                    ]
                }
            },
            "name": "COL-collision_primitive.022",
            "translation": [
                -0.08294113725423813,
                0.6959453821182251,
                0.14807148277759552
            ]
        },
        {
            "extras": {
                "booleans": {},
                "ant_landscape": {},
                "collision_info": {
                    "type": "PRIMITIVE",
                    "shape": 3,
                    "radius": 0.547999918460846,
                    "height": 1.6719999313354492,
                    "size": [
                        1.0,
                        1.0,
                        1.0
                    ]
                }
            },
            "name": "COL-collision_primitive.023",
            "translation": [
                0.24924536049365997,
                0.6959453821182251,
                -0.13265295326709747
            ]
        },
        {
            "extras": {
                "booleans": {},
                "ant_landscape": {},
                "collision_info": {
                    "type": "PRIMITIVE",
                    "shape": 3,
                    "radius": 0.4209999442100525,
                    "height": 1.6719999313354492,
                    "size": [
                        1.0,
                        1.0,
                        1.0
                    ]
                }
            },
            "name": "COL-collision_primitive.024",
            "translation": [
                0.28037121891975403,
                0.6959453821182251,
                0.11882930994033813
            ]
        },
        {
            "extras": {
                "ant_landscape": {}
            },
            "name": "HLP-leash_point.065",
            "rotation": [
                0,
                -0.021631190553307533,
                0,
                0.9997660517692566
            ],
            "translation": [
                0.9062549471855164,
                0.2914913594722748,
                -0.07755030691623688
            ]
        },
        {
            "extras": {
                "ant_landscape": {}
            },
            "name": "HLP-leash_point.067",
            "rotation": [
                0,
                0.04583503305912018,
                0,
                0.9989490509033203
            ],
            "translation": [
                -0.037562910467386246,
                0.3551335036754608,
                0.6845091581344604
            ]
        },
        {
            "extras": {
                "ant_landscape": {}
            },
            "name": "HLP-leash_point.068",
            "rotation": [
                0,
                0.00015148524835240096,
                0,
                1
            ],
            "translation": [
                0.2672681510448456,
                0.32170748710632324,
                0.5829996466636658
            ]
        },
        {
            "extras": {
                "ant_landscape": {}
            },
            "name": "HLP-leash_point.069",
            "rotation": [
                0,
                0.4895666837692261,
                0,
                0.8719658851623535
            ],
            "translation": [
                -0.6608172059059143,
                0.3571164906024933,
                0.4490170478820801
            ]
        },
        {
            "extras": {
                "ant_landscape": {}
            },
            "name": "HLP-leash_point.071",
            "rotation": [
                0,
                0.03909425064921379,
                0,
                0.9992355108261108
            ],
            "translation": [
                -0.8080574870109558,
                0.34734660387039185,
                -0.028505954891443253
            ]
        },
        {
            "extras": {
                "ant_landscape": {}
            },
            "name": "HLP-leash_point.073",
            "rotation": [
                0,
                0.03724489361047745,
                0,
                0.9993062615394592
            ],
            "translation": [
                0.22416776418685913,
                0.35068491101264954,
                -0.5218423008918762
            ]
        },
        {
            "extras": {
                "ant_landscape": {}
            },
            "name": "HLP-leash_point.074",
            "rotation": [
                0,
                -0.13417834043502808,
                0,
                0.9909572005271912
            ],
            "translation": [
                0.7472069263458252,
                0.3035931885242462,
                -0.2873724699020386
            ]
        },
        {
            "extras": {
                "ant_landscape": {}
            },
            "name": "HLP-leash_point.079",
            "rotation": [
                0,
                0.41113877296447754,
                0,
                0.9115728735923767
            ],
            "translation": [
                -0.6804726123809814,
                0.3411095142364502,
                -0.32819685339927673
            ]
        },
        {
            "extras": {
                "ant_landscape": {}
            },
            "name": "HLP-leash_point.072",
            "rotation": [
                0,
                0.05907871574163437,
                0,
                0.9982534050941467
            ],
            "translation": [
                -0.19105568528175354,
                0.33533209562301636,
                -0.4662831723690033
            ]
        }
    ],
    "materials": [
        {
            "alphaMode": "BLEND",
            "doubleSided": true,
            "emissiveFactor": [
                1,
                1,
                1
            ],
            "extras": {
                "asset_id": "584980e58f667fce",
                "material_info": {
                    "albedo_color": [
                        1.0,
                        1.0,
                        1.0,
                        1.0
                    ],
                    "alpha": 1.0,
                    "edge_alpha": 1.0,
                    "alpha_influence": 0.0,
                    "backface_color": 0.0,
                    "roughness": 0.4000000059604645,
                    "metallic": 0.0,
                    "displacement_strength": 0.0,
                    "displacement_scale": 1.0,
                    "paper_color": [
                        1.0,
                        1.0,
                        1.0,
                        1.0
                    ],
                    "wear_strength": 0.0,
                    "wear_start": 0.15000000596046448,
                    "wear_end": 1.0,
                    "wear_distortion_strength": 0.10000000149011612,
                    "wear_distortion_scale": 64.0,
                    "emission_color": [
                        1.0,
                        1.0,
                        1.0,
                        1.0
                    ],
                    "emission_strength": 0.0,
                    "normal_strength": 0.20000000298023224,
                    "normal_use_uv2": 1.0
                }
            },
            "name": "boulder_cut",
            "normalTexture": {
                "index": 0,
                "texCoord": 1
            },
            "pbrMetallicRoughness": {
                "baseColorTexture": {
                    "index": 1
                }
            }
        }
    ],
    "meshes": [
        {
            "name": "Plane.002",
            "primitives": [
                {
                    "attributes": {
                        "POSITION": 0,
                        "NORMAL": 1,
                        "TEXCOORD_0": 2,
                        "TEXCOORD_1": 3,
                        "COLOR_0": 4
                    },
                    "indices": 5,
                    "material": 0
                }
            ]
        }
    ],
    "textures": [
        {
            "sampler": 0,
            "source": 0
        },
        {
            "sampler": 0,
            "source": 1
        }
    ],
    "images": [
        {
            "extras": {
                "source_path": "assets/textures/paper_rough_256.png"
            },
            "mimeType": "image/png",
            "name": "paper_rough_256",
            "uri": "../../../textures/paper_rough_256.png"
        },
        {
            "extras": {
                "source_path": "assets/lib/textures/boulders_cut_albedo.png"
            },
            "mimeType": "image/png",
            "name": "boulders_cut_albedo",
            "uri": "../../textures/boulders_cut_albedo.png"
        }
    ],
    "accessors": [
        {
            "bufferView": 0,
            "componentType": 5126,
            "count": 772,
            "max": [
                0.9023057818412781,
                0.7871713042259216,
                0.7393795847892761
            ],
            "min": [
                -0.8138099312782288,
                0.009050510823726654,
                -0.6855859756469727
            ],
            "type": "VEC3"
        },
        {
            "bufferView": 1,
            "componentType": 5126,
            "count": 772,
            "type": "VEC3"
        },
        {
            "bufferView": 2,
            "componentType": 5126,
            "count": 772,
            "type": "VEC2"
        },
        {
            "bufferView": 3,
            "componentType": 5126,
            "count": 772,
            "type": "VEC2"
        },
        {
            "bufferView": 4,
            "componentType": 5123,
            "count": 772,
            "normalized": true,
            "type": "VEC4"
        },
        {
            "bufferView": 5,
            "componentType": 5123,
            "count": 2007,
            "type": "SCALAR"
        }
    ],
    "bufferViews": [
        {
            "buffer": 0,
            "byteLength": 9264,
            "byteOffset": 0,
            "target": 34962
        },
        {
            "buffer": 0,
            "byteLength": 9264,
            "byteOffset": 9264,
            "target": 34962
        },
        {
            "buffer": 0,
            "byteLength": 6176,
            "byteOffset": 18528,
            "target": 34962
        },
        {
            "buffer": 0,
            "byteLength": 6176,
            "byteOffset": 24704,
            "target": 34962
        },
        {
            "buffer": 0,
            "byteLength": 6176,
            "byteOffset": 30880,
            "target": 34962
        },
        {
            "buffer": 0,
            "byteLength": 4014,
            "byteOffset": 37056,
            "target": 34963
        }
    ],
    "samplers": [
        {
            "magFilter": 9729,
            "minFilter": 9987
        }
    ],
    "buffers": [
        {
            "byteLength": 41072,
            "uri": "LI-boulder_005.bin"
        }
    ]
}