{
    "asset": {
        "generator": "Khronos glTF Blender I/O v4.5.15",
        "version": "2.0"
    },
    "scene": 0,
    "scenes": [
        {
            "extras": {
                "gltfIOGodotAssetProperties": {
                    "export_type": 2,
                    "root_type": 1,
                    "append_parent_collection": 1,
                    "asset_name": "LI-boulder_007"
                },
                "asset_type": "ASSET",
                "root_type": "STATIC",
                "asset_id": "ec56c359fbbc73fe"
            },
            "name": "LI-boulder_007",
            "nodes": [
                0,
                1,
                2,
                3,
                4,
                5,
                6,
                7,
                8,
                9,
                10,
                11,
                12,
                13,
                14,
                15,
                16,
                17,
                18,
                19,
                20,
                21,
                22,
                23
            ]
        }
    ],
    "nodes": [
        {
            "extras": {
                "ant_landscape": {}
            },
            "mesh": 0,
            "name": "GEO-boulder_007"
        },
        {
            "extras": {
                "booleans": {},
                "ant_landscape": {},
                "collision_info": {
                    "type": "PRIMITIVE",
                    "shape": 3,
                    "radius": 0.5540000200271606,
                    "height": 1.6719999313354492,
                    "size": [
                        1.0,
                        1.0,
                        1.0
                    ]
                }
            },
            "name": "COL-collision_primitive.031",
            "translation": [
                0.1446366012096405,
                0.6959453821182251,
                0.504675567150116
            ]
        },
        {
            "extras": {
                "booleans": {},
                "ant_landscape": {},
                "collision_info": {
                    "type": "PRIMITIVE",
                    "shape": 3,
                    "radius": 0.6340000033378601,
                    "height": 1.6719999313354492,
                    "size": [
                        1.0,
                        1.0,
                        1.0
                    ]
                }
            },
            "name": "COL-collision_primitive.032",
            "translation": [
                0.16378358006477356,
                0.6959453821182251,
                -0.16792653501033783
            ]
        },
        {
            "extras": {
                "booleans": {},
                "ant_landscape": {},
                "collision_info": {
                    "type": "PRIMITIVE",
                    "shape": 3,
                    "radius": 0.8889999985694885,
                    "height": 1.6719999313354492,
                    "size": [
                        1.0,
                        1.0,
                        1.0
                    ]
                }
            },
            "name": "COL-collision_primitive.033",
            "translation": [
                -0.013649336993694305,
                0.6959453821182251,
                -0.698832094669342
            ]
        },
        {
            "extras": {
                "booleans": {},
                "ant_landscape": {},
                "collision_info": {
                    "type": "PRIMITIVE",
                    "shape": 3,
                    "radius": 0.6779999136924744,
                    "height": 1.6719999313354492,
                    "size": [
                        1.0,
                        1.0,
                        1.0
                    ]
                }
            },
            "name": "COL-collision_primitive.034",
            "translation": [
                -0.07068485021591187,
                0.6959453821182251,
                0.7521218061447144
            ]
        },
        {
            "extras": {
                "booleans": {},
                "ant_landscape": {},
                "collision_info": {
                    "type": "PRIMITIVE",
                    "shape": 3,
                    "radius": 0.6489999890327454,
                    "height": 1.6719999313354492,
                    "size": [
                        1.0,
                        1.0,
                        1.0
                    ]
                }
            },
            "name": "COL-collision_primitive.035",
            "translation": [
                -0.15748867392539978,
                0.6959453821182251,
                0.004336923360824585
            ]
        },
        {
            "extras": {
                "booleans": {},
                "ant_landscape": {},
                "collision_info": {
                    "type": "PRIMITIVE",
                    "shape": 3,
                    "radius": 0.6489999890327454,
                    "height": 1.6719999313354492,
                    "size": [
                        1.0,
                        1.0,
                        1.0
                    ]
                }
            },
            "name": "COL-collision_primitive.036",
            "translation": [
                -0.25549131631851196,
                0.6959453821182251,
                -0.9315124750137329
            ]
        },
        {
            "extras": {
                "ant_landscape": {}
            },
            "name": "HLP-leash_point.098",
            "rotation": [
                0,
                -0.021631190553307533,
                0,
                0.9997660517692566
            ],
            "translation": [
                0.740002453327179,
                0.3554440438747406,
                -0.31775230169296265
            ]
        },
        {
            "extras": {
                "ant_landscape": {}
            },
            "name": "HLP-leash_point.101",
            "rotation": [
                0,
                0.045835040509700775,
                0,
                0.9989490509033203
            ],
            "translation": [
                0.6426169872283936,
                0.3498380482196808,
                0.6563704609870911
            ]
        },
        {
            "extras": {
                "ant_landscape": {}
            },
            "name": "HLP-leash_point.103",
            "rotation": [
                0,
                0.10912159830331802,
                0,
                0.9940285086631775
            ],
            "translation": [
                -0.17146743834018707,
                0.3978131413459778,
                1.3669681549072266
            ]
        },
        {
            "extras": {
                "ant_landscape": {}
            },
            "name": "HLP-leash_point.105",
            "rotation": [
                0,
                0.03909425064921379,
                0,
                0.9992355108261108
            ],
            "translation": [
                -0.7585820555686951,
                0.40982335805892944,
                -0.14311963319778442
            ]
        },
        {
            "extras": {
                "ant_landscape": {}
            },
            "name": "HLP-leash_point.106",
            "rotation": [
                0,
                0.03724489361047745,
                0,
                0.9993062615394592
            ],
            "translation": [
                0.8353359699249268,
                0.41126781702041626,
                -0.9561029076576233
            ]
        },
        {
            "extras": {
                "ant_landscape": {}
            },
            "name": "HLP-leash_point.110",
            "rotation": [
                0,
                0.08945773541927338,
                0,
                0.9959906339645386
            ],
            "translation": [
                -0.008234381675720215,
                0.3348695635795593,
                -1.5690457820892334
            ]
        },
        {
            "extras": {
                "ant_landscape": {}
            },
            "name": "HLP-leash_point.111",
            "rotation": [
                0,
                0.4111386835575104,
                0,
                0.9115728139877319
            ],
            "translation": [
                0.5228630900382996,
                0.402010977268219,
                -1.4249703884124756
            ]
        },
        {
            "extras": {
                "ant_landscape": {}
            },
            "name": "HLP-leash_point.112",
            "rotation": [
                0,
                -0.29188358783721924,
                0,
                0.9564538598060608
            ],
            "translation": [
                -0.4069063365459442,
                0.30417677760124207,
                -1.5806652307510376
            ]
        },
        {
            "extras": {
                "ant_landscape": {}
            },
            "name": "HLP-leash_point.113",
            "rotation": [
                -0.0011049004970118403,
                0.7099646925926208,
                0.0015539181185886264,
                0.704234778881073
            ],
            "translation": [
                0.38349291682243347,
                0.3580731153488159,
                1.1603785753250122
            ]
        },
        {
            "extras": {
                "ant_landscape": {}
            },
            "name": "HLP-leash_point.114",
            "rotation": [
                0,
                0.045835040509700775,
                0,
                0.9989490509033203
            ],
            "translation": [
                0.5328186750411987,
                0.3846721053123474,
                0.9340372085571289
            ]
        },
        {
            "extras": {
                "ant_landscape": {}
            },
            "name": "HLP-leash_point.107",
            "rotation": [
                0,
                0.04556276649236679,
                0,
                0.9989615082740784
            ],
            "translation": [
                -0.6751828789710999,
                0.4351782500743866,
                0.8554237484931946
            ]
        },
        {
            "extras": {
                "ant_landscape": {}
            },
            "name": "HLP-leash_point.108",
            "rotation": [
                0,
                0.04556276649236679,
                0,
                0.9989615082740784
            ],
            "translation": [
                -0.6345584392547607,
                0.40464872121810913,
                1.0984441041946411
            ]
        },
        {
            "extras": {
                "ant_landscape": {}
            },
            "name": "HLP-leash_point.109",
            "rotation": [
                0,
                0.04556276649236679,
                0,
                0.9989615082740784
            ],
            "translation": [
                -0.4986048936843872,
                0.3697892725467682,
                1.327399730682373
            ]
        },
        {
            "extras": {
                "ant_landscape": {}
            },
            "name": "HLP-leash_point.078",
            "rotation": [
                0,
                -0.29188358783721924,
                0,
                0.9564538598060608
            ],
            "translation": [
                -0.6162055134773254,
                0.30417677760124207,
                -1.4363611936569214
            ]
        },
        {
            "extras": {
                "ant_landscape": {}
            },
            "name": "HLP-leash_point.086",
            "rotation": [
                0,
                -0.29188358783721924,
                0,
                0.9564538598060608
            ],
            "translation": [
                -0.8862420320510864,
                0.28284743428230286,
                -0.8966689705848694
            ]
        },
        {
            "extras": {
                "ant_landscape": {}
            },
            "name": "HLP-leash_point.088",
            "rotation": [
                -0.0011049004970118403,
                0.7099646925926208,
                0.0015539181185886264,
                0.704234778881073
            ],
            "translation": [
                0.16255012154579163,
                0.3541123867034912,
                1.3004367351531982
            ]
        },
        {
            "extras": {
                "ant_landscape": {}
            },
            "name": "HLP-leash_point.002",
            "rotation": [
                0,
                -0.29188358783721924,
                0,
                0.9564538598060608
            ],
            "translation": [
                -0.8261864185333252,
                0.28284743428230286,
                -1.0989867448806763
            ]
        }
    ],
    "materials": [
        {
            "alphaMode": "BLEND",
            "doubleSided": true,
            "emissiveFactor": [
                1,
                1,
                1
            ],
            "extras": {
                "asset_id": "584980e58f667fce",
                "material_info": {
                    "albedo_color": [
                        1.0,
                        1.0,
                        1.0,
                        1.0
                    ],
                    "alpha": 1.0,
                    "edge_alpha": 1.0,
                    "alpha_influence": 0.0,
                    "backface_color": 0.0,
                    "roughness": 0.4000000059604645,
                    "metallic": 0.0,
                    "displacement_strength": 0.0,
                    "displacement_scale": 1.0,
                    "paper_color": [
                        1.0,
                        1.0,
                        1.0,
                        1.0
                    ],
                    "wear_strength": 0.0,
                    "wear_start": 0.15000000596046448,
                    "wear_end": 1.0,
                    "wear_distortion_strength": 0.10000000149011612,
                    "wear_distortion_scale": 64.0,
                    "emission_color": [
                        1.0,
                        1.0,
                        1.0,
                        1.0
                    ],
                    "emission_strength": 0.0,
                    "normal_strength": 0.20000000298023224,
                    "normal_use_uv2": 1.0
                }
            },
            "name": "boulder_cut",
            "normalTexture": {
                "index": 0,
                "texCoord": 1
            },
            "pbrMetallicRoughness": {
                "baseColorTexture": {
                    "index": 1
                }
            }
        }
    ],
    "meshes": [
        {
            "name": "Plane",
            "primitives": [
                {
                    "attributes": {
                        "POSITION": 0,
                        "NORMAL": 1,
                        "TEXCOORD_0": 2,
                        "TEXCOORD_1": 3,
                        "COLOR_0": 4
                    },
                    "indices": 5,
                    "material": 0
                }
            ]
        }
    ],
    "textures": [
        {
            "sampler": 0,
            "source": 0
        },
        {
            "sampler": 0,
            "source": 1
        }
    ],
    "images": [
        {
            "extras": {
                "source_path": "assets/textures/paper_rough_256.png"
            },
            "mimeType": "image/png",
            "name": "paper_rough_256",
            "uri": "../../../textures/paper_rough_256.png"
        },
        {
            "extras": {
                "source_path": "assets/lib/textures/boulders_cut_albedo.png"
            },
            "mimeType": "image/png",
            "name": "boulders_cut_albedo",
            "uri": "../../textures/boulders_cut_albedo.png"
        }
    ],
    "accessors": [
        {
            "bufferView": 0,
            "componentType": 5126,
            "count": 1649,
            "max": [
                0.9385863542556763,
                0.7901334166526794,
                1.423858642578125
            ],
            "min": [
                -0.9406656622886658,
                0.00694294786080718,
                -1.6258971691131592
            ],
            "type": "VEC3"
        },
        {
            "bufferView": 1,
            "componentType": 5126,
            "count": 1649,
            "type": "VEC3"
        },
        {
            "bufferView": 2,
            "componentType": 5126,
            "count": 1649,
            "type": "VEC2"
        },
        {
            "bufferView": 3,
            "componentType": 5126,
            "count": 1649,
            "type": "VEC2"
        },
        {
            "bufferView": 4,
            "componentType": 5123,
            "count": 1649,
            "normalized": true,
            "type": "VEC4"
        },
        {
            "bufferView": 5,
            "componentType": 5123,
            "count": 3765,
            "type": "SCALAR"
        }
    ],
    "bufferViews": [
        {
            "buffer": 0,
            "byteLength": 19788,
            "byteOffset": 0,
            "target": 34962
        },
        {
            "buffer": 0,
            "byteLength": 19788,
            "byteOffset": 19788,
            "target": 34962
        },
        {
            "buffer": 0,
            "byteLength": 13192,
            "byteOffset": 39576,
            "target": 34962
        },
        {
            "buffer": 0,
            "byteLength": 13192,
            "byteOffset": 52768,
            "target": 34962
        },
        {
            "buffer": 0,
            "byteLength": 13192,
            "byteOffset": 65960,
            "target": 34962
        },
        {
            "buffer": 0,
            "byteLength": 7530,
            "byteOffset": 79152,
            "target": 34963
        }
    ],
    "samplers": [
        {
            "magFilter": 9729,
            "minFilter": 9987
        }
    ],
    "buffers": [
        {
            "byteLength": 86684,
            "uri": "LI-boulder_007.bin"
        }
    ]
}