{
    "asset": {
        "generator": "Khronos glTF Blender I/O v4.5.15",
        "version": "2.0"
    },
    "scene": 0,
    "scenes": [
        {
            "extras": {
                "gltfIOGodotAssetProperties": {
                    "export_type": 2,
                    "root_type": 0,
                    "append_parent_collection": 1,
                    "asset_name": "LI-bird_house-tall_yellow_02"
                },
                "asset_type": "ASSET",
                "root_type": "NONE",
                "asset_id": "da41fcf07e6417b7"
            },
            "name": "LI-bird_house-tall_yellow_02",
            "nodes": [
                0,
                1,
                2,
                3
            ]
        }
    ],
    "nodes": [
        {
            "mesh": 0,
            "name": "GEO-bird_house-body_yellow.001",
            "rotation": [
                0.006843703333288431,
                0,
                0,
                0.9999765753746033
            ],
            "scale": [
                1.2000000476837158,
                1.2000001668930054,
                1.2000001668930054
            ],
            "translation": [
                -0.01618351973593235,
                -0.6261914968490601,
                0.11971984058618546
            ]
        },
        {
            "mesh": 1,
            "name": "GEO-bird_house-roof_orange.002",
            "rotation": [
                0.28149306774139404,
                0.6486613750457764,
                0.28149306774139404,
                0.6486615538597107
            ],
            "scale": [
                1.435288429260254,
                1.435288429260254,
                1.288524866104126
            ],
            "translation": [
                0.007129240315407515,
                -0.26885199546813965,
                0.19791315495967865
            ]
        },
        {
            "mesh": 2,
            "name": "GEO-bird_house-porch_01.002",
            "rotation": [
                0.059103261679410934,
                0.03384457156062126,
                0.03410361334681511,
                0.9970949292182922
            ],
            "scale": [
                0.9727222919464111,
                0.9727221727371216,
                0.9727222323417664
            ],
            "translation": [
                0.002191400621086359,
                -0.897933304309845,
                0.3066575527191162
            ]
        },
        {
            "mesh": 3,
            "name": "GEO-bird_house-hook_02.004",
            "rotation": [
                0.006842297036200762,
                -0.00013870290422346443,
                0.02026635780930519,
                0.999771237373352
            ],
            "scale": [
                1.3710598945617676,
                1.371059775352478,
                1.371059536933899
            ],
            "translation": [
                0.004551458638161421,
                -0.11820536106824875,
                0.022362567484378815
            ]
        }
    ],
    "materials": [
        {
            "alphaMode": "BLEND",
            "doubleSided": true,
            "emissiveFactor": [
                1,
                1,
                1
            ],
            "extras": {
                "asset_id": "691f6905cea49762",
                "material_info": {
                    "albedo_color": [
                        1.0,
                        1.0,
                        1.0,
                        1.0
                    ],
                    "edge_alpha": 1.0,
                    "alpha_influence": 0.0,
                    "backface_color": 0.0,
                    "roughness": 0.8824701309204102,
                    "metallic": 0.0,
                    "displacement_strength": 0.0,
                    "displacement_scale": 1.0,
                    "paper_color": [
                        1.0,
                        1.0,
                        1.0,
                        1.0
                    ],
                    "wear_strength": 0.0,
                    "wear_start": 0.0,
                    "wear_end": 1.0,
                    "wear_distortion_strength": 0.5,
                    "wear_distortion_scale": 100.0,
                    "emission_color": [
                        1.0,
                        1.0,
                        1.0,
                        1.0
                    ],
                    "emission_strength": 0.0,
                    "normal_strength": 0.20000000298023224,
                    "normal_use_uv2": 0.0
                }
            },
            "name": "bird_houses",
            "normalTexture": {
                "index": 0
            },
            "pbrMetallicRoughness": {
                "baseColorTexture": {
                    "index": 1
                }
            }
        }
    ],
    "meshes": [
        {
            "name": "Plane.001",
            "primitives": [
                {
                    "attributes": {
                        "POSITION": 0,
                        "NORMAL": 1,
                        "TEXCOORD_0": 2
                    },
                    "indices": 3,
                    "material": 0
                }
            ]
        },
        {
            "name": "Plane.004",
            "primitives": [
                {
                    "attributes": {
                        "POSITION": 4,
                        "NORMAL": 5,
                        "TEXCOORD_0": 6
                    },
                    "indices": 7,
                    "material": 0
                }
            ]
        },
        {
            "name": "Plane.008",
            "primitives": [
                {
                    "attributes": {
                        "POSITION": 8,
                        "NORMAL": 9,
                        "TEXCOORD_0": 10,
                        "COLOR_0": 11,
                        "COLOR_1": 12
                    },
                    "indices": 13,
                    "material": 0
                }
            ]
        },
        {
            "name": "Plane.011",
            "primitives": [
                {
                    "attributes": {
                        "POSITION": 14,
                        "NORMAL": 15,
                        "TEXCOORD_0": 16,
                        "COLOR_0": 17,
                        "COLOR_1": 18
                    },
                    "indices": 19,
                    "material": 0
                }
            ]
        }
    ],
    "textures": [
        {
            "sampler": 0,
            "source": 0
        },
        {
            "sampler": 0,
            "source": 1
        }
    ],
    "images": [
        {
            "extras": {
                "source_path": "assets/textures/paper_rough_large-normal.png"
            },
            "mimeType": "image/png",
            "name": "paper_rough_large-normal",
            "uri": "../../textures/paper_rough_large-normal.png"
        },
        {
            "extras": {
                "source_path": "assets/lib/textures/bird_houses_albedo.png"
            },
            "mimeType": "image/png",
            "name": "bird_houses_albedo",
            "uri": "../textures/bird_houses_albedo.png"
        }
    ],
    "accessors": [
        {
            "bufferView": 0,
            "componentType": 5126,
            "count": 30,
            "max": [
                0.13950780034065247,
                0.41039133071899414,
                0.16650912165641785
            ],
            "min": [
                -0.12340036034584045,
                -0.28497451543807983,
                -0.0950344055891037
            ],
            "type": "VEC3"
        },
        {
            "bufferView": 1,
            "componentType": 5126,
            "count": 30,
            "type": "VEC3"
        },
        {
            "bufferView": 2,
            "componentType": 5126,
            "count": 30,
            "type": "VEC2"
        },
        {
            "bufferView": 3,
            "componentType": 5123,
            "count": 81,
            "type": "SCALAR"
        },
        {
            "bufferView": 4,
            "componentType": 5126,
            "count": 20,
            "max": [
                0.18751545250415802,
                5.66579387850652e-08,
                0.15096339583396912
            ],
            "min": [
                -0.20288194715976715,
                -0.06846456229686737,
                -0.1507522463798523
            ],
            "type": "VEC3"
        },
        {
            "bufferView": 5,
            "componentType": 5126,
            "count": 20,
            "type": "VEC3"
        },
        {
            "bufferView": 6,
            "componentType": 5126,
            "count": 20,
            "type": "VEC2"
        },
        {
            "bufferView": 7,
            "componentType": 5123,
            "count": 54,
            "type": "SCALAR"
        },
        {
            "bufferView": 8,
            "componentType": 5126,
            "count": 28,
            "max": [
                0.03193913400173187,
                0.03159160166978836,
                0.24455328285694122
            ],
            "min": [
                -0.037264615297317505,
                -0.02568097598850727,
                0.00010533654130995274
            ],
            "type": "VEC3"
        },
        {
            "bufferView": 9,
            "componentType": 5126,
            "count": 28,
            "type": "VEC3"
        },
        {
            "bufferView": 10,
            "componentType": 5126,
            "count": 28,
            "type": "VEC2"
        },
        {
            "bufferView": 11,
            "componentType": 5121,
            "count": 28,
            "normalized": true,
            "type": "VEC4"
        },
        {
            "bufferView": 12,
            "componentType": 5123,
            "count": 28,
            "normalized": true,
            "type": "VEC4"
        },
        {
            "bufferView": 13,
            "componentType": 5123,
            "count": 66,
            "type": "SCALAR"
        },
        {
            "bufferView": 14,
            "componentType": 5126,
            "count": 47,
            "max": [
                0.043625153601169586,
                0.15588966012001038,
                0.004085148684680462
            ],
            "min": [
                -0.04512841999530792,
                -0.007425673305988312,
                -0.02416861802339554
            ],
            "type": "VEC3"
        },
        {
            "bufferView": 15,
            "componentType": 5126,
            "count": 47,
            "type": "VEC3"
        },
        {
            "bufferView": 16,
            "componentType": 5126,
            "count": 47,
            "type": "VEC2"
        },
        {
            "bufferView": 17,
            "componentType": 5121,
            "count": 47,
            "normalized": true,
            "type": "VEC4"
        },
        {
            "bufferView": 18,
            "componentType": 5123,
            "count": 47,
            "normalized": true,
            "type": "VEC4"
        },
        {
            "bufferView": 19,
            "componentType": 5123,
            "count": 159,
            "type": "SCALAR"
        }
    ],
    "bufferViews": [
        {
            "buffer": 0,
            "byteLength": 360,
            "byteOffset": 0,
            "target": 34962
        },
        {
            "buffer": 0,
            "byteLength": 360,
            "byteOffset": 360,
            "target": 34962
        },
        {
            "buffer": 0,
            "byteLength": 240,
            "byteOffset": 720,
            "target": 34962
        },
        {
            "buffer": 0,
            "byteLength": 162,
            "byteOffset": 960,
            "target": 34963
        },
        {
            "buffer": 0,
            "byteLength": 240,
            "byteOffset": 1124,
            "target": 34962
        },
        {
            "buffer": 0,
            "byteLength": 240,
            "byteOffset": 1364,
            "target": 34962
        },
        {
            "buffer": 0,
            "byteLength": 160,
            "byteOffset": 1604,
            "target": 34962
        },
        {
            "buffer": 0,
            "byteLength": 108,
            "byteOffset": 1764,
            "target": 34963
        },
        {
            "buffer": 0,
            "byteLength": 336,
            "byteOffset": 1872,
            "target": 34962
        },
        {
            "buffer": 0,
            "byteLength": 336,
            "byteOffset": 2208,
            "target": 34962
        },
        {
            "buffer": 0,
            "byteLength": 224,
            "byteOffset": 2544,
            "target": 34962
        },
        {
            "buffer": 0,
            "byteLength": 112,
            "byteOffset": 2768,
            "target": 34962
        },
        {
            "buffer": 0,
            "byteLength": 224,
            "byteOffset": 2880,
            "target": 34962
        },
        {
            "buffer": 0,
            "byteLength": 132,
            "byteOffset": 3104,
            "target": 34963
        },
        {
            "buffer": 0,
            "byteLength": 564,
            "byteOffset": 3236,
            "target": 34962
        },
        {
            "buffer": 0,
            "byteLength": 564,
            "byteOffset": 3800,
            "target": 34962
        },
        {
            "buffer": 0,
            "byteLength": 376,
            "byteOffset": 4364,
            "target": 34962
        },
        {
            "buffer": 0,
            "byteLength": 188,
            "byteOffset": 4740,
            "target": 34962
        },
        {
            "buffer": 0,
            "byteLength": 376,
            "byteOffset": 4928,
            "target": 34962
        },
        {
            "buffer": 0,
            "byteLength": 318,
            "byteOffset": 5304,
            "target": 34963
        }
    ],
    "samplers": [
        {
            "magFilter": 9729,
            "minFilter": 9987
        }
    ],
    "buffers": [
        {
            "byteLength": 5624,
            "uri": "LI-bird_house-tall_yellow_02.bin"
        }
    ]
}