{
    "asset": {
        "generator": "Khronos glTF Blender I/O v4.5.15",
        "version": "2.0"
    },
    "scene": 0,
    "scenes": [
        {
            "extras": {
                "gltfIOGodotAssetProperties": {
                    "export_type": 2,
                    "root_type": 0,
                    "append_parent_collection": 1,
                    "asset_name": "LI-bird_house-small_green_01"
                },
                "asset_type": "ASSET",
                "root_type": "NONE",
                "asset_id": "949dca4c4b3a7e53"
            },
            "name": "LI-bird_house-small_green_01",
            "nodes": [
                0,
                1,
                2,
                3
            ]
        }
    ],
    "nodes": [
        {
            "mesh": 0,
            "name": "GEO-bird_house-roof_blue-flat",
            "rotation": [
                0.05195347219705582,
                0.7068397998809814,
                -0.01942903734743595,
                0.7051956057548523
            ],
            "scale": [
                1.4056288003921509,
                1.5600001811981201,
                1.559999942779541
            ],
            "translation": [
                0.013592291623353958,
                -0.11949189752340317,
                0.197417214512825
            ]
        },
        {
            "mesh": 1,
            "name": "GEO-bird_house-hook_01",
            "rotation": [
                0.023014307022094727,
                0.0007831778493709862,
                -0.034001145511865616,
                0.9991564750671387
            ],
            "scale": [
                1.5600001811981201,
                1.559999942779541,
                1.5600001811981201
            ],
            "translation": [
                -0.00080194475594908,
                -0.1292993724346161,
                0.024610763415694237
            ]
        },
        {
            "mesh": 2,
            "name": "GEO-bird_house-body_green.001",
            "rotation": [
                0.023027624934911728,
                0,
                0,
                0.9997349381446838
            ],
            "scale": [
                1.2000000476837158,
                1.2000000476837158,
                1.2000000476837158
            ],
            "translation": [
                -0.03005547635257244,
                -0.556678295135498,
                0.12275028973817825
            ]
        },
        {
            "mesh": 3,
            "name": "GEO-bird_house-porch_01.001",
            "rotation": [
                0.03326890245079994,
                -0.01700335368514061,
                -0.001986342715099454,
                0.9992998242378235
            ],
            "scale": [
                0.7600017189979553,
                0.7600018978118896,
                0.7600018978118896
            ],
            "translation": [
                -0.03035903163254261,
                -0.706571638584137,
                0.28057700395584106
            ]
        }
    ],
    "materials": [
        {
            "alphaMode": "BLEND",
            "doubleSided": true,
            "emissiveFactor": [
                1,
                1,
                1
            ],
            "extras": {
                "asset_id": "691f6905cea49762",
                "material_info": {
                    "albedo_color": [
                        1.0,
                        1.0,
                        1.0,
                        1.0
                    ],
                    "edge_alpha": 1.0,
                    "alpha_influence": 0.0,
                    "backface_color": 0.0,
                    "roughness": 0.8824701309204102,
                    "metallic": 0.0,
                    "displacement_strength": 0.0,
                    "displacement_scale": 1.0,
                    "paper_color": [
                        1.0,
                        1.0,
                        1.0,
                        1.0
                    ],
                    "wear_strength": 0.0,
                    "wear_start": 0.0,
                    "wear_end": 1.0,
                    "wear_distortion_strength": 0.5,
                    "wear_distortion_scale": 100.0,
                    "emission_color": [
                        1.0,
                        1.0,
                        1.0,
                        1.0
                    ],
                    "emission_strength": 0.0,
                    "normal_strength": 0.20000000298023224,
                    "normal_use_uv2": 0.0
                }
            },
            "name": "bird_houses",
            "normalTexture": {
                "index": 0
            },
            "pbrMetallicRoughness": {
                "baseColorTexture": {
                    "index": 1
                }
            }
        }
    ],
    "meshes": [
        {
            "name": "Plane.009",
            "primitives": [
                {
                    "attributes": {
                        "POSITION": 0,
                        "NORMAL": 1,
                        "TEXCOORD_0": 2,
                        "COLOR_0": 3,
                        "COLOR_1": 4
                    },
                    "indices": 5,
                    "material": 0
                }
            ]
        },
        {
            "name": "Plane.012",
            "primitives": [
                {
                    "attributes": {
                        "POSITION": 6,
                        "NORMAL": 7,
                        "TEXCOORD_0": 8,
                        "COLOR_0": 9,
                        "COLOR_1": 10
                    },
                    "indices": 11,
                    "material": 0
                }
            ]
        },
        {
            "name": "Plane.006",
            "primitives": [
                {
                    "attributes": {
                        "POSITION": 12,
                        "NORMAL": 13,
                        "TEXCOORD_0": 14,
                        "COLOR_0": 15,
                        "COLOR_1": 16
                    },
                    "indices": 17,
                    "material": 0
                }
            ]
        },
        {
            "name": "Plane.008",
            "primitives": [
                {
                    "attributes": {
                        "POSITION": 18,
                        "NORMAL": 19,
                        "TEXCOORD_0": 20,
                        "COLOR_0": 21,
                        "COLOR_1": 22
                    },
                    "indices": 23,
                    "material": 0
                }
            ]
        }
    ],
    "textures": [
        {
            "sampler": 0,
            "source": 0
        },
        {
            "sampler": 0,
            "source": 1
        }
    ],
    "images": [
        {
            "extras": {
                "source_path": "assets/textures/paper_rough_large-normal.png"
            },
            "mimeType": "image/png",
            "name": "paper_rough_large-normal",
            "uri": "../../textures/paper_rough_large-normal.png"
        },
        {
            "extras": {
                "source_path": "assets/lib/textures/bird_houses_albedo.png"
            },
            "mimeType": "image/png",
            "name": "bird_houses_albedo",
            "uri": "../textures/bird_houses_albedo.png"
        }
    ],
    "accessors": [
        {
            "bufferView": 0,
            "componentType": 5126,
            "count": 35,
            "max": [
                0.12792269885540009,
                5.960464477539063e-08,
                0.24893982708454132
            ],
            "min": [
                -0.137541726231575,
                -0.25974786281585693,
                -0.2521405816078186
            ],
            "type": "VEC3"
        },
        {
            "bufferView": 1,
            "componentType": 5126,
            "count": 35,
            "type": "VEC3"
        },
        {
            "bufferView": 2,
            "componentType": 5126,
            "count": 35,
            "type": "VEC2"
        },
        {
            "bufferView": 3,
            "componentType": 5121,
            "count": 35,
            "normalized": true,
            "type": "VEC4"
        },
        {
            "bufferView": 4,
            "componentType": 5123,
            "count": 35,
            "normalized": true,
            "type": "VEC4"
        },
        {
            "bufferView": 5,
            "componentType": 5123,
            "count": 66,
            "type": "SCALAR"
        },
        {
            "bufferView": 6,
            "componentType": 5126,
            "count": 43,
            "max": [
                0.03689006343483925,
                0.12659558653831482,
                -0.001283705118112266
            ],
            "min": [
                -0.05572022497653961,
                -0.005266375839710236,
                -0.020904215052723885
            ],
            "type": "VEC3"
        },
        {
            "bufferView": 7,
            "componentType": 5126,
            "count": 43,
            "type": "VEC3"
        },
        {
            "bufferView": 8,
            "componentType": 5126,
            "count": 43,
            "type": "VEC2"
        },
        {
            "bufferView": 9,
            "componentType": 5121,
            "count": 43,
            "normalized": true,
            "type": "VEC4"
        },
        {
            "bufferView": 10,
            "componentType": 5123,
            "count": 43,
            "normalized": true,
            "type": "VEC4"
        },
        {
            "bufferView": 11,
            "componentType": 5123,
            "count": 117,
            "type": "SCALAR"
        },
        {
            "bufferView": 12,
            "componentType": 5126,
            "count": 27,
            "max": [
                0.253167986869812,
                0.34603822231292725,
                0.1471998542547226
            ],
            "min": [
                -0.2573492228984833,
                -0.16348519921302795,
                -0.08497529476881027
            ],
            "type": "VEC3"
        },
        {
            "bufferView": 13,
            "componentType": 5126,
            "count": 27,
            "type": "VEC3"
        },
        {
            "bufferView": 14,
            "componentType": 5126,
            "count": 27,
            "type": "VEC2"
        },
        {
            "bufferView": 15,
            "componentType": 5121,
            "count": 27,
            "normalized": true,
            "type": "VEC4"
        },
        {
            "bufferView": 16,
            "componentType": 5123,
            "count": 27,
            "normalized": true,
            "type": "VEC4"
        },
        {
            "bufferView": 17,
            "componentType": 5123,
            "count": 66,
            "type": "SCALAR"
        },
        {
            "bufferView": 18,
            "componentType": 5126,
            "count": 28,
            "max": [
                0.03193913400173187,
                0.03159160166978836,
                0.24455328285694122
            ],
            "min": [
                -0.037264615297317505,
                -0.02568097598850727,
                0.00010533654130995274
            ],
            "type": "VEC3"
        },
        {
            "bufferView": 19,
            "componentType": 5126,
            "count": 28,
            "type": "VEC3"
        },
        {
            "bufferView": 20,
            "componentType": 5126,
            "count": 28,
            "type": "VEC2"
        },
        {
            "bufferView": 21,
            "componentType": 5121,
            "count": 28,
            "normalized": true,
            "type": "VEC4"
        },
        {
            "bufferView": 22,
            "componentType": 5123,
            "count": 28,
            "normalized": true,
            "type": "VEC4"
        },
        {
            "bufferView": 23,
            "componentType": 5123,
            "count": 66,
            "type": "SCALAR"
        }
    ],
    "bufferViews": [
        {
            "buffer": 0,
            "byteLength": 420,
            "byteOffset": 0,
            "target": 34962
        },
        {
            "buffer": 0,
            "byteLength": 420,
            "byteOffset": 420,
            "target": 34962
        },
        {
            "buffer": 0,
            "byteLength": 280,
            "byteOffset": 840,
            "target": 34962
        },
        {
            "buffer": 0,
            "byteLength": 140,
            "byteOffset": 1120,
            "target": 34962
        },
        {
            "buffer": 0,
            "byteLength": 280,
            "byteOffset": 1260,
            "target": 34962
        },
        {
            "buffer": 0,
            "byteLength": 132,
            "byteOffset": 1540,
            "target": 34963
        },
        {
            "buffer": 0,
            "byteLength": 516,
            "byteOffset": 1672,
            "target": 34962
        },
        {
            "buffer": 0,
            "byteLength": 516,
            "byteOffset": 2188,
            "target": 34962
        },
        {
            "buffer": 0,
            "byteLength": 344,
            "byteOffset": 2704,
            "target": 34962
        },
        {
            "buffer": 0,
            "byteLength": 172,
            "byteOffset": 3048,
            "target": 34962
        },
        {
            "buffer": 0,
            "byteLength": 344,
            "byteOffset": 3220,
            "target": 34962
        },
        {
            "buffer": 0,
            "byteLength": 234,
            "byteOffset": 3564,
            "target": 34963
        },
        {
            "buffer": 0,
            "byteLength": 324,
            "byteOffset": 3800,
            "target": 34962
        },
        {
            "buffer": 0,
            "byteLength": 324,
            "byteOffset": 4124,
            "target": 34962
        },
        {
            "buffer": 0,
            "byteLength": 216,
            "byteOffset": 4448,
            "target": 34962
        },
        {
            "buffer": 0,
            "byteLength": 108,
            "byteOffset": 4664,
            "target": 34962
        },
        {
            "buffer": 0,
            "byteLength": 216,
            "byteOffset": 4772,
            "target": 34962
        },
        {
            "buffer": 0,
            "byteLength": 132,
            "byteOffset": 4988,
            "target": 34963
        },
        {
            "buffer": 0,
            "byteLength": 336,
            "byteOffset": 5120,
            "target": 34962
        },
        {
            "buffer": 0,
            "byteLength": 336,
            "byteOffset": 5456,
            "target": 34962
        },
        {
            "buffer": 0,
            "byteLength": 224,
            "byteOffset": 5792,
            "target": 34962
        },
        {
            "buffer": 0,
            "byteLength": 112,
            "byteOffset": 6016,
            "target": 34962
        },
        {
            "buffer": 0,
            "byteLength": 224,
            "byteOffset": 6128,
            "target": 34962
        },
        {
            "buffer": 0,
            "byteLength": 132,
            "byteOffset": 6352,
            "target": 34963
        }
    ],
    "samplers": [
        {
            "magFilter": 9729,
            "minFilter": 9987
        }
    ],
    "buffers": [
        {
            "byteLength": 6484,
            "uri": "LI-bird_house-small_green_01.bin"
        }
    ]
}