{
    "asset": {
        "generator": "Khronos glTF Blender I/O v4.5.15",
        "version": "2.0"
    },
    "scene": 0,
    "scenes": [
        {
            "extras": {
                "gltfIOGodotAssetProperties": {
                    "export_type": 2,
                    "root_type": 0,
                    "append_parent_collection": 1,
                    "asset_name": "LI-bird_house-tall_blue_01"
                },
                "asset_type": "ASSET",
                "root_type": "NONE",
                "asset_id": "3b5554c34de78b7f"
            },
            "name": "LI-bird_house-tall_blue_01",
            "nodes": [
                0,
                1,
                2
            ]
        }
    ],
    "nodes": [
        {
            "mesh": 0,
            "name": "GEO-bird_house-roof_blue-steep",
            "rotation": [
                0,
                0.7071067094802856,
                0,
                0.70710688829422
            ],
            "scale": [
                1.5600001811981201,
                1.840828776359558,
                1.5600001811981201
            ],
            "translation": [
                0.0006148159736767411,
                -0.08759336918592453,
                0.18768908083438873
            ]
        },
        {
            "mesh": 1,
            "name": "GEO-bird_house-body_blue.001",
            "scale": [
                1.2000000476837158,
                1.2000000476837158,
                1.2000000476837158
            ],
            "translation": [
                -0.031586356461048126,
                -0.8059905171394348,
                0.15916723012924194
            ]
        },
        {
            "mesh": 2,
            "name": "GEO-bird_house-hook_01.003",
            "rotation": [
                -0.00449520954862237,
                -0.0003526554792188108,
                -0.07821261137723923,
                0.9969265460968018
            ],
            "scale": [
                1.73252272605896,
                1.7325232028961182,
                1.7325223684310913
            ],
            "translation": [
                -0.006110304966568947,
                -0.11514473706483841,
                0.0358852855861187
            ]
        }
    ],
    "materials": [
        {
            "alphaMode": "BLEND",
            "doubleSided": true,
            "emissiveFactor": [
                1,
                1,
                1
            ],
            "extras": {
                "asset_id": "691f6905cea49762",
                "material_info": {
                    "albedo_color": [
                        1.0,
                        1.0,
                        1.0,
                        1.0
                    ],
                    "edge_alpha": 1.0,
                    "alpha_influence": 0.0,
                    "backface_color": 0.0,
                    "roughness": 0.8824701309204102,
                    "metallic": 0.0,
                    "displacement_strength": 0.0,
                    "displacement_scale": 1.0,
                    "paper_color": [
                        1.0,
                        1.0,
                        1.0,
                        1.0
                    ],
                    "wear_strength": 0.0,
                    "wear_start": 0.0,
                    "wear_end": 1.0,
                    "wear_distortion_strength": 0.5,
                    "wear_distortion_scale": 100.0,
                    "emission_color": [
                        1.0,
                        1.0,
                        1.0,
                        1.0
                    ],
                    "emission_strength": 0.0,
                    "normal_strength": 0.20000000298023224,
                    "normal_use_uv2": 0.0
                }
            },
            "name": "bird_houses",
            "normalTexture": {
                "index": 0
            },
            "pbrMetallicRoughness": {
                "baseColorTexture": {
                    "index": 1
                }
            }
        }
    ],
    "meshes": [
        {
            "name": "Plane.015",
            "primitives": [
                {
                    "attributes": {
                        "POSITION": 0,
                        "NORMAL": 1,
                        "TEXCOORD_0": 2,
                        "COLOR_0": 3,
                        "COLOR_1": 4
                    },
                    "indices": 5,
                    "material": 0
                }
            ]
        },
        {
            "name": "Plane.013",
            "primitives": [
                {
                    "attributes": {
                        "POSITION": 6,
                        "NORMAL": 7,
                        "TEXCOORD_0": 8,
                        "COLOR_0": 9,
                        "COLOR_1": 10
                    },
                    "indices": 11,
                    "material": 0
                }
            ]
        },
        {
            "name": "Plane.012",
            "primitives": [
                {
                    "attributes": {
                        "POSITION": 12,
                        "NORMAL": 13,
                        "TEXCOORD_0": 14,
                        "COLOR_0": 15,
                        "COLOR_1": 16
                    },
                    "indices": 17,
                    "material": 0
                }
            ]
        }
    ],
    "textures": [
        {
            "sampler": 0,
            "source": 0
        },
        {
            "sampler": 0,
            "source": 1
        }
    ],
    "images": [
        {
            "extras": {
                "source_path": "assets/textures/paper_rough_large-normal.png"
            },
            "mimeType": "image/png",
            "name": "paper_rough_large-normal",
            "uri": "../../textures/paper_rough_large-normal.png"
        },
        {
            "extras": {
                "source_path": "assets/lib/textures/bird_houses_albedo.png"
            },
            "mimeType": "image/png",
            "name": "bird_houses_albedo",
            "uri": "../textures/bird_houses_albedo.png"
        }
    ],
    "accessors": [
        {
            "bufferView": 0,
            "componentType": 5126,
            "count": 35,
            "max": [
                0.12792269885540009,
                5.960464477539063e-08,
                0.17710185050964355
            ],
            "min": [
                -0.137541726231575,
                -0.325034499168396,
                -0.1836305856704712
            ],
            "type": "VEC3"
        },
        {
            "bufferView": 1,
            "componentType": 5126,
            "count": 35,
            "type": "VEC3"
        },
        {
            "bufferView": 2,
            "componentType": 5126,
            "count": 35,
            "type": "VEC2"
        },
        {
            "bufferView": 3,
            "componentType": 5121,
            "count": 35,
            "normalized": true,
            "type": "VEC4"
        },
        {
            "bufferView": 4,
            "componentType": 5123,
            "count": 35,
            "normalized": true,
            "type": "VEC4"
        },
        {
            "bufferView": 5,
            "componentType": 5123,
            "count": 66,
            "type": "SCALAR"
        },
        {
            "bufferView": 6,
            "componentType": 5126,
            "count": 26,
            "max": [
                0.1644505262374878,
                0.4975926876068115,
                0.1353648453950882
            ],
            "min": [
                -0.1230371817946434,
                -0.40627288818359375,
                -0.08692433685064316
            ],
            "type": "VEC3"
        },
        {
            "bufferView": 7,
            "componentType": 5126,
            "count": 26,
            "type": "VEC3"
        },
        {
            "bufferView": 8,
            "componentType": 5126,
            "count": 26,
            "type": "VEC2"
        },
        {
            "bufferView": 9,
            "componentType": 5121,
            "count": 26,
            "normalized": true,
            "type": "VEC4"
        },
        {
            "bufferView": 10,
            "componentType": 5123,
            "count": 26,
            "normalized": true,
            "type": "VEC4"
        },
        {
            "bufferView": 11,
            "componentType": 5123,
            "count": 42,
            "type": "SCALAR"
        },
        {
            "bufferView": 12,
            "componentType": 5126,
            "count": 43,
            "max": [
                0.03689006343483925,
                0.12659558653831482,
                -0.001283705118112266
            ],
            "min": [
                -0.05572022497653961,
                -0.005266375839710236,
                -0.020904215052723885
            ],
            "type": "VEC3"
        },
        {
            "bufferView": 13,
            "componentType": 5126,
            "count": 43,
            "type": "VEC3"
        },
        {
            "bufferView": 14,
            "componentType": 5126,
            "count": 43,
            "type": "VEC2"
        },
        {
            "bufferView": 15,
            "componentType": 5121,
            "count": 43,
            "normalized": true,
            "type": "VEC4"
        },
        {
            "bufferView": 16,
            "componentType": 5123,
            "count": 43,
            "normalized": true,
            "type": "VEC4"
        },
        {
            "bufferView": 17,
            "componentType": 5123,
            "count": 117,
            "type": "SCALAR"
        }
    ],
    "bufferViews": [
        {
            "buffer": 0,
            "byteLength": 420,
            "byteOffset": 0,
            "target": 34962
        },
        {
            "buffer": 0,
            "byteLength": 420,
            "byteOffset": 420,
            "target": 34962
        },
        {
            "buffer": 0,
            "byteLength": 280,
            "byteOffset": 840,
            "target": 34962
        },
        {
            "buffer": 0,
            "byteLength": 140,
            "byteOffset": 1120,
            "target": 34962
        },
        {
            "buffer": 0,
            "byteLength": 280,
            "byteOffset": 1260,
            "target": 34962
        },
        {
            "buffer": 0,
            "byteLength": 132,
            "byteOffset": 1540,
            "target": 34963
        },
        {
            "buffer": 0,
            "byteLength": 312,
            "byteOffset": 1672,
            "target": 34962
        },
        {
            "buffer": 0,
            "byteLength": 312,
            "byteOffset": 1984,
            "target": 34962
        },
        {
            "buffer": 0,
            "byteLength": 208,
            "byteOffset": 2296,
            "target": 34962
        },
        {
            "buffer": 0,
            "byteLength": 104,
            "byteOffset": 2504,
            "target": 34962
        },
        {
            "buffer": 0,
            "byteLength": 208,
            "byteOffset": 2608,
            "target": 34962
        },
        {
            "buffer": 0,
            "byteLength": 84,
            "byteOffset": 2816,
            "target": 34963
        },
        {
            "buffer": 0,
            "byteLength": 516,
            "byteOffset": 2900,
            "target": 34962
        },
        {
            "buffer": 0,
            "byteLength": 516,
            "byteOffset": 3416,
            "target": 34962
        },
        {
            "buffer": 0,
            "byteLength": 344,
            "byteOffset": 3932,
            "target": 34962
        },
        {
            "buffer": 0,
            "byteLength": 172,
            "byteOffset": 4276,
            "target": 34962
        },
        {
            "buffer": 0,
            "byteLength": 344,
            "byteOffset": 4448,
            "target": 34962
        },
        {
            "buffer": 0,
            "byteLength": 234,
            "byteOffset": 4792,
            "target": 34963
        }
    ],
    "samplers": [
        {
            "magFilter": 9729,
            "minFilter": 9987
        }
    ],
    "buffers": [
        {
            "byteLength": 5028,
            "uri": "LI-bird_house-tall_blue_01.bin"
        }
    ]
}