{
    "asset": {
        "generator": "Khronos glTF Blender I/O v4.5.15",
        "version": "2.0"
    },
    "scene": 0,
    "scenes": [
        {
            "extras": {
                "gltfIOGodotAssetProperties": {
                    "export_type": 2,
                    "root_type": 2,
                    "append_parent_collection": 1,
                    "asset_name": "PR-traffic_cone"
                },
                "asset_type": "ASSET",
                "root_type": "PASS_THROUGH",
                "asset_id": "b3d196a0226e5a33"
            },
            "name": "PR-traffic_cone",
            "nodes": [
                0,
                6
            ]
        }
    ],
    "nodes": [
        {
            "extras": {
                "booleans": {},
                "ant_landscape": {},
                "collision_info": {
                    "type": "PRIMITIVE",
                    "shape": 3,
                    "radius": 0.5,
                    "height": 1.309999942779541,
                    "size": [
                        1.0,
                        1.0,
                        1.0
                    ]
                }
            },
            "name": "COL-collision_primitive",
            "translation": [
                -0.011373120360076427,
                0.24122609198093414,
                0.030489642173051834
            ]
        },
        {
            "extras": {
                "ant_landscape": {}
            },
            "mesh": 0,
            "name": "GEO-traffic_cone",
            "rotation": [
                0,
                -1.1920928955078125e-07,
                0,
                1
            ],
            "translation": [
                0,
                0.11143426597118378,
                0
            ]
        },
        {
            "children": [
                1
            ],
            "name": "Pivot"
        },
        {
            "children": [
                2
            ],
            "name": "Cone",
            "rotation": [
                0,
                1.1920928955078125e-07,
                0,
                1
            ]
        },
        {
            "children": [
                3
            ],
            "name": "SubRoot"
        },
        {
            "children": [
                4
            ],
            "name": "Root"
        },
        {
            "children": [
                5
            ],
            "extras": {
                "cloudrig": {}
            },
            "name": "RIG-traffic_cone"
        }
    ],
    "materials": [
        {
            "alphaMode": "BLEND",
            "doubleSided": true,
            "emissiveFactor": [
                1,
                1,
                1
            ],
            "extras": {
                "material_info": {
                    "albedo_color": [
                        1.0,
                        1.0,
                        1.0,
                        1.0
                    ],
                    "alpha": 1.0,
                    "edge_alpha": 1.0,
                    "alpha_influence": 0.0,
                    "backface_color": 0.0,
                    "roughness": 0.8741722106933594,
                    "metallic": 0.0,
                    "displacement_strength": 0.0,
                    "displacement_scale": 1.0,
                    "paper_color": [
                        1.0,
                        1.0,
                        1.0,
                        1.0
                    ],
                    "wear_strength": 0.0,
                    "wear_start": 0.0,
                    "wear_end": 1.0,
                    "wear_distortion_strength": 0.5,
                    "wear_distortion_scale": 100.0,
                    "emission_color": [
                        1.0,
                        1.0,
                        1.0,
                        1.0
                    ],
                    "emission_strength": 0.0,
                    "normal_strength": 0.20000000298023224
                },
                "asset_id": "90a56301314cd678"
            },
            "name": "traffic_cone",
            "normalTexture": {
                "index": 0,
                "texCoord": 1
            },
            "pbrMetallicRoughness": {
                "baseColorTexture": {
                    "index": 1
                }
            }
        }
    ],
    "meshes": [
        {
            "name": "Plane.013",
            "primitives": [
                {
                    "attributes": {
                        "POSITION": 0,
                        "NORMAL": 1,
                        "TEXCOORD_0": 2,
                        "TEXCOORD_1": 3
                    },
                    "indices": 4,
                    "material": 0
                }
            ]
        }
    ],
    "textures": [
        {
            "sampler": 0,
            "source": 0
        },
        {
            "sampler": 0,
            "source": 1
        }
    ],
    "images": [
        {
            "extras": {
                "source_path": "assets/textures/paper_rough_medium-normal.png"
            },
            "mimeType": "image/png",
            "name": "paper_rough_medium-normal",
            "uri": "../../textures/paper_rough_medium-normal.png"
        },
        {
            "extras": {
                "source_path": "assets/props/traffic_cone/textures/traffic_cone_albedo.png"
            },
            "mimeType": "image/png",
            "name": "traffic_cone_albedo",
            "uri": "textures/traffic_cone_albedo.png"
        }
    ],
    "skins": [
        {
            "inverseBindMatrices": 5,
            "joints": [
                5,
                4,
                3,
                2
            ],
            "name": "RIG-traffic_cone"
        }
    ],
    "accessors": [
        {
            "bufferView": 0,
            "componentType": 5126,
            "count": 163,
            "max": [
                0.37809494137763977,
                0.618528425693512,
                0.3494568467140198
            ],
            "min": [
                -0.4017079174518585,
                -0.10765810310840607,
                -0.33874496817588806
            ],
            "type": "VEC3"
        },
        {
            "bufferView": 1,
            "componentType": 5126,
            "count": 163,
            "type": "VEC3"
        },
        {
            "bufferView": 2,
            "componentType": 5126,
            "count": 163,
            "type": "VEC2"
        },
        {
            "bufferView": 3,
            "componentType": 5126,
            "count": 163,
            "type": "VEC2"
        },
        {
            "bufferView": 4,
            "componentType": 5123,
            "count": 648,
            "type": "SCALAR"
        },
        {
            "bufferView": 5,
            "componentType": 5126,
            "count": 4,
            "type": "MAT4"
        }
    ],
    "bufferViews": [
        {
            "buffer": 0,
            "byteLength": 1956,
            "byteOffset": 0,
            "target": 34962
        },
        {
            "buffer": 0,
            "byteLength": 1956,
            "byteOffset": 1956,
            "target": 34962
        },
        {
            "buffer": 0,
            "byteLength": 1304,
            "byteOffset": 3912,
            "target": 34962
        },
        {
            "buffer": 0,
            "byteLength": 1304,
            "byteOffset": 5216,
            "target": 34962
        },
        {
            "buffer": 0,
            "byteLength": 1296,
            "byteOffset": 6520,
            "target": 34963
        },
        {
            "buffer": 0,
            "byteLength": 256,
            "byteOffset": 7816
        }
    ],
    "samplers": [
        {
            "magFilter": 9729,
            "minFilter": 9987
        }
    ],
    "buffers": [
        {
            "byteLength": 8072,
            "uri": "PR-traffic_cone.bin"
        }
    ]
}