{
    "asset": {
        "generator": "Khronos glTF Blender I/O v4.5.14",
        "version": "2.0"
    },
    "scene": 0,
    "scenes": [
        {
            "extras": {
                "gltfIOGodotAssetProperties": {
                    "export_type": 2,
                    "root_type": 2,
                    "append_parent_collection": 1,
                    "asset_name": "LI-snow_ripped_pile_005"
                },
                "asset_type": "ASSET",
                "root_type": "PASS_THROUGH",
                "asset_id": "84374a84aac7abdf"
            },
            "name": "LI-snow_ripped_pile_005",
            "nodes": [
                0,
                1
            ]
        }
    ],
    "nodes": [
        {
            "mesh": 0,
            "name": "GEO-snow_ripped_pile-005",
            "rotation": [
                0,
                0.1688380390405655,
                0,
                0.9856438040733337
            ],
            "scale": [
                2.799999952316284,
                2.799999952316284,
                2.799999952316284
            ]
        },
        {
            "extras": {
                "collision_info": {
                    "type": "MESH",
                    "concave": true
                }
            },
            "mesh": 1,
            "name": "COL-snow_ripped_pile_005"
        }
    ],
    "materials": [
        {
            "alphaMode": "BLEND",
            "doubleSided": true,
            "name": "snow_ripped_piles_albedo_01",
            "normalTexture": {
                "index": 0,
                "scale": 0.5
            },
            "pbrMetallicRoughness": {
                "baseColorTexture": {
                    "index": 1
                },
                "metallicFactor": 0,
                "roughnessFactor": 0.5
            }
        }
    ],
    "meshes": [
        {
            "name": "snow_ripped_piles_albedo_01.005",
            "primitives": [
                {
                    "attributes": {
                        "POSITION": 0,
                        "NORMAL": 1,
                        "TEXCOORD_0": 2
                    },
                    "indices": 3,
                    "material": 0
                }
            ]
        },
        {
            "name": "Circle.004",
            "primitives": [
                {
                    "attributes": {
                        "POSITION": 4,
                        "NORMAL": 5,
                        "TEXCOORD_0": 6
                    },
                    "indices": 7
                }
            ]
        }
    ],
    "textures": [
        {
            "sampler": 0,
            "source": 0
        },
        {
            "sampler": 1,
            "source": 1
        }
    ],
    "images": [
        {
            "extras": {
                "source_path": "assets/lib/textures/snow_ripped_piles_normal_01.png"
            },
            "mimeType": "image/png",
            "name": "snow_ripped_piles_normal_01",
            "uri": "../../textures/snow_ripped_piles_normal_01.png"
        },
        {
            "extras": {
                "source_path": "assets/lib/textures/snow_ripped_piles_albedo_01.png"
            },
            "mimeType": "image/png",
            "name": "snow_ripped_piles_albedo_01",
            "uri": "../../textures/snow_ripped_piles_albedo_01.png"
        }
    ],
    "accessors": [
        {
            "bufferView": 0,
            "componentType": 5126,
            "count": 245,
            "max": [
                1.5821424722671509,
                0.033999986946582794,
                0.5012036561965942
            ],
            "min": [
                -1.5314894914627075,
                0,
                -0.5835270881652832
            ],
            "type": "VEC3"
        },
        {
            "bufferView": 1,
            "componentType": 5126,
            "count": 245,
            "type": "VEC3"
        },
        {
            "bufferView": 2,
            "componentType": 5126,
            "count": 245,
            "type": "VEC2"
        },
        {
            "bufferView": 3,
            "componentType": 5123,
            "count": 1344,
            "type": "SCALAR"
        },
        {
            "bufferView": 4,
            "componentType": 5126,
            "count": 192,
            "max": [
                3.484010934829712,
                1,
                1.749593734741211
            ],
            "min": [
                -3.1732864379882812,
                0,
                -2.0082826614379883
            ],
            "type": "VEC3"
        },
        {
            "bufferView": 5,
            "componentType": 5126,
            "count": 192,
            "type": "VEC3"
        },
        {
            "bufferView": 6,
            "componentType": 5126,
            "count": 192,
            "type": "VEC2"
        },
        {
            "bufferView": 7,
            "componentType": 5123,
            "count": 372,
            "type": "SCALAR"
        }
    ],
    "bufferViews": [
        {
            "buffer": 0,
            "byteLength": 2940,
            "byteOffset": 0,
            "target": 34962
        },
        {
            "buffer": 0,
            "byteLength": 2940,
            "byteOffset": 2940,
            "target": 34962
        },
        {
            "buffer": 0,
            "byteLength": 1960,
            "byteOffset": 5880,
            "target": 34962
        },
        {
            "buffer": 0,
            "byteLength": 2688,
            "byteOffset": 7840,
            "target": 34963
        },
        {
            "buffer": 0,
            "byteLength": 2304,
            "byteOffset": 10528,
            "target": 34962
        },
        {
            "buffer": 0,
            "byteLength": 2304,
            "byteOffset": 12832,
            "target": 34962
        },
        {
            "buffer": 0,
            "byteLength": 1536,
            "byteOffset": 15136,
            "target": 34962
        },
        {
            "buffer": 0,
            "byteLength": 744,
            "byteOffset": 16672,
            "target": 34963
        }
    ],
    "samplers": [
        {
            "magFilter": 9729,
            "minFilter": 9987
        },
        {
            "magFilter": 9729,
            "minFilter": 9987,
            "wrapS": 33071,
            "wrapT": 33071
        }
    ],
    "buffers": [
        {
            "byteLength": 17416,
            "uri": "LI-snow_ripped_pile_005.bin"
        }
    ]
}