{
	"asset":{
		"generator":"Khronos glTF Blender I/O v4.5.15",
		"version":"2.0"
	},
	"scene":0,
	"scenes":[
		{
			"extras":{
				"gltfIOGodotAssetProperties":{
					"export_type":1,
					"anim_type":1,
					"asset_name":"POSE-branch-pick_up_branch",
					"append_parent_collection":0
				},
				"asset_type":"ANIMATION",
				"anim_type":"ACTN",
				"ref_asset_id":"868c2289863dfb65",
				"asset_id":"1ef9be917d176ab5",
				"root_type":"NONE"
			},
			"name":"EXPORT-branch",
			"nodes":[
				8
			]
		}
	],
	"nodes":[
		{
			"name":"Arm_Left-3",
			"rotation":[
				-0.035979531705379486,
				0.0006207333062775433,
				0.07501032948493958,
				0.9965332746505737
			],
			"translation":[
				-6.257323548197746e-10,
				0.16939590871334076,
				2.3283064365386963e-10
			]
		},
		{
			"name":"Arm_Left-4",
			"rotation":[
				-0.1378139853477478,
				0.026648493483662605,
				-0.2298021763563156,
				0.9630618691444397
			],
			"scale":[
				0.9999999403953552,
				1,
				1
			],
			"translation":[
				0.010673719458281994,
				0.0666533038020134,
				-0.0060018799267709255
			]
		},
		{
			"children":[
				0,
				1
			],
			"name":"Arm_Left-2",
			"rotation":[
				0.01047090906649828,
				0.00028052949346601963,
				-0.0033471316564828157,
				0.9999395608901978
			],
			"scale":[
				0.9999998807907104,
				1,
				0.9999999403953552
			],
			"translation":[
				-1.0477378964424133e-09,
				0.1593041867017746,
				-1.9226717995479703e-09
			]
		},
		{
			"children":[
				2
			],
			"name":"Arm_Left-1",
			"rotation":[
				1.9166328968367452e-07,
				-2.988963743177919e-08,
				1.3707905033299994e-08,
				1
			],
			"scale":[
				0.9999999403953552,
				1,
				0.9999999403953552
			],
			"translation":[
				-4.016328603029251e-09,
				-4.220055416226387e-08,
				-2.0372681319713593e-09
			]
		},
		{
			"children":[
				3
			],
			"name":"Arm_Left-0",
			"rotation":[
				-0.5237883925437927,
				-0.47094056010246277,
				-0.48259392380714417,
				0.5205419659614563
			],
			"translation":[
				-0.27317655086517334,
				0.015508496202528477,
				0.01680748350918293
			]
		},
		{
			"children":[
				4
			],
			"name":"branch",
			"rotation":[
				0,
				1.1920927533992653e-07,
				0,
				1
			],
			"scale":[
				1,
				0.9999999403953552,
				1
			]
		},
		{
			"children":[
				5
			],
			"name":"SubRoot"
		},
		{
			"children":[
				6
			],
			"name":"Root"
		},
		{
			"children":[
				7
			],
			"extras":{
				"cloudrig":{},
				"ant_landscape":{},
				"active_selection_set":7,
				"rigify_owner_rig":{}
			},
			"name":"RIG-branch"
		}
	],
	"animations":[
		{
			"channels":[
				{
					"sampler":0,
					"target":{
						"node":7,
						"path":"translation"
					}
				},
				{
					"sampler":1,
					"target":{
						"node":7,
						"path":"rotation"
					}
				},
				{
					"sampler":2,
					"target":{
						"node":7,
						"path":"scale"
					}
				},
				{
					"sampler":3,
					"target":{
						"node":6,
						"path":"translation"
					}
				},
				{
					"sampler":4,
					"target":{
						"node":6,
						"path":"rotation"
					}
				},
				{
					"sampler":5,
					"target":{
						"node":6,
						"path":"scale"
					}
				},
				{
					"sampler":6,
					"target":{
						"node":5,
						"path":"translation"
					}
				},
				{
					"sampler":7,
					"target":{
						"node":5,
						"path":"rotation"
					}
				},
				{
					"sampler":8,
					"target":{
						"node":5,
						"path":"scale"
					}
				},
				{
					"sampler":9,
					"target":{
						"node":4,
						"path":"translation"
					}
				},
				{
					"sampler":10,
					"target":{
						"node":4,
						"path":"rotation"
					}
				},
				{
					"sampler":11,
					"target":{
						"node":4,
						"path":"scale"
					}
				},
				{
					"sampler":12,
					"target":{
						"node":3,
						"path":"translation"
					}
				},
				{
					"sampler":13,
					"target":{
						"node":3,
						"path":"rotation"
					}
				},
				{
					"sampler":14,
					"target":{
						"node":3,
						"path":"scale"
					}
				},
				{
					"sampler":15,
					"target":{
						"node":2,
						"path":"translation"
					}
				},
				{
					"sampler":16,
					"target":{
						"node":2,
						"path":"rotation"
					}
				},
				{
					"sampler":17,
					"target":{
						"node":2,
						"path":"scale"
					}
				},
				{
					"sampler":18,
					"target":{
						"node":0,
						"path":"translation"
					}
				},
				{
					"sampler":19,
					"target":{
						"node":0,
						"path":"rotation"
					}
				},
				{
					"sampler":20,
					"target":{
						"node":0,
						"path":"scale"
					}
				},
				{
					"sampler":21,
					"target":{
						"node":1,
						"path":"translation"
					}
				},
				{
					"sampler":22,
					"target":{
						"node":1,
						"path":"rotation"
					}
				},
				{
					"sampler":23,
					"target":{
						"node":1,
						"path":"scale"
					}
				}
			],
			"name":"POSE-branch-pick_up_branch",
			"samplers":[
				{
					"input":0,
					"interpolation":"STEP",
					"output":1
				},
				{
					"input":0,
					"interpolation":"STEP",
					"output":2
				},
				{
					"input":0,
					"interpolation":"STEP",
					"output":3
				},
				{
					"input":0,
					"interpolation":"STEP",
					"output":4
				},
				{
					"input":0,
					"interpolation":"STEP",
					"output":5
				},
				{
					"input":0,
					"interpolation":"STEP",
					"output":6
				},
				{
					"input":0,
					"interpolation":"STEP",
					"output":7
				},
				{
					"input":0,
					"interpolation":"STEP",
					"output":8
				},
				{
					"input":0,
					"interpolation":"STEP",
					"output":9
				},
				{
					"input":0,
					"interpolation":"STEP",
					"output":10
				},
				{
					"input":0,
					"interpolation":"STEP",
					"output":11
				},
				{
					"input":0,
					"interpolation":"STEP",
					"output":12
				},
				{
					"input":0,
					"interpolation":"STEP",
					"output":13
				},
				{
					"input":0,
					"interpolation":"STEP",
					"output":14
				},
				{
					"input":0,
					"interpolation":"STEP",
					"output":15
				},
				{
					"input":0,
					"interpolation":"STEP",
					"output":16
				},
				{
					"input":0,
					"interpolation":"STEP",
					"output":17
				},
				{
					"input":0,
					"interpolation":"STEP",
					"output":18
				},
				{
					"input":0,
					"interpolation":"STEP",
					"output":19
				},
				{
					"input":0,
					"interpolation":"STEP",
					"output":20
				},
				{
					"input":0,
					"interpolation":"STEP",
					"output":21
				},
				{
					"input":0,
					"interpolation":"STEP",
					"output":22
				},
				{
					"input":0,
					"interpolation":"STEP",
					"output":23
				},
				{
					"input":0,
					"interpolation":"STEP",
					"output":24
				}
			]
		}
	],
	"skins":[
		{
			"inverseBindMatrices":25,
			"joints":[
				7,
				6,
				5,
				4,
				3,
				2,
				0,
				1
			],
			"name":"RIG-branch"
		}
	],
	"accessors":[
		{
			"bufferView":0,
			"componentType":5126,
			"count":1,
			"max":[
				0
			],
			"min":[
				0
			],
			"type":"SCALAR"
		},
		{
			"bufferView":1,
			"componentType":5126,
			"count":1,
			"type":"VEC3"
		},
		{
			"bufferView":2,
			"componentType":5126,
			"count":1,
			"type":"VEC4"
		},
		{
			"bufferView":3,
			"componentType":5126,
			"count":1,
			"type":"VEC3"
		},
		{
			"bufferView":4,
			"componentType":5126,
			"count":1,
			"type":"VEC3"
		},
		{
			"bufferView":5,
			"componentType":5126,
			"count":1,
			"type":"VEC4"
		},
		{
			"bufferView":6,
			"componentType":5126,
			"count":1,
			"type":"VEC3"
		},
		{
			"bufferView":7,
			"componentType":5126,
			"count":1,
			"type":"VEC3"
		},
		{
			"bufferView":8,
			"componentType":5126,
			"count":1,
			"type":"VEC4"
		},
		{
			"bufferView":9,
			"componentType":5126,
			"count":1,
			"type":"VEC3"
		},
		{
			"bufferView":10,
			"componentType":5126,
			"count":1,
			"type":"VEC3"
		},
		{
			"bufferView":11,
			"componentType":5126,
			"count":1,
			"type":"VEC4"
		},
		{
			"bufferView":12,
			"componentType":5126,
			"count":1,
			"type":"VEC3"
		},
		{
			"bufferView":13,
			"componentType":5126,
			"count":1,
			"type":"VEC3"
		},
		{
			"bufferView":14,
			"componentType":5126,
			"count":1,
			"type":"VEC4"
		},
		{
			"bufferView":15,
			"componentType":5126,
			"count":1,
			"type":"VEC3"
		},
		{
			"bufferView":16,
			"componentType":5126,
			"count":1,
			"type":"VEC3"
		},
		{
			"bufferView":17,
			"componentType":5126,
			"count":1,
			"type":"VEC4"
		},
		{
			"bufferView":18,
			"componentType":5126,
			"count":1,
			"type":"VEC3"
		},
		{
			"bufferView":19,
			"componentType":5126,
			"count":1,
			"type":"VEC3"
		},
		{
			"bufferView":20,
			"componentType":5126,
			"count":1,
			"type":"VEC4"
		},
		{
			"bufferView":21,
			"componentType":5126,
			"count":1,
			"type":"VEC3"
		},
		{
			"bufferView":22,
			"componentType":5126,
			"count":1,
			"type":"VEC3"
		},
		{
			"bufferView":23,
			"componentType":5126,
			"count":1,
			"type":"VEC4"
		},
		{
			"bufferView":24,
			"componentType":5126,
			"count":1,
			"type":"VEC3"
		},
		{
			"bufferView":25,
			"componentType":5126,
			"count":8,
			"type":"MAT4"
		}
	],
	"bufferViews":[
		{
			"buffer":0,
			"byteLength":4,
			"byteOffset":0
		},
		{
			"buffer":0,
			"byteLength":12,
			"byteOffset":4
		},
		{
			"buffer":0,
			"byteLength":16,
			"byteOffset":16
		},
		{
			"buffer":0,
			"byteLength":12,
			"byteOffset":32
		},
		{
			"buffer":0,
			"byteLength":12,
			"byteOffset":44
		},
		{
			"buffer":0,
			"byteLength":16,
			"byteOffset":56
		},
		{
			"buffer":0,
			"byteLength":12,
			"byteOffset":72
		},
		{
			"buffer":0,
			"byteLength":12,
			"byteOffset":84
		},
		{
			"buffer":0,
			"byteLength":16,
			"byteOffset":96
		},
		{
			"buffer":0,
			"byteLength":12,
			"byteOffset":112
		},
		{
			"buffer":0,
			"byteLength":12,
			"byteOffset":124
		},
		{
			"buffer":0,
			"byteLength":16,
			"byteOffset":136
		},
		{
			"buffer":0,
			"byteLength":12,
			"byteOffset":152
		},
		{
			"buffer":0,
			"byteLength":12,
			"byteOffset":164
		},
		{
			"buffer":0,
			"byteLength":16,
			"byteOffset":176
		},
		{
			"buffer":0,
			"byteLength":12,
			"byteOffset":192
		},
		{
			"buffer":0,
			"byteLength":12,
			"byteOffset":204
		},
		{
			"buffer":0,
			"byteLength":16,
			"byteOffset":216
		},
		{
			"buffer":0,
			"byteLength":12,
			"byteOffset":232
		},
		{
			"buffer":0,
			"byteLength":12,
			"byteOffset":244
		},
		{
			"buffer":0,
			"byteLength":16,
			"byteOffset":256
		},
		{
			"buffer":0,
			"byteLength":12,
			"byteOffset":272
		},
		{
			"buffer":0,
			"byteLength":12,
			"byteOffset":284
		},
		{
			"buffer":0,
			"byteLength":16,
			"byteOffset":296
		},
		{
			"buffer":0,
			"byteLength":12,
			"byteOffset":312
		},
		{
			"buffer":0,
			"byteLength":512,
			"byteOffset":324
		}
	],
	"buffers":[
		{
			"byteLength":836,
			"uri":"POSE-branch-pick_up_branch.bin"
		}
	]
}
