{
	"asset":{
		"generator":"Khronos glTF Blender I/O v4.5.15",
		"version":"2.0"
	},
	"scene":0,
	"scenes":[
		{
			"extras":{
				"gltfIOGodotAssetProperties":{
					"export_type":1,
					"anim_type":3,
					"asset_name":"LOOP-fish-swim",
					"append_parent_collection":0
				},
				"asset_type":"ANIMATION",
				"anim_type":"LOOP",
				"ref_asset_id":"eddb0002a034d9e0",
				"asset_id":"7bacc109a92070f6",
				"root_type":"NONE"
			},
			"name":"EXPORT-fish",
			"nodes":[
				14
			]
		}
	],
	"nodes":[
		{
			"name":"head",
			"rotation":[
				1,
				3.3306860145344147e-16,
				-3.1391647326017846e-07,
				9.313224325069314e-08
			],
			"translation":[
				0,
				0.001999989151954651,
				0
			]
		},
		{
			"name":"tail2",
			"rotation":[
				3.552713678800501e-15,
				0,
				0,
				1
			],
			"translation":[
				0,
				0.12000003457069397,
				0
			]
		},
		{
			"children":[
				1
			],
			"name":"tail1",
			"rotation":[
				3.552713678800501e-15,
				0,
				0,
				1
			],
			"translation":[
				0,
				0.14000001549720764,
				0
			]
		},
		{
			"children":[
				2
			],
			"name":"spine3",
			"rotation":[
				3.552713678800501e-15,
				0,
				0,
				1
			],
			"translation":[
				0,
				0.14000001549720764,
				0
			]
		},
		{
			"children":[
				3
			],
			"name":"spine2",
			"rotation":[
				3.552713678800501e-15,
				0,
				0,
				1
			],
			"translation":[
				0,
				0.25999999046325684,
				0
			]
		},
		{
			"name":"fin1-R",
			"rotation":[
				-0.10406894236803055,
				-0.08160749822854996,
				0.6042477488517761,
				0.7857446074485779
			],
			"scale":[
				0.9999999403953552,
				0.9999998807907104,
				1
			],
			"translation":[
				-0.05999999865889549,
				0.0899999588727951,
				-0.10000000149011612
			]
		},
		{
			"name":"fin2-R",
			"rotation":[
				-0.03405888006091118,
				-0.054071567952632904,
				0.5454657673835754,
				0.835693359375
			],
			"translation":[
				-0.04999999701976776,
				0.23999997973442078,
				-0.12000000476837158
			]
		},
		{
			"name":"fin1-L",
			"rotation":[
				-0.10406894236803055,
				0.08160749822854996,
				-0.6042477488517761,
				0.7857446074485779
			],
			"scale":[
				0.9999999403953552,
				0.9999998807907104,
				1
			],
			"translation":[
				0.05999999865889549,
				0.0899999588727951,
				-0.10000000149011612
			]
		},
		{
			"name":"fin2-L",
			"rotation":[
				-0.03405888006091118,
				0.054071567952632904,
				-0.5454657673835754,
				0.835693359375
			],
			"translation":[
				0.04999999701976776,
				0.23999997973442078,
				-0.12000000476837158
			]
		},
		{
			"name":"fin_top",
			"rotation":[
				0.6053724884986877,
				-1.6627950948159542e-23,
				-1.3441970827606398e-16,
				0.7959423065185547
			],
			"scale":[
				1,
				1.0000001192092896,
				1.0000001192092896
			],
			"translation":[
				3.203509377634551e-17,
				0.28925028443336487,
				0.14427323639392853
			]
		},
		{
			"children":[
				4,
				5,
				6,
				7,
				8,
				9
			],
			"name":"spine1",
			"rotation":[
				3.552713678800501e-15,
				0,
				0,
				1
			],
			"translation":[
				0,
				0.001999989151954651,
				0
			]
		},
		{
			"children":[
				0,
				10
			],
			"name":"body",
			"rotation":[
				-0.7071067094802856,
				0,
				0,
				0.7071068286895752
			],
			"scale":[
				1,
				0.9999999403953552,
				0.9999999403953552
			],
			"translation":[
				-2.664535364979494e-17,
				0,
				0.15199999511241913
			]
		},
		{
			"children":[
				11
			],
			"name":"subroot"
		},
		{
			"children":[
				12
			],
			"name":"root"
		},
		{
			"children":[
				13
			],
			"extras":{
				"rigify_owner_rig":{}
			},
			"name":"RIG-fish"
		}
	],
	"animations":[
		{
			"channels":[
				{
					"sampler":0,
					"target":{
						"node":13,
						"path":"translation"
					}
				},
				{
					"sampler":1,
					"target":{
						"node":13,
						"path":"rotation"
					}
				},
				{
					"sampler":2,
					"target":{
						"node":13,
						"path":"scale"
					}
				},
				{
					"sampler":3,
					"target":{
						"node":12,
						"path":"translation"
					}
				},
				{
					"sampler":4,
					"target":{
						"node":12,
						"path":"rotation"
					}
				},
				{
					"sampler":5,
					"target":{
						"node":12,
						"path":"scale"
					}
				},
				{
					"sampler":6,
					"target":{
						"node":11,
						"path":"translation"
					}
				},
				{
					"sampler":7,
					"target":{
						"node":11,
						"path":"rotation"
					}
				},
				{
					"sampler":8,
					"target":{
						"node":11,
						"path":"scale"
					}
				},
				{
					"sampler":9,
					"target":{
						"node":0,
						"path":"translation"
					}
				},
				{
					"sampler":10,
					"target":{
						"node":0,
						"path":"rotation"
					}
				},
				{
					"sampler":11,
					"target":{
						"node":0,
						"path":"scale"
					}
				},
				{
					"sampler":12,
					"target":{
						"node":10,
						"path":"translation"
					}
				},
				{
					"sampler":13,
					"target":{
						"node":10,
						"path":"rotation"
					}
				},
				{
					"sampler":14,
					"target":{
						"node":10,
						"path":"scale"
					}
				},
				{
					"sampler":15,
					"target":{
						"node":4,
						"path":"translation"
					}
				},
				{
					"sampler":16,
					"target":{
						"node":4,
						"path":"rotation"
					}
				},
				{
					"sampler":17,
					"target":{
						"node":4,
						"path":"scale"
					}
				},
				{
					"sampler":18,
					"target":{
						"node":3,
						"path":"translation"
					}
				},
				{
					"sampler":19,
					"target":{
						"node":3,
						"path":"rotation"
					}
				},
				{
					"sampler":20,
					"target":{
						"node":3,
						"path":"scale"
					}
				},
				{
					"sampler":21,
					"target":{
						"node":2,
						"path":"translation"
					}
				},
				{
					"sampler":22,
					"target":{
						"node":2,
						"path":"rotation"
					}
				},
				{
					"sampler":23,
					"target":{
						"node":2,
						"path":"scale"
					}
				},
				{
					"sampler":24,
					"target":{
						"node":1,
						"path":"translation"
					}
				},
				{
					"sampler":25,
					"target":{
						"node":1,
						"path":"rotation"
					}
				},
				{
					"sampler":26,
					"target":{
						"node":1,
						"path":"scale"
					}
				},
				{
					"sampler":27,
					"target":{
						"node":5,
						"path":"translation"
					}
				},
				{
					"sampler":28,
					"target":{
						"node":5,
						"path":"rotation"
					}
				},
				{
					"sampler":29,
					"target":{
						"node":5,
						"path":"scale"
					}
				},
				{
					"sampler":30,
					"target":{
						"node":6,
						"path":"translation"
					}
				},
				{
					"sampler":31,
					"target":{
						"node":6,
						"path":"rotation"
					}
				},
				{
					"sampler":32,
					"target":{
						"node":6,
						"path":"scale"
					}
				},
				{
					"sampler":33,
					"target":{
						"node":7,
						"path":"translation"
					}
				},
				{
					"sampler":34,
					"target":{
						"node":7,
						"path":"rotation"
					}
				},
				{
					"sampler":35,
					"target":{
						"node":7,
						"path":"scale"
					}
				},
				{
					"sampler":36,
					"target":{
						"node":8,
						"path":"translation"
					}
				},
				{
					"sampler":37,
					"target":{
						"node":8,
						"path":"rotation"
					}
				},
				{
					"sampler":38,
					"target":{
						"node":8,
						"path":"scale"
					}
				},
				{
					"sampler":39,
					"target":{
						"node":9,
						"path":"translation"
					}
				},
				{
					"sampler":40,
					"target":{
						"node":9,
						"path":"rotation"
					}
				},
				{
					"sampler":41,
					"target":{
						"node":9,
						"path":"scale"
					}
				}
			],
			"name":"LOOP-fish-swim",
			"samplers":[
				{
					"input":0,
					"interpolation":"STEP",
					"output":1
				},
				{
					"input":0,
					"interpolation":"STEP",
					"output":2
				},
				{
					"input":0,
					"interpolation":"STEP",
					"output":3
				},
				{
					"input":0,
					"interpolation":"STEP",
					"output":4
				},
				{
					"input":5,
					"interpolation":"STEP",
					"output":6
				},
				{
					"input":0,
					"interpolation":"STEP",
					"output":7
				},
				{
					"input":0,
					"interpolation":"STEP",
					"output":8
				},
				{
					"input":5,
					"interpolation":"STEP",
					"output":9
				},
				{
					"input":0,
					"interpolation":"STEP",
					"output":10
				},
				{
					"input":5,
					"interpolation":"STEP",
					"output":11
				},
				{
					"input":5,
					"interpolation":"STEP",
					"output":12
				},
				{
					"input":0,
					"interpolation":"STEP",
					"output":13
				},
				{
					"input":0,
					"interpolation":"STEP",
					"output":14
				},
				{
					"input":5,
					"interpolation":"STEP",
					"output":15
				},
				{
					"input":0,
					"interpolation":"STEP",
					"output":16
				},
				{
					"input":0,
					"interpolation":"STEP",
					"output":17
				},
				{
					"input":5,
					"interpolation":"STEP",
					"output":18
				},
				{
					"input":0,
					"interpolation":"STEP",
					"output":19
				},
				{
					"input":0,
					"interpolation":"STEP",
					"output":20
				},
				{
					"input":5,
					"interpolation":"STEP",
					"output":21
				},
				{
					"input":0,
					"interpolation":"STEP",
					"output":22
				},
				{
					"input":0,
					"interpolation":"STEP",
					"output":23
				},
				{
					"input":5,
					"interpolation":"STEP",
					"output":24
				},
				{
					"input":0,
					"interpolation":"STEP",
					"output":25
				},
				{
					"input":0,
					"interpolation":"STEP",
					"output":26
				},
				{
					"input":5,
					"interpolation":"STEP",
					"output":27
				},
				{
					"input":0,
					"interpolation":"STEP",
					"output":28
				},
				{
					"input":0,
					"interpolation":"STEP",
					"output":29
				},
				{
					"input":5,
					"interpolation":"STEP",
					"output":30
				},
				{
					"input":0,
					"interpolation":"STEP",
					"output":31
				},
				{
					"input":0,
					"interpolation":"STEP",
					"output":32
				},
				{
					"input":5,
					"interpolation":"STEP",
					"output":33
				},
				{
					"input":0,
					"interpolation":"STEP",
					"output":34
				},
				{
					"input":0,
					"interpolation":"STEP",
					"output":35
				},
				{
					"input":5,
					"interpolation":"STEP",
					"output":36
				},
				{
					"input":0,
					"interpolation":"STEP",
					"output":37
				},
				{
					"input":0,
					"interpolation":"STEP",
					"output":38
				},
				{
					"input":5,
					"interpolation":"STEP",
					"output":39
				},
				{
					"input":0,
					"interpolation":"STEP",
					"output":40
				},
				{
					"input":0,
					"interpolation":"STEP",
					"output":41
				},
				{
					"input":5,
					"interpolation":"STEP",
					"output":42
				},
				{
					"input":0,
					"interpolation":"STEP",
					"output":43
				}
			]
		}
	],
	"skins":[
		{
			"inverseBindMatrices":44,
			"joints":[
				13,
				12,
				11,
				0,
				10,
				4,
				3,
				2,
				1,
				5,
				6,
				7,
				8,
				9
			],
			"name":"RIG-fish"
		}
	],
	"accessors":[
		{
			"bufferView":0,
			"componentType":5126,
			"count":2,
			"max":[
				1.5833333333333333
			],
			"min":[
				0
			],
			"type":"SCALAR"
		},
		{
			"bufferView":1,
			"componentType":5126,
			"count":2,
			"type":"VEC3"
		},
		{
			"bufferView":2,
			"componentType":5126,
			"count":2,
			"type":"VEC4"
		},
		{
			"bufferView":3,
			"componentType":5126,
			"count":2,
			"type":"VEC3"
		},
		{
			"bufferView":4,
			"componentType":5126,
			"count":2,
			"type":"VEC3"
		},
		{
			"bufferView":5,
			"componentType":5126,
			"count":39,
			"max":[
				1.5833333333333333
			],
			"min":[
				0
			],
			"type":"SCALAR"
		},
		{
			"bufferView":6,
			"componentType":5126,
			"count":39,
			"type":"VEC4"
		},
		{
			"bufferView":7,
			"componentType":5126,
			"count":2,
			"type":"VEC3"
		},
		{
			"bufferView":8,
			"componentType":5126,
			"count":2,
			"type":"VEC3"
		},
		{
			"bufferView":9,
			"componentType":5126,
			"count":39,
			"type":"VEC4"
		},
		{
			"bufferView":10,
			"componentType":5126,
			"count":2,
			"type":"VEC3"
		},
		{
			"bufferView":11,
			"componentType":5126,
			"count":39,
			"type":"VEC3"
		},
		{
			"bufferView":12,
			"componentType":5126,
			"count":39,
			"type":"VEC4"
		},
		{
			"bufferView":13,
			"componentType":5126,
			"count":2,
			"type":"VEC3"
		},
		{
			"bufferView":14,
			"componentType":5126,
			"count":2,
			"type":"VEC3"
		},
		{
			"bufferView":15,
			"componentType":5126,
			"count":39,
			"type":"VEC4"
		},
		{
			"bufferView":16,
			"componentType":5126,
			"count":2,
			"type":"VEC3"
		},
		{
			"bufferView":17,
			"componentType":5126,
			"count":2,
			"type":"VEC3"
		},
		{
			"bufferView":18,
			"componentType":5126,
			"count":39,
			"type":"VEC4"
		},
		{
			"bufferView":19,
			"componentType":5126,
			"count":2,
			"type":"VEC3"
		},
		{
			"bufferView":20,
			"componentType":5126,
			"count":2,
			"type":"VEC3"
		},
		{
			"bufferView":21,
			"componentType":5126,
			"count":39,
			"type":"VEC4"
		},
		{
			"bufferView":22,
			"componentType":5126,
			"count":2,
			"type":"VEC3"
		},
		{
			"bufferView":23,
			"componentType":5126,
			"count":2,
			"type":"VEC3"
		},
		{
			"bufferView":24,
			"componentType":5126,
			"count":39,
			"type":"VEC4"
		},
		{
			"bufferView":25,
			"componentType":5126,
			"count":2,
			"type":"VEC3"
		},
		{
			"bufferView":26,
			"componentType":5126,
			"count":2,
			"type":"VEC3"
		},
		{
			"bufferView":27,
			"componentType":5126,
			"count":39,
			"type":"VEC4"
		},
		{
			"bufferView":28,
			"componentType":5126,
			"count":2,
			"type":"VEC3"
		},
		{
			"bufferView":29,
			"componentType":5126,
			"count":2,
			"type":"VEC3"
		},
		{
			"bufferView":30,
			"componentType":5126,
			"count":39,
			"type":"VEC4"
		},
		{
			"bufferView":31,
			"componentType":5126,
			"count":2,
			"type":"VEC3"
		},
		{
			"bufferView":32,
			"componentType":5126,
			"count":2,
			"type":"VEC3"
		},
		{
			"bufferView":33,
			"componentType":5126,
			"count":39,
			"type":"VEC4"
		},
		{
			"bufferView":34,
			"componentType":5126,
			"count":2,
			"type":"VEC3"
		},
		{
			"bufferView":35,
			"componentType":5126,
			"count":2,
			"type":"VEC3"
		},
		{
			"bufferView":36,
			"componentType":5126,
			"count":39,
			"type":"VEC4"
		},
		{
			"bufferView":37,
			"componentType":5126,
			"count":2,
			"type":"VEC3"
		},
		{
			"bufferView":38,
			"componentType":5126,
			"count":2,
			"type":"VEC3"
		},
		{
			"bufferView":39,
			"componentType":5126,
			"count":39,
			"type":"VEC4"
		},
		{
			"bufferView":40,
			"componentType":5126,
			"count":2,
			"type":"VEC3"
		},
		{
			"bufferView":41,
			"componentType":5126,
			"count":2,
			"type":"VEC3"
		},
		{
			"bufferView":42,
			"componentType":5126,
			"count":39,
			"type":"VEC4"
		},
		{
			"bufferView":43,
			"componentType":5126,
			"count":2,
			"type":"VEC3"
		},
		{
			"bufferView":44,
			"componentType":5126,
			"count":14,
			"type":"MAT4"
		}
	],
	"bufferViews":[
		{
			"buffer":0,
			"byteLength":8,
			"byteOffset":0
		},
		{
			"buffer":0,
			"byteLength":24,
			"byteOffset":8
		},
		{
			"buffer":0,
			"byteLength":32,
			"byteOffset":32
		},
		{
			"buffer":0,
			"byteLength":24,
			"byteOffset":64
		},
		{
			"buffer":0,
			"byteLength":24,
			"byteOffset":88
		},
		{
			"buffer":0,
			"byteLength":156,
			"byteOffset":112
		},
		{
			"buffer":0,
			"byteLength":624,
			"byteOffset":268
		},
		{
			"buffer":0,
			"byteLength":24,
			"byteOffset":892
		},
		{
			"buffer":0,
			"byteLength":24,
			"byteOffset":916
		},
		{
			"buffer":0,
			"byteLength":624,
			"byteOffset":940
		},
		{
			"buffer":0,
			"byteLength":24,
			"byteOffset":1564
		},
		{
			"buffer":0,
			"byteLength":468,
			"byteOffset":1588
		},
		{
			"buffer":0,
			"byteLength":624,
			"byteOffset":2056
		},
		{
			"buffer":0,
			"byteLength":24,
			"byteOffset":2680
		},
		{
			"buffer":0,
			"byteLength":24,
			"byteOffset":2704
		},
		{
			"buffer":0,
			"byteLength":624,
			"byteOffset":2728
		},
		{
			"buffer":0,
			"byteLength":24,
			"byteOffset":3352
		},
		{
			"buffer":0,
			"byteLength":24,
			"byteOffset":3376
		},
		{
			"buffer":0,
			"byteLength":624,
			"byteOffset":3400
		},
		{
			"buffer":0,
			"byteLength":24,
			"byteOffset":4024
		},
		{
			"buffer":0,
			"byteLength":24,
			"byteOffset":4048
		},
		{
			"buffer":0,
			"byteLength":624,
			"byteOffset":4072
		},
		{
			"buffer":0,
			"byteLength":24,
			"byteOffset":4696
		},
		{
			"buffer":0,
			"byteLength":24,
			"byteOffset":4720
		},
		{
			"buffer":0,
			"byteLength":624,
			"byteOffset":4744
		},
		{
			"buffer":0,
			"byteLength":24,
			"byteOffset":5368
		},
		{
			"buffer":0,
			"byteLength":24,
			"byteOffset":5392
		},
		{
			"buffer":0,
			"byteLength":624,
			"byteOffset":5416
		},
		{
			"buffer":0,
			"byteLength":24,
			"byteOffset":6040
		},
		{
			"buffer":0,
			"byteLength":24,
			"byteOffset":6064
		},
		{
			"buffer":0,
			"byteLength":624,
			"byteOffset":6088
		},
		{
			"buffer":0,
			"byteLength":24,
			"byteOffset":6712
		},
		{
			"buffer":0,
			"byteLength":24,
			"byteOffset":6736
		},
		{
			"buffer":0,
			"byteLength":624,
			"byteOffset":6760
		},
		{
			"buffer":0,
			"byteLength":24,
			"byteOffset":7384
		},
		{
			"buffer":0,
			"byteLength":24,
			"byteOffset":7408
		},
		{
			"buffer":0,
			"byteLength":624,
			"byteOffset":7432
		},
		{
			"buffer":0,
			"byteLength":24,
			"byteOffset":8056
		},
		{
			"buffer":0,
			"byteLength":24,
			"byteOffset":8080
		},
		{
			"buffer":0,
			"byteLength":624,
			"byteOffset":8104
		},
		{
			"buffer":0,
			"byteLength":24,
			"byteOffset":8728
		},
		{
			"buffer":0,
			"byteLength":24,
			"byteOffset":8752
		},
		{
			"buffer":0,
			"byteLength":624,
			"byteOffset":8776
		},
		{
			"buffer":0,
			"byteLength":24,
			"byteOffset":9400
		},
		{
			"buffer":0,
			"byteLength":896,
			"byteOffset":9424
		}
	],
	"buffers":[
		{
			"byteLength":10320,
			"uri":"LOOP-fish-swim.bin"
		}
	]
}
