{
    "asset": {
        "generator": "Khronos glTF Blender I/O v4.5.15",
        "version": "2.0"
    },
    "scene": 0,
    "scenes": [
        {
            "extras": {
                "gltfIOGodotAssetProperties": {
                    "export_type": 2,
                    "root_type": 1,
                    "append_parent_collection": 1,
                    "asset_name": "LI-tree_foliage_branch_small_003"
                },
                "asset_type": "ASSET",
                "root_type": "STATIC",
                "asset_id": "2362a775900c99b1"
            },
            "name": "LI-tree_foliage_branch_small_003",
            "nodes": [
                0
            ]
        }
    ],
    "nodes": [
        {
            "extras": {
                "ant_landscape": {}
            },
            "mesh": 0,
            "name": "GEO-tree_foliage_branch_small_003",
            "rotation": [
                -0.35833126306533813,
                0,
                0,
                0.9335945248603821
            ],
            "translation": [
                0,
                0.013117543421685696,
                0.006558772176504135
            ]
        }
    ],
    "materials": [
        {
            "alphaMode": "BLEND",
            "doubleSided": true,
            "emissiveFactor": [
                1,
                1,
                1
            ],
            "extras": {
                "asset_id": "8cafaf214130b3ed",
                "material_info": {
                    "albedo_color": [
                        1.0,
                        1.0,
                        1.0,
                        1.0
                    ],
                    "edge_alpha": 1.0,
                    "alpha_influence": 0.0,
                    "backface_color": 0.0,
                    "metallic": 0.0,
                    "displacement_strength": 0.5,
                    "displacement_scale": 1.0,
                    "paper_color": [
                        0.6488332152366638,
                        0.6860437393188477,
                        0.574231743812561,
                        1.0
                    ],
                    "wear_strength": 0.0,
                    "wear_start": 0.0,
                    "wear_end": 1.0,
                    "wear_distortion_strength": 0.5,
                    "wear_distortion_scale": 100.0,
                    "emission_color": [
                        1.0,
                        1.0,
                        1.0,
                        1.0
                    ],
                    "emission_strength": 0.0,
                    "normal_strength": 0.20000000298023224,
                    "normal_use_uv2": 1.0
                }
            },
            "name": "pine_tree",
            "normalTexture": {
                "index": 0,
                "texCoord": 1
            },
            "pbrMetallicRoughness": {
                "baseColorTexture": {
                    "index": 1
                },
                "metallicRoughnessTexture": {
                    "index": 2
                }
            }
        }
    ],
    "meshes": [
        {
            "name": "bark_foilage_atlas_01.019",
            "primitives": [
                {
                    "attributes": {
                        "POSITION": 0,
                        "NORMAL": 1,
                        "TEXCOORD_0": 2,
                        "TEXCOORD_1": 3,
                        "COLOR_0": 4,
                        "COLOR_1": 5,
                        "COLOR_2": 6
                    },
                    "indices": 7,
                    "material": 0
                }
            ]
        }
    ],
    "textures": [
        {
            "sampler": 0,
            "source": 0
        },
        {
            "sampler": 0,
            "source": 1
        },
        {
            "sampler": 0,
            "source": 2
        }
    ],
    "images": [
        {
            "extras": {
                "source_path": "assets/textures/paper_rough_256.png"
            },
            "mimeType": "image/png",
            "name": "paper_rough_256",
            "uri": "../../../textures/paper_rough_256.png"
        },
        {
            "extras": {
                "source_path": "assets/lib/textures/pine_leaves_albedo_01.png"
            },
            "mimeType": "image/png",
            "name": "pine_leaves_albedo_01",
            "uri": "../../textures/pine_leaves_albedo_01.png"
        },
        {
            "extras": {
                "source_path": "assets/lib/textures/pine_leaves_roughness_01.png"
            },
            "mimeType": "image/png",
            "name": "pine_leaves_roughness_01",
            "uri": "../../textures/pine_leaves_roughness_01.png"
        }
    ],
    "accessors": [
        {
            "bufferView": 0,
            "componentType": 5126,
            "count": 161,
            "max": [
                0.16599425673484802,
                0.0008534069638699293,
                0.5208747386932373
            ],
            "min": [
                -0.18066497147083282,
                -0.9568422436714172,
                -0.2118183672428131
            ],
            "type": "VEC3"
        },
        {
            "bufferView": 1,
            "componentType": 5126,
            "count": 161,
            "type": "VEC3"
        },
        {
            "bufferView": 2,
            "componentType": 5126,
            "count": 161,
            "type": "VEC2"
        },
        {
            "bufferView": 3,
            "componentType": 5126,
            "count": 161,
            "type": "VEC2"
        },
        {
            "bufferView": 4,
            "componentType": 5123,
            "count": 161,
            "normalized": true,
            "type": "VEC4"
        },
        {
            "bufferView": 5,
            "componentType": 5123,
            "count": 161,
            "normalized": true,
            "type": "VEC4"
        },
        {
            "bufferView": 6,
            "componentType": 5123,
            "count": 161,
            "normalized": true,
            "type": "VEC4"
        },
        {
            "bufferView": 7,
            "componentType": 5123,
            "count": 534,
            "type": "SCALAR"
        }
    ],
    "bufferViews": [
        {
            "buffer": 0,
            "byteLength": 1932,
            "byteOffset": 0,
            "target": 34962
        },
        {
            "buffer": 0,
            "byteLength": 1932,
            "byteOffset": 1932,
            "target": 34962
        },
        {
            "buffer": 0,
            "byteLength": 1288,
            "byteOffset": 3864,
            "target": 34962
        },
        {
            "buffer": 0,
            "byteLength": 1288,
            "byteOffset": 5152,
            "target": 34962
        },
        {
            "buffer": 0,
            "byteLength": 1288,
            "byteOffset": 6440,
            "target": 34962
        },
        {
            "buffer": 0,
            "byteLength": 1288,
            "byteOffset": 7728,
            "target": 34962
        },
        {
            "buffer": 0,
            "byteLength": 1288,
            "byteOffset": 9016,
            "target": 34962
        },
        {
            "buffer": 0,
            "byteLength": 1068,
            "byteOffset": 10304,
            "target": 34963
        }
    ],
    "samplers": [
        {
            "magFilter": 9729,
            "minFilter": 9987
        }
    ],
    "buffers": [
        {
            "byteLength": 11372,
            "uri": "LI-tree_foliage_branch_small_003.bin"
        }
    ]
}