{
    "asset": {
        "generator": "Khronos glTF Blender I/O v4.5.15",
        "version": "2.0"
    },
    "scene": 0,
    "scenes": [
        {
            "extras": {
                "gltfIOGodotAssetProperties": {
                    "export_type": 2,
                    "root_type": 2,
                    "append_parent_collection": 1,
                    "asset_name": "LI-bushlet_white_garland_006"
                },
                "asset_type": "ASSET",
                "root_type": "PASS_THROUGH",
                "asset_id": "f1f0c2bd86da0aa2"
            },
            "name": "LI-bushlet_white_garland_006",
            "nodes": [
                0,
                1
            ]
        }
    ],
    "nodes": [
        {
            "mesh": 0,
            "name": "GEO-bushlets_white_garland_006"
        },
        {
            "extras": {
                "collision_info": {
                    "type": "PRIMITIVE",
                    "shape": 1,
                    "radius": 0.527999997138977,
                    "height": 1.1799999475479126,
                    "size": [
                        0.7400000095367432,
                        0.11000004410743713,
                        1.2100000381469727
                    ]
                }
            },
            "name": "COL-collision_primitive.042",
            "translation": [
                -0.06272665411233902,
                0.612406849861145,
                0
            ]
        }
    ],
    "materials": [
        {
            "alphaMode": "BLEND",
            "doubleSided": true,
            "emissiveFactor": [
                1,
                1,
                1
            ],
            "extras": {
                "asset_id": "d1f69e03f81856bf",
                "material_info": {
                    "albedo_color": [
                        1.0,
                        1.0,
                        1.0,
                        1.0
                    ],
                    "edge_alpha": 1.0,
                    "alpha_influence": 0.0,
                    "backface_color": 0.0,
                    "metallic": 0.0,
                    "displacement_strength": 1.0,
                    "displacement_scale": 1.0,
                    "paper_color": [
                        0.800000011920929,
                        0.660744309425354,
                        0.5630130171775818,
                        1.0
                    ],
                    "wear_strength": 0.0,
                    "wear_start": 0.0,
                    "wear_end": 1.0,
                    "wear_distortion_strength": 0.5,
                    "wear_distortion_scale": 100.0,
                    "emission_color": [
                        1.0,
                        1.0,
                        1.0,
                        1.0
                    ],
                    "emission_strength": 0.0,
                    "normal_map": [
                        0.5,
                        0.5,
                        1.0,
                        1.0
                    ],
                    "normal_strength": 1.0,
                    "normal_use_uv2": 0.0
                }
            },
            "name": "bushlets_white_garland",
            "pbrMetallicRoughness": {
                "baseColorTexture": {
                    "index": 0
                },
                "metallicRoughnessTexture": {
                    "index": 1
                }
            }
        }
    ],
    "meshes": [
        {
            "name": "bushlets_white_garland_albedo.001",
            "primitives": [
                {
                    "attributes": {
                        "POSITION": 0,
                        "NORMAL": 1,
                        "TEXCOORD_0": 2
                    },
                    "indices": 3,
                    "material": 0
                }
            ]
        }
    ],
    "textures": [
        {
            "sampler": 0,
            "source": 0
        },
        {
            "sampler": 0,
            "source": 1
        }
    ],
    "images": [
        {
            "extras": {
                "source_path": "assets/lib/textures/bushlets_white_garland_albedo.png"
            },
            "mimeType": "image/png",
            "name": "bushlets_white_garland_albedo",
            "uri": "../../textures/bushlets_white_garland_albedo.png"
        },
        {
            "extras": {
                "source_path": "assets/lib/textures/bushlets_white_garland_roughness.png"
            },
            "mimeType": "image/png",
            "name": "bushlets_white_garland_roughness",
            "uri": "../../textures/bushlets_white_garland_roughness.png"
        }
    ],
    "accessors": [
        {
            "bufferView": 0,
            "componentType": 5126,
            "count": 22,
            "max": [
                0.4583144187927246,
                1.2542080879211426,
                6.156555087954985e-08
            ],
            "min": [
                -0.6014421582221985,
                0.007521040737628937,
                -8.480198943061623e-08
            ],
            "type": "VEC3"
        },
        {
            "bufferView": 1,
            "componentType": 5126,
            "count": 22,
            "type": "VEC3"
        },
        {
            "bufferView": 2,
            "componentType": 5126,
            "count": 22,
            "type": "VEC2"
        },
        {
            "bufferView": 3,
            "componentType": 5123,
            "count": 36,
            "type": "SCALAR"
        }
    ],
    "bufferViews": [
        {
            "buffer": 0,
            "byteLength": 264,
            "byteOffset": 0,
            "target": 34962
        },
        {
            "buffer": 0,
            "byteLength": 264,
            "byteOffset": 264,
            "target": 34962
        },
        {
            "buffer": 0,
            "byteLength": 176,
            "byteOffset": 528,
            "target": 34962
        },
        {
            "buffer": 0,
            "byteLength": 72,
            "byteOffset": 704,
            "target": 34963
        }
    ],
    "samplers": [
        {
            "magFilter": 9729,
            "minFilter": 9987,
            "wrapS": 33071,
            "wrapT": 33071
        }
    ],
    "buffers": [
        {
            "byteLength": 776,
            "uri": "LI-bushlet_white_garland_006.bin"
        }
    ]
}