{
    "asset": {
        "generator": "Khronos glTF Blender I/O v4.5.15",
        "version": "2.0"
    },
    "scene": 0,
    "scenes": [
        {
            "extras": {
                "gltfIOGodotAssetProperties": {
                    "export_type": 2,
                    "root_type": 2,
                    "append_parent_collection": 1,
                    "asset_name": "LI-bushlet_white_garland_004"
                },
                "asset_type": "ASSET",
                "root_type": "PASS_THROUGH",
                "asset_id": "4fde8c015b1e9be7"
            },
            "name": "LI-bushlet_white_garland_004",
            "nodes": [
                0,
                1
            ]
        }
    ],
    "nodes": [
        {
            "mesh": 0,
            "name": "GEO-bushlets_white_garland_004"
        },
        {
            "extras": {
                "collision_info": {
                    "type": "PRIMITIVE",
                    "shape": 1,
                    "radius": 0.6380000114440918,
                    "height": 1.1799999475479126,
                    "size": [
                        1.0480000972747803,
                        0.17900003492832184,
                        1.0
                    ]
                }
            },
            "name": "COL-collision_primitive.040",
            "rotation": [
                0,
                0.008740643970668316,
                0,
                0.999961793422699
            ],
            "translation": [
                0.18748828768730164,
                0.524772584438324,
                -0.07431328296661377
            ]
        }
    ],
    "materials": [
        {
            "alphaMode": "BLEND",
            "doubleSided": true,
            "emissiveFactor": [
                1,
                1,
                1
            ],
            "extras": {
                "asset_id": "d1f69e03f81856bf",
                "material_info": {
                    "albedo_color": [
                        1.0,
                        1.0,
                        1.0,
                        1.0
                    ],
                    "edge_alpha": 1.0,
                    "alpha_influence": 0.0,
                    "backface_color": 0.0,
                    "metallic": 0.0,
                    "displacement_strength": 1.0,
                    "displacement_scale": 1.0,
                    "paper_color": [
                        0.800000011920929,
                        0.660744309425354,
                        0.5630130171775818,
                        1.0
                    ],
                    "wear_strength": 0.0,
                    "wear_start": 0.0,
                    "wear_end": 1.0,
                    "wear_distortion_strength": 0.5,
                    "wear_distortion_scale": 100.0,
                    "emission_color": [
                        1.0,
                        1.0,
                        1.0,
                        1.0
                    ],
                    "emission_strength": 0.0,
                    "normal_map": [
                        0.5,
                        0.5,
                        1.0,
                        1.0
                    ],
                    "normal_strength": 1.0,
                    "normal_use_uv2": 0.0
                }
            },
            "name": "bushlets_white_garland",
            "pbrMetallicRoughness": {
                "baseColorTexture": {
                    "index": 0
                },
                "metallicRoughnessTexture": {
                    "index": 1
                }
            }
        }
    ],
    "meshes": [
        {
            "name": "bushlets_white_garland_albedo.003",
            "primitives": [
                {
                    "attributes": {
                        "POSITION": 0,
                        "NORMAL": 1,
                        "TEXCOORD_0": 2
                    },
                    "indices": 3,
                    "material": 0
                }
            ]
        }
    ],
    "textures": [
        {
            "sampler": 0,
            "source": 0
        },
        {
            "sampler": 0,
            "source": 1
        }
    ],
    "images": [
        {
            "extras": {
                "source_path": "assets/lib/textures/bushlets_white_garland_albedo.png"
            },
            "mimeType": "image/png",
            "name": "bushlets_white_garland_albedo",
            "uri": "../../textures/bushlets_white_garland_albedo.png"
        },
        {
            "extras": {
                "source_path": "assets/lib/textures/bushlets_white_garland_roughness.png"
            },
            "mimeType": "image/png",
            "name": "bushlets_white_garland_roughness",
            "uri": "../../textures/bushlets_white_garland_roughness.png"
        }
    ],
    "accessors": [
        {
            "bufferView": 0,
            "componentType": 5126,
            "count": 21,
            "max": [
                0.9365931749343872,
                1.0187315940856934,
                0.009727983735501766
            ],
            "min": [
                -0.5502471327781677,
                0.00560450553894043,
                -0.20490662753582
            ],
            "type": "VEC3"
        },
        {
            "bufferView": 1,
            "componentType": 5126,
            "count": 21,
            "type": "VEC3"
        },
        {
            "bufferView": 2,
            "componentType": 5126,
            "count": 21,
            "type": "VEC2"
        },
        {
            "bufferView": 3,
            "componentType": 5123,
            "count": 42,
            "type": "SCALAR"
        }
    ],
    "bufferViews": [
        {
            "buffer": 0,
            "byteLength": 252,
            "byteOffset": 0,
            "target": 34962
        },
        {
            "buffer": 0,
            "byteLength": 252,
            "byteOffset": 252,
            "target": 34962
        },
        {
            "buffer": 0,
            "byteLength": 168,
            "byteOffset": 504,
            "target": 34962
        },
        {
            "buffer": 0,
            "byteLength": 84,
            "byteOffset": 672,
            "target": 34963
        }
    ],
    "samplers": [
        {
            "magFilter": 9729,
            "minFilter": 9987,
            "wrapS": 33071,
            "wrapT": 33071
        }
    ],
    "buffers": [
        {
            "byteLength": 756,
            "uri": "LI-bushlet_white_garland_004.bin"
        }
    ]
}