{
    "asset": {
        "generator": "Khronos glTF Blender I/O v4.5.15",
        "version": "2.0"
    },
    "scene": 0,
    "scenes": [
        {
            "extras": {
                "gltfIOGodotAssetProperties": {
                    "export_type": 2,
                    "root_type": 2,
                    "append_parent_collection": 1,
                    "asset_name": "LI-bushlet_white_garland_003"
                },
                "asset_type": "ASSET",
                "root_type": "PASS_THROUGH",
                "asset_id": "be4832d39acd6197"
            },
            "name": "LI-bushlet_white_garland_003",
            "nodes": [
                0,
                1
            ]
        }
    ],
    "nodes": [
        {
            "mesh": 0,
            "name": "GEO-bushlets_white_garland_003"
        },
        {
            "extras": {
                "collision_info": {
                    "type": "PRIMITIVE",
                    "shape": 1,
                    "radius": 0.43799999356269836,
                    "height": 1.1799999475479126,
                    "size": [
                        0.6650000214576721,
                        0.13700003921985626,
                        1.2350000143051147
                    ]
                }
            },
            "name": "COL-collision_primitive.039",
            "rotation": [
                0,
                -0.09323836117982864,
                0,
                0.9956439137458801
            ],
            "translation": [
                0.28313887119293213,
                0.6312879323959351,
                0.028993034735322
            ]
        }
    ],
    "materials": [
        {
            "alphaMode": "BLEND",
            "doubleSided": true,
            "emissiveFactor": [
                1,
                1,
                1
            ],
            "extras": {
                "asset_id": "d1f69e03f81856bf",
                "material_info": {
                    "albedo_color": [
                        1.0,
                        1.0,
                        1.0,
                        1.0
                    ],
                    "edge_alpha": 1.0,
                    "alpha_influence": 0.0,
                    "backface_color": 0.0,
                    "metallic": 0.0,
                    "displacement_strength": 1.0,
                    "displacement_scale": 1.0,
                    "paper_color": [
                        0.800000011920929,
                        0.660744309425354,
                        0.5630130171775818,
                        1.0
                    ],
                    "wear_strength": 0.0,
                    "wear_start": 0.0,
                    "wear_end": 1.0,
                    "wear_distortion_strength": 0.5,
                    "wear_distortion_scale": 100.0,
                    "emission_color": [
                        1.0,
                        1.0,
                        1.0,
                        1.0
                    ],
                    "emission_strength": 0.0,
                    "normal_map": [
                        0.5,
                        0.5,
                        1.0,
                        1.0
                    ],
                    "normal_strength": 1.0,
                    "normal_use_uv2": 0.0
                }
            },
            "name": "bushlets_white_garland",
            "pbrMetallicRoughness": {
                "baseColorTexture": {
                    "index": 0
                },
                "metallicRoughnessTexture": {
                    "index": 1
                }
            }
        }
    ],
    "meshes": [
        {
            "name": "bushlets_white_garland_albedo.006",
            "primitives": [
                {
                    "attributes": {
                        "POSITION": 0,
                        "NORMAL": 1,
                        "TEXCOORD_0": 2
                    },
                    "indices": 3,
                    "material": 0
                }
            ]
        }
    ],
    "textures": [
        {
            "sampler": 0,
            "source": 0
        },
        {
            "sampler": 0,
            "source": 1
        }
    ],
    "images": [
        {
            "extras": {
                "source_path": "assets/lib/textures/bushlets_white_garland_albedo.png"
            },
            "mimeType": "image/png",
            "name": "bushlets_white_garland_albedo",
            "uri": "../../textures/bushlets_white_garland_albedo.png"
        },
        {
            "extras": {
                "source_path": "assets/lib/textures/bushlets_white_garland_roughness.png"
            },
            "mimeType": "image/png",
            "name": "bushlets_white_garland_roughness",
            "uri": "../../textures/bushlets_white_garland_roughness.png"
        }
    ],
    "accessors": [
        {
            "bufferView": 0,
            "componentType": 5126,
            "count": 26,
            "max": [
                0.8875803351402283,
                1.3538212776184082,
                0.1728963851928711
            ],
            "min": [
                -0.057846903800964355,
                0.009857848286628723,
                -0.033777810633182526
            ],
            "type": "VEC3"
        },
        {
            "bufferView": 1,
            "componentType": 5126,
            "count": 26,
            "type": "VEC3"
        },
        {
            "bufferView": 2,
            "componentType": 5126,
            "count": 26,
            "type": "VEC2"
        },
        {
            "bufferView": 3,
            "componentType": 5123,
            "count": 60,
            "type": "SCALAR"
        }
    ],
    "bufferViews": [
        {
            "buffer": 0,
            "byteLength": 312,
            "byteOffset": 0,
            "target": 34962
        },
        {
            "buffer": 0,
            "byteLength": 312,
            "byteOffset": 312,
            "target": 34962
        },
        {
            "buffer": 0,
            "byteLength": 208,
            "byteOffset": 624,
            "target": 34962
        },
        {
            "buffer": 0,
            "byteLength": 120,
            "byteOffset": 832,
            "target": 34963
        }
    ],
    "samplers": [
        {
            "magFilter": 9729,
            "minFilter": 9987,
            "wrapS": 33071,
            "wrapT": 33071
        }
    ],
    "buffers": [
        {
            "byteLength": 952,
            "uri": "LI-bushlet_white_garland_003.bin"
        }
    ]
}